<svg xmlns="http://www.w3.org/2000/svg" xmlns:svg="http://www.w3.org/2000/svg" enable-background="new 0 0 450 450" version="1.1" xml:space="preserve" viewBox="77.11 32.19 281.78 81.62">
 <g class="layer" display="inline">
  <title>Layer 1</title>
  <g id="svg_1071" transform="translate(-408 -152) translate(448.82 -23.92)">
   <g id="svg_1072">
    <rect fill="#254254" height="35.48" id="svg_1073" transform="matrix(0.7603 -0.6496 0.6496 0.7603 -108.7396 175.6287)" width="0.14" x="183.51" y="217.41"/>
    <rect fill="#254254" height="35.48" id="svg_1074" transform="matrix(0.8276 -0.5614 0.5614 0.8276 -101.381 142.8522)" width="0.14" x="181.77" y="218.72"/>
    <circle cx="213.1" cy="233.84" fill="#254254" id="svg_1075" r="2.04"/>
    <g id="svg_1076">
     <rect fill="#466480" height="9.01" id="svg_1077" width="3.05" x="191.44" y="233.11"/>
     <rect fill="#254254" height="14.93" id="svg_1078" width="0.29" x="196.67" y="223.66"/>
     <rect fill="#254254" height="14.93" id="svg_1079" width="0.29" x="201.03" y="223.66"/>
     <rect fill="#466480" height="9.01" id="svg_1080" width="3.54" x="195.3" y="233.11"/>
     <rect fill="#466480" height="9.01" id="svg_1081" width="3.54" x="199.81" y="233.11"/>
     <polygon fill="#254254" id="svg_1082" points="205.985,255.535 190.929,255.535 190.929,240.224 204.709,240.224    "/>
     <polygon fill="#254254" id="svg_1083" points="186.846,259.108 171.79,259.108 171.79,243.796 185.57,243.796    "/>
     <rect fill="#254254" height="11.63" id="svg_1084" width="14.54" x="140.84" y="242.71"/>
     <rect fill="#254254" height="11.63" id="svg_1085" width="1.02" x="136.63" y="234.85"/>
     <rect fill="#254254" height="11.63" id="svg_1086" width="3.97" x="141.37" y="235.29"/>
     <rect fill="#254254" height="10.47" id="svg_1087" width="1.35" x="142.68" y="230.78"/>
     <polygon fill="#466480" id="svg_1088" points="127.824,251.719 147.53,251.719 147.53,238.924 131.682,238.924    "/>
     <polygon fill="#3B5972" id="svg_1089" points="222.202,258.453 207.146,258.453 207.146,243.141 220.926,243.141    "/>
     <polygon fill="#254254" id="svg_1090" points="228.696,254.769 213.641,254.769 213.641,239.458 227.421,239.458    "/>
     <polygon fill="#254254" id="svg_1091" points="153.161,259.108 138.105,259.108 138.105,243.796 151.885,243.796    "/>
     <rect fill="#3B5972" height="19.91" id="svg_1092" width="32.92" x="127.39" y="248.65"/>
     <rect fill="#3B5972" height="19.91" id="svg_1093" width="52.06" x="177.91" y="248.65"/>
     <polygon fill="#466480" id="svg_1094" points="232.524,254.514 212.365,262.425 212.365,243.796 230.483,243.796    "/>
     <polygon fill="#466480" id="svg_1095" points="214.406,252.983 155.713,252.983 155.713,256.811 129.939,256.811 129.939,270.846      188.632,270.846 188.632,267.018 214.406,267.018    "/>
     <rect fill="#254254" height="19.9" id="svg_1096" width="53.84" x="178.68" y="254.51"/>
     <polygon fill="#254254" id="svg_1097" points="164.39,271.612 164.134,260.639 153.013,260.639 150.609,258.342 91.917,258.342      91.917,269.315 105.442,269.315 105.442,271.612    "/>
     <rect fill="#254254" height="1.16" id="svg_1098" width="4.36" x="132.36" y="241.59"/>
     <rect fill="#254254" height="1.16" id="svg_1099" width="4.36" x="137.3" y="241.59"/>
     <rect fill="#254254" height="1.16" id="svg_1100" width="4.36" x="142.25" y="241.59"/>
     <rect fill="#254254" height="0.46" id="svg_1101" width="4.36" x="132.46" y="239.52"/>
     <rect fill="#254254" height="0.46" id="svg_1102" width="4.36" x="137.4" y="239.52"/>
     <rect fill="#254254" height="0.46" id="svg_1103" width="4.36" x="142.34" y="239.52"/>
     <g id="svg_1104">
      <g id="svg_1105">
       <rect fill="#3B5972" height="5.9" id="svg_1106" width="2.23" x="142.16" y="237.91"/>
      </g>
      <g id="svg_1107">
       <rect fill="#3B5972" height="5.9" id="svg_1108" width="2.59" x="144.98" y="237.91"/>
      </g>
      <g id="svg_1109">
       <rect fill="#3B5972" height="5.9" id="svg_1110" width="2.59" x="148.28" y="237.91"/>
      </g>
     </g>
     <path d="m140.33,257.24c0,0.41 -0.16,0.73 -0.36,0.73l-1.72,0c-0.2,0 -0.36,-0.33 -0.36,-0.73l0,0c0,-0.4 0.16,-0.72 0.36,-0.72l1.72,0c0.2,0 0.36,0.32 0.36,0.72l0,0z" fill="#254254" id="svg_1111"/>
     <path d="m142.92,257.24c0,0.41 -0.16,0.73 -0.36,0.73l-1.73,0c-0.2,0 -0.36,-0.33 -0.36,-0.73l0,0c0,-0.4 0.16,-0.72 0.36,-0.72l1.73,0c0.2,0 0.36,0.32 0.36,0.72l0,0z" fill="#254254" id="svg_1112"/>
     <path d="m145.5,257.24c0,0.41 -0.16,0.73 -0.35,0.73l-1.73,0c-0.2,0 -0.36,-0.33 -0.36,-0.73l0,0c0,-0.4 0.16,-0.72 0.36,-0.72l1.73,0c0.19,0 0.35,0.32 0.35,0.72l0,0z" fill="#254254" id="svg_1113"/>
     <path d="m148.09,257.24c0,0.41 -0.16,0.73 -0.36,0.73l-1.72,0c-0.2,0 -0.36,-0.33 -0.36,-0.73l0,0c0,-0.4 0.16,-0.72 0.36,-0.72l1.72,0c0.2,0 0.36,0.32 0.36,0.72l0,0z" fill="#254254" id="svg_1114"/>
     <path d="m150.68,257.24c0,0.41 -0.16,0.73 -0.36,0.73l-1.72,0c-0.2,0 -0.36,-0.33 -0.36,-0.73l0,0c0,-0.4 0.16,-0.72 0.36,-0.72l1.72,0c0.2,0 0.36,0.32 0.36,0.72l0,0z" fill="#254254" id="svg_1115"/>
     <path d="m140.33,255.6c0,0.4 -0.16,0.72 -0.36,0.72l-1.72,0c-0.2,0 -0.36,-0.32 -0.36,-0.72l0,0c0,-0.41 0.16,-0.73 0.36,-0.73l1.72,0c0.2,0 0.36,0.32 0.36,0.73l0,0z" fill="#254254" id="svg_1116"/>
     <path d="m142.92,255.6c0,0.4 -0.16,0.72 -0.36,0.72l-1.73,0c-0.2,0 -0.36,-0.32 -0.36,-0.72l0,0c0,-0.41 0.16,-0.73 0.36,-0.73l1.73,0c0.2,0 0.36,0.32 0.36,0.73l0,0z" fill="#254254" id="svg_1117"/>
     <path d="m145.5,255.6c0,0.4 -0.16,0.72 -0.35,0.72l-1.73,0c-0.2,0 -0.36,-0.32 -0.36,-0.72l0,0c0,-0.41 0.16,-0.73 0.36,-0.73l1.73,0c0.19,0 0.35,0.32 0.35,0.73l0,0z" fill="#254254" id="svg_1118"/>
     <path d="m148.09,255.6c0,0.4 -0.16,0.72 -0.36,0.72l-1.72,0c-0.2,0 -0.36,-0.32 -0.36,-0.72l0,0c0,-0.41 0.16,-0.73 0.36,-0.73l1.72,0c0.2,0 0.36,0.32 0.36,0.73l0,0z" fill="#254254" id="svg_1119"/>
     <path d="m150.68,255.6c0,0.4 -0.16,0.72 -0.36,0.72l-1.72,0c-0.2,0 -0.36,-0.32 -0.36,-0.72l0,0c0,-0.41 0.16,-0.73 0.36,-0.73l1.72,0c0.2,0 0.36,0.32 0.36,0.73l0,0z" fill="#254254" id="svg_1120"/>
     <path d="m152.75,256.07c0.17,1.43 0.89,2.5 1.76,2.5l12.02,0c0.87,0 1.59,-1.07 1.76,-2.5l-15.54,0z" fill="#254254" id="svg_1121"/>
     <rect fill="#3B5972" height="2.62" id="svg_1122" width="1.45" x="115.69" y="259.13"/>
     <rect fill="#3B5972" height="2.62" id="svg_1123" width="1.45" x="118.16" y="259.13"/>
     <rect fill="#3B5972" height="2.62" id="svg_1124" width="1.45" x="120.63" y="259.13"/>
     <rect fill="#3B5972" height="2.62" id="svg_1125" width="1.45" x="123.1" y="259.13"/>
     <rect fill="#3B5972" height="2.62" id="svg_1126" width="1.45" x="125.58" y="259.13"/>
     <rect fill="#3B5972" height="2.62" id="svg_1127" width="1.45" x="128.05" y="259.13"/>
     <rect fill="#3B5972" height="2.62" id="svg_1128" width="1.45" x="130.52" y="259.13"/>
     <rect fill="#3B5972" height="2.62" id="svg_1129" width="1.45" x="132.99" y="259.13"/>
     <rect fill="#3B5972" height="2.62" id="svg_1130" width="1.45" x="135.46" y="259.13"/>
     <rect fill="#3B5972" height="2.62" id="svg_1131" width="1.45" x="137.93" y="259.13"/>
     <rect fill="#3B5972" height="2.62" id="svg_1132" width="1.45" x="140.41" y="259.13"/>
     <rect fill="#3B5972" height="2.62" id="svg_1133" width="1.45" x="142.88" y="259.13"/>
     <rect fill="#3B5972" height="2.62" id="svg_1134" width="1.45" x="145.35" y="259.13"/>
     <rect fill="#3B5972" height="2.62" id="svg_1135" width="1.45" x="147.82" y="259.13"/>
     <rect fill="#254254" height="0.73" id="svg_1136" width="12.65" x="127.9" y="249.25"/>
     <rect fill="#254254" height="2.91" id="svg_1137" width="2.62" x="133.72" y="251.14"/>
     <rect fill="#254254" height="4.51" id="svg_1138" width="0.73" x="131.68" y="253.61"/>
     <rect fill="#254254" height="3.49" id="svg_1139" width="1.31" x="132.84" y="243.87"/>
     <rect fill="#254254" height="3.49" id="svg_1140" width="1.31" x="134.74" y="243.87"/>
     <rect fill="#254254" height="3.49" id="svg_1141" width="1.31" x="136.63" y="243.87"/>
     <rect fill="#254254" height="3.49" id="svg_1142" width="1.31" x="138.52" y="243.87"/>
     <rect fill="#254254" height="2.04" id="svg_1143" width="1.31" x="141.57" y="245.61"/>
     <rect fill="#254254" height="2.04" id="svg_1144" width="1.31" x="143.75" y="245.61"/>
     <rect fill="#254254" height="2.04" id="svg_1145" width="1.31" x="145.93" y="245.61"/>
     <polygon fill="#3B5972" id="svg_1146" points="119.251,256.444 116.743,256.444 116.525,256.444 114.017,256.444 113.799,256.444      111.291,256.444 111.073,256.444 108.565,256.444 108.347,256.444 105.839,256.444 105.621,256.444 103.113,256.444      102.895,256.444 100.386,256.444 100.168,256.444 97.66,256.444 97.442,256.444 94.934,256.444 94.716,256.444 92.208,256.444      91.99,256.444 91.99,256.662 91.99,258.334 92.208,258.334 92.208,256.662 94.716,256.662 94.716,258.334 94.934,258.334      94.934,256.662 97.442,256.662 97.442,258.334 97.66,258.334 97.66,256.662 100.168,256.662 100.168,258.334 100.386,258.334      100.386,256.662 100.641,256.662 100.641,258.262 101.295,258.262 101.295,256.662 102.895,256.662 102.895,258.334      103.113,258.334 103.113,256.662 105.621,256.662 105.621,258.334 105.839,258.334 105.839,256.662 106.529,256.662      106.529,258.262 107.184,258.262 107.184,256.662 108.347,256.662 108.347,258.334 108.565,258.334 108.565,256.662      111.073,256.662 111.073,258.334 111.291,258.334 111.291,256.662 113.799,256.662 113.799,258.334 114.017,258.334      114.017,256.662 116.525,256.662 116.525,258.334 116.743,258.334 116.743,256.662 119.251,256.662 119.251,258.334      119.469,258.334 119.469,256.444    "/>
     <rect fill="#466480" height="2.91" id="svg_1147" width="1.41" x="140.05" y="245.29"/>
     <rect fill="#466480" height="2.91" id="svg_1148" width="1.41" x="143.06" y="245.29"/>
     <rect fill="#466480" height="2.91" id="svg_1149" width="1.41" x="146.07" y="245.29"/>
     <rect fill="#466480" height="2.91" id="svg_1150" width="1.41" x="149.08" y="245.29"/>
     <rect fill="#254254" height="1.48" id="svg_1151" width="1.17" x="153.22" y="241.22"/>
     <rect fill="#254254" height="1.48" id="svg_1152" width="1.17" x="151.35" y="241.22"/>
     <rect fill="#466480" height="12.6" id="svg_1153" width="1.75" x="181.21" y="240.33"/>
     <rect fill="#466480" height="3" id="svg_1154" width="3.88" x="180.05" y="246.24"/>
     <rect fill="#254254" height="2.13" id="svg_1155" width="5.72" x="179.08" y="248.47"/>
     <rect fill="#466480" height="2.67" id="svg_1156" width="7.27" x="178.4" y="250.19"/>
     <rect fill="#466480" height="8.94" id="svg_1157" width="0.37" x="203.66" y="253.73"/>
     <rect fill="#466480" height="8.94" id="svg_1158" width="0.37" x="206.36" y="253.73"/>
     <rect fill="#254254" height="9.4" id="svg_1159" width="0.47" x="172.94" y="253.08"/>
     <rect fill="#254254" height="9.4" id="svg_1160" width="0.47" x="175.87" y="253.08"/>
     <rect fill="#466480" height="0.47" id="svg_1161" width="27.74" x="184.67" y="246.84"/>
     <rect fill="#466480" height="1.79" id="svg_1162" width="0.28" x="185.79" y="246.83"/>
     <rect fill="#466480" height="1.79" id="svg_1163" width="0.28" x="189.04" y="246.83"/>
     <rect fill="#466480" height="1.79" id="svg_1164" width="0.28" x="192.3" y="246.83"/>
     <rect fill="#466480" height="1.79" id="svg_1165" width="0.28" x="195.56" y="246.83"/>
     <rect fill="#466480" height="1.79" id="svg_1166" width="0.28" x="198.82" y="246.83"/>
     <rect fill="#466480" height="1.79" id="svg_1167" width="0.28" x="202.08" y="246.83"/>
     <rect fill="#466480" height="1.79" id="svg_1168" width="0.28" x="205.34" y="246.83"/>
     <rect fill="#466480" height="1.79" id="svg_1169" width="0.28" x="208.6" y="246.83"/>
     <rect fill="#466480" height="0.37" id="svg_1170" width="54.24" x="178.21" y="262.15"/>
    </g>
    <g id="svg_1171">
     <rect fill="#254254" height="0.26" id="svg_1172" width="17.67" x="265.11" y="258.93"/>
     <rect fill="#3B5972" height="1.23" id="svg_1173" width="3.94" x="267.74" y="258.4"/>
     <path d="m269.62,262.26l-4.26,0c-0.91,-0.46 -1.65,-1.32 -1.87,-2.32c-0.31,-1.48 0.63,-2.68 2.1,-2.68l2.75,0c1.48,0 1.85,1.2 2.16,2.68c0.21,1 -0.16,1.86 -0.88,2.32z" fill="#466480" id="svg_1174"/>
    </g>
    <rect fill="#466480" height="13.96" id="svg_1175" width="108.75" x="61.89" y="261.17"/>
    <path d="m267.55,260.27l-2.11,2.35l-192.24,0c-1.16,2.76 -6.73,4.85 -13.44,4.85l-23.47,0l0.89,6.78l266.36,0l14.53,-16.28l-50.52,2.3z" fill="#29516A" id="svg_1176"/>
    <path d="m303.47,273.91l-266.42,0l0.26,4.34c0.21,0 0.48,0 0.77,0.01l1.52,7.39l4.6,0l1.44,-6.98c2.59,0.16 5.65,0.37 9.02,0.61l0,2.28l-3.57,0l0,1.28l48.66,0c9.92,1.14 11.82,2.3 11.82,2.3s98.59,0 160.25,0c5.3,0 12.15,4.59 19.65,4.59c10.21,0 11.23,0.26 8.68,-4.34c-2.55,-4.59 3.32,-11.48 3.32,-11.48zm-246,5.57c8.25,0.6 18.05,1.34 27.61,2.08l-27.61,0l0,-2.08z" fill="#E4355C" id="svg_1177"/>
    <rect fill="#254254" height="2.66" id="svg_1178" width="5.23" x="69.33" y="258.5"/>
    <rect fill="#254254" height="1.64" id="svg_1179" width="3.34" x="70.28" y="256.03"/>
    <rect fill="#3B5972" height="1.21" id="svg_1180" width="6.78" x="68.63" y="258.41"/>
    <rect fill="#466480" height="4.94" id="svg_1181" width="3.49" x="37.85" y="262.6"/>
    <rect fill="#466480" height="4.94" id="svg_1182" width="3.49" x="43.72" y="262.6"/>
    <rect fill="#254254" height="0.99" id="svg_1183" width="3.49" x="37.85" y="263.08"/>
    <g id="svg_1184">
     <rect fill="#254254" height="0.26" id="svg_1185" width="9.99" x="47.85" y="264.13"/>
     <rect fill="#3B5972" height="1.23" id="svg_1186" width="3.94" x="51.27" y="263.61"/>
     <path d="m53.33,267.46l4.26,0c0.91,-0.46 1.65,-1.32 1.87,-2.32c0.31,-1.47 -0.63,-2.67 -2.11,-2.67l-2.75,0c-1.47,0 -1.84,1.19 -2.15,2.67c-0.22,1 0.16,1.86 0.88,2.32z" fill="#466480" id="svg_1187"/>
    </g>
    <rect fill="#254254" height="0.99" id="svg_1188" width="3.49" x="43.72" y="263.08"/>
    <rect fill="#254254" height="0.87" id="svg_1189" width="32.28" x="36.3" y="265.53"/>
    <path d="m75.67,258.87c-3.34,0 -6.94,0 -9.83,0c-2.05,0 0.24,-2.17 4.74,-2.17c4.07,0 5.28,0.13 6.9,0.13c0.5,0 1.25,2.04 -1.81,2.04z" fill="#466480" id="svg_1190"/>
    <rect fill="#254254" height="18.32" id="svg_1191" width="0.87" x="207.29" y="226.57"/>
    <rect fill="#466480" height="2.23" id="svg_1192" width="6.69" x="206.12" y="229.63"/>
    <rect fill="#254254" height="0.29" id="svg_1193" width="6.69" x="206.12" y="231.57"/>
    <polygon fill="#254254" id="svg_1194" points="207.722,234.483 207.722,234.772 212.811,231.864 212.811,231.575   "/>
    <rect fill="#466480" height="1.6" id="svg_1195" width="9.6" x="205.98" y="234.85"/>
    <rect fill="#254254" height="0.31" id="svg_1196" width="9.6" x="205.98" y="236.15"/>
    <polygon fill="#254254" id="svg_1197" points="214.697,243.868 214.115,243.868 212.37,236.307 212.952,236.307   "/>
    <rect fill="#254254" height="0.29" id="svg_1198" width="5.82" x="207.72" y="239.8"/>
    <polygon fill="#254254" id="svg_1199" points="213.974,240.233 207.722,236.598 207.722,236.307 213.974,239.942   "/>
    <polygon fill="#254254" id="svg_1200" points="214.338,243.795 208.086,240.16 208.086,239.87 214.338,243.504   "/>
    <polygon fill="#254254" id="svg_1201" points="214.022,239.87 207.77,243.504 207.77,243.795 214.022,240.16   "/>
    <polygon fill="#254254" id="svg_1202" points="212.811,236.307 207.722,239.942 207.722,240.233 212.811,236.598   "/>
    <rect fill="#254254" height="0.44" id="svg_1203" transform="matrix(0.7664 -0.6424 0.6424 0.7664 -100.5667 198.8859)" width="14.83" x="215.75" y="237.5"/>
    <rect fill="#3B5972" height="6.83" id="svg_1204" width="5.23" x="219.94" y="245.61"/>
    <rect fill="#254254" height="44.15" id="svg_1205" width="0.52" x="171.55" y="208.73"/>
    <polygon fill="#254254" id="svg_1206" points="165.299,221.187 165.818,221.187 162.765,252.882 162.246,252.882   "/>
    <rect fill="#254254" height="0.49" id="svg_1207" width="13.67" x="163.77" y="221.18"/>
    <rect fill="#254254" height="1.67" id="svg_1208" width="7.56" x="169.39" y="216.1"/>
    <rect fill="#254254" height="0.49" id="svg_1209" width="6.86" x="165.15" y="225.53"/>
    <rect fill="#254254" height="0.49" id="svg_1210" width="17.36" x="154.65" y="229.81"/>
    <polygon fill="#254254" id="svg_1211" points="172.009,234.662 159.307,234.662 159.134,234.172 172.009,234.172   "/>
    <rect fill="#254254" height="0.49" id="svg_1212" width="10.82" x="161.19" y="239.02"/>
    <rect fill="#254254" height="0.49" id="svg_1213" width="8.82" x="163.18" y="244.2"/>
    <rect fill="#254254" height="0.49" id="svg_1214" width="9.12" x="162.89" y="248.76"/>
    <polygon fill="#254254" id="svg_1215" points="172.009,253.007 162.893,249.589 162.893,249.099 172.009,252.517   "/>
    <polygon fill="#254254" id="svg_1216" points="171.908,248.398 163.436,244.98 163.436,244.49 171.908,247.908   "/>
    <polygon fill="#254254" id="svg_1217" points="171.952,239.403 164.353,234.822 164.353,234.332 171.952,238.913   "/>
    <polygon fill="#254254" id="svg_1218" points="171.84,244.408 163.853,239.827 163.853,239.337 171.84,243.918   "/>
    <polygon fill="#254254" id="svg_1219" points="171.714,234.569 164.801,230.569 164.801,230.079 171.714,234.079   "/>
    <polygon fill="#254254" id="svg_1220" points="171.811,230.249 165.278,226.347 165.278,225.857 171.811,229.759   "/>
    <polygon fill="#254254" id="svg_1221" points="172.101,225.835 165.615,221.932 165.615,221.442 172.101,225.345   "/>
    <polygon fill="#254254" id="svg_1222" points="165.285,225.822 171.771,221.919 171.771,221.429 165.285,225.332   "/>
    <polygon fill="#254254" id="svg_1223" points="171.956,225.855 175.199,221.952 175.199,221.462 171.956,225.365   "/>
    <polygon fill="#254254" id="svg_1224" points="164.638,230.115 171.691,226.212 171.691,225.722 164.638,229.625   "/>
    <polygon fill="#254254" id="svg_1225" points="164.213,234.578 171.751,230.288 171.751,229.798 164.213,234.088   "/>
    <polygon fill="#254254" id="svg_1226" points="163.766,239.157 171.86,234.866 171.86,234.376 163.766,238.667   "/>
    <polygon fill="#254254" id="svg_1227" points="163.161,244.444 171.643,239.669 171.643,239.179 163.161,243.954   "/>
    <polygon fill="#254254" id="svg_1228" points="162.723,249.069 171.69,244.779 171.69,244.289 162.723,248.579   "/>
    <polygon fill="#254254" id="svg_1229" points="162.262,252.892 171.714,249.086 171.714,248.596 162.262,252.402   "/>
    <polygon fill="#254254" id="svg_1230" points="163.286,244.543 157.372,230.482 157.465,229.999 163.379,244.06   "/>
    <rect fill="#254254" height="0.5" id="svg_1231" width="3.39" x="170.11" y="209.2"/>
    <rect fill="#254254" height="0.67" id="svg_1232" width="2.42" x="170.5" y="208.11"/>
    <rect fill="#254254" height="1.16" id="svg_1233" width="1.36" x="171.03" y="212.8"/>
    <rect fill="#254254" height="5.72" id="svg_1234" width="1.26" x="170.65" y="215.61"/>
    <polygon fill="#254254" id="svg_1235" points="163.766,219.296 163.766,221.526 164.153,221.526 164.153,219.587 176.851,219.587     176.851,221.526 177.238,221.526 177.238,219.296   "/>
    <rect fill="#254254" height="0.19" id="svg_1236" width="12.99" x="163.96" y="220.27"/>
    <rect fill="#254254" height="2.23" id="svg_1237" width="0.19" x="174.23" y="219.39"/>
    <rect fill="#254254" height="2.23" id="svg_1238" width="0.19" x="167.45" y="219.39"/>
    <polygon fill="#254254" id="svg_1239" points="170.746,221.233 170.552,221.233 169.676,217.65 169.87,217.65   "/>
    <polygon fill="#254254" id="svg_1240" points="171.473,220.991 171.279,220.991 175.54,217.214 175.734,217.214   "/>
    <path d="m162.29,223.37l-6.04,0c-1.28,0 -2.32,1.04 -2.32,2.32c0,1.29 1.04,2.33 2.32,2.33l6.04,0c1.28,0 2.32,-1.04 2.32,-2.33c0,-1.28 -1.04,-2.32 -2.32,-2.32zm0,4.48l-6.04,0c-1.18,0 -2.15,-0.97 -2.15,-2.16c0,-1.18 0.97,-2.15 2.15,-2.15l6.04,0c1.18,0 2.15,0.97 2.15,2.15c0,1.19 -0.97,2.16 -2.15,2.16z" fill="#254254" id="svg_1241"/>
    <rect fill="#254254" height="0.22" id="svg_1242" width="10.25" x="154.15" y="224.89"/>
    <rect fill="#254254" height="0.22" id="svg_1243" width="10.25" x="154.15" y="226.06"/>
    <rect fill="#254254" height="0.22" id="svg_1244" width="9.23" x="154.65" y="227.22"/>
    <rect fill="#254254" height="0.22" id="svg_1245" width="9.23" x="154.65" y="224.02"/>
    <rect fill="#254254" height="4.36" id="svg_1246" width="0.07" x="155.67" y="223.51"/>
    <rect fill="#254254" height="4.36" id="svg_1247" width="0.07" x="156.73" y="223.51"/>
    <rect fill="#254254" height="4.36" id="svg_1248" width="0.07" x="157.78" y="223.51"/>
    <rect fill="#254254" height="4.36" id="svg_1249" width="0.07" x="158.83" y="223.51"/>
    <rect fill="#254254" height="4.36" id="svg_1250" width="0.07" x="159.89" y="223.51"/>
    <rect fill="#254254" height="4.36" id="svg_1251" width="0.07" x="160.94" y="223.51"/>
    <rect fill="#254254" height="4.36" id="svg_1252" width="0.07" x="162" y="223.51"/>
    <rect fill="#254254" height="4.36" id="svg_1253" width="0.07" x="163.05" y="223.51"/>
    <rect fill="#254254" height="2.18" id="svg_1254" width="0.07" x="164.1" y="224.6"/>
    <rect fill="#254254" height="3.2" id="svg_1255" width="0.07" x="154.69" y="224.09"/>
    <rect fill="#254254" height="3.34" id="svg_1256" width="0.58" x="159.09" y="224.57"/>
    <rect fill="#254254" height="0.58" id="svg_1257" width="3.34" x="157.71" y="226.31"/>
    <rect fill="#254254" height="1.09" id="svg_1258" width="2.69" x="158.07" y="228.82"/>
    <rect fill="#254254" height="2.69" id="svg_1259" width="0.36" x="158.36" y="226.49"/>
    <rect fill="#254254" height="2.69" id="svg_1260" width="0.36" x="160.11" y="226.49"/>
   </g>
   <g id="svg_1261">
    <path d="m59.13,282.84c-0.61,-0.06 -1.22,-0.11 -1.82,-0.17l0,0.17l1.82,0z" fill="#F2736D" id="svg_1262"/>
    <g id="svg_1263">
     <path d="m299.51,282.57c0.12,-4.15 3.96,-8.66 3.96,-8.66l-266.42,0l0.16,2.73l262.3,5.93z" fill="#F2736D" id="svg_1264"/>
    </g>
   </g>
   <polygon fill="#254254" id="svg_1265" points="36.488,268.973 37.177,274.255 303.536,274.255 310.664,266.272  "/>
  </g>
 </g>
</svg>