<svg xmlns="http://www.w3.org/2000/svg" xmlns:svg="http://www.w3.org/2000/svg" enable-background="new 0 0 450 450" version="1.1" xml:space="preserve" viewBox="42.95 24.36 368.09 85.27">
 <g class="layer" display="inline">
  <title>Layer 1</title>
  <g id="svg_824" transform="translate(-399 -160) translate(406.435 156.765) matrix(1 0 0 1 0 2)">
   <g id="svg_825">
    <g id="svg_826">
     <path d="m161.71,47.37c0,0.6 -0.49,1.08 -1.09,1.08l-3.8,0c-0.6,0 -1.08,-0.48 -1.08,-1.08l0,-5.43c0,-0.6 0.48,-1.09 1.08,-1.09l3.8,0c0.6,0 1.09,0.49 1.09,1.09l0,5.43z" fill="#254254" id="svg_827"/>
     <rect fill="#254254" height="3.77" id="svg_828" width="2.22" x="156.79" y="46.4"/>
     <polygon fill="#254254" id="svg_829" points="133.01,58.47 129.205,58.47 130.156,42.962 132.059,42.962    "/>
     <polygon fill="#254254" id="svg_830" points="147.136,49.874 139.74,49.874 142.504,27.179 144.373,27.179    "/>
     <g id="svg_831">
      <rect fill="#466480" height="23.73" id="svg_832" width="35.77" x="127.78" y="56.6"/>
      <rect fill="#254254" height="4.12" id="svg_833" width="11.04" x="130.11" y="70.58"/>
      <polygon fill="#254254" id="svg_834" points="153.648,62.085 153.648,68.956 127.777,68.956 127.777,76.117 128.443,76.117       128.443,69.455 154.314,69.455 154.314,62.584 163.546,62.584 163.546,62.085     "/>
     </g>
     <g id="svg_835">
      <rect fill="#3B5972" height="2.62" id="svg_836" width="35.28" x="131.82" y="54.08"/>
      <rect fill="#254254" height="1.12" id="svg_837" width="35.28" x="131.82" y="53.16"/>
     </g>
     <g id="svg_838">
      <rect fill="#3B5972" height="0.81" id="svg_839" width="34.83" x="136.15" y="49.93"/>
      <rect fill="#254254" height="0.34" id="svg_840" width="34.83" x="136.15" y="49.64"/>
     </g>
     <g id="svg_841">
      <rect fill="#3B5972" height="1.86" id="svg_842" width="32.84" x="136.15" y="51.32"/>
      <rect fill="#254254" height="0.8" id="svg_843" width="32.84" x="136.15" y="50.67"/>
     </g>
     <polygon fill="#3B5972" id="svg_844" points="169.367,65.503 163.114,70.54 163.114,64.113 169.367,64.113    "/>
     <polygon fill="#3B5972" id="svg_845" points="124.058,57.101 128.187,58.939 128.187,56.594 124.058,56.594    "/>
     <polygon fill="#3B5972" id="svg_846" points="124.058,58.876 128.187,60.714 128.187,58.369 124.058,58.369    "/>
     <polygon fill="#3B5972" id="svg_847" points="124.058,60.651 128.187,62.49 128.187,60.144 124.058,60.144    "/>
     <path d="m126.67,43.53l2.71,2.77l3.12,0l2.71,-2.77l-8.54,0zm5.71,2.64l-2.89,0l-2.47,-2.52l7.83,0l-2.47,2.52z" fill="#254254" id="svg_848"/>
     <path d="m131.88,42.63c0,0.28 -0.22,0.5 -0.5,0.5l0,0c-0.28,0 -0.5,-0.23 -0.5,-0.5l0,-2.78c0,-0.27 0.23,-0.49 0.5,-0.49l0,0c0.28,0 0.5,0.22 0.5,0.49l0,2.78z" fill="#254254" id="svg_849"/>
     <polygon fill="#254254" id="svg_850" points="139.314,28.926 139.314,26.79 138.648,26.79 138.648,29.592 147.136,29.592      147.136,28.926    "/>
     <path d="m144.63,25.6l-3.66,0c-0.33,0 -0.6,0.27 -0.6,0.6l0,0.98c0,0.34 0.27,0.6 0.6,0.6l3.66,0c0.33,0 0.6,-0.26 0.6,-0.6l0,-0.98c0,-0.33 -0.27,-0.6 -0.6,-0.6zm0.4,1.58c0,0.23 -0.18,0.41 -0.4,0.41l-3.66,0c-0.22,0 -0.4,-0.18 -0.4,-0.41l0,-0.98c0,-0.22 0.18,-0.4 0.4,-0.4l3.66,0c0.22,0 0.4,0.18 0.4,0.4l0,0.98z" fill="#254254" id="svg_851"/>
     <rect fill="#254254" height="1.17" id="svg_852" width="0.42" x="146.55" y="28.22"/>
     <path d="m148.41,27.63c0,-0.16 -0.12,-0.29 -0.28,-0.29l-2.62,0c-0.15,0 -0.28,0.13 -0.28,0.29l0,0.7c0,0.16 0.13,0.29 0.28,0.29l2.62,0c0.15,0 0.28,-0.13 0.28,-0.29l0,-0.7z" fill="#3B5972" id="svg_853"/>
     <path d="m129.91,43.28c-0.28,0 -0.5,-0.22 -0.5,-0.5l0,0c0,-0.27 0.23,-0.5 0.5,-0.5l2.78,0c0.27,0 0.49,0.23 0.49,0.5l0,0c0,0.28 -0.22,0.5 -0.49,0.5l-2.78,0z" fill="#466480" id="svg_854"/>
     <path d="m126.8,43.96c-0.16,0 -0.3,-0.14 -0.3,-0.3l0,0c0,-0.17 0.14,-0.31 0.3,-0.31l3.11,0c0.17,0 0.31,0.14 0.31,0.31l0,0c0,0.16 -0.14,0.3 -0.31,0.3l-3.11,0z" fill="#466480" id="svg_855"/>
     <g id="svg_856">
      <rect fill="#466480" height="0.89" id="svg_857" width="15.64" x="135.65" y="34.2"/>
      <g id="svg_858">
       <path d="m135.71,35.06l4.41,3.3l6.72,0l4.4,-3.3l-15.53,0zm11.06,3.1l-6.59,0l-3.87,-2.9l14.33,0l-3.87,2.9z" fill="#254254" id="svg_859"/>
      </g>
     </g>
     <g id="svg_860">
      <rect fill="#466480" height="1.14" id="svg_861" width="20" x="133.47" y="40.33"/>
      <g id="svg_862">
       <path d="m133.54,41.43l5.64,4.22l8.59,0l5.64,-4.22l-19.87,0zm14.15,3.96l-8.43,0l-4.95,-3.71l18.33,0l-4.95,3.71z" fill="#254254" id="svg_863"/>
      </g>
     </g>
     <path d="m162.37,45.68c0,0.76 -0.62,1.38 -1.38,1.38l-4.82,0c-0.76,0 -1.38,-0.62 -1.38,-1.38l0,-6.89c0,-0.76 0.62,-1.38 1.38,-1.38l4.82,0c0.76,0 1.38,0.62 1.38,1.38l0,6.89z" fill="#466480" id="svg_864"/>
     <path d="m165.47,49.99c0,0.16 -0.14,0.3 -0.3,0.3l0,0c-0.17,0 -0.3,-0.14 -0.3,-0.3l0,-9.92c0,-0.17 0.13,-0.3 0.3,-0.3l0,0c0.16,0 0.3,0.13 0.3,0.3l0,9.92z" fill="#254254" id="svg_865"/>
     <path d="m167.48,50.06c0,0.12 -0.13,0.22 -0.3,0.22l0,0c-0.16,0 -0.3,-0.1 -0.3,-0.22l0,-7.54c0,-0.12 0.14,-0.22 0.3,-0.22l0,0c0.17,0 0.3,0.1 0.3,0.22l0,7.54z" fill="#254254" id="svg_866"/>
    </g>
    <rect fill="#466480" height="2.95" id="svg_867" width="8.59" x="159.8" y="54.82"/>
    <rect fill="#254254" height="1.18" id="svg_868" width="8.59" x="159.8" y="56.08"/>
    <rect fill="#466480" height="2.95" id="svg_869" width="8.59" x="159.8" y="57.68"/>
    <rect fill="#254254" height="1.18" id="svg_870" width="8.59" x="159.8" y="58.94"/>
    <rect fill="#466480" height="2.95" id="svg_871" width="8.59" x="159.8" y="60.54"/>
    <rect fill="#254254" height="1.18" id="svg_872" width="8.59" x="159.8" y="61.81"/>
   </g>
   <g id="svg_873">
    <path d="m392.24,90.63c-4.64,4.1 -2.91,6.74 -5.11,6.74l-347.6,0c-2.21,0 -3.99,-1.78 -3.99,-3.99l0,-14.6c1.14,-0.64 1.78,-0.39 3.99,-0.39l363.74,0c0.38,0 0.82,3.08 -0.93,4.96c-2.14,2.31 -4.31,2.16 -10.1,7.28z" fill="#466480" id="svg_874"/>
    <g id="svg_875">
     <path d="m395.01,97.55l-350.62,0c-3.52,0 -6.4,2.75 -6.63,6.22l7.08,0l0,1.77c0,1.47 1.19,2.66 2.66,2.66l3.11,0c1.47,0 2.66,-1.19 2.66,-2.66l0,-1.77l21.74,0c1.47,0 3.86,1.19 5.33,2.66l4.44,4.44l310.23,0c3.67,0 6.65,-2.98 6.65,-6.66c0,-3.68 -2.98,-6.66 -6.65,-6.66z" fill="#E4355C" id="svg_876"/>
     <path d="m401.39,102.35c-0.8,-2.77 -3.35,-4.8 -6.38,-4.8l-350.62,0c-3.02,0 -5.57,2.03 -6.38,4.8l363.38,0z" fill="#F2736D" id="svg_877"/>
    </g>
    <rect fill="#3B5972" height="16.95" id="svg_878" width="57.7" x="149.58" y="78.39"/>
    <rect fill="#3B5972" height="15.64" id="svg_879" width="27.85" x="292.71" y="76.03"/>
    <rect fill="#3B5972" height="16.95" id="svg_880" width="23.08" x="86.11" y="78.39"/>
    <g id="svg_881">
     <rect fill="#3B5972" height="11.54" id="svg_882" width="5.33" x="47.94" y="79.35"/>
     <rect fill="#3B5972" height="11.54" id="svg_883" width="5.33" x="55.05" y="79.35"/>
     <rect fill="#3B5972" height="11.54" id="svg_884" width="5.33" x="62.15" y="79.35"/>
     <rect fill="#3B5972" height="11.54" id="svg_885" width="5.33" x="69.25" y="79.35"/>
     <rect fill="#3B5972" height="11.54" id="svg_886" width="5.33" x="76.35" y="79.35"/>
    </g>
    <path d="m208.2,95.28c0,1.16 -0.94,2.1 -2.09,2.1l-168.5,0c-1.16,0 -2.09,-0.94 -2.09,-2.1l0,-0.35c0,-1.15 0.93,-2.09 2.09,-2.09l168.49,0c1.16,0 2.1,0.94 2.1,2.09l0,0.35z" fill="#254254" id="svg_887"/>
    <path d="m149.73,89.69c0,0.86 -0.71,1.57 -1.57,1.57l-37.84,0c-0.87,0 -1.57,-0.71 -1.57,-1.57l0,-0.27c0,-0.86 0.7,-1.57 1.57,-1.57l37.84,0c0.86,0 1.57,0.71 1.57,1.57l0,0.27z" fill="#254254" id="svg_888"/>
    <path d="m87.59,91.91c0,0.86 -0.7,1.57 -1.57,1.57l-37.84,0c-0.86,0 -1.57,-0.71 -1.57,-1.57l0,-0.27c0,-0.86 0.71,-1.57 1.57,-1.57l37.84,0c0.87,0 1.57,0.71 1.57,1.57l0,0.27z" fill="#254254" id="svg_889"/>
    <rect fill="#466480" height="6.21" id="svg_890" width="2.22" x="87.89" y="80.69"/>
    <rect fill="#466480" height="6.21" id="svg_891" width="2.22" x="92.1" y="80.69"/>
    <rect fill="#466480" height="6.21" id="svg_892" width="2.22" x="96.32" y="80.69"/>
    <rect fill="#466480" height="6.21" id="svg_893" width="2.22" x="100.54" y="80.69"/>
    <rect fill="#466480" height="6.21" id="svg_894" width="2.22" x="104.75" y="80.69"/>
    <rect fill="#254254" height="3.33" id="svg_895" width="57.55" x="149.5" y="80.69"/>
    <circle cx="152.43" cy="88.5" fill="#254254" id="svg_896" r="1.06"/>
    <path d="m158.3,88.5c0,0.58 -0.47,1.06 -1.06,1.06c-0.58,0 -1.06,-0.48 -1.06,-1.06s0.48,-1.06 1.06,-1.06c0.58,0 1.06,0.47 1.06,1.06z" fill="#254254" id="svg_897"/>
    <circle cx="162.05" cy="88.5" fill="#254254" id="svg_898" r="1.06"/>
    <path d="m167.92,88.5c0,0.58 -0.47,1.06 -1.06,1.06c-0.58,0 -1.06,-0.48 -1.06,-1.06s0.48,-1.06 1.06,-1.06c0.59,0 1.06,0.47 1.06,1.06z" fill="#254254" id="svg_899"/>
    <circle cx="171.67" cy="88.5" fill="#254254" id="svg_900" r="1.06"/>
    <path d="m177.54,88.5c0,0.58 -0.47,1.06 -1.05,1.06c-0.59,0 -1.06,-0.48 -1.06,-1.06s0.47,-1.06 1.06,-1.06c0.58,0 1.05,0.47 1.05,1.06z" fill="#254254" id="svg_901"/>
    <circle cx="181.3" cy="88.5" fill="#254254" id="svg_902" r="1.06"/>
    <path d="m187.17,88.5c0,0.58 -0.48,1.06 -1.06,1.06c-0.59,0 -1.06,-0.48 -1.06,-1.06s0.47,-1.06 1.06,-1.06c0.58,0 1.06,0.47 1.06,1.06z" fill="#254254" id="svg_903"/>
    <circle cx="190.92" cy="88.5" fill="#254254" id="svg_904" r="1.06"/>
    <path d="m196.79,88.5c0,0.58 -0.48,1.06 -1.06,1.06c-0.59,0 -1.06,-0.48 -1.06,-1.06s0.47,-1.06 1.06,-1.06c0.58,0 1.06,0.47 1.06,1.06z" fill="#254254" id="svg_905"/>
    <circle cx="200.54" cy="88.5" fill="#254254" id="svg_906" r="1.06"/>
    <path d="m212.59,92.89c0,0.59 -0.47,1.06 -1.06,1.06c-0.58,0 -1.06,-0.47 -1.06,-1.06c0,-0.58 0.48,-1.06 1.06,-1.06c0.59,0 1.06,0.48 1.06,1.06z" fill="#254254" id="svg_907"/>
    <circle cx="216.34" cy="92.89" fill="#254254" id="svg_908" r="1.06"/>
    <path d="m222.21,92.89c0,0.59 -0.47,1.06 -1.06,1.06c-0.58,0 -1.06,-0.47 -1.06,-1.06c0,-0.58 0.48,-1.06 1.06,-1.06c0.59,0 1.06,0.48 1.06,1.06z" fill="#254254" id="svg_909"/>
    <circle cx="225.97" cy="92.89" fill="#254254" id="svg_910" r="1.06"/>
    <path d="m231.84,92.89c0,0.59 -0.48,1.06 -1.06,1.06c-0.59,0 -1.06,-0.47 -1.06,-1.06c0,-0.58 0.47,-1.06 1.06,-1.06c0.58,0 1.06,0.48 1.06,1.06z" fill="#254254" id="svg_911"/>
    <circle cx="235.59" cy="92.89" fill="#254254" id="svg_912" r="1.06"/>
    <path d="m241.46,92.89c0,0.59 -0.48,1.06 -1.06,1.06c-0.59,0 -1.06,-0.47 -1.06,-1.06c0,-0.58 0.47,-1.06 1.06,-1.06c0.58,0 1.06,0.48 1.06,1.06z" fill="#254254" id="svg_913"/>
    <circle cx="245.21" cy="92.89" fill="#254254" id="svg_914" r="1.06"/>
    <path d="m251.08,92.89c0,0.59 -0.47,1.06 -1.06,1.06c-0.58,0 -1.06,-0.47 -1.06,-1.06c0,-0.58 0.48,-1.06 1.06,-1.06c0.58,0 1.06,0.48 1.06,1.06z" fill="#254254" id="svg_915"/>
    <circle cx="254.83" cy="92.89" fill="#254254" id="svg_916" r="1.06"/>
    <path d="m260.7,92.89c0,0.59 -0.47,1.06 -1.06,1.06c-0.58,0 -1.06,-0.47 -1.06,-1.06c0,-0.58 0.48,-1.06 1.06,-1.06c0.59,0 1.06,0.48 1.06,1.06z" fill="#254254" id="svg_917"/>
    <path d="m403.39,78.78c0.44,-1.55 0.14,-3.06 -0.12,-3.06l-363.74,0c-1.88,0 -3.46,1.31 -3.88,3.06l367.74,0z" fill="#254254" id="svg_918"/>
    <rect fill="#254254" height="1.33" id="svg_919" width="39.89" x="109.32" y="80.02"/>
    <rect fill="#254254" height="1.33" id="svg_920" width="39.89" x="109.32" y="81.77"/>
    <rect fill="#3B5972" height="4.66" id="svg_921" width="92.53" x="206.38" y="86.01"/>
    <rect fill="#254254" height="2.75" id="svg_922" width="11.02" x="209.81" y="81.32"/>
    <rect fill="#254254" height="2.75" id="svg_923" width="11.02" x="221.75" y="81.32"/>
    <rect fill="#254254" height="2.75" id="svg_924" width="11.02" x="233.69" y="81.32"/>
    <rect fill="#254254" height="2.75" id="svg_925" width="11.02" x="245.62" y="81.32"/>
    <rect fill="#254254" height="2.75" id="svg_926" width="11.02" x="257.1" y="81.32"/>
    <rect fill="#254254" height="2.75" id="svg_927" width="11.02" x="269.04" y="81.32"/>
    <rect fill="#254254" height="2.75" id="svg_928" width="11.02" x="281.43" y="81.32"/>
    <path d="m359.6,91.29c0,1.15 -0.94,2.09 -2.1,2.09l-91.88,0c-1.16,0 -2.09,-0.94 -2.09,-2.09l0,-0.35c0,-1.16 0.93,-2.09 2.09,-2.09l91.88,0c1.16,0 2.1,0.93 2.1,2.09l0,0.35z" fill="#254254" id="svg_929"/>
    <path d="m377.87,82.67c0,0.71 -0.58,1.3 -1.3,1.3l-57.15,0c-0.72,0 -1.31,-0.59 -1.31,-1.3l0,-0.22c0,-0.72 0.59,-1.3 1.31,-1.3l57.15,0c0.72,0 1.3,0.58 1.3,1.3l0,0.22z" fill="#254254" id="svg_930"/>
    <path d="m212.59,88.45c0,0.59 -0.47,1.06 -1.06,1.06c-0.58,0 -1.06,-0.47 -1.06,-1.06s0.48,-1.06 1.06,-1.06c0.59,0 1.06,0.48 1.06,1.06z" fill="#254254" id="svg_931"/>
    <circle cx="216.34" cy="88.45" fill="#254254" id="svg_932" r="1.06"/>
    <path d="m222.21,88.45c0,0.59 -0.47,1.06 -1.06,1.06c-0.58,0 -1.06,-0.47 -1.06,-1.06s0.48,-1.06 1.06,-1.06c0.59,0 1.06,0.48 1.06,1.06z" fill="#254254" id="svg_933"/>
    <circle cx="225.97" cy="88.45" fill="#254254" id="svg_934" r="1.06"/>
    <path d="m231.84,88.45c0,0.59 -0.48,1.06 -1.06,1.06c-0.59,0 -1.06,-0.47 -1.06,-1.06s0.47,-1.06 1.06,-1.06c0.58,0 1.06,0.48 1.06,1.06z" fill="#254254" id="svg_935"/>
    <circle cx="235.59" cy="88.45" fill="#254254" id="svg_936" r="1.06"/>
    <path d="m241.46,88.45c0,0.59 -0.48,1.06 -1.06,1.06c-0.59,0 -1.06,-0.47 -1.06,-1.06s0.47,-1.06 1.06,-1.06c0.58,0 1.06,0.48 1.06,1.06z" fill="#254254" id="svg_937"/>
    <circle cx="245.21" cy="88.45" fill="#254254" id="svg_938" r="1.06"/>
    <path d="m251.08,88.45c0,0.59 -0.47,1.06 -1.06,1.06c-0.58,0 -1.06,-0.47 -1.06,-1.06s0.48,-1.06 1.06,-1.06c0.58,0 1.06,0.48 1.06,1.06z" fill="#254254" id="svg_939"/>
    <circle cx="254.83" cy="88.45" fill="#254254" id="svg_940" r="1.06"/>
    <path d="m260.7,88.45c0,0.59 -0.47,1.06 -1.06,1.06c-0.58,0 -1.06,-0.47 -1.06,-1.06s0.48,-1.06 1.06,-1.06c0.59,0 1.06,0.48 1.06,1.06z" fill="#254254" id="svg_941"/>
   </g>
   <g id="svg_942">
    <polygon fill="#254254" id="svg_943" points="192.167,75.256 193.023,75.256 193.702,74.399 189.902,74.592   "/>
    <g id="svg_944">
     <path d="m195.37,74.08c-1.87,0.06 -9.54,0.28 -13.89,0.28c-0.01,0 -6.6,-0.29 -6.6,-0.29c-0.01,-0.05 -0.01,-0.1 0.02,-0.16c-0.19,-0.17 -0.4,-0.46 -0.56,-0.76l-1.21,-2.38c-0.01,0.04 0,0.1 0.03,0.16l1.13,2.73c0.14,0.29 0.32,0.58 0.48,0.75c-0.03,0.06 -0.03,0.12 -0.02,0.17c0,0 6.55,0.29 6.56,0.29c4.99,0 14.34,-0.29 14.34,-0.29c0,-0.18 -0.09,-0.34 -0.28,-0.5z" fill="#254254" id="svg_945"/>
     <path d="m195.65,74.33c0,-0.86 -2.24,-1.36 -5.71,-2.04c-2.29,-0.44 -5.28,0 -7.57,0.35c-0.49,0.07 -4.95,0.62 -5.64,0.62l-2.14,-2.41c-0.11,-0.13 -0.27,-0.23 -0.35,-0.23l-1.02,0c-0.08,0 -0.1,0.1 -0.05,0.23l1.13,2.55c0.13,0.3 0.31,0.59 0.48,0.76c-0.04,0.06 -0.04,0.12 -0.03,0.16c0,0 6.55,0.3 6.56,0.3c4.99,0 14.34,-0.29 14.34,-0.29z" fill="#3B5972" id="svg_946"/>
     <path d="m188.65,75.02c0,0.09 -0.07,0.17 -0.17,0.17l-10.04,0c-0.1,0 -0.17,-0.08 -0.17,-0.17l0,0c0,-0.09 0.07,-0.17 0.17,-0.17c0,0 5.22,-1.6 6.78,-1.55l3.26,1.55c0.1,0 0.17,0.08 0.17,0.17l0,0z" fill="#466480" id="svg_947"/>
     <path d="m188.65,75.02c0,0.09 -0.07,0.17 -0.17,0.17l-10.04,0c-0.1,0 -0.17,-0.08 -0.17,-0.17l0,0c0,-0.09 0.07,-0.17 0.17,-0.17l10.04,0c0.1,0 0.17,0.08 0.17,0.17l0,0z" fill="#254254" id="svg_948"/>
     <path d="m188.36,72.17l0.89,1.07c0.21,0.26 0.56,0.45 0.8,0.45l5.12,0c-0.83,-0.51 -2.7,-0.91 -5.23,-1.4c-0.4,-0.07 -0.94,-0.11 -1.58,-0.12z" fill="#254254" id="svg_949"/>
    </g>
    <path d="m183.67,75.28c0,0.25 -0.2,0.45 -0.45,0.45l-0.2,0c-0.25,0 -0.45,-0.2 -0.45,-0.45l0,0c0,-0.24 0.2,-0.44 0.45,-0.44l0.2,0c0.25,0 0.45,0.2 0.45,0.44l0,0z" fill="#3B5972" id="svg_950"/>
    <path d="m183.14,75.28c0,0.25 -0.2,0.45 -0.45,0.45l-0.2,0c-0.25,0 -0.45,-0.2 -0.45,-0.45l0,0c0,-0.24 0.2,-0.44 0.45,-0.44l0.2,0c0.25,0 0.45,0.2 0.45,0.44l0,0z" fill="#254254" id="svg_951"/>
    <path d="m193.35,75.28c0,0.25 -0.2,0.45 -0.44,0.45l-0.21,0c-0.25,0 -0.45,-0.2 -0.45,-0.45l0,0c0,-0.24 0.2,-0.44 0.45,-0.44l0.21,0c0.24,0 0.44,0.2 0.44,0.44l0,0z" fill="#3B5972" id="svg_952"/>
    <path d="m192.82,75.28c0,0.25 -0.2,0.45 -0.45,0.45l-0.2,0c-0.25,0 -0.45,-0.2 -0.45,-0.45l0,0c0,-0.24 0.2,-0.44 0.45,-0.44l0.2,0c0.25,0 0.45,0.2 0.45,0.44l0,0z" fill="#254254" id="svg_953"/>
   </g>
   <g id="svg_954">
    <polygon fill="#254254" id="svg_955" points="215.301,75.256 216.157,75.256 216.836,74.399 213.036,74.592   "/>
    <g id="svg_956">
     <path d="m218.51,74.08c-1.87,0.06 -9.54,0.28 -13.9,0.28c-0.01,0 -6.59,-0.29 -6.59,-0.29c-0.02,-0.05 -0.01,-0.1 0.01,-0.16c-0.18,-0.17 -0.39,-0.46 -0.55,-0.76l-1.22,-2.38c-0.01,0.04 0,0.1 0.03,0.16l1.14,2.73c0.13,0.29 0.31,0.58 0.48,0.75c-0.03,0.06 -0.04,0.12 -0.03,0.17c0,0 6.56,0.29 6.56,0.29c4.99,0 14.35,-0.29 14.35,-0.29c0,-0.18 -0.1,-0.34 -0.28,-0.5z" fill="#254254" id="svg_957"/>
     <path d="m218.79,74.33c0,-0.86 -2.24,-1.36 -5.72,-2.04c-2.29,-0.44 -5.28,0 -7.57,0.35c-0.48,0.07 -4.95,0.62 -5.64,0.62l-2.14,-2.41c-0.11,-0.13 -0.26,-0.23 -0.34,-0.23l-1.02,0c-0.08,0 -0.11,0.1 -0.05,0.23l1.12,2.55c0.13,0.3 0.32,0.59 0.48,0.76c-0.03,0.06 -0.04,0.12 -0.03,0.16c0,0 6.56,0.3 6.57,0.3c4.98,0 14.34,-0.29 14.34,-0.29z" fill="#3B5972" id="svg_958"/>
     <path d="m211.79,75.02c0,0.09 -0.08,0.17 -0.17,0.17l-10.05,0c-0.09,0 -0.17,-0.08 -0.17,-0.17l0,0c0,-0.09 0.08,-0.17 0.17,-0.17c0,0 5.23,-1.6 6.78,-1.55l3.27,1.55c0.09,0 0.17,0.08 0.17,0.17l0,0z" fill="#466480" id="svg_959"/>
     <path d="m211.79,75.02c0,0.09 -0.08,0.17 -0.17,0.17l-10.05,0c-0.09,0 -0.17,-0.08 -0.17,-0.17l0,0c0,-0.09 0.08,-0.17 0.17,-0.17l10.05,0c0.09,0 0.17,0.08 0.17,0.17l0,0z" fill="#254254" id="svg_960"/>
     <path d="m211.5,72.17l0.88,1.07c0.21,0.26 0.57,0.45 0.8,0.45l5.13,0c-0.84,-0.51 -2.71,-0.91 -5.24,-1.4c-0.39,-0.07 -0.94,-0.11 -1.57,-0.12z" fill="#254254" id="svg_961"/>
    </g>
    <path d="m206.8,75.28c0,0.25 -0.2,0.45 -0.44,0.45l-0.21,0c-0.24,0 -0.44,-0.2 -0.44,-0.45l0,0c0,-0.24 0.2,-0.44 0.44,-0.44l0.21,0c0.24,0 0.44,0.2 0.44,0.44l0,0z" fill="#3B5972" id="svg_962"/>
    <path d="m206.27,75.28c0,0.25 -0.2,0.45 -0.44,0.45l-0.21,0c-0.24,0 -0.44,-0.2 -0.44,-0.45l0,0c0,-0.24 0.2,-0.44 0.44,-0.44l0.21,0c0.24,0 0.44,0.2 0.44,0.44l0,0z" fill="#254254" id="svg_963"/>
    <path d="m216.48,75.28c0,0.25 -0.2,0.45 -0.44,0.45l-0.21,0c-0.24,0 -0.44,-0.2 -0.44,-0.45l0,0c0,-0.24 0.2,-0.44 0.44,-0.44l0.21,0c0.24,0 0.44,0.2 0.44,0.44l0,0z" fill="#3B5972" id="svg_964"/>
    <path d="m215.95,75.28c0,0.25 -0.2,0.45 -0.44,0.45l-0.21,0c-0.24,0 -0.44,-0.2 -0.44,-0.45l0,0c0,-0.24 0.19,-0.44 0.44,-0.44l0.21,0c0.24,0 0.44,0.2 0.44,0.44l0,0z" fill="#254254" id="svg_965"/>
   </g>
   <g id="svg_966">
    <polygon fill="#254254" id="svg_967" points="238.435,75.256 239.291,75.256 239.97,74.399 236.17,74.592   "/>
    <g id="svg_968">
     <path d="m241.64,74.08c-1.87,0.06 -9.54,0.28 -13.9,0.28c0,0 -6.59,-0.29 -6.59,-0.29c-0.01,-0.05 -0.01,-0.1 0.01,-0.16c-0.18,-0.17 -0.39,-0.46 -0.55,-0.76l-1.21,-2.38c-0.01,0.04 -0.01,0.1 0.02,0.16l1.14,2.73c0.13,0.29 0.32,0.58 0.48,0.75c-0.03,0.06 -0.04,0.12 -0.03,0.17c0,0 6.56,0.29 6.57,0.29c4.98,0 14.34,-0.29 14.34,-0.29c0,-0.18 -0.1,-0.34 -0.28,-0.5z" fill="#254254" id="svg_969"/>
     <path d="m241.92,74.33c0,-0.86 -2.24,-1.36 -5.71,-2.04c-2.29,-0.44 -5.28,0 -7.57,0.35c-0.49,0.07 -4.96,0.62 -5.65,0.62l-2.13,-2.41c-0.12,-0.13 -0.27,-0.23 -0.35,-0.23l-1.02,0c-0.08,0 -0.1,0.1 -0.05,0.23l1.12,2.55c0.13,0.3 0.32,0.59 0.48,0.76c-0.03,0.06 -0.03,0.12 -0.02,0.16c0,0 6.55,0.3 6.56,0.3c4.98,0 14.34,-0.29 14.34,-0.29z" fill="#3B5972" id="svg_970"/>
     <path d="m234.92,75.02c0,0.09 -0.08,0.17 -0.17,0.17l-10.05,0c-0.09,0 -0.17,-0.08 -0.17,-0.17l0,0c0,-0.09 0.08,-0.17 0.17,-0.17c0,0 5.23,-1.6 6.79,-1.55l3.26,1.55c0.09,0 0.17,0.08 0.17,0.17l0,0z" fill="#466480" id="svg_971"/>
     <path d="m234.92,75.02c0,0.09 -0.08,0.17 -0.17,0.17l-10.05,0c-0.09,0 -0.17,-0.08 -0.17,-0.17l0,0c0,-0.09 0.08,-0.17 0.17,-0.17l10.05,0c0.09,0 0.17,0.08 0.17,0.17l0,0z" fill="#254254" id="svg_972"/>
     <path d="m234.63,72.17l0.89,1.07c0.21,0.26 0.56,0.45 0.8,0.45l5.12,0c-0.83,-0.51 -2.71,-0.91 -5.23,-1.4c-0.4,-0.07 -0.94,-0.11 -1.58,-0.12z" fill="#254254" id="svg_973"/>
    </g>
    <path d="m229.94,75.28c0,0.25 -0.2,0.45 -0.45,0.45l-0.2,0c-0.25,0 -0.45,-0.2 -0.45,-0.45l0,0c0,-0.24 0.2,-0.44 0.45,-0.44l0.2,0c0.25,0 0.45,0.2 0.45,0.44l0,0z" fill="#3B5972" id="svg_974"/>
    <path d="m229.4,75.28c0,0.25 -0.19,0.45 -0.44,0.45l-0.21,0c-0.24,0 -0.44,-0.2 -0.44,-0.45l0,0c0,-0.24 0.2,-0.44 0.44,-0.44l0.21,0c0.25,0 0.44,0.2 0.44,0.44l0,0z" fill="#254254" id="svg_975"/>
    <path d="m239.62,75.28c0,0.25 -0.2,0.45 -0.45,0.45l-0.2,0c-0.25,0 -0.45,-0.2 -0.45,-0.45l0,0c0,-0.24 0.2,-0.44 0.45,-0.44l0.2,0c0.25,0 0.45,0.2 0.45,0.44l0,0z" fill="#3B5972" id="svg_976"/>
    <path d="m239.08,75.28c0,0.25 -0.19,0.45 -0.44,0.45l-0.21,0c-0.24,0 -0.44,-0.2 -0.44,-0.45l0,0c0,-0.24 0.2,-0.44 0.44,-0.44l0.21,0c0.25,0 0.44,0.2 0.44,0.44l0,0z" fill="#254254" id="svg_977"/>
   </g>
   <g id="svg_978">
    <polygon fill="#254254" id="svg_979" points="261.568,75.256 262.425,75.256 263.103,74.399 259.304,74.592   "/>
    <g id="svg_980">
     <path d="m264.77,74.08c-1.87,0.06 -9.53,0.28 -13.89,0.28c-0.01,0 -6.59,-0.29 -6.59,-0.29c-0.02,-0.05 -0.02,-0.1 0.01,-0.16c-0.18,-0.17 -0.4,-0.46 -0.56,-0.76l-1.21,-2.38c-0.01,0.04 0,0.1 0.03,0.16l1.14,2.73c0.13,0.29 0.31,0.58 0.48,0.75c-0.04,0.06 -0.04,0.12 -0.03,0.17c0,0 6.55,0.29 6.56,0.29c4.99,0 14.35,-0.29 14.35,-0.29c0,-0.18 -0.1,-0.34 -0.29,-0.5z" fill="#254254" id="svg_981"/>
     <path d="m265.06,74.33c0,-0.86 -2.25,-1.36 -5.72,-2.04c-2.29,-0.44 -5.28,0 -7.57,0.35c-0.48,0.07 -4.95,0.62 -5.64,0.62l-2.14,-2.41c-0.11,-0.13 -0.27,-0.23 -0.35,-0.23l-1.02,0c-0.08,0 -0.1,0.1 -0.04,0.23l1.12,2.55c0.13,0.3 0.31,0.59 0.48,0.76c-0.03,0.06 -0.04,0.12 -0.03,0.16c0,0 6.56,0.3 6.56,0.3c4.99,0 14.35,-0.29 14.35,-0.29z" fill="#3B5972" id="svg_982"/>
     <path d="m258.05,75.02c0,0.09 -0.07,0.17 -0.16,0.17l-10.05,0c-0.1,0 -0.17,-0.08 -0.17,-0.17l0,0c0,-0.09 0.07,-0.17 0.17,-0.17c0,0 5.22,-1.6 6.78,-1.55l3.27,1.55c0.09,0 0.16,0.08 0.16,0.17l0,0z" fill="#466480" id="svg_983"/>
     <path d="m258.05,75.02c0,0.09 -0.07,0.17 -0.16,0.17l-10.05,0c-0.1,0 -0.17,-0.08 -0.17,-0.17l0,0c0,-0.09 0.07,-0.17 0.17,-0.17l10.05,0c0.09,0 0.16,0.08 0.16,0.17l0,0z" fill="#254254" id="svg_984"/>
     <path d="m257.76,72.17l0.89,1.07c0.21,0.26 0.56,0.45 0.8,0.45l5.12,0c-0.83,-0.51 -2.7,-0.91 -5.23,-1.4c-0.4,-0.07 -0.94,-0.11 -1.58,-0.12z" fill="#254254" id="svg_985"/>
    </g>
    <path d="m253.07,75.28c0,0.25 -0.2,0.45 -0.44,0.45l-0.21,0c-0.25,0 -0.44,-0.2 -0.44,-0.45l0,0c0,-0.24 0.19,-0.44 0.44,-0.44l0.21,0c0.24,0 0.44,0.2 0.44,0.44l0,0z" fill="#3B5972" id="svg_986"/>
    <path d="m252.54,75.28c0,0.25 -0.2,0.45 -0.45,0.45l-0.2,0c-0.25,0 -0.45,-0.2 -0.45,-0.45l0,0c0,-0.24 0.2,-0.44 0.45,-0.44l0.2,0c0.25,0 0.45,0.2 0.45,0.44l0,0z" fill="#254254" id="svg_987"/>
    <path d="m262.75,75.28c0,0.25 -0.2,0.45 -0.44,0.45l-0.21,0c-0.24,0 -0.44,-0.2 -0.44,-0.45l0,0c0,-0.24 0.2,-0.44 0.44,-0.44l0.21,0c0.24,0 0.44,0.2 0.44,0.44l0,0z" fill="#3B5972" id="svg_988"/>
    <path d="m262.22,75.28c0,0.25 -0.2,0.45 -0.44,0.45l-0.21,0c-0.25,0 -0.44,-0.2 -0.44,-0.45l0,0c0,-0.24 0.19,-0.44 0.44,-0.44l0.21,0c0.24,0 0.44,0.2 0.44,0.44l0,0z" fill="#254254" id="svg_989"/>
   </g>
   <g id="svg_990">
    <polygon fill="#254254" id="svg_991" points="307.836,75.256 308.692,75.256 309.371,74.399 305.571,74.592   "/>
    <g id="svg_992">
     <path d="m311.04,74.08c-1.87,0.06 -9.54,0.28 -13.89,0.28c-0.01,0 -6.6,-0.29 -6.6,-0.29c-0.01,-0.05 -0.01,-0.1 0.02,-0.16c-0.19,-0.17 -0.4,-0.46 -0.56,-0.76l-1.21,-2.38c-0.01,0.04 0,0.1 0.02,0.16l1.14,2.73c0.13,0.29 0.32,0.58 0.48,0.75c-0.03,0.06 -0.03,0.12 -0.02,0.17c0,0 6.55,0.29 6.56,0.29c4.99,0 14.34,-0.29 14.34,-0.29c0,-0.18 -0.09,-0.34 -0.28,-0.5z" fill="#254254" id="svg_993"/>
     <path d="m311.32,74.33c0,-0.86 -2.24,-1.36 -5.71,-2.04c-2.29,-0.44 -5.28,0 -7.57,0.35c-0.49,0.07 -4.96,0.62 -5.65,0.62l-2.13,-2.41c-0.12,-0.13 -0.27,-0.23 -0.35,-0.23l-1.02,0c-0.08,0 -0.1,0.1 -0.05,0.23l1.13,2.55c0.13,0.3 0.31,0.59 0.48,0.76c-0.04,0.06 -0.04,0.12 -0.03,0.16c0,0 6.55,0.3 6.56,0.3c4.98,0 14.34,-0.29 14.34,-0.29z" fill="#3B5972" id="svg_994"/>
     <path d="m304.32,75.02c0,0.09 -0.07,0.17 -0.17,0.17l-10.04,0c-0.1,0 -0.17,-0.08 -0.17,-0.17l0,0c0,-0.09 0.07,-0.17 0.17,-0.17c0,0 5.22,-1.6 6.78,-1.55l3.26,1.55c0.1,0 0.17,0.08 0.17,0.17l0,0z" fill="#466480" id="svg_995"/>
     <path d="m304.32,75.02c0,0.09 -0.07,0.17 -0.17,0.17l-10.04,0c-0.1,0 -0.17,-0.08 -0.17,-0.17l0,0c0,-0.09 0.07,-0.17 0.17,-0.17l10.04,0c0.1,0 0.17,0.08 0.17,0.17l0,0z" fill="#254254" id="svg_996"/>
     <path d="m304.03,72.17l0.89,1.07c0.21,0.26 0.56,0.45 0.8,0.45l5.12,0c-0.83,-0.51 -2.71,-0.91 -5.23,-1.4c-0.4,-0.07 -0.94,-0.11 -1.58,-0.12z" fill="#254254" id="svg_997"/>
    </g>
    <path d="m299.34,75.28c0,0.25 -0.2,0.45 -0.45,0.45l-0.2,0c-0.25,0 -0.45,-0.2 -0.45,-0.45l0,0c0,-0.24 0.2,-0.44 0.45,-0.44l0.2,0c0.25,0 0.45,0.2 0.45,0.44l0,0z" fill="#3B5972" id="svg_998"/>
    <path d="m298.81,75.28c0,0.25 -0.2,0.45 -0.45,0.45l-0.2,0c-0.25,0 -0.45,-0.2 -0.45,-0.45l0,0c0,-0.24 0.2,-0.44 0.45,-0.44l0.2,0c0.25,0 0.45,0.2 0.45,0.44l0,0z" fill="#254254" id="svg_999"/>
    <path d="m309.02,75.28c0,0.25 -0.2,0.45 -0.45,0.45l-0.2,0c-0.25,0 -0.45,-0.2 -0.45,-0.45l0,0c0,-0.24 0.2,-0.44 0.45,-0.44l0.2,0c0.25,0 0.45,0.2 0.45,0.44l0,0z" fill="#3B5972" id="svg_1000"/>
    <path d="m308.49,75.28c0,0.25 -0.2,0.45 -0.45,0.45l-0.2,0c-0.25,0 -0.45,-0.2 -0.45,-0.45l0,0c0,-0.24 0.2,-0.44 0.45,-0.44l0.2,0c0.25,0 0.45,0.2 0.45,0.44l0,0z" fill="#254254" id="svg_1001"/>
   </g>
   <g id="svg_1002">
    <polygon fill="#254254" id="svg_1003" points="330.97,75.256 331.826,75.256 332.505,74.399 328.705,74.592   "/>
    <g id="svg_1004">
     <path d="m334.18,74.08c-1.87,0.06 -9.54,0.28 -13.9,0.28c-0.01,0 -6.59,-0.29 -6.59,-0.29c-0.02,-0.05 -0.02,-0.1 0.01,-0.16c-0.18,-0.17 -0.4,-0.46 -0.56,-0.76l-1.21,-2.38c-0.01,0.04 0,0.1 0.03,0.16l1.14,2.73c0.13,0.29 0.31,0.58 0.48,0.75c-0.03,0.06 -0.04,0.12 -0.03,0.17c0,0 6.56,0.29 6.56,0.29c4.99,0 14.35,-0.29 14.35,-0.29c0,-0.18 -0.1,-0.34 -0.28,-0.5z" fill="#254254" id="svg_1005"/>
     <path d="m334.46,74.33c0,-0.86 -2.24,-1.36 -5.72,-2.04c-2.29,-0.44 -5.28,0 -7.57,0.35c-0.48,0.07 -4.95,0.62 -5.64,0.62l-2.14,-2.41c-0.11,-0.13 -0.26,-0.23 -0.35,-0.23l-1.01,0c-0.09,0 -0.11,0.1 -0.05,0.23l1.12,2.55c0.13,0.3 0.31,0.59 0.48,0.76c-0.03,0.06 -0.04,0.12 -0.03,0.16c0,0 6.56,0.3 6.56,0.3c4.99,0 14.35,-0.29 14.35,-0.29z" fill="#3B5972" id="svg_1006"/>
     <path d="m327.45,75.02c0,0.09 -0.07,0.17 -0.16,0.17l-10.05,0c-0.1,0 -0.17,-0.08 -0.17,-0.17l0,0c0,-0.09 0.07,-0.17 0.17,-0.17c0,0 5.22,-1.6 6.78,-1.55l3.27,1.55c0.09,0 0.16,0.08 0.16,0.17l0,0z" fill="#466480" id="svg_1007"/>
     <path d="m327.45,75.02c0,0.09 -0.07,0.17 -0.16,0.17l-10.05,0c-0.1,0 -0.17,-0.08 -0.17,-0.17l0,0c0,-0.09 0.07,-0.17 0.17,-0.17l10.05,0c0.09,0 0.16,0.08 0.16,0.17l0,0z" fill="#254254" id="svg_1008"/>
     <path d="m327.16,72.17l0.89,1.07c0.21,0.26 0.57,0.45 0.8,0.45l5.13,0c-0.84,-0.51 -2.71,-0.91 -5.24,-1.4c-0.39,-0.07 -0.94,-0.11 -1.58,-0.12z" fill="#254254" id="svg_1009"/>
    </g>
    <path d="m322.47,75.28c0,0.25 -0.2,0.45 -0.44,0.45l-0.21,0c-0.24,0 -0.44,-0.2 -0.44,-0.45l0,0c0,-0.24 0.2,-0.44 0.44,-0.44l0.21,0c0.24,0 0.44,0.2 0.44,0.44l0,0z" fill="#3B5972" id="svg_1010"/>
    <path d="m321.94,75.28c0,0.25 -0.2,0.45 -0.44,0.45l-0.21,0c-0.24,0 -0.44,-0.2 -0.44,-0.45l0,0c0,-0.24 0.2,-0.44 0.44,-0.44l0.21,0c0.24,0 0.44,0.2 0.44,0.44l0,0z" fill="#254254" id="svg_1011"/>
    <path d="m332.15,75.28c0,0.25 -0.2,0.45 -0.44,0.45l-0.21,0c-0.24,0 -0.44,-0.2 -0.44,-0.45l0,0c0,-0.24 0.2,-0.44 0.44,-0.44l0.21,0c0.24,0 0.44,0.2 0.44,0.44l0,0z" fill="#3B5972" id="svg_1012"/>
    <path d="m331.62,75.28c0,0.25 -0.2,0.45 -0.44,0.45l-0.21,0c-0.25,0 -0.44,-0.2 -0.44,-0.45l0,0c0,-0.24 0.19,-0.44 0.44,-0.44l0.21,0c0.24,0 0.44,0.2 0.44,0.44l0,0z" fill="#254254" id="svg_1013"/>
   </g>
   <g id="svg_1014">
    <polygon fill="#254254" id="svg_1015" points="377.237,75.256 378.093,75.256 378.772,74.399 374.973,74.592   "/>
    <g id="svg_1016">
     <path d="m380.44,74.08c-1.87,0.06 -9.54,0.28 -13.89,0.28c-0.01,0 -6.6,-0.29 -6.6,-0.29c-0.01,-0.05 -0.01,-0.1 0.02,-0.16c-0.19,-0.17 -0.4,-0.46 -0.56,-0.76l-1.21,-2.38c-0.01,0.04 0,0.1 0.03,0.16l1.14,2.73c0.13,0.29 0.31,0.58 0.48,0.75c-0.04,0.06 -0.04,0.12 -0.03,0.17c0,0 6.55,0.29 6.56,0.29c4.99,0 14.35,-0.29 14.35,-0.29c-0.01,-0.18 -0.1,-0.34 -0.29,-0.5z" fill="#254254" id="svg_1017"/>
     <path d="m380.72,74.33c0,-0.86 -2.24,-1.36 -5.71,-2.04c-2.29,-0.44 -5.28,0 -7.57,0.35c-0.49,0.07 -4.96,0.62 -5.65,0.62l-2.13,-2.41c-0.12,-0.13 -0.27,-0.23 -0.35,-0.23l-1.02,0c-0.08,0 -0.1,0.1 -0.05,0.23l1.13,2.55c0.13,0.3 0.31,0.59 0.48,0.76c-0.04,0.06 -0.04,0.12 -0.03,0.16c0,0 6.55,0.3 6.56,0.3c4.99,0 14.34,-0.29 14.34,-0.29z" fill="#3B5972" id="svg_1018"/>
     <path d="m373.72,75.02c0,0.09 -0.07,0.17 -0.16,0.17l-10.05,0c-0.1,0 -0.17,-0.08 -0.17,-0.17l0,0c0,-0.09 0.07,-0.17 0.17,-0.17c0,0 5.22,-1.6 6.78,-1.55l3.27,1.55c0.09,0 0.16,0.08 0.16,0.17l0,0z" fill="#466480" id="svg_1019"/>
     <path d="m373.72,75.02c0,0.09 -0.07,0.17 -0.16,0.17l-10.05,0c-0.1,0 -0.17,-0.08 -0.17,-0.17l0,0c0,-0.09 0.07,-0.17 0.17,-0.17l10.05,0c0.09,0 0.16,0.08 0.16,0.17l0,0z" fill="#254254" id="svg_1020"/>
     <path d="m373.43,72.17l0.89,1.07c0.21,0.26 0.56,0.45 0.8,0.45l5.12,0c-0.83,-0.51 -2.7,-0.91 -5.23,-1.4c-0.4,-0.07 -0.94,-0.11 -1.58,-0.12z" fill="#254254" id="svg_1021"/>
    </g>
    <path d="m368.74,75.28c0,0.25 -0.2,0.45 -0.44,0.45l-0.21,0c-0.25,0 -0.44,-0.2 -0.44,-0.45l0,0c0,-0.24 0.19,-0.44 0.44,-0.44l0.21,0c0.24,0 0.44,0.2 0.44,0.44l0,0z" fill="#3B5972" id="svg_1022"/>
    <path d="m368.21,75.28c0,0.25 -0.2,0.45 -0.45,0.45l-0.2,0c-0.25,0 -0.45,-0.2 -0.45,-0.45l0,0c0,-0.24 0.2,-0.44 0.45,-0.44l0.2,0c0.25,0 0.45,0.2 0.45,0.44l0,0z" fill="#254254" id="svg_1023"/>
    <path d="m378.42,75.28c0,0.25 -0.2,0.45 -0.44,0.45l-0.21,0c-0.25,0 -0.44,-0.2 -0.44,-0.45l0,0c0,-0.24 0.19,-0.44 0.44,-0.44l0.21,0c0.24,0 0.44,0.2 0.44,0.44l0,0z" fill="#3B5972" id="svg_1024"/>
    <path d="m377.89,75.28c0,0.25 -0.2,0.45 -0.45,0.45l-0.2,0c-0.25,0 -0.45,-0.2 -0.45,-0.45l0,0c0,-0.24 0.2,-0.44 0.45,-0.44l0.2,0c0.25,0 0.45,0.2 0.45,0.44l0,0z" fill="#254254" id="svg_1025"/>
   </g>
   <g id="svg_1026">
    <polygon fill="#3B5972" id="svg_1027" points="40.089,73.905 39.522,73.905 39.522,72.725 39.711,72.725   "/>
    <polygon fill="#3B5972" id="svg_1028" points="55.674,73.905 56.241,73.905 56.241,72.725 56.052,72.725   "/>
    <g id="svg_1029">
     <path d="m48.22,75.51c0,0.13 -0.11,0.23 -0.23,0.23l0,0c-0.13,0 -0.23,-0.1 -0.23,-0.23l0,-0.63c0,-0.12 0.1,-0.23 0.23,-0.23l0,0c0.12,0 0.23,0.11 0.23,0.23l0,0.63z" fill="#254254" id="svg_1030"/>
     <path d="m42.27,75.51c0,0.13 -0.1,0.23 -0.23,0.23l0,0c-0.12,0 -0.23,-0.1 -0.23,-0.23l0,-0.63c0,-0.12 0.1,-0.23 0.23,-0.23l0,0c0.13,0 0.23,0.11 0.23,0.23l0,0.63z" fill="#254254" id="svg_1031"/>
     <path d="m48.53,73.37c-0.19,-1.49 -0.39,-2.16 -0.55,-2.16s-0.37,0.67 -0.56,2.16l1.11,0z" fill="#254254" id="svg_1032"/>
     <path d="m39.44,73.88c0,-0.06 0.05,-0.11 0.11,-0.11l16.78,0c0.07,0 0.12,0.05 0.12,0.11l0,0c0,0.07 -0.05,0.12 -0.12,0.12c0,0 -6.3,1.03 -8.4,1.03c-2.09,0 -8.38,-1.03 -8.38,-1.03c-0.06,0 -0.11,-0.06 -0.11,-0.12l0,0z" fill="#254254" id="svg_1033"/>
     <path d="m50.95,74.74c-0.22,-1.22 -1.46,-2.16 -2.97,-2.16s-2.75,0.94 -2.98,2.16l5.95,0z" fill="#3B5972" id="svg_1034"/>
     <path d="m39.44,73.88c0,-0.06 0.05,-0.11 0.11,-0.11l16.78,0c0.07,0 0.12,0.05 0.12,0.11l0,0c0,0.07 -0.05,0.12 -0.12,0.12l-16.78,0c-0.06,0 -0.11,-0.06 -0.11,-0.12l0,0z" fill="#254254" id="svg_1035"/>
     <path d="m50.95,74.74c-0.22,-1.22 -1.46,-2.16 -2.97,-2.16s-2.75,0.94 -2.98,2.16c0,0 2.23,0.52 2.99,0.52c0.75,-0.01 2.96,-0.52 2.96,-0.52z" fill="#3B5972" id="svg_1036"/>
     <path d="m49.73,73.24c-0.5,-0.33 -1.1,-0.53 -1.75,-0.53c-0.66,0 -1.26,0.2 -1.75,0.53c0.39,0.68 1.02,1.13 1.75,1.13c0.72,0 1.35,-0.45 1.75,-1.13z" fill="#254254" id="svg_1037"/>
     <rect fill="#254254" height="1.17" id="svg_1038" width="0.2" x="42.16" y="74.17"/>
     <path d="m53.67,75.51c0,0.13 0.11,0.23 0.23,0.23l0,0c0.13,0 0.23,-0.1 0.23,-0.23l0,-0.63c0,-0.12 -0.1,-0.23 -0.23,-0.23l0,0c-0.12,0 -0.23,0.11 -0.23,0.23l0,0.63z" fill="#254254" id="svg_1039"/>
     <rect fill="#254254" height="1.17" id="svg_1040" width="0.2" x="53.59" y="74.17"/>
    </g>
   </g>
   <g id="svg_1041">
    <polygon fill="#3B5972" id="svg_1042" points="58.479,73.905 57.913,73.905 57.913,72.725 58.102,72.725   "/>
    <polygon fill="#3B5972" id="svg_1043" points="74.065,73.905 74.632,73.905 74.632,72.725 74.443,72.725   "/>
    <g id="svg_1044">
     <path d="m66.61,75.51c0,0.13 -0.11,0.23 -0.23,0.23l0,0c-0.13,0 -0.23,-0.1 -0.23,-0.23l0,-0.63c0,-0.12 0.1,-0.23 0.23,-0.23l0,0c0.12,0 0.23,0.11 0.23,0.23l0,0.63z" fill="#254254" id="svg_1045"/>
     <path d="m60.66,75.51c0,0.13 -0.1,0.23 -0.23,0.23l0,0c-0.12,0 -0.23,-0.1 -0.23,-0.23l0,-0.63c0,-0.12 0.1,-0.23 0.23,-0.23l0,0c0.13,0 0.23,0.11 0.23,0.23l0,0.63z" fill="#254254" id="svg_1046"/>
     <path d="m66.92,73.37c-0.19,-1.49 -0.39,-2.16 -0.55,-2.16s-0.37,0.67 -0.56,2.16l1.11,0z" fill="#254254" id="svg_1047"/>
     <path d="m57.83,73.88c0,-0.06 0.05,-0.11 0.12,-0.11l16.77,0c0.07,0 0.12,0.05 0.12,0.11l0,0c0,0.07 -0.05,0.12 -0.12,0.12c0,0 -6.3,1.03 -8.4,1.03c-2.09,0 -8.38,-1.03 -8.38,-1.03c-0.06,0 -0.11,-0.06 -0.11,-0.12l0,0z" fill="#254254" id="svg_1048"/>
     <path d="m69.34,74.74c-0.22,-1.22 -1.46,-2.16 -2.97,-2.16s-2.75,0.94 -2.98,2.16l5.95,0z" fill="#3B5972" id="svg_1049"/>
     <path d="m57.83,73.88c0,-0.06 0.05,-0.11 0.12,-0.11l16.77,0c0.07,0 0.12,0.05 0.12,0.11l0,0c0,0.07 -0.05,0.12 -0.12,0.12l-16.77,0c-0.07,0 -0.12,-0.06 -0.12,-0.12l0,0z" fill="#254254" id="svg_1050"/>
     <path d="m69.34,74.74c-0.22,-1.22 -1.46,-2.16 -2.97,-2.16s-2.75,0.94 -2.98,2.16c0,0 2.23,0.52 2.99,0.52c0.75,-0.01 2.96,-0.52 2.96,-0.52z" fill="#3B5972" id="svg_1051"/>
     <path d="m68.12,73.24c-0.5,-0.33 -1.1,-0.53 -1.75,-0.53s-1.26,0.2 -1.75,0.53c0.39,0.68 1.03,1.13 1.75,1.13c0.72,0 1.35,-0.45 1.75,-1.13z" fill="#254254" id="svg_1052"/>
     <rect fill="#254254" height="1.17" id="svg_1053" width="0.2" x="60.55" y="74.17"/>
     <path d="m72.07,75.51c0,0.13 0.1,0.23 0.23,0.23l0,0c0.12,0 0.22,-0.1 0.22,-0.23l0,-0.63c0,-0.12 -0.1,-0.23 -0.22,-0.23l0,0c-0.13,0 -0.23,0.11 -0.23,0.23l0,0.63z" fill="#254254" id="svg_1054"/>
     <rect fill="#254254" height="1.17" id="svg_1055" width="0.2" x="71.98" y="74.17"/>
    </g>
   </g>
   <g id="svg_1056">
    <polygon fill="#3B5972" id="svg_1057" points="76.703,73.905 76.136,73.905 76.136,72.725 76.325,72.725   "/>
    <polygon fill="#3B5972" id="svg_1058" points="92.289,73.905 92.856,73.905 92.856,72.725 92.667,72.725   "/>
    <g id="svg_1059">
     <path d="m84.83,75.51c0,0.13 -0.1,0.23 -0.23,0.23l0,0c-0.13,0 -0.23,-0.1 -0.23,-0.23l0,-0.63c0,-0.12 0.1,-0.23 0.23,-0.23l0,0c0.13,0 0.23,0.11 0.23,0.23l0,0.63z" fill="#254254" id="svg_1060"/>
     <path d="m78.89,75.51c0,0.13 -0.11,0.23 -0.23,0.23l0,0c-0.13,0 -0.23,-0.1 -0.23,-0.23l0,-0.63c0,-0.12 0.1,-0.23 0.23,-0.23l0,0c0.12,0 0.23,0.11 0.23,0.23l0,0.63z" fill="#254254" id="svg_1061"/>
     <path d="m85.15,73.37c-0.19,-1.49 -0.4,-2.16 -0.56,-2.16s-0.37,0.67 -0.56,2.16l1.12,0z" fill="#254254" id="svg_1062"/>
     <path d="m76.06,73.88c0,-0.06 0.05,-0.11 0.11,-0.11l16.78,0c0.06,0 0.11,0.05 0.11,0.11l0,0c0,0.07 -0.05,0.12 -0.11,0.12c0,0 -6.3,1.03 -8.41,1.03c-2.09,0 -8.37,-1.03 -8.37,-1.03c-0.06,0 -0.11,-0.06 -0.11,-0.12l0,0z" fill="#254254" id="svg_1063"/>
     <path d="m87.57,74.74c-0.23,-1.22 -1.47,-2.16 -2.98,-2.16s-2.75,0.94 -2.98,2.16l5.96,0z" fill="#3B5972" id="svg_1064"/>
     <path d="m76.06,73.88c0,-0.06 0.05,-0.11 0.11,-0.11l16.78,0c0.06,0 0.11,0.05 0.11,0.11l0,0c0,0.07 -0.05,0.12 -0.11,0.12l-16.78,0c-0.06,0 -0.11,-0.06 -0.11,-0.12l0,0z" fill="#254254" id="svg_1065"/>
     <path d="m87.57,74.74c-0.23,-1.22 -1.47,-2.16 -2.98,-2.16s-2.75,0.94 -2.98,2.16c0,0 2.23,0.52 2.99,0.52c0.75,-0.01 2.97,-0.52 2.97,-0.52z" fill="#3B5972" id="svg_1066"/>
     <path d="m86.34,73.24c-0.49,-0.33 -1.09,-0.53 -1.75,-0.53c-0.66,0 -1.26,0.2 -1.75,0.53c0.4,0.68 1.03,1.13 1.75,1.13c0.72,0 1.35,-0.45 1.75,-1.13z" fill="#254254" id="svg_1067"/>
     <rect fill="#254254" height="1.17" id="svg_1068" width="0.2" x="78.77" y="74.17"/>
     <path d="m90.29,75.51c0,0.13 0.1,0.23 0.23,0.23l0,0c0.13,0 0.23,-0.1 0.23,-0.23l0,-0.63c0,-0.12 -0.1,-0.23 -0.23,-0.23l0,0c-0.13,0 -0.23,0.11 -0.23,0.23l0,0.63z" fill="#254254" id="svg_1069"/>
     <rect fill="#254254" height="1.17" id="svg_1070" width="0.2" x="90.2" y="74.17"/>
    </g>
   </g>
  </g>
 </g>
</svg>