<svg xmlns="http://www.w3.org/2000/svg" xmlns:svg="http://www.w3.org/2000/svg" enable-background="new 0 0 450 450" version="1.1" xml:space="preserve" viewBox="156.3 35.24 208.15 61.76">
 <g class="layer">
  <title>Layer 1</title>
  <g id="svg_1">
   <g id="svg_728" transform="translate(-52.22 -12.445)">
    <path clip-rule="evenodd" d="m224.64,80.06c1.45,0.04 2.24,4.45 0.5,4.45c-1.02,0 -2.49,-0.05 -2.49,-1.3c0,-1.25 0.54,-3.18 1.99,-3.15l0,0z" fill="#7894AE" fill-rule="evenodd" id="svg_729"/>
   </g>
   <g id="svg_726" transform="translate(-52.22 -12.445)">
    <polygon clip-rule="evenodd" fill="#A3B9C6" fill-rule="evenodd" id="svg_727" points="221.524,81.898 229.22,81.776 229.057,84.278     221.978,83.33 221.524,81.898   "/>
   </g>
   <g id="svg_724" transform="translate(-52.22 -12.445)">
    <polygon clip-rule="evenodd" fill="#7894AE" fill-rule="evenodd" id="svg_725" points="228.348,84.183 221.978,83.33 221.797,82.271     228.46,82.452 228.348,84.183   "/>
   </g>
   <g id="svg_722" transform="translate(-52.22 -12.445)">
    <polygon clip-rule="evenodd" fill="#7894AE" fill-rule="evenodd" id="svg_723" points="231.533,76.593 231.986,76.593 231.986,80.367     231.533,80.367 231.533,76.593   "/>
   </g>
   <g id="svg_720" transform="translate(-52.22 -12.445)">
    <path clip-rule="evenodd" d="m231.99,80.37c3.24,0 5.88,1.26 5.88,2.82s-2.63,2.82 -5.88,2.82c-3.25,0 -5.89,-1.27 -5.89,-2.82s2.64,-2.82 5.89,-2.82l0,0z" fill="#7894AE" fill-rule="evenodd" id="svg_721"/>
   </g>
   <g id="svg_718" transform="translate(-52.22 -12.445)">
    <path clip-rule="evenodd" d="m231.99,80.37c3.24,0 5.88,1.26 5.88,2.82c0,0.46 -0.24,0.9 -0.65,1.29c-0.91,0.27 -1.98,0.43 -3.12,0.43c-3.25,0 -5.89,-1.26 -5.89,-2.82c0,-0.47 0.24,-0.91 0.66,-1.29c0.9,-0.28 1.97,-0.43 3.12,-0.43l0,0z" fill="#A3B9C6" fill-rule="evenodd" id="svg_719"/>
   </g>
   <g id="svg_716" transform="translate(-52.22 -12.445)">
    <path clip-rule="evenodd" d="m235.45,80.91c1.47,0.51 2.42,1.34 2.42,2.28c0,0.33 -0.12,0.65 -0.35,0.95c-2.26,0.43 -4.4,0.43 -6.41,0c-0.82,-0.17 -1.53,-0.69 -1.53,-1.53l0,-0.17c0,-0.84 0.69,-1.53 1.53,-1.53l4.34,0l0,0z" fill="#4C6186" fill-rule="evenodd" id="svg_717"/>
   </g>
   <g id="svg_714" transform="translate(-52.22 -12.445)">
    <path clip-rule="evenodd" d="m222.03,80.06c1.44,0.04 2.24,4.45 0.5,4.45c-1.02,0 -2.49,-0.05 -2.49,-1.3c0,-1.25 0.54,-3.18 1.99,-3.15l0,0z" fill="#A3B9C6" fill-rule="evenodd" id="svg_715"/>
   </g>
   <g id="svg_712" transform="translate(-52.22 -12.445)">
    <path d="m215.21,79.45c-0.05,0 -0.1,-0.05 -0.11,-0.11c0,-0.06 0.05,-0.11 0.11,-0.11c9.68,-0.4 17.15,-0.4 24.24,-0.01c0.06,0 0.11,0.06 0.1,0.12c0,0.06 -0.04,0.1 -0.11,0.1c-7.08,-0.4 -14.55,-0.39 -24.22,0.01c0,0 -0.01,0 -0.01,0zm29.15,-2.38c0,0 0,0 0,0c-9.66,-0.68 -17.12,-0.9 -24.22,-0.71c-0.05,0.01 -0.1,-0.04 -0.11,-0.1s0.05,-0.11 0.11,-0.11c7.1,-0.19 14.57,0.02 24.23,0.7c0.06,0 0.11,0.06 0.1,0.12c0,0.05 -0.05,0.1 -0.11,0.1z" fill="#7894AE" id="svg_713"/>
   </g>
   <g id="svg_710" transform="translate(-52.22 -12.445)">
    <polygon clip-rule="evenodd" fill="#7894AE" fill-rule="evenodd" id="svg_711" points="350.592,80.311 355.881,80.478 355.862,81.067     350.574,80.9 350.592,80.311   "/>
   </g>
   <g id="svg_708" transform="translate(-52.22 -12.445)">
    <path clip-rule="evenodd" d="m377.42,80.52c-0.81,0 -1.61,0 -2.42,0.01c0.03,-0.4 0.1,-0.69 0.47,-1.07c0.79,0.1 1.9,0.44 1.95,1.06l0,0z" fill="#BBC4D4" fill-rule="evenodd" id="svg_709"/>
   </g>
   <g id="svg_706" transform="translate(-52.22 -12.445)">
    <polygon clip-rule="evenodd" fill="#7894AE" fill-rule="evenodd" id="svg_707" points="414.209,80.938 411.691,84.664 411.69,84.649     411.514,84.578 414.248,80.534 414.209,80.938   "/>
   </g>
   <g id="svg_704" transform="translate(-52.22 -12.445)">
    <polygon clip-rule="evenodd" fill="#7894AE" fill-rule="evenodd" id="svg_705" points="263.796,70.967 266.364,70.967 266.364,71.219     263.796,71.219 263.796,70.967   "/>
   </g>
   <g id="svg_702" transform="translate(-52.22 -12.445)">
    <polygon clip-rule="evenodd" fill="#7894AE" fill-rule="evenodd" id="svg_703" points="305.044,55.093 305.615,54.969 310.723,78.388     310.152,78.512 305.044,55.093   "/>
   </g>
   <g id="svg_700" transform="translate(-52.22 -12.445)">
    <polygon clip-rule="evenodd" fill="#7894AE" fill-rule="evenodd" id="svg_701" points="367.432,79.317 364.864,79.317 364.864,79.569     367.432,79.569 367.432,79.317   "/>
   </g>
   <g id="svg_698" transform="translate(-52.22 -12.445)">
    <polygon clip-rule="evenodd" fill="#7894AE" fill-rule="evenodd" id="svg_699" points="415.549,73.048 415.262,73.048 415.262,73.756     415.549,73.756 415.549,73.048   "/>
   </g>
   <g id="svg_696" transform="translate(-52.22 -12.445)">
    <polygon clip-rule="evenodd" fill="#7894AE" fill-rule="evenodd" id="svg_697" points="413.236,73.302 415.549,73.302 415.549,73.501     413.236,73.501 413.236,73.302   "/>
   </g>
   <g id="svg_694" transform="translate(-52.22 -12.445)">
    <polygon clip-rule="evenodd" fill="#7894AE" fill-rule="evenodd" id="svg_695" points="413.957,74.261 414.248,74.261 414.248,74.46     413.957,74.46 413.957,74.261   "/>
   </g>
   <g id="svg_692" transform="translate(-52.22 -12.445)">
    <polygon clip-rule="evenodd" fill="#7894AE" fill-rule="evenodd" id="svg_693" points="413.563,73.048 413.275,73.048 413.275,73.756     413.563,73.756 413.563,73.048   "/>
   </g>
   <g id="svg_690" transform="translate(-52.22 -12.445)">
    <path clip-rule="evenodd" d="m364.24,78.66l-0.84,0c-0.58,0 -1.05,0.48 -1.05,1.06l0,1.23c0,0.58 0.47,1.05 1.05,1.05l0.84,0c0.58,0 1.06,-0.47 1.06,-1.05l0,-1.23c0,-0.58 -0.48,-1.06 -1.06,-1.06l0,0z" fill="#C9D5DC" fill-rule="evenodd" id="svg_691"/>
   </g>
   <g id="svg_688" transform="translate(-52.22 -12.445)">
    <path clip-rule="evenodd" d="m362.49,79.19c-0.09,0.16 -0.14,0.34 -0.14,0.53l0,1.23c0,0.58 0.47,1.05 1.05,1.05l0.84,0c0.14,0 0.27,-0.02 0.39,-0.07c0.09,-0.16 0.15,-0.34 0.15,-0.53l0,-1.23c0,-0.58 -0.48,-1.06 -1.06,-1.06l-0.84,0c-0.14,0 -0.27,0.03 -0.39,0.08l0,0z" fill="#A3B9C6" fill-rule="evenodd" id="svg_689"/>
   </g>
   <g id="svg_686" transform="translate(-52.22 -12.445)">
    <polygon clip-rule="evenodd" fill="#7894AE" fill-rule="evenodd" id="svg_687" points="365.446,80.111 362.204,80.111 361.768,81.319     365.916,81.319 365.446,80.111   "/>
   </g>
   <g id="svg_684" transform="translate(-52.22 -12.445)">
    <polygon clip-rule="evenodd" fill="#A3B9C6" fill-rule="evenodd" id="svg_685" points="365.339,80.276 365.101,80.276 365.47,81.207     365.707,81.207 365.339,80.276   "/>
   </g>
   <g id="svg_682" transform="translate(-52.22 -12.445)">
    <path clip-rule="evenodd" d="m364.79,80.28c-0.08,0 -0.16,0 -0.24,0c0.08,0.31 0.15,0.62 0.23,0.93c0.07,0 0.15,0 0.23,0c-0.07,-0.31 -0.14,-0.62 -0.22,-0.93l0,0z" fill="#A3B9C6" fill-rule="evenodd" id="svg_683"/>
   </g>
   <g id="svg_680" transform="translate(-52.22 -12.445)">
    <path clip-rule="evenodd" d="m364.24,80.28c-0.08,0 -0.16,0 -0.24,0c0.03,0.31 0.06,0.62 0.08,0.93c0.08,0 0.16,0 0.24,0c-0.03,-0.31 -0.05,-0.62 -0.08,-0.93l0,0z" fill="#A3B9C6" fill-rule="evenodd" id="svg_681"/>
   </g>
   <g id="svg_678" transform="translate(-52.22 -12.445)">
    <path clip-rule="evenodd" d="m363.69,80.28c-0.08,0 -0.16,0 -0.23,0c-0.03,0.31 -0.05,0.62 -0.07,0.93c0.08,0 0.16,0 0.24,0c0.02,-0.31 0.04,-0.62 0.06,-0.93l0,0z" fill="#A3B9C6" fill-rule="evenodd" id="svg_679"/>
   </g>
   <g id="svg_676" transform="translate(-52.22 -12.445)">
    <path clip-rule="evenodd" d="m363.14,80.28c-0.08,0 -0.15,0 -0.23,0c-0.08,0.31 -0.15,0.62 -0.22,0.93c0.08,0 0.16,0 0.24,0c0.07,-0.31 0.14,-0.62 0.21,-0.93l0,0z" fill="#A3B9C6" fill-rule="evenodd" id="svg_677"/>
   </g>
   <g id="svg_674" transform="translate(-52.22 -12.445)">
    <polygon clip-rule="evenodd" fill="#A3B9C6" fill-rule="evenodd" id="svg_675" points="362.596,80.276 362.358,80.276 362,81.207     362.237,81.207 362.596,80.276   "/>
   </g>
   <g id="svg_672" transform="translate(-52.22 -12.445)">
    <path clip-rule="evenodd" d="m266.99,70.31l0.83,0c0.59,0 1.06,0.48 1.06,1.06l0,1.23c0,0.58 -0.47,1.06 -1.06,1.06l-0.83,0c-0.59,0 -1.06,-0.48 -1.06,-1.06l0,-1.23c0,-0.58 0.47,-1.06 1.06,-1.06l0,0z" fill="#D3E0E9" fill-rule="evenodd" id="svg_673"/>
   </g>
   <g id="svg_670" transform="translate(-52.22 -12.445)">
    <path clip-rule="evenodd" d="m268.04,73.63c-0.07,0.02 -0.14,0.03 -0.22,0.03l-0.84,0c-0.58,0 -1.05,-0.48 -1.05,-1.06l0,-1.23c0,-0.26 0.09,-0.49 0.24,-0.68c0.07,-0.01 0.15,-0.02 0.22,-0.02l0.84,0c0.58,0 1.06,0.48 1.06,1.06l0,1.23c0,0.25 -0.09,0.49 -0.25,0.67l0,0z" fill="#A3B9C6" fill-rule="evenodd" id="svg_671"/>
   </g>
   <g id="svg_668" transform="translate(-52.22 -12.445)">
    <path d="m317.05,72.04l-0.34,0l0,-0.02l-15.65,0l0,-2.43l0.34,0l0,0.05l2.76,0l0,-0.05l0.34,0l0,0.05l2.76,0l0,-0.05l0.34,0l0,0.05l2.76,0l0,-0.05l0.34,0l0,0.05l2.76,0l0,-0.05l0.34,0l0,0.05l2.91,0l0,-0.03l0.34,0l0,0.03l0.02,0l0,0.22l-0.02,0l0,0.55l0.02,0l0,0.22l-0.02,0l0,0.59l0.02,0l0,0.21l-0.02,0l0,0.37l0.02,0l0,0.22l-0.02,0l0,0.02zm-3.25,-0.24l2.91,0l0,-0.37l-2.91,0l0,0.37zm-3.1,0l2.76,0l0,-0.37l-2.76,0l0,0.37zm-3.1,0l2.76,0l0,-0.37l-2.76,0l0,0.37zm-3.1,0l2.76,0l0,-0.37l-2.76,0l0,0.37zm-3.1,0l2.76,0l0,-0.37l-2.76,0l0,0.37zm12.4,-0.58l2.91,0l0,-0.59l-2.91,0l0,0.59zm-3.1,0l2.76,0l0,-0.59l-2.76,0l0,0.59zm-3.1,0l2.76,0l0,-0.59l-2.76,0l0,0.59zm-3.1,0l2.76,0l0,-0.59l-2.76,0l0,0.59zm-3.1,0l2.76,0l0,-0.59l-2.76,0l0,0.59zm12.4,-0.81l2.91,0l0,-0.55l-2.91,0l0,0.55zm-3.1,0l2.76,0l0,-0.55l-2.76,0l0,0.55zm-3.1,0l2.76,0l0,-0.55l-2.76,0l0,0.55zm-3.1,0l2.76,0l0,-0.55l-2.76,0l0,0.55zm-3.1,0l2.76,0l0,-0.55l-2.76,0l0,0.55z" fill="#231F20" id="svg_669"/>
   </g>
   <g id="svg_666" transform="translate(-52.22 -12.445)">
    <polygon clip-rule="evenodd" fill="#7894AE" fill-rule="evenodd" id="svg_667" points="314.758,67.744 322.927,67.715 321.848,73.059     316.333,73.059 314.758,67.744   "/>
   </g>
   <g id="svg_664" transform="translate(-52.22 -12.445)">
    <polygon clip-rule="evenodd" fill="#7E95B2" fill-rule="evenodd" id="svg_665" points="293.873,72.901 294.169,72.901 294.169,76.803     293.873,76.803 293.873,72.901   "/>
   </g>
   <g id="svg_662" transform="translate(-52.22 -12.445)">
    <polygon clip-rule="evenodd" fill="#7E95B2" fill-rule="evenodd" id="svg_663" points="293.578,72.901 293.874,72.901 292.767,76.803     292.471,76.803 293.578,72.901   "/>
   </g>
   <g id="svg_660" transform="translate(-52.22 -12.445)">
    <polygon clip-rule="evenodd" fill="#7E95B2" fill-rule="evenodd" id="svg_661" points="294.507,72.901 294.211,72.901 295.317,76.803     295.613,76.803 294.507,72.901   "/>
   </g>
   <g id="svg_658" transform="translate(-52.22 -12.445)">
    <path clip-rule="evenodd" d="m355.2,103.45c1.4,0.94 1.37,1.73 2.14,3.21c1,1.91 4.28,2.51 6.99,2.76c4.09,0.37 5.58,-2.28 6.93,-4.98c-5.35,-0.33 -10.71,-0.66 -16.06,-0.99l0,0z" fill="#B9272E" fill-rule="evenodd" id="svg_659"/>
   </g>
   <g id="svg_656" transform="translate(-52.22 -12.445)">
    <polygon clip-rule="evenodd" fill="#7894AE" fill-rule="evenodd" id="svg_657" points="258.489,76.876 273.051,76.876 272.83,87.081     255.567,86.984 258.489,76.876   "/>
   </g>
   <g id="svg_654" transform="translate(-52.22 -12.445)">
    <path d="m260.62,87.01l-0.34,0l0,-0.02l-48.85,0l0,-2.43l0.34,0l0,0.05l3.16,0l0,-0.05l0.34,0l0,0.05l3.17,0l0,-0.05l0.34,0l0,0.05l3.17,0l0,-0.05l0.34,0l0,0.05l3.17,0l0,-0.05l0.34,0l0,0.05l3.16,0l0,-0.05l0.34,0l0,0.05l3.17,0l0,-0.05l0.34,0l0,0.05l3.17,0l0,-0.05l0.34,0l0,0.05l3.17,0l0,-0.05l0.34,0l0,0.05l3.17,0l0,-0.05l0.34,0l0,0.05l3.16,0l0,-0.05l0.34,0l0,0.05l3.17,0l0,-0.05l0.34,0l0,0.05l3.17,0l0,-0.05l0.34,0l0,0.05l3.17,0l0,-0.05l0.34,0l0,0.05l2.91,0l0,-0.03l0.34,0l0,0.03l0.02,0l0,0.22l-0.02,0l0,0.55l0.02,0l0,0.22l-0.02,0l0,0.59l0.02,0l0,0.21l-0.02,0l0,0.38l0.02,0l0,0.21l-0.02,0l0,0.02zm-3.25,-0.23l2.91,0l0,-0.37l-2.91,0l0,0.37zm-3.51,0l3.17,0l0,-0.37l-3.17,0l0,0.37zm-3.51,0l3.17,0l0,-0.37l-3.17,0l0,0.37zm-3.51,0l3.17,0l0,-0.37l-3.17,0l0,0.37zm-3.5,0l3.16,0l0,-0.37l-3.16,0l0,0.37zm-3.51,0l3.17,0l0,-0.37l-3.17,0l0,0.37zm-3.51,0l3.17,0l0,-0.37l-3.17,0l0,0.37zm-3.51,0l3.17,0l0,-0.37l-3.17,0l0,0.37zm-3.5,0l3.16,0l0,-0.37l-3.16,0l0,0.37zm-3.51,0l3.17,0l0,-0.37l-3.17,0l0,0.37zm-3.51,0l3.17,0l0,-0.37l-3.17,0l0,0.37zm-3.51,0l3.17,0l0,-0.37l-3.17,0l0,0.37zm-3.51,0l3.17,0l0,-0.37l-3.17,0l0,0.37zm-3.5,0l3.17,0l0,-0.37l-3.17,0l0,0.37zm45.6,-0.59l2.91,0l0,-0.59l-2.91,0l0,0.59zm-3.51,0l3.17,0l0,-0.59l-3.17,0l0,0.59zm-3.51,0l3.17,0l0,-0.59l-3.17,0l0,0.59zm-3.51,0l3.17,0l0,-0.59l-3.17,0l0,0.59zm-3.5,0l3.16,0l0,-0.59l-3.16,0l0,0.59zm-3.51,0l3.17,0l0,-0.59l-3.17,0l0,0.59zm-3.51,0l3.17,0l0,-0.59l-3.17,0l0,0.59zm-3.51,0l3.17,0l0,-0.59l-3.17,0l0,0.59zm-3.5,0l3.16,0l0,-0.59l-3.16,0l0,0.59zm-3.51,0l3.17,0l0,-0.59l-3.17,0l0,0.59zm-3.51,0l3.17,0l0,-0.59l-3.17,0l0,0.59zm-3.51,0l3.17,0l0,-0.59l-3.17,0l0,0.59zm-3.51,0l3.17,0l0,-0.59l-3.17,0l0,0.59zm-3.5,0l3.17,0l0,-0.59l-3.17,0l0,0.59zm45.6,-0.81l2.91,0l0,-0.55l-2.91,0l0,0.55zm-3.51,0l3.17,0l0,-0.55l-3.17,0l0,0.55zm-3.51,0l3.17,0l0,-0.55l-3.17,0l0,0.55zm-3.51,0l3.17,0l0,-0.55l-3.17,0l0,0.55zm-3.5,0l3.16,0l0,-0.55l-3.16,0l0,0.55zm-3.51,0l3.17,0l0,-0.55l-3.17,0l0,0.55zm-3.51,0l3.17,0l0,-0.55l-3.17,0l0,0.55zm-3.51,0l3.17,0l0,-0.55l-3.17,0l0,0.55zm-3.5,0l3.16,0l0,-0.55l-3.16,0l0,0.55zm-3.51,0l3.17,0l0,-0.55l-3.17,0l0,0.55zm-3.51,0l3.17,0l0,-0.55l-3.17,0l0,0.55zm-3.51,0l3.17,0l0,-0.55l-3.17,0l0,0.55zm-3.51,0l3.17,0l0,-0.55l-3.17,0l0,0.55zm-3.5,0l3.17,0l0,-0.55l-3.17,0l0,0.55z" fill="#231F20" id="svg_655"/>
   </g>
   <g id="svg_652" transform="translate(-52.22 -12.445)">
    <polygon clip-rule="evenodd" fill="#A3B9C6" fill-rule="evenodd" id="svg_653" points="259.567,72.969 272.83,72.969 271.848,76.876     258.489,76.876 259.567,72.969   "/>
   </g>
   <g id="svg_650" transform="translate(-52.22 -12.445)">
    <polygon clip-rule="evenodd" fill="#4C6186" fill-rule="evenodd" id="svg_651" points="234.086,86.941 248.995,86.941 248.995,91.966     234.086,91.966 234.086,86.941   "/>
   </g>
   <g id="svg_648" transform="translate(-52.22 -12.445)">
    <path d="m247.27,91.74l-0.35,0l0,-0.03l-15.64,0l0,-2.42l0.34,0l0,0.04l2.76,0l0,-0.04l0.34,0l0,0.04l2.76,0l0,-0.04l0.34,0l0,0.04l2.76,0l0,-0.04l0.34,0l0,0.04l2.76,0l0,-0.04l0.34,0l0,0.04l2.91,0l0,-0.02l0.34,0l0,0.02l0.02,0l0,0.22l-0.02,0l0,0.56l0.02,0l0,0.21l-0.02,0l0,0.59l0.02,0l0,0.22l-0.02,0l0,0.37l0.02,0l0,0.22l-0.02,0l0,0.02zm-3.25,-0.24l2.91,0l0,-0.37l-2.91,0l0,0.37zm-3.1,0l2.76,0l0,-0.37l-2.76,0l0,0.37zm-3.1,0l2.76,0l0,-0.37l-2.76,0l0,0.37zm-3.1,0l2.76,0l0,-0.37l-2.76,0l0,0.37zm-3.1,0l2.76,0l0,-0.37l-2.76,0l0,0.37zm12.4,-0.59l2.91,0l0,-0.59l-2.91,0l0,0.59zm-3.1,0l2.76,0l0,-0.59l-2.76,0l0,0.59zm-3.1,0l2.76,0l0,-0.59l-2.76,0l0,0.59zm-3.1,0l2.76,0l0,-0.59l-2.76,0l0,0.59zm-3.1,0l2.76,0l0,-0.59l-2.76,0l0,0.59zm12.4,-0.8l2.91,0l0,-0.56l-2.91,0l0,0.56zm-3.1,0l2.76,0l0,-0.56l-2.76,0l0,0.56zm-3.1,0l2.76,0l0,-0.56l-2.76,0l0,0.56zm-3.1,0l2.76,0l0,-0.56l-2.76,0l0,0.56zm-3.1,0l2.76,0l0,-0.56l-2.76,0l0,0.56z" fill="#231F20" id="svg_649"/>
   </g>
   <g id="svg_646" transform="translate(-52.22 -12.445)">
    <polygon clip-rule="evenodd" fill="#7E95B2" fill-rule="evenodd" id="svg_647" points="286.842,71.127 289.626,71.127 289.541,71.549     286.968,72.183 286.842,71.127   "/>
   </g>
   <g id="svg_644" transform="translate(-52.22 -12.445)">
    <path d="m288.57,71.38c-0.14,0 -0.25,-0.11 -0.25,-0.25l0,-20.44c0,-0.14 0.11,-0.26 0.25,-0.26s0.26,0.12 0.26,0.26l0,20.44c0,0.14 -0.12,0.25 -0.26,0.25z" fill="#7E95B2" id="svg_645"/>
   </g>
   <g id="svg_642" transform="translate(-52.22 -12.445)">
    <polygon clip-rule="evenodd" fill="#7894AE" fill-rule="evenodd" id="svg_643" points="265.781,71.761 269.023,71.761 269.459,72.969     265.311,72.969 265.781,71.761   "/>
   </g>
   <g id="svg_640" transform="translate(-52.22 -12.445)">
    <polygon clip-rule="evenodd" fill="#D3E0E9" fill-rule="evenodd" id="svg_641" points="267.349,73.15 272.83,73.15 272.83,78.73     267.349,78.73 267.349,73.15   "/>
   </g>
   <g id="svg_638" transform="translate(-52.22 -12.445)">
    <polygon clip-rule="evenodd" fill="#A3B9C6" fill-rule="evenodd" id="svg_639" points="346.413,80.703 367.514,81.329 368.899,88.317     345.521,88.649 346.413,80.703   "/>
   </g>
   <g id="svg_636" transform="translate(-52.22 -12.445)">
    <polygon clip-rule="evenodd" fill="#BBC4D4" fill-rule="evenodd" id="svg_637" points="367.462,81.328 367.514,81.329 368.899,88.317     355.878,88.502 367.462,81.328   "/>
   </g>
   <g id="svg_634" transform="translate(-52.22 -12.445)">
    <polygon clip-rule="evenodd" fill="#D3E0E9" fill-rule="evenodd" id="svg_635" points="298.352,77.971 301.045,71.999 307.302,71.916     310.639,63.156 313.475,63.156 316.812,72.166 322.068,72.166 324.404,77.672 298.352,77.971   "/>
   </g>
   <g id="svg_632" transform="translate(-52.22 -12.445)">
    <polygon clip-rule="evenodd" fill="#7894AE" fill-rule="evenodd" id="svg_633" points="298.837,76.896 301.045,71.999 307.302,71.916     310.639,63.156 313.475,63.156 314.716,66.506 310.149,76.896 298.837,76.896   "/>
   </g>
   <g id="svg_630" transform="translate(-52.22 -12.445)">
    <path clip-rule="evenodd" d="m304.19,62.2l12.31,0c0.11,0 0.2,0.08 0.22,0.18c0.01,0.11 -0.04,0.23 -0.15,0.25l-2.64,0.54l-7.27,0l-2.54,-0.54c-0.1,-0.02 -0.16,-0.13 -0.15,-0.24c0.02,-0.11 0.11,-0.19 0.22,-0.19l0,0z" fill="#4C6186" fill-rule="evenodd" id="svg_631"/>
   </g>
   <g id="svg_628" transform="translate(-52.22 -12.445)">
    <path clip-rule="evenodd" d="m304.19,62.2l12.31,0c0.11,0 0.2,0.08 0.22,0.18c0,0.05 0,0.09 -0.02,0.13l-12.71,0c-0.02,-0.04 -0.02,-0.08 -0.02,-0.12c0.02,-0.11 0.11,-0.19 0.22,-0.19l0,0z" fill="#A3B9C6" fill-rule="evenodd" id="svg_629"/>
   </g>
   <g id="svg_626" transform="translate(-52.22 -12.445)">
    <polygon clip-rule="evenodd" fill="#A3B9C6" fill-rule="evenodd" id="svg_627" points="311.268,55.046 312.839,55.046 312.839,62.16     311.268,62.16 311.268,55.046   "/>
   </g>
   <g id="svg_624" transform="translate(-52.22 -12.445)">
    <polygon clip-rule="evenodd" fill="#7894AE" fill-rule="evenodd" id="svg_625" points="311.887,62.16 311.268,62.16 311.268,55.084     311.887,55.084 311.887,62.16   "/>
   </g>
   <g id="svg_622" transform="translate(-52.22 -12.445)">
    <polygon clip-rule="evenodd" fill="#4C6186" fill-rule="evenodd" id="svg_623" points="328.844,77.053 335.851,77.053 335.851,75.242     328.844,75.242 328.844,77.053   "/>
   </g>
   <g id="svg_620" transform="translate(-52.22 -12.445)">
    <path clip-rule="evenodd" d="m375.16,80.07l3.46,0c1.68,0 4.02,2.61 4.01,3.43l-0.04,1.64c-0.02,0.82 -0.67,1.49 -1.49,1.49l-5.94,0c-0.82,0 -1.49,-0.67 -1.49,-1.49l0,-3.58c0,-0.82 0.67,-1.49 1.49,-1.49l0,0z" fill="#C9D5DC" fill-rule="evenodd" id="svg_621"/>
   </g>
   <g id="svg_618" transform="translate(-52.22 -12.445)">
    <path clip-rule="evenodd" d="m381.2,86.63c-0.03,0 -0.07,0 -0.1,0l-5.94,0c-0.82,0 -1.49,-0.67 -1.49,-1.49l0,-3.58c0,-0.34 0.11,-0.65 0.31,-0.91c0.03,0 0.07,0 0.11,0l3.47,0c1.67,0 4.02,2.61 4,3.43l-0.04,1.65c-0.01,0.33 -0.12,0.65 -0.32,0.9l0,0z" fill="#BBC4D4" fill-rule="evenodd" id="svg_619"/>
   </g>
   <g id="svg_616" transform="translate(-52.22 -12.445)">
    <path clip-rule="evenodd" d="m374.99,80.65l2.57,0c1.67,0 4.02,2.62 4,3.43l-0.04,1.65c-0.01,0.17 -0.04,0.33 -0.09,0.49l-5.04,0c-0.82,0 -1.49,-0.67 -1.49,-1.49l0,-3.59c0,-0.17 0.03,-0.33 0.09,-0.49l0,0z" fill="#A3B9C6" fill-rule="evenodd" id="svg_617"/>
   </g>
   <g id="svg_614" transform="translate(-52.22 -12.445)">
    <path clip-rule="evenodd" d="m416.67,84.11l-18.35,19.7c-0.43,0.46 -0.96,0.69 -1.59,0.69l-159.2,-0.35l-1.25,-2.77l-20.44,-1.04l0.17,-6.07l-3.7,-0.28l-2.32,-4.36l10.73,0c0.2,0 0.38,-0.13 0.42,-0.33l0.28,-1.21c0.04,-0.13 0.01,-0.26 -0.08,-0.37c-0.08,-0.1 -0.2,-0.16 -0.34,-0.16l-12.12,0l-0.36,-0.67l51.13,0.1l2.81,-9.87l5.08,0c0.12,0 0.22,-0.04 0.31,-0.12c0.08,-0.09 0.12,-0.19 0.12,-0.31l0.06,-1.82l8.88,0l-0.01,1.59c0,0.12 0.04,0.23 0.13,0.31c0.08,0.09 0.19,0.13 0.31,0.13l62.88,0.18l21.26,8.01l55.19,-0.98l0,0zm-183.29,3.38l9.6,0c0.21,0 0.38,0.09 0.51,0.26c0.13,0.16 0.17,0.35 0.12,0.56l-0.72,2.83c-0.07,0.29 -0.33,0.49 -0.63,0.49l-9.6,0c-0.21,0 -0.38,-0.09 -0.51,-0.25c-0.13,-0.16 -0.17,-0.36 -0.12,-0.56l0.72,-2.83c0.07,-0.3 0.32,-0.5 0.63,-0.5l0,0zm-9.67,0.07l6.74,0c0.13,0 0.25,0.05 0.34,0.16c0.08,0.11 0.11,0.24 0.08,0.37l-0.28,1.21c-0.05,0.2 -0.22,0.33 -0.42,0.33l-6.74,0c-0.14,0 -0.25,-0.05 -0.34,-0.16c-0.08,-0.11 -0.11,-0.24 -0.08,-0.37l0.28,-1.21c0.04,-0.2 0.22,-0.33 0.42,-0.33l0,0z" fill="#7894AE" fill-rule="evenodd" id="svg_615"/>
   </g>
   <g id="svg_612" transform="translate(-52.22 -12.445)">
    <path clip-rule="evenodd" d="m416.67,84.11l-18.35,19.7c-0.18,0.19 -0.38,0.34 -0.59,0.46l-158.8,-0.35l-1.26,-2.77l-20.43,-1.04l0.17,-6.07l-3.7,-0.28c-6.48,-12.11 4.14,7.73 -2.21,-4.12l9.22,0c0.2,0 0.38,-0.14 0.42,-0.34l0.28,-1.21c0.04,-0.13 0.01,-0.26 -0.08,-0.37c-0.08,-0.1 -0.2,-0.16 -0.34,-0.16l-10.61,0l-0.35,-0.66l49.62,0.09l2.81,-9.87l5.07,0c0.12,0 0.22,-0.04 0.31,-0.12c0.08,-0.09 0.12,-0.19 0.12,-0.31l0.07,-1.82l8.87,0l-0.01,1.59c0,0.12 0.04,0.23 0.13,0.31c0.08,0.09 0.19,0.13 0.31,0.13l62.88,0.18l21.26,8.01l55.19,-0.98l0,0zm-183.29,3.38l9.6,0c0.21,0 0.38,0.09 0.51,0.26c0.13,0.16 0.17,0.35 0.12,0.56l-0.72,2.83c-0.07,0.29 -0.33,0.49 -0.63,0.49l-9.6,0c-0.21,0 -0.38,-0.09 -0.51,-0.25c-0.13,-0.16 -0.17,-0.36 -0.12,-0.56l0.72,-2.83c0.07,-0.3 0.32,-0.5 0.63,-0.5l0,0zm-9.67,0.07l6.74,0c0.13,0 0.25,0.05 0.34,0.16c0.08,0.11 0.11,0.24 0.08,0.37l-0.28,1.21c-0.05,0.2 -0.22,0.33 -0.42,0.33l-6.74,0c-0.14,0 -0.25,-0.05 -0.34,-0.16c-0.08,-0.11 -0.11,-0.24 -0.08,-0.37l0.28,-1.21c0.04,-0.2 0.22,-0.33 0.42,-0.33l0,0z" fill="#A3B9C6" fill-rule="evenodd" id="svg_613"/>
   </g>
   <g id="svg_610" transform="translate(-52.22 -12.445)">
    <polygon clip-rule="evenodd" fill="#C9D5DC" fill-rule="evenodd" id="svg_611" points="332.7,77.053 340.219,77.074 361.482,85.085     362.195,85.072 362.034,85.519 332.7,77.053   "/>
   </g>
   <g id="svg_608" transform="translate(-52.22 -12.445)">
    <path clip-rule="evenodd" d="m416.67,84.11l-18.35,19.7c-0.43,0.46 -0.96,0.69 -1.59,0.69l-159.2,-0.35l-1.25,-2.77l-20.44,-1.04l0.17,-6.07l-3.7,-0.28l-1.35,-0.46l60.31,1.57l89.67,-5.8l55.73,-5.19l0,0z" fill="#4C6186" fill-rule="evenodd" id="svg_609"/>
   </g>
   <g id="svg_606" transform="translate(-52.22 -12.445)">
    <path clip-rule="evenodd" d="m332.09,104.36l-94.56,-0.2l-1.25,-2.78l-20.44,-1.04l0.17,-6.07l-3.7,-0.28l-0.91,-1.71l59.32,0.1l90.76,-7.29l52.81,-0.93c-16.93,7.89 -46.21,15.12 -82.2,20.2l0,0z" fill="#4C6186" fill-rule="evenodd" id="svg_607"/>
   </g>
   <g id="svg_604" transform="translate(-52.22 -12.445)">
    <path clip-rule="evenodd" d="m332.09,104.36l-93.4,-0.2l-1.23,-2.71l-20.39,-1.5l0.17,-6.07l-3.7,-0.29l-0.7,-1.31l57.88,0.1l90.76,-7.29l52.81,-0.93c-16.93,7.89 -46.21,15.12 -82.2,20.2l0,0z" fill="#7894AE" fill-rule="evenodd" id="svg_605"/>
   </g>
   <g id="svg_602" transform="translate(-52.22 -12.445)">
    <path clip-rule="evenodd" d="m403.81,97.92l-5.49,5.89c-0.43,0.46 -0.96,0.69 -1.59,0.69l-159.2,-0.34l-1.25,-2.78l-20.44,-1.04l0.07,-2.42l187.9,0l0,0z" fill="#9A2429" fill-rule="evenodd" id="svg_603"/>
   </g>
   <g id="svg_600" transform="translate(-52.22 -12.445)">
    <path clip-rule="evenodd" d="m332.1,104.36l-94.57,-0.2l-1.25,-2.78l-20.44,-1.04l0.07,-2.42l153.05,0c-11.18,2.39 -23.56,4.56 -36.86,6.44l0,0z" fill="#9A2429" fill-rule="evenodd" id="svg_601"/>
   </g>
   <g id="svg_598" transform="translate(-52.22 -12.445)">
    <path clip-rule="evenodd" d="m332.1,104.36l-93.41,-0.2l-1.23,-2.71l-20.39,-1.5l0.06,-2.03l151.83,0c-11.18,2.39 -23.56,4.56 -36.86,6.44l0,0z" fill="#C12025" fill-rule="evenodd" id="svg_599"/>
   </g>
   <g id="svg_596" transform="translate(-52.22 -12.445)">
    <path clip-rule="evenodd" d="m215.29,94.86l0.71,0l-0.15,5.21l-0.56,0c-0.8,0 -1.46,-0.65 -1.46,-1.46l0,-2.29c0,-0.8 0.66,-1.46 1.46,-1.46l0,0z" fill="#4C6186" fill-rule="evenodd" id="svg_597"/>
   </g>
   <g id="svg_594" transform="translate(-52.22 -12.445)">
    <path clip-rule="evenodd" d="m215.63,95.61l-0.13,4.46l-0.21,0c-0.8,0 -1.46,-0.65 -1.46,-1.46l0,-1.54c0,-0.8 0.66,-1.46 1.46,-1.46l0.34,0l0,0z" fill="#7894AE" fill-rule="evenodd" id="svg_595"/>
   </g>
   <g id="svg_592" transform="translate(-52.22 -12.445)">
    <path clip-rule="evenodd" d="m215.91,97.92l-0.06,2.15l-0.56,0c-0.8,0 -1.46,-0.65 -1.46,-1.46l0,-0.69l2.08,0l0,0z" fill="#9A2429" fill-rule="evenodd" id="svg_593"/>
   </g>
   <g id="svg_590" transform="translate(-52.22 -12.445)">
    <path clip-rule="evenodd" d="m213.83,98.68l0,-0.07l0,-0.69l1.74,0l-0.04,1.45l-0.52,0c-0.5,0 -0.93,-0.28 -1.18,-0.69l0,0z" fill="#C12025" fill-rule="evenodd" id="svg_591"/>
   </g>
   <g id="svg_588" transform="translate(-52.22 -12.445)">
    <path clip-rule="evenodd" d="m213.2,95.7l0.77,0c-0.09,0.19 -0.14,0.4 -0.14,0.62l0,2.29c0,0.22 0.05,0.43 0.14,0.62l-0.77,0l0,-3.53l0,0z" fill="#4C6186" fill-rule="evenodd" id="svg_589"/>
   </g>
   <g id="svg_586" transform="translate(-52.22 -12.445)">
    <path clip-rule="evenodd" d="m213.64,96.71l0,1.9c0,0.22 0.03,0.43 0.1,0.62l-0.54,0l0,-2.52l0.44,0l0,0z" fill="#7894AE" fill-rule="evenodd" id="svg_587"/>
   </g>
   <g id="svg_584" transform="translate(-52.22 -12.445)">
    <path clip-rule="evenodd" d="m213.83,97.92l0,0.69c0,0.22 0.05,0.43 0.14,0.62l-0.77,0l0,-1.31l0.63,0l0,0z" fill="#9A2429" fill-rule="evenodd" id="svg_585"/>
   </g>
   <g id="svg_582" transform="translate(-52.22 -12.445)">
    <polygon clip-rule="evenodd" fill="#9A2429" fill-rule="evenodd" id="svg_583" points="213.832,97.92 213.832,98.584 213.197,98.584     213.197,97.92 213.832,97.92   "/>
   </g>
   <g id="svg_580" transform="translate(-52.22 -12.445)">
    <polygon clip-rule="evenodd" fill="#9A2429" fill-rule="evenodd" id="svg_581" points="221.665,100.637 220.785,106.364 217.801,106.364     217.801,100.44 221.665,100.637   "/>
   </g>
   <g id="svg_578" transform="translate(-52.22 -12.445)">
    <polygon clip-rule="evenodd" fill="#9A2429" fill-rule="evenodd" id="svg_579" points="228.114,99.143 226.64,100.89 228.817,101.001     231.025,99.152 228.114,99.143   "/>
   </g>
   <g id="svg_576" transform="translate(-52.22 -12.445)">
    <path clip-rule="evenodd" d="m278.27,77.87l2.66,0c0.19,0 0.34,0.15 0.34,0.34l0,3.28c0,0.19 -0.15,0.34 -0.34,0.34l-2.66,0c-0.19,0 -0.34,-0.15 -0.34,-0.34l0,-3.28c0,-0.19 0.15,-0.34 0.34,-0.34l0,0z" fill="#4C6186" fill-rule="evenodd" id="svg_577"/>
   </g>
   <g id="svg_574" transform="translate(-52.22 -12.445)">
    <path clip-rule="evenodd" d="m282.05,77.87l2.66,0c0.19,0 0.35,0.15 0.35,0.34l0,3.28c0,0.19 -0.16,0.34 -0.35,0.34l-2.66,0c-0.18,0 -0.34,-0.15 -0.34,-0.34l0,-3.28c0,-0.19 0.16,-0.34 0.34,-0.34l0,0z" fill="#4C6186" fill-rule="evenodd" id="svg_575"/>
   </g>
   <g id="svg_572" transform="translate(-52.22 -12.445)">
    <path clip-rule="evenodd" d="m285.84,77.87l2.66,0c0.19,0 0.34,0.15 0.34,0.34l0,3.28c0,0.19 -0.15,0.34 -0.34,0.34l-2.66,0c-0.19,0 -0.34,-0.15 -0.34,-0.34l0,-3.28c0,-0.19 0.15,-0.34 0.34,-0.34l0,0z" fill="#4C6186" fill-rule="evenodd" id="svg_573"/>
   </g>
   <g id="svg_570" transform="translate(-52.22 -12.445)">
    <path clip-rule="evenodd" d="m293.65,77.97l5.32,0c0.19,0 0.34,0.15 0.34,0.34l0,2.36c0,0.19 -0.15,0.34 -0.34,0.34l-5.32,0c-0.19,0 -0.34,-0.15 -0.34,-0.34l0,-2.36c0,-0.19 0.15,-0.34 0.34,-0.34l0,0z" fill="#4C6186" fill-rule="evenodd" id="svg_571"/>
   </g>
   <g id="svg_568" transform="translate(-52.22 -12.445)">
    <path clip-rule="evenodd" d="m381.91,82.17l2.55,0l0,1.31l-1.84,0c0,-0.29 -0.28,-0.78 -0.71,-1.31l0,0l0,0z" fill="#A3B9C6" fill-rule="evenodd" id="svg_569"/>
   </g>
   <g id="svg_566" transform="translate(-52.22 -12.445)">
    <polygon clip-rule="evenodd" fill="#7894AE" fill-rule="evenodd" id="svg_567" points="384.459,82.483 391.966,82.483 391.966,83.172     384.459,83.172 384.459,82.483   "/>
   </g>
   <g id="svg_564" transform="translate(-52.22 -12.445)">
    <path clip-rule="evenodd" d="m328.38,75.24l0,-4.85c0,-2.17 1.77,-3.94 3.94,-3.94l0,0c2.17,0 3.94,1.77 3.94,3.94l0,4.85l-7.88,0l0,0z" fill="#A3B9C6" fill-rule="evenodd" id="svg_565"/>
   </g>
   <g id="svg_562" transform="translate(-52.22 -12.445)">
    <path clip-rule="evenodd" d="m330.93,66.7c0.43,-0.16 0.9,-0.25 1.39,-0.25l0,0c2.17,0 3.94,1.77 3.94,3.94l0,4.09l-6.64,0l0,-4.85c0,-1.16 0.5,-2.2 1.31,-2.93l0,0z" fill="#C9D5DC" fill-rule="evenodd" id="svg_563"/>
   </g>
   <g id="svg_560" transform="translate(-52.22 -12.445)">
    <path clip-rule="evenodd" d="m331.28,66.96c0.37,-0.13 0.76,-0.21 1.17,-0.21l0,0c1.92,0 3.49,1.57 3.49,3.49l0,0.9c-0.44,0.22 -0.94,0.34 -1.46,0.34c-1.88,0 -3.4,-1.52 -3.4,-3.39c0.01,-0.4 0.07,-0.78 0.2,-1.13l0,0z" fill="#FFFFFF" fill-rule="evenodd" id="svg_561"/>
   </g>
   <g id="svg_558" transform="translate(-52.22 -12.445)">
    <polygon clip-rule="evenodd" fill="#A3B9C6" fill-rule="evenodd" id="svg_559" points="336.26,75.242 336.26,74.015 328.374,74.015     328.374,75.242 336.26,75.242   "/>
   </g>
   <g id="svg_556" transform="translate(-52.22 -12.445)">
    <polygon clip-rule="evenodd" fill="#7894AE" fill-rule="evenodd" id="svg_557" points="330.525,74.162 340.942,74.162 340.219,77.074     331.388,77.074 330.525,74.162   "/>
   </g>
   <g id="svg_554" transform="translate(-52.22 -12.445)">
    <polygon clip-rule="evenodd" fill="#BBC4D4" fill-rule="evenodd" id="svg_555" points="332.735,74.162 340.942,74.162 340.219,77.074     333.201,77.074 332.735,74.162   "/>
   </g>
   <g id="svg_552" transform="translate(-52.22 -12.445)">
    <polygon clip-rule="evenodd" fill="#A3B9C6" fill-rule="evenodd" id="svg_553" points="335.89,74.162 340.942,74.162 340.219,77.074     335.75,77.074 335.89,74.162   "/>
   </g>
   <g id="svg_550" transform="translate(-52.22 -12.445)">
    <polygon clip-rule="evenodd" fill="#7894AE" fill-rule="evenodd" id="svg_551" points="280.214,70.272 287.112,70.272 288.838,76.931     278.853,76.903 280.214,70.272   "/>
   </g>
   <g id="svg_548" transform="translate(-52.22 -12.445)">
    <polygon clip-rule="evenodd" fill="#D3E0E9" fill-rule="evenodd" id="svg_549" points="281.889,70.272 287.112,70.272 288.836,76.926     281.389,76.903 281.889,70.272   "/>
   </g>
   <g id="svg_546" transform="translate(-52.22 -12.445)">
    <polygon clip-rule="evenodd" fill="#A3B9C6" fill-rule="evenodd" id="svg_547" points="281.889,70.272 285.545,70.272 287.268,76.921     281.389,76.903 281.889,70.272   "/>
   </g>
   <g id="svg_544" transform="translate(-52.22 -12.445)">
    <path clip-rule="evenodd" d="m280.69,73.36l0.74,0c0.17,0 0.31,0.14 0.31,0.31l0,2.48c0,0.17 -0.14,0.31 -0.31,0.31l-0.74,0c-0.17,0 -0.31,-0.14 -0.31,-0.31l0,-2.48c0,-0.17 0.14,-0.31 0.31,-0.31l0,0z" fill="#4C6186" fill-rule="evenodd" id="svg_545"/>
   </g>
   <g id="svg_542" transform="translate(-52.22 -12.445)">
    <path clip-rule="evenodd" d="m282.53,73.36l0.74,0c0.17,0 0.31,0.14 0.31,0.31l0,2.48c0,0.17 -0.14,0.31 -0.31,0.31l-0.74,0c-0.17,0 -0.31,-0.14 -0.31,-0.31l0,-2.48c0,-0.17 0.14,-0.31 0.31,-0.31l0,0z" fill="#4C6186" fill-rule="evenodd" id="svg_543"/>
   </g>
   <g id="svg_540" transform="translate(-52.22 -12.445)">
    <path clip-rule="evenodd" d="m284.36,73.36l0.74,0c0.17,0 0.31,0.14 0.31,0.31l0,2.48c0,0.17 -0.14,0.31 -0.31,0.31l-0.74,0c-0.17,0 -0.31,-0.14 -0.31,-0.31l0,-2.48c0,-0.17 0.14,-0.31 0.31,-0.31l0,0z" fill="#4C6186" fill-rule="evenodd" id="svg_541"/>
   </g>
   <g id="svg_538" transform="translate(-52.22 -12.445)">
    <path clip-rule="evenodd" d="m286.19,73.36l0.75,0c0.17,0 0.31,0.14 0.31,0.31l0,2.48c0,0.17 -0.14,0.31 -0.31,0.31l-0.75,0c-0.17,0 -0.31,-0.14 -0.31,-0.31l0,-2.48c0,-0.17 0.14,-0.31 0.31,-0.31l0,0z" fill="#4C6186" fill-rule="evenodd" id="svg_539"/>
   </g>
   <g id="svg_536" transform="translate(-52.22 -12.445)">
    <path clip-rule="evenodd" d="m294.02,69.15c0.86,0 1.56,0.7 1.56,1.56c0,0.18 -0.03,0.35 -0.08,0.51l-0.29,1.68l-2.4,0l-0.27,-1.7c-0.05,-0.15 -0.08,-0.32 -0.08,-0.49c0,-0.86 0.7,-1.56 1.56,-1.56l0,0z" fill="#A3B9C6" fill-rule="evenodd" id="svg_537"/>
   </g>
   <g id="svg_534" transform="translate(-52.22 -12.445)">
    <path clip-rule="evenodd" d="m294.02,69.15c0.86,0 1.56,0.7 1.56,1.56c0,0.18 -0.03,0.35 -0.08,0.51l-0.25,1.47l-1.74,0l-0.28,-1.7c-0.05,-0.15 -0.08,-0.32 -0.08,-0.49c0,-0.57 0.32,-1.08 0.78,-1.35c0.03,0 0.06,0 0.09,0l0,0z" fill="#D3E0E9" fill-rule="evenodd" id="svg_535"/>
   </g>
   <g id="svg_532" transform="translate(-52.22 -12.445)">
    <polygon clip-rule="evenodd" fill="#A3B9C6" fill-rule="evenodd" id="svg_533" points="265.888,71.926 266.126,71.926 265.758,72.857     265.52,72.857 265.888,71.926   "/>
   </g>
   <g id="svg_530" transform="translate(-52.22 -12.445)">
    <path clip-rule="evenodd" d="m266.44,71.93c0.08,0 0.16,0 0.24,0c-0.08,0.31 -0.15,0.62 -0.23,0.93c-0.08,0 -0.16,0 -0.24,0c0.08,-0.31 0.15,-0.62 0.23,-0.93l0,0z" fill="#A3B9C6" fill-rule="evenodd" id="svg_531"/>
   </g>
   <g id="svg_528" transform="translate(-52.22 -12.445)">
    <path clip-rule="evenodd" d="m266.99,71.93c0.07,0 0.15,0 0.23,0c-0.02,0.31 -0.05,0.62 -0.07,0.93c-0.08,0 -0.16,0 -0.24,0c0.02,-0.31 0.05,-0.62 0.08,-0.93l0,0z" fill="#A3B9C6" fill-rule="evenodd" id="svg_529"/>
   </g>
   <g id="svg_526" transform="translate(-52.22 -12.445)">
    <path clip-rule="evenodd" d="m267.54,71.93c0.07,0 0.15,0 0.23,0c0.03,0.31 0.05,0.62 0.07,0.93c-0.08,0 -0.16,0 -0.24,0c-0.02,-0.31 -0.04,-0.62 -0.06,-0.93l0,0z" fill="#A3B9C6" fill-rule="evenodd" id="svg_527"/>
   </g>
   <g id="svg_524" transform="translate(-52.22 -12.445)">
    <path clip-rule="evenodd" d="m268.08,71.93c0.08,0 0.16,0 0.24,0c0.07,0.31 0.14,0.62 0.21,0.93c-0.07,0 -0.15,0 -0.23,0c-0.07,-0.31 -0.15,-0.62 -0.22,-0.93l0,0z" fill="#A3B9C6" fill-rule="evenodd" id="svg_525"/>
   </g>
   <g id="svg_522" transform="translate(-52.22 -12.445)">
    <polygon clip-rule="evenodd" fill="#A3B9C6" fill-rule="evenodd" id="svg_523" points="268.632,71.926 268.869,71.926 269.228,72.857     268.99,72.857 268.632,71.926   "/>
   </g>
   <g id="svg_520" transform="translate(-52.22 -12.445)">
    <path d="m326.13,76.93l-0.34,0l0,-0.02l-48.85,0l0,-2.43l0.34,0l0,0.05l3.17,0l0,-0.05l0.34,0l0,0.05l3.17,0l0,-0.05l0.34,0l0,0.05l3.17,0l0,-0.05l0.34,0l0,0.05l3.16,0l0,-0.05l0.34,0l0,0.05l3.17,0l0,-0.05l0.34,0l0,0.05l3.17,0l0,-0.05l0.34,0l0,0.05l3.17,0l0,-0.05l0.34,0l0,0.05l3.17,0l0,-0.05l0.34,0l0,0.05l3.16,0l0,-0.05l0.34,0l0,0.05l3.17,0l0,-0.05l0.34,0l0,0.05l3.17,0l0,-0.05l0.34,0l0,0.05l3.17,0l0,-0.05l0.34,0l0,0.05l3.17,0l0,-0.05l0.34,0l0,0.05l2.9,0l0,-0.03l0.34,0l0,0.03l0.03,0l0,0.22l-0.03,0l0,0.55l0.03,0l0,0.22l-0.03,0l0,0.59l0.03,0l0,0.21l-0.03,0l0,0.37l0.03,0l0,0.22l-0.03,0l0,0.02zm-3.25,-0.24l2.91,0l0,-0.37l-2.91,0l0,0.37zm-3.5,0l3.17,0l0,-0.37l-3.17,0l0,0.37zm-3.51,0l3.17,0l0,-0.37l-3.17,0l0,0.37zm-3.51,0l3.17,0l0,-0.37l-3.17,0l0,0.37zm-3.51,0l3.17,0l0,-0.37l-3.17,0l0,0.37zm-3.5,0l3.16,0l0,-0.37l-3.16,0l0,0.37zm-3.51,0l3.17,0l0,-0.37l-3.17,0l0,0.37zm-3.51,0l3.17,0l0,-0.37l-3.17,0l0,0.37zm-3.51,0l3.17,0l0,-0.37l-3.17,0l0,0.37zm-3.51,0l3.17,0l0,-0.37l-3.17,0l0,0.37zm-3.5,0l3.16,0l0,-0.37l-3.16,0l0,0.37zm-3.51,0l3.17,0l0,-0.37l-3.17,0l0,0.37zm-3.51,0l3.17,0l0,-0.37l-3.17,0l0,0.37zm-3.51,0l3.17,0l0,-0.37l-3.17,0l0,0.37zm45.6,-0.58l2.91,0l0,-0.59l-2.91,0l0,0.59zm-3.5,0l3.17,0l0,-0.59l-3.17,0l0,0.59zm-3.51,0l3.17,0l0,-0.59l-3.17,0l0,0.59zm-3.51,0l3.17,0l0,-0.59l-3.17,0l0,0.59zm-3.51,0l3.17,0l0,-0.59l-3.17,0l0,0.59zm-3.5,0l3.16,0l0,-0.59l-3.16,0l0,0.59zm-3.51,0l3.17,0l0,-0.59l-3.17,0l0,0.59zm-3.51,0l3.17,0l0,-0.59l-3.17,0l0,0.59zm-3.51,0l3.17,0l0,-0.59l-3.17,0l0,0.59zm-3.51,0l3.17,0l0,-0.59l-3.17,0l0,0.59zm-3.5,0l3.16,0l0,-0.59l-3.16,0l0,0.59zm-3.51,0l3.17,0l0,-0.59l-3.17,0l0,0.59zm-3.51,0l3.17,0l0,-0.59l-3.17,0l0,0.59zm-3.51,0l3.17,0l0,-0.59l-3.17,0l0,0.59zm45.6,-0.81l2.91,0l0,-0.55l-2.91,0l0,0.55zm-3.5,0l3.17,0l0,-0.55l-3.17,0l0,0.55zm-3.51,0l3.17,0l0,-0.55l-3.17,0l0,0.55zm-3.51,0l3.17,0l0,-0.55l-3.17,0l0,0.55zm-3.51,0l3.17,0l0,-0.55l-3.17,0l0,0.55zm-3.5,0l3.16,0l0,-0.55l-3.16,0l0,0.55zm-3.51,0l3.17,0l0,-0.55l-3.17,0l0,0.55zm-3.51,0l3.17,0l0,-0.55l-3.17,0l0,0.55zm-3.51,0l3.17,0l0,-0.55l-3.17,0l0,0.55zm-3.51,0l3.17,0l0,-0.55l-3.17,0l0,0.55zm-3.5,0l3.16,0l0,-0.55l-3.16,0l0,0.55zm-3.51,0l3.17,0l0,-0.55l-3.17,0l0,0.55zm-3.51,0l3.17,0l0,-0.55l-3.17,0l0,0.55zm-3.51,0l3.17,0l0,-0.55l-3.17,0l0,0.55z" fill="#231F20" id="svg_521"/>
   </g>
   <g id="svg_518" transform="translate(-52.22 -12.445)">
    <polygon clip-rule="evenodd" fill="#9A2429" fill-rule="evenodd" id="svg_519" points="292.291,104.273 237.534,104.155 236.279,101.389     292.291,104.273   "/>
   </g>
   <g id="svg_516" transform="translate(-52.22 -12.445)">
    <path clip-rule="evenodd" d="m242.84,104.17l5.92,-3.48c0.13,-0.07 0.3,-0.04 0.37,0.09l0,0c0.07,0.12 0.02,0.28 -0.1,0.35l-5.18,3.04l-1.01,0l0,0z" fill="#9A2429" fill-rule="evenodd" id="svg_517"/>
   </g>
   <g id="svg_514" transform="translate(-52.22 -12.445)">
    <polygon clip-rule="evenodd" fill="#ED1C24" fill-rule="evenodd" id="svg_515" points="225.192,102.794 231.693,102.148 231.784,103.07     225.284,103.716 225.192,102.794   "/>
   </g>
   <g id="svg_512" transform="translate(-52.22 -12.445)">
    <polygon clip-rule="evenodd" fill="#7894AE" fill-rule="evenodd" id="svg_513" points="414.248,73.303 414.536,73.303 414.536,84.112     414.248,84.112 414.248,73.303   "/>
   </g>
   <g id="svg_510" transform="translate(-52.22 -12.445)">
    <path d="m315.53,62.29l-0.34,0l0,-0.02l-2.78,0l0,0.01l-0.34,0l0,-0.01l-6.24,0l0,-2.43l0.34,0l0,0.05l2.78,0l0,-0.05l0.34,0l0,0.05l2.78,0l0,-0.04l0.34,0l0,0.04l2.78,0l0,-0.03l0.34,0l0,2.43zm-3.12,-0.24l2.78,0l0,-0.37l-2.78,0l0,0.37zm-3.12,0l2.78,0l0,-0.37l-2.78,0l0,0.37zm-3.12,0l2.78,0l0,-0.37l-2.78,0l0,0.37zm6.24,-0.58l2.78,0l0,-0.59l-2.78,0l0,0.59zm-3.12,0l2.78,0l0,-0.59l-2.78,0l0,0.59zm-3.12,0l2.78,0l0,-0.59l-2.78,0l0,0.59zm6.24,-0.81l2.78,0l0,-0.56l-2.78,0l0,0.56zm-3.12,0l2.78,0l0,-0.56l-2.78,0l0,0.56zm-3.12,0l2.78,0l0,-0.56l-2.78,0l0,0.56z" fill="#231F20" id="svg_511"/>
   </g>
   <g id="svg_508" transform="translate(-52.22 -12.445)">
    <path clip-rule="evenodd" d="m401.75,88.77c0.06,-0.04 0.11,-0.08 0.16,-0.11l0.41,2.69c-0.63,0.19 -1.2,0.12 -1.49,-0.26c-0.43,-0.56 -0.02,-1.6 0.92,-2.32l0,0zm0.25,-0.17c0.77,-0.49 1.6,-0.59 2.06,-0.27l-0.31,1.23l-0.57,0.09l-0.05,0.63l-1.13,-1.68l0,0z" fill="#A3B9C6" fill-rule="evenodd" id="svg_509"/>
   </g>
   <g id="svg_506" transform="translate(-52.22 -12.445)">
    <path clip-rule="evenodd" d="m401.92,89.06c0.04,-0.03 0.08,-0.06 0.12,-0.08l0.29,1.94c-0.45,0.14 -0.87,0.08 -1.07,-0.19c-0.31,-0.41 -0.01,-1.16 0.66,-1.67l0,0zm0.18,-0.12c0.55,-0.35 1.15,-0.43 1.48,-0.2l-0.22,0.89l-0.45,0.52l-0.81,-1.21l0,0z" fill="#4C6186" fill-rule="evenodd" id="svg_507"/>
   </g>
   <g id="svg_504" transform="translate(-52.22 -12.445)">
    <polygon clip-rule="evenodd" fill="#A3B9C6" fill-rule="evenodd" id="svg_505" points="401.877,88.419 402.351,91.577 403.585,90.96     401.877,88.419   "/>
   </g>
   <g id="svg_502" transform="translate(-52.22 -12.445)">
    <polygon clip-rule="evenodd" fill="#A3B9C6" fill-rule="evenodd" id="svg_503" points="404.226,87.659 404.937,90.77 403.015,91.625     403.049,91.228 403.585,90.96 403.128,90.281 403.182,89.653 403.751,89.558 404.226,87.659   "/>
   </g>
   <g id="svg_500" transform="translate(-52.22 -12.445)">
    <polygon clip-rule="evenodd" fill="#C9D5DC" fill-rule="evenodd" id="svg_501" points="401.877,88.419 403.317,91.094 403.585,90.96     401.877,88.419   "/>
   </g>
   <g id="svg_498" transform="translate(-52.22 -12.445)">
    <polygon clip-rule="evenodd" fill="#C9D5DC" fill-rule="evenodd" id="svg_499" points="404.226,87.659 404.937,90.77 404.427,90.996     404.226,87.659   "/>
   </g>
   <g id="svg_496" transform="translate(-52.22 -12.445)">
    <polygon clip-rule="evenodd" fill="#9A2429" fill-rule="evenodd" id="svg_497" points="302.032,101.515 300.083,104.29 296.414,104.282     297.719,101.5 302.032,101.515   "/>
   </g>
   <g id="svg_494" transform="translate(-52.22 -12.445)">
    <path clip-rule="evenodd" d="m333.82,74.85l1.18,0c0.16,0 0.28,0.13 0.28,0.28l0,1.23c0,0.16 -0.12,0.28 -0.28,0.28l-1,0c-0.16,0 -0.26,-0.12 -0.28,-0.28l-0.18,-1.23c-0.03,-0.15 0.12,-0.28 0.28,-0.28l0,0z" fill="#4C6186" fill-rule="evenodd" id="svg_495"/>
   </g>
   <g id="svg_492" transform="translate(-52.22 -12.445)">
    <path clip-rule="evenodd" d="m336.72,74.85l0.77,0c0.17,0 0.33,0.13 0.31,0.28l-0.15,1.23c-0.02,0.15 -0.15,0.28 -0.32,0.28l-0.67,0c-0.18,0 -0.33,-0.12 -0.32,-0.28l0.07,-1.23c0.01,-0.15 0.14,-0.28 0.31,-0.28l0,0z" fill="#4C6186" fill-rule="evenodd" id="svg_493"/>
   </g>
   <g id="svg_490" transform="translate(-52.22 -12.445)">
    <path clip-rule="evenodd" d="m331.58,74.85l0.58,0c0.15,0 0.26,0.13 0.28,0.28l0.18,1.23c0.02,0.15 -0.13,0.28 -0.28,0.28l-0.4,0c-0.16,0 -0.24,-0.13 -0.28,-0.28l-0.36,-1.23c-0.05,-0.15 0.12,-0.28 0.28,-0.28l0,0z" fill="#4C6186" fill-rule="evenodd" id="svg_491"/>
   </g>
   <g id="svg_488" transform="translate(-52.22 -12.445)">
    <path clip-rule="evenodd" d="m338.82,74.85l0.76,0c0.17,0 0.33,0.13 0.3,0.28l-0.25,1.23c-0.03,0.15 -0.16,0.28 -0.33,0.28l-0.68,0c-0.17,0 -0.31,-0.12 -0.29,-0.28l0.15,-1.23c0.02,-0.15 0.16,-0.28 0.34,-0.28l0,0z" fill="#4C6186" fill-rule="evenodd" id="svg_489"/>
   </g>
   <g id="svg_486" transform="translate(-52.22 -12.445)">
    <polygon clip-rule="evenodd" fill="#7894AE" fill-rule="evenodd" id="svg_487" points="330.404,73.891 341.079,73.891 341.079,74.162     330.404,74.162 330.404,73.891   "/>
   </g>
   <g id="svg_484" transform="translate(-52.22 -12.445)">
    <polygon clip-rule="evenodd" fill="#7E95B2" fill-rule="evenodd" id="svg_485" points="341.08,69.748 341.29,69.748 341.29,74.174     341.08,74.174 341.08,69.748   "/>
   </g>
   <g id="svg_482" transform="translate(-52.22 -12.445)">
    <polygon clip-rule="evenodd" fill="#7E95B2" fill-rule="evenodd" id="svg_483" points="343.065,69.494 342.778,69.494 342.778,70.201     343.065,70.201 343.065,69.494   "/>
   </g>
   <g id="svg_480" transform="translate(-52.22 -12.445)">
    <polygon clip-rule="evenodd" fill="#7E95B2" fill-rule="evenodd" id="svg_481" points="343.065,73.523 342.778,73.523 342.778,74.23     343.065,74.23 343.065,73.523   "/>
   </g>
   <g id="svg_478" transform="translate(-52.22 -12.445)">
    <polygon clip-rule="evenodd" fill="#7E95B2" fill-rule="evenodd" id="svg_479" points="341.08,69.748 342.922,69.748 342.922,69.947     341.08,69.947 341.08,69.748   "/>
   </g>
   <g id="svg_476" transform="translate(-52.22 -12.445)">
    <polygon clip-rule="evenodd" fill="#7E95B2" fill-rule="evenodd" id="svg_477" points="341.08,73.777 342.922,73.777 342.922,73.976     341.08,73.976 341.08,73.777   "/>
   </g>
   <g id="svg_474" transform="translate(-52.22 -12.445)">
    <path clip-rule="evenodd" d="m320.7,63.28l0.93,-0.4c0.28,-0.13 0.61,0 0.74,0.29l0.71,1.65c0.12,0.29 -0.01,0.62 -0.29,0.74l-0.94,0.4c-0.05,0.03 -0.11,0.04 -0.17,0.04l-1.22,-2.53c0.06,-0.08 0.14,-0.15 0.24,-0.19l0,0zm0.97,2.73c-0.02,0 -0.05,0 -0.07,0l0.07,0l0,0z" fill="#D3E0E9" fill-rule="evenodd" id="svg_475"/>
   </g>
   <g id="svg_472" transform="translate(-52.22 -12.445)">
    <path clip-rule="evenodd" d="m322.79,65.56l0,0l-0.94,0.4c-0.05,0.03 -0.11,0.04 -0.17,0.04l-1.08,-2.26l0.7,-0.3c0.28,-0.12 0.61,0.01 0.73,0.29l0.72,1.66c0.02,0.06 0.04,0.11 0.04,0.17l0,0zm-1.12,0.45c-0.02,0 -0.05,0 -0.07,0l0.07,0l0,0z" fill="#A3B9C6" fill-rule="evenodd" id="svg_473"/>
   </g>
   <g id="svg_470" transform="translate(-52.22 -12.445)">
    <path clip-rule="evenodd" d="m320.46,63.47c-0.74,0.44 -1.18,0.97 -1.08,1.95c0.04,0.34 0.32,0.59 0.66,0.59l1.64,0l-1.22,-2.54l0,0z" fill="#BBC4D4" fill-rule="evenodd" id="svg_471"/>
   </g>
   <g id="svg_468" transform="translate(-52.22 -12.445)">
    <path clip-rule="evenodd" d="m319.4,64.8c-0.03,0.18 -0.04,0.39 -0.02,0.62c0.04,0.34 0.32,0.59 0.66,0.59l1.64,0l-1.09,-2.27c-0.51,0.31 -0.91,0.64 -1.19,1.06l0,0z" fill="#7894AE" fill-rule="evenodd" id="svg_469"/>
   </g>
   <g id="svg_466" transform="translate(-52.22 -12.445)">
    <polygon clip-rule="evenodd" fill="#4C6186" fill-rule="evenodd" id="svg_467" points="320.035,66.011 321.463,66.011 321.463,66.577     320.035,66.577 320.035,66.011   "/>
   </g>
   <g id="svg_464" transform="translate(-52.22 -12.445)">
    <polygon clip-rule="evenodd" fill="#4C6186" fill-rule="evenodd" id="svg_465" points="319.334,66.926 322.164,66.926 322.164,67.383     319.334,67.383 319.334,66.926   "/>
   </g>
   <g id="svg_462" transform="translate(-52.22 -12.445)">
    <polygon clip-rule="evenodd" fill="#7894AE" fill-rule="evenodd" id="svg_463" points="305.498,50.529 305.709,50.529 305.709,54.956     305.498,54.956 305.498,50.529   "/>
   </g>
   <g id="svg_460" transform="translate(-52.22 -12.445)">
    <path clip-rule="evenodd" d="m305.6,47.69l0,0c0.19,0 0.34,0.03 0.34,0.07l0,2.7c0,0.04 -0.15,0.07 -0.34,0.07l0,0c-0.18,0 -0.33,-0.03 -0.33,-0.07l0,-2.7c0,-0.04 0.15,-0.07 0.33,-0.07l0,0z" fill="#7894AE" fill-rule="evenodd" id="svg_461"/>
   </g>
   <g id="svg_458" transform="translate(-52.22 -12.445)">
    <polygon clip-rule="evenodd" fill="#7894AE" fill-rule="evenodd" id="svg_459" points="307.483,50.275 307.196,50.275 307.196,50.982     307.483,50.982 307.483,50.275   "/>
   </g>
   <g id="svg_456" transform="translate(-52.22 -12.445)">
    <polygon clip-rule="evenodd" fill="#7894AE" fill-rule="evenodd" id="svg_457" points="305.498,50.529 307.34,50.529 307.34,50.728     305.498,50.728 305.498,50.529   "/>
   </g>
   <g id="svg_454" transform="translate(-52.22 -12.445)">
    <polygon clip-rule="evenodd" fill="#BBC4D4" fill-rule="evenodd" id="svg_455" points="327.107,77.047 330.454,77.047 329.575,81.164     328.213,81.164 327.107,77.047   "/>
   </g>
   <g id="svg_452" transform="translate(-52.22 -12.445)">
    <polygon clip-rule="evenodd" fill="#7894AE" fill-rule="evenodd" id="svg_453" points="327.107,77.047 325.575,77.047 328.213,81.164     327.107,77.047   "/>
   </g>
   <g id="svg_450" transform="translate(-52.22 -12.445)">
    <polygon clip-rule="evenodd" fill="#7894AE" fill-rule="evenodd" id="svg_451" points="330.454,77.047 332.865,77.047 329.575,81.164     330.454,77.047   "/>
   </g>
   <g id="svg_448" transform="translate(-52.22 -12.445)">
    <polygon clip-rule="evenodd" fill="#4C6186" fill-rule="evenodd" id="svg_449" points="310.39,63.148 312.16,63.142 312.158,64.692     310.39,63.148   "/>
   </g>
   <g id="svg_446" transform="translate(-52.22 -12.445)">
    <polygon clip-rule="evenodd" fill="#A3B9C6" fill-rule="evenodd" id="svg_447" points="313.93,63.148 312.161,63.142 312.162,64.692     313.93,63.148   "/>
   </g>
   <g id="svg_444" transform="translate(-52.22 -12.445)">
    <path clip-rule="evenodd" d="m319.17,66.54l3.16,0c0.11,0 0.2,0.09 0.2,0.19l0,0c0,0.11 -0.09,0.2 -0.2,0.2l-3.16,0c-0.11,0 -0.2,-0.09 -0.2,-0.2l0,0c0,-0.1 0.09,-0.19 0.2,-0.19l0,0z" fill="#BBC4D4" fill-rule="evenodd" id="svg_445"/>
   </g>
   <g id="svg_442" transform="translate(-52.22 -12.445)">
    <path clip-rule="evenodd" d="m319.17,67.38l3.16,0c0.11,0 0.2,0.09 0.2,0.19l0,0c0,0.11 -0.09,0.2 -0.2,0.2l-3.16,0c-0.11,0 -0.2,-0.09 -0.2,-0.2l0,0c0,-0.1 0.09,-0.19 0.2,-0.19l0,0z" fill="#BBC4D4" fill-rule="evenodd" id="svg_443"/>
   </g>
   <g id="svg_440" transform="translate(-52.22 -12.445)">
    <path d="m308.9,57.29l-1.32,-0.18l0.27,-2.04l0.07,-0.02l3.34,-0.84l0,-3.61l1.36,0l-0.07,0.07l0,0.97l0.07,0l-0.07,0.07l0,0.97l0.07,0l-0.07,0.07l0,0.98l0.07,0l-0.07,0.07l0,1.35l-1.16,0l-0.03,0.03l-2.46,2.11zm-1.08,-0.37l1.01,0.14l0.86,-0.73l-0.46,-1.39l-1.19,0.3l-0.22,1.68zm1.62,-2.03l0.43,1.29l1.31,-1.13l-0.02,-0.6l-1.72,0.44zm2.04,0.05l0.85,0l0,-0.92l-0.85,0.9l0,0.02zm0,-1l0,0.67l0.63,-0.67l-0.63,0zm0.14,-0.21l0.71,0l0,-0.75l-0.71,0.75zm-0.14,-0.83l0,0.66l0.63,-0.66l-0.63,0zm0.14,-0.21l0.71,0l0,-0.75l-0.71,0.75zm-0.14,-0.83l0,0.66l0.63,-0.66l-0.63,0zm0.14,-0.22l0.71,0l0,-0.74l-0.71,0.74zm-0.14,-0.82l0,0.66l0.63,-0.66l-0.63,0z" fill="#231F20" id="svg_441"/>
   </g>
   <g id="svg_438" transform="translate(-52.22 -12.445)">
    <path clip-rule="evenodd" d="m312.33,49.63l0.01,0l3.08,10.07c0,0 -0.01,0.01 -0.01,0.01c-0.45,0.13 -1.5,-2.01 -2.35,-4.79c-0.85,-2.78 -1.18,-5.15 -0.73,-5.29l0,0z" fill="#7894AE" fill-rule="evenodd" id="svg_439"/>
   </g>
   <g id="svg_436" transform="translate(-52.22 -12.445)">
    <path clip-rule="evenodd" d="m313.01,51.8l2.41,7.9c0,0 -0.01,0 -0.02,0.01c-0.35,0.11 -1.1,-1.25 -1.82,-3.22c-0.74,-2.46 -0.99,-4.4 -0.57,-4.69l0,0z" fill="#4C6186" fill-rule="evenodd" id="svg_437"/>
   </g>
   <g id="svg_434" transform="translate(-52.22 -12.445)">
    <path d="m373.81,96l0,-1.45l-2.02,0l0,-0.92l1.8,-5.84l1.33,0l0,5.75l0.64,0l0,1.01l-0.64,0l0,1.45l-1.11,0l0,0zm-1.06,-2.45l1.06,0l0,-4.05l-1.06,4.05l0,0z" fill="#C9D5DC" id="svg_435"/>
   </g>
   <g id="svg_432" transform="translate(-52.22 -12.445)">
    <path d="m377,96l0,-6.66c-0.11,0.13 -0.25,0.23 -0.44,0.3c-0.2,0.07 -0.39,0.1 -0.57,0.1l0,-0.92c0.26,-0.04 0.51,-0.15 0.75,-0.32c0.24,-0.18 0.42,-0.42 0.54,-0.71l0.97,0l0,8.21l-1.25,0l0,0z" fill="#C9D5DC" id="svg_433"/>
   </g>
   <g id="svg_430" transform="translate(-52.22 -12.445)">
    <path d="m380.15,96l0,-6.66c-0.11,0.13 -0.26,0.23 -0.45,0.3c-0.19,0.07 -0.38,0.1 -0.57,0.1l0,-0.92c0.27,-0.04 0.52,-0.15 0.76,-0.32c0.23,-0.18 0.41,-0.42 0.54,-0.71l0.97,0l0,8.21l-1.25,0l0,0z" fill="#C9D5DC" id="svg_431"/>
   </g>
   <g id="svg_428" transform="translate(-52.22 -12.445)">
    <path clip-rule="evenodd" d="m293.8,69.5c0.11,-0.04 0.23,-0.06 0.36,-0.06l0,0c0.58,0 1.06,0.47 1.06,1.06l0,0.27c-0.14,0.06 -0.29,0.1 -0.45,0.1c-0.57,0 -1.03,-0.46 -1.03,-1.03c0,-0.12 0.02,-0.23 0.06,-0.34l0,0z" fill="#FFFFFF" fill-rule="evenodd" id="svg_429"/>
   </g>
   <g id="svg_426" transform="translate(-52.22 -12.445)">
    <path clip-rule="evenodd" d="m387.47,86.18l3.49,-0.03c0.17,0 0.32,0.14 0.32,0.31l0,0c0,0.18 -0.14,0.32 -0.32,0.32l-3.48,0.04c-0.18,0 -0.32,-0.14 -0.32,-0.32l0,0c0,-0.17 0.14,-0.32 0.31,-0.32l0,0z" fill="#4C6186" fill-rule="evenodd" id="svg_427"/>
   </g>
   <g id="svg_424" transform="translate(-52.22 -12.445)">
    <path clip-rule="evenodd" d="m368.41,86.48l3.48,-0.03c0.18,0 0.32,0.14 0.32,0.32l0,0c0,0.17 -0.14,0.31 -0.31,0.32l-3.49,0.03c-0.17,0 -0.31,-0.14 -0.32,-0.32l0,0c0,-0.17 0.14,-0.31 0.32,-0.32l0,0z" fill="#4C6186" fill-rule="evenodd" id="svg_425"/>
   </g>
   <g id="svg_422" transform="translate(-52.22 -12.445)">
    <path d="m378.56,85.56l-0.97,0c-0.25,0 -0.46,-0.2 -0.46,-0.46l0,-2.69c0,-0.25 0.21,-0.46 0.46,-0.46l0.97,0c0.26,0 0.46,0.21 0.46,0.46l0,2.69c0,0.26 -0.21,0.46 -0.46,0.46zm-0.97,-3.39c-0.14,0 -0.24,0.11 -0.24,0.24l0,2.69c0,0.14 0.1,0.25 0.24,0.25l0.97,0c0.14,0 0.25,-0.11 0.25,-0.25l0,-2.69c0,-0.13 -0.11,-0.24 -0.25,-0.24l-0.97,0zm-1.87,3.39l-0.98,0c-0.25,0 -0.46,-0.2 -0.46,-0.46l0,-2.69c0,-0.25 0.21,-0.46 0.46,-0.46l0.98,0c0.25,0 0.46,0.21 0.46,0.46l0,2.69c0,0.26 -0.21,0.46 -0.46,0.46zm-0.98,-3.39c-0.13,0 -0.24,0.11 -0.24,0.24l0,2.69c0,0.14 0.11,0.25 0.24,0.25l0.98,0c0.13,0 0.24,-0.11 0.24,-0.25l0,-2.69c0,-0.13 -0.11,-0.24 -0.24,-0.24l-0.98,0z" fill="#7894AE" id="svg_423"/>
   </g>
   <g id="svg_419" transform="translate(-52.22 -12.445)">
    <path clip-rule="evenodd" d="m278.11,84.09l14.95,0c0.15,0 0.27,0.12 0.27,0.27l0,2.07c0,0.14 -0.12,0.27 -0.27,0.27l-14.95,0c-0.15,0 -0.27,-0.12 -0.27,-0.27l0,-2.07c0,-0.15 0.12,-0.27 0.27,-0.27l0,0z" fill="#D3E0E9" fill-rule="evenodd" id="svg_420"/>
    <path d="m293.06,86.81l-14.95,0c-0.21,0 -0.38,-0.17 -0.38,-0.38l0,-2.07c0,-0.2 0.17,-0.37 0.38,-0.37l14.95,0c0.21,0 0.38,0.17 0.38,0.37l0,2.07c0,0.21 -0.17,0.38 -0.38,0.38zm-14.95,-2.61c-0.09,0 -0.16,0.07 -0.16,0.16l0,2.07c0,0.09 0.07,0.16 0.16,0.16l14.95,0c0.09,0 0.16,-0.07 0.16,-0.16l0,-2.07c0,-0.09 -0.07,-0.16 -0.16,-0.16l-14.95,0z" fill="#4C6186" id="svg_421"/>
   </g>
   <g id="svg_417" transform="translate(-52.22 -12.445)">
    <path clip-rule="evenodd" d="m292.89,86.53l-14.65,0c-0.14,0 -0.26,-0.11 -0.26,-0.25l0,-1.83l14.65,0c0.14,0 0.26,0.12 0.26,0.25l0,1.83l0,0z" fill="#A3B9C6" fill-rule="evenodd" id="svg_418"/>
   </g>
   <g id="svg_414" transform="translate(-52.22 -12.445)">
    <path clip-rule="evenodd" d="m293.56,81.6l2.22,0c0.14,0 0.26,0.12 0.26,0.26l0,4.59c0,0.14 -0.12,0.26 -0.26,0.26l-2.22,0c-0.14,0 -0.26,-0.12 -0.26,-0.26l0,-4.59c0,-0.14 0.12,-0.26 0.26,-0.26l0,0z" fill="#D3E0E9" fill-rule="evenodd" id="svg_415"/>
    <path d="m295.78,86.82l-2.22,0c-0.2,0 -0.37,-0.17 -0.37,-0.37l0,-4.58c0,-0.21 0.17,-0.37 0.37,-0.37l2.22,0c0.2,0 0.37,0.16 0.37,0.37l0,4.58c0,0.2 -0.17,0.37 -0.37,0.37zm-2.22,-5.11c-0.08,0 -0.15,0.07 -0.15,0.15l0,4.59c0,0.08 0.07,0.15 0.15,0.15l2.22,0c0.08,0 0.15,-0.07 0.15,-0.15l0,-4.59c0,-0.08 -0.07,-0.15 -0.15,-0.15l-2.22,0z" fill="#4C6186" id="svg_416"/>
   </g>
   <g id="svg_412" transform="translate(-52.22 -12.445)">
    <path clip-rule="evenodd" d="m295.67,86.6l-1.97,0c-0.14,0 -0.25,-0.12 -0.25,-0.26l0,-4.38l1.97,0c0.14,0 0.25,0.12 0.25,0.26l0,4.38l0,0z" fill="#A3B9C6" fill-rule="evenodd" id="svg_413"/>
   </g>
   <g id="svg_409" transform="translate(-52.22 -12.445)">
    <path clip-rule="evenodd" d="m217.01,90.12c0.46,0 0.83,0.37 0.83,0.83c0,0.46 -0.37,0.83 -0.83,0.83s-0.83,-0.37 -0.83,-0.83c0,-0.45 0.37,-0.83 0.83,-0.83l0,0zm0,0.45c0.21,0 0.38,0.17 0.38,0.38c0,0.21 -0.17,0.38 -0.38,0.38c-0.21,0 -0.38,-0.17 -0.38,-0.38c0,-0.21 0.17,-0.38 0.38,-0.38l0,0z" fill="#7894AE" fill-rule="evenodd" id="svg_410"/>
    <path d="m217.01,91.89c-0.52,0 -0.94,-0.42 -0.94,-0.94s0.42,-0.93 0.94,-0.93s0.94,0.42 0.94,0.93s-0.42,0.94 -0.94,0.94zm0,-1.66c-0.4,0 -0.72,0.32 -0.72,0.72s0.32,0.72 0.72,0.72s0.72,-0.32 0.72,-0.72s-0.32,-0.72 -0.72,-0.72zm0,1.21c-0.27,0 -0.49,-0.22 -0.49,-0.49c0,-0.27 0.22,-0.49 0.49,-0.49c0.27,0 0.49,0.22 0.49,0.49c0,0.27 -0.22,0.49 -0.49,0.49zm0,-0.76c-0.15,0 -0.28,0.12 -0.28,0.27c0,0.15 0.13,0.28 0.28,0.28c0.15,0 0.27,-0.13 0.27,-0.28c0,-0.15 -0.12,-0.27 -0.27,-0.27z" fill="#4C6186" id="svg_411"/>
   </g>
   <g id="svg_406" transform="translate(-52.22 -12.445)">
    <path clip-rule="evenodd" d="m227.22,90.12c0.46,0 0.83,0.37 0.83,0.83c0,0.46 -0.37,0.83 -0.83,0.83s-0.83,-0.37 -0.83,-0.83c0,-0.45 0.37,-0.83 0.83,-0.83l0,0zm0,0.45c0.21,0 0.39,0.17 0.39,0.38c0,0.21 -0.18,0.38 -0.39,0.38c-0.21,0 -0.38,-0.17 -0.38,-0.38c0,-0.21 0.17,-0.38 0.38,-0.38l0,0z" fill="#7894AE" fill-rule="evenodd" id="svg_407"/>
    <path d="m227.22,91.89c-0.51,0 -0.94,-0.42 -0.94,-0.94s0.43,-0.93 0.94,-0.93s0.94,0.42 0.94,0.93s-0.42,0.94 -0.94,0.94zm0,-1.66c-0.39,0 -0.72,0.32 -0.72,0.72s0.32,0.72 0.72,0.72s0.72,-0.32 0.72,-0.72s-0.32,-0.72 -0.72,-0.72zm0,1.21c-0.27,0 -0.49,-0.22 -0.49,-0.49c0,-0.27 0.22,-0.49 0.49,-0.49s0.49,0.22 0.49,0.49c0,0.27 -0.22,0.49 -0.49,0.49zm0,-0.76c-0.15,0 -0.27,0.12 -0.27,0.27c0,0.15 0.12,0.28 0.27,0.28s0.28,-0.13 0.28,-0.28c0,-0.15 -0.13,-0.27 -0.28,-0.27z" fill="#4C6186" id="svg_408"/>
   </g>
   <g id="svg_404" transform="translate(-52.22 -12.445)">
    <path clip-rule="evenodd" d="m332.68,78.06l1.74,-0.01c0.18,0 0.32,0.15 0.32,0.32l0,0c-0.01,0.18 -0.15,0.32 -0.32,0.32l-1.75,0c-0.17,0 -0.32,-0.14 -0.31,-0.32l0,0c0,-0.17 0.14,-0.31 0.32,-0.31l0,0z" fill="#4C6186" fill-rule="evenodd" id="svg_405"/>
   </g>
   <g id="svg_402" transform="translate(-52.22 -12.445)">
    <polygon clip-rule="evenodd" fill="#9A2429" fill-rule="evenodd" id="svg_403" points="308.129,102.081 348.755,100.967 345.59,102.979     310.884,103.835 308.129,102.081   "/>
   </g>
   <g id="svg_400" transform="translate(-52.22 -12.445)">
    <polygon clip-rule="evenodd" fill="#9A2429" fill-rule="evenodd" id="svg_401" points="275.928,100.932 295.615,102.269 293.338,103.717     278.683,102.687 275.928,100.932   "/>
   </g>
   <g id="svg_398" transform="translate(-52.22 -12.445)">
    <polygon clip-rule="evenodd" fill="#ED1C24" fill-rule="evenodd" id="svg_399" points="308.129,101.85 348.755,100.96 345.59,102.567     310.884,103.251 308.129,101.85   "/>
   </g>
   <g id="svg_396" transform="translate(-52.22 -12.445)">
    <polygon clip-rule="evenodd" fill="#ED1C24" fill-rule="evenodd" id="svg_397" points="275.928,100.932 295.615,102 293.338,103.157     278.683,102.334 275.928,100.932   "/>
   </g>
   <g id="svg_394" transform="translate(-52.22 -12.445)">
    <polygon clip-rule="evenodd" fill="#ED1C24" fill-rule="evenodd" id="svg_395" points="302.04,101.515 301.159,107.242 298.175,107.242     297.719,101.5 302.04,101.515   "/>
   </g>
   <g id="svg_392" transform="translate(-52.22 -12.445)">
    <polygon clip-rule="evenodd" fill="#ED1C24" fill-rule="evenodd" id="svg_393" points="228.114,99.143 226.835,102.631 228.664,102.449     231.03,99.152 228.114,99.143   "/>
   </g>
   <g id="svg_390" transform="translate(-52.22 -12.445)">
    <path clip-rule="evenodd" d="m224.28,103.09l24.82,-2.47c0.15,-0.01 0.28,0.09 0.3,0.23l0,0c0.01,0.14 -0.1,0.27 -0.25,0.29l-24.82,2.46c-0.15,0.02 -0.28,-0.08 -0.3,-0.22l0,0c-0.01,-0.15 0.1,-0.27 0.25,-0.29l0,0z" fill="#ED1C24" fill-rule="evenodd" id="svg_391"/>
   </g>
   <g id="svg_388" transform="translate(-52.22 -12.445)">
    <path clip-rule="evenodd" d="m225.64,103.35c-0.22,-0.17 -0.44,-0.33 -0.66,-0.5c-0.09,-0.54 -0.18,-1.08 -0.27,-1.62c0.78,0.44 1.15,1.11 0.93,2.12l0,0z" fill="#6C8CC7" fill-rule="evenodd" id="svg_389"/>
   </g>
   <g id="svg_386" transform="translate(-52.22 -12.445)">
    <path clip-rule="evenodd" d="m225.61,103.04c-0.18,0.21 -0.36,0.42 -0.55,0.63c0.02,0.55 0.04,1.09 0.06,1.64c0.67,-0.59 0.9,-1.32 0.49,-2.27l0,0z" fill="#6C8CC7" fill-rule="evenodd" id="svg_387"/>
   </g>
  </g>
 </g>
</svg>