<svg preserveAspectRatio="none" xmlns="http://www.w3.org/2000/svg" xmlns:svg="http://www.w3.org/2000/svg" enable-background="new 0 0 450 450" version="1.1" xml:space="preserve" viewBox="78.45 41.84 229.1 76.33">
 <g class="layer" display="inline">
  <title>Layer 1</title>
  <g id="svg_1266" transform="translate(-433 -145) translate(313.21 62.015)">
   <path d="m201.97,185.63c0,0.54 -0.44,0.98 -0.98,0.98l0,0c-0.54,0 -0.98,-0.44 -0.98,-0.98l0,-12.21c0,-0.54 0.44,-0.98 0.98,-0.98l0,0c0.54,0 0.98,0.44 0.98,0.98l0,12.21z" fill="#447284" id="svg_1267"/>
   <path d="m204.86,181.37c0.13,0.22 0.06,0.52 -0.17,0.65l0,0c-0.23,0.13 -0.52,0.06 -0.65,-0.17l-3.02,-5.14c-0.13,-0.23 -0.05,-0.52 0.17,-0.66l0,0c0.23,-0.13 0.52,-0.05 0.65,0.17l3.02,5.15z" fill="#447284" id="svg_1268"/>
   <path d="m206.38,187.13c0,0.41 -0.34,0.74 -0.75,0.74l0,0c-0.41,0 -0.75,-0.33 -0.75,-0.74l0,-9.34c0,-0.42 0.34,-0.75 0.75,-0.75l0,0c0.41,0 0.75,0.33 0.75,0.75l0,9.34z" fill="#447284" id="svg_1269"/>
   <path d="m209.06,187.13c0,0.41 -0.33,0.74 -0.74,0.74l0,0c-0.42,0 -0.75,-0.33 -0.75,-0.74l0,-9.34c0,-0.42 0.33,-0.75 0.75,-0.75l0,0c0.41,0 0.74,0.33 0.74,0.75l0,9.34z" fill="#447284" id="svg_1270"/>
   <path d="m387.95,179.76c0,2.75 -2.23,4.98 -4.98,4.98l-16.01,0c-2.75,0 -4.98,-2.23 -4.98,-4.98l0,0c0,-2.75 2.23,-4.98 4.98,-4.98l16.01,0c2.75,0 4.98,2.23 4.98,4.98l0,0z" fill="#447284" id="svg_1271"/>
   <rect fill="#1E4559" height="0.18" id="svg_1272" transform="matrix(0.8985 -0.439 0.439 0.8985 -37.9501 171.872)" width="7.85" x="348.77" y="167.91"/>
   <rect fill="#29516A" height="0.83" id="svg_1273" transform="matrix(0.8985 -0.439 0.439 0.8985 -38.1687 171.6008)" width="2.67" x="350.63" y="167.91"/>
   <path d="m352.03,169.99c-0.43,-1.21 -0.77,-1.98 -1.75,-2.17l-1.99,-0.39c-1.18,-0.24 -1.87,0.66 -2.64,1.94c-0.76,1.25 -1.46,2.45 -0.44,3.5l6.33,0.2c0.73,-0.78 0.88,-1.97 0.49,-3.08z" fill="#447284" id="svg_1274"/>
   <path d="m358.44,179.69c0,1.19 -0.96,2.16 -2.16,2.16l-16.16,0c-1.19,0 -2.16,-0.97 -2.16,-2.16l0,-6.35c0,-1.2 0.97,-2.16 2.16,-2.16l16.16,0c1.2,0 2.16,0.96 2.16,2.16l0,6.35z" fill="#588399" id="svg_1275"/>
   <rect fill="#29516A" height="19.85" id="svg_1276" width="0.32" x="294.09" y="144.4"/>
   <rect fill="#29516A" height="19.85" id="svg_1277" width="0.32" x="298.27" y="140.19"/>
   <g id="svg_1278">
    <rect fill="#29516A" height="5.41" id="svg_1279" width="1.08" x="284.51" y="154.66"/>
    <rect fill="#29516A" height="3.46" id="svg_1280" width="1.95" x="283.64" y="153.36"/>
    <rect fill="#29516A" height="3.55" id="svg_1281" width="0.71" x="287.11" y="154.24"/>
    <rect fill="#29516A" height="2.27" id="svg_1282" width="1.28" x="286.54" y="153.39"/>
    <rect fill="#29516A" height="5.14" id="svg_1283" width="1.03" x="289.54" y="153.25"/>
   </g>
   <polygon fill="#29516A" id="svg_1284" points="304.633,160.284 302.253,160.284 302.253,142.756 302.902,142.756  "/>
   <g id="svg_1285">
    <g id="svg_1286">
     <rect fill="#29516A" height="0.17" id="svg_1287" width="6.23" x="270.94" y="140.55"/>
     <rect fill="#29516A" height="0.17" id="svg_1288" width="7.15" x="270.52" y="143.15"/>
     <rect fill="#29516A" height="0.17" id="svg_1289" width="7.78" x="270.06" y="146.01"/>
     <rect fill="#29516A" height="0.17" id="svg_1290" width="8.62" x="269.72" y="149.13"/>
     <polygon fill="#29516A" id="svg_1291" points="277.965,149.358 268.876,152.486 268.917,152.649 278.005,149.522    "/>
     <polygon fill="#29516A" id="svg_1292" points="278.323,146.136 269.235,149.263 269.275,149.427 278.364,146.299    "/>
     <polygon fill="#29516A" id="svg_1293" points="277.568,143.333 270.076,146.066 270.116,146.23 277.608,143.497    "/>
     <polygon fill="#29516A" id="svg_1294" points="276.797,140.917 270.538,143.346 270.578,143.509 276.837,141.08    "/>
     <polygon fill="#29516A" id="svg_1295" points="270.858,140.917 277.117,143.346 277.077,143.509 270.818,141.08    "/>
     <polygon fill="#29516A" id="svg_1296" points="270.538,143.789 277.958,145.931 277.901,146.098 270.481,143.957    "/>
     <polygon fill="#29516A" id="svg_1297" points="270.378,146.176 278.794,149.313 278.723,149.467 270.307,146.329    "/>
     <polygon fill="#29516A" id="svg_1298" points="269.807,149.162 279.038,152.098 278.956,152.254 269.724,149.318    "/>
    </g>
    <polygon fill="#29516A" id="svg_1299" points="269.249,154.59 268.16,154.59 270.52,137.892 271.609,137.892   "/>
    <polygon fill="#29516A" id="svg_1300" points="278.877,154.59 279.966,154.59 277.607,137.892 276.518,137.892   "/>
    <path d="m277.78,137.97l0,-1.71c0,-2.01 -1.63,-3.63 -3.63,-3.63c-2.01,0 -3.63,1.62 -3.63,3.63l0,1.71l7.26,0z" fill="#A5C1CC" id="svg_1301"/>
    <rect fill="#29516A" height="0.54" id="svg_1302" width="14.52" x="264.53" y="137.71"/>
   </g>
   <rect fill="#466480" height="8.17" id="svg_1303" width="14.34" x="267.8" y="153.5"/>
   <path d="m308.45,165.19c0,0.24 -0.19,0.44 -0.43,0.44l-41.12,0c-0.24,0 -0.43,-0.2 -0.43,-0.44l0,-6.92c0,-0.24 0.19,-0.44 0.43,-0.44l41.12,0c0.24,0 0.43,0.2 0.43,0.44l0,6.92z" fill="#29516A" id="svg_1304"/>
   <path d="m306.72,158.2l-28.38,0c-0.24,0 -0.44,0.19 -0.44,0.43l0,6.93c0,0.23 0.2,0.43 0.44,0.43l28.38,0l0,-7.79z" fill="#466480" id="svg_1305"/>
   <path d="m265.26,163.02c0.9,1.74 0.04,3.32 -2.03,3.32l-7.87,0c-2.07,0 -3.75,-1.58 -3.75,-3.32l0,-7.88c0,-0.77 0.97,-1.35 2.17,-1.35l4.54,0c1.2,0 2.46,0.58 2.86,1.35l4.08,7.88z" fill="#29516A" id="svg_1306"/>
   <rect fill="#1E4559" height="8.01" id="svg_1307" width="1.3" x="241.01" y="152.49"/>
   <rect fill="#466480" height="2.6" id="svg_1308" width="9.09" x="235.38" y="157.69"/>
   <rect fill="#1E4559" height="9.96" id="svg_1309" width="6.49" x="239.06" y="155.96"/>
   <path d="m234.52,168.72c0,0.24 -0.2,0.44 -0.43,0.44l-5.41,0c-0.24,0 -0.44,-0.2 -0.44,-0.44l0,-2.38c0,-0.24 0.2,-0.43 0.44,-0.43l5.41,0c0.23,0 0.43,0.19 0.43,0.43l0,2.38z" fill="#466480" id="svg_1310"/>
   <rect fill="#3B5972" height="6.92" id="svg_1311" width="6.71" x="228.24" y="169.59"/>
   <rect fill="#1E4559" height="1.08" id="svg_1312" width="8.87" x="227.16" y="168.72"/>
   <path d="m234.4,181.04c-0.09,0.45 0.06,0.81 0.33,0.81l90.04,0c0.28,0 0.42,-0.36 0.33,-0.81l-3.66,-17.26c-0.07,-0.38 -0.34,-0.68 -0.6,-0.68l-82.18,0c-0.25,0 -0.52,0.3 -0.6,0.68l-3.66,17.26z" fill="#466480" id="svg_1313"/>
   <path d="m245.21,178.78c-0.09,0.26 0.05,0.47 0.31,0.47l85.04,0c0.26,0 0.4,-0.21 0.31,-0.47l-3.45,-10.09c-0.08,-0.22 -0.33,-0.4 -0.57,-0.4l-77.62,0c-0.23,0 -0.49,0.18 -0.56,0.4l-3.46,10.09z" fill="#29516A" id="svg_1314"/>
   <polygon fill="#3B5972" id="svg_1315" points="286.066,184.645 286.066,184.645 213.057,184.645 212.048,184.645 219.786,176.234    219.786,176.234 286.066,176.234 286.066,176.234  "/>
   <polygon fill="#1E4559" id="svg_1316" points="313.55,183.563 313.55,183.563 240.541,183.563 239.531,183.563 247.27,175.152    247.27,175.152 313.55,175.152 313.55,175.152  "/>
   <path d="m354.03,184.98l-8.75,1.68l-99.59,-1.68c0,0 11.53,-4.15 11.53,-10.09l81,0l15.81,10.09z" fill="#447284" id="svg_1317"/>
   <path d="m360.77,180.83c-28.3,0 -162.07,0 -162.07,0c-0.54,-0.55 -0.45,5.92 -0.45,5.92l0.71,5.38c0,0 191.84,0.63 209.95,0.63c7.2,-10.69 14.15,-19.63 18.37,-22.85c2.17,-1.66 -53.65,10.92 -66.51,10.92z" fill="#588399" id="svg_1318"/>
   <path d="m360.77,181.98c11.43,0 56.77,-9.93 65.21,-10.98c0.46,-0.41 0.89,-0.78 1.3,-1.09c2.17,-1.66 -53.65,10.92 -66.51,10.92c-28.3,0 -162.07,0 -162.07,0c-0.17,-0.18 -0.28,0.35 -0.34,1.15c18.66,0 136.38,0 162.41,0z" fill="#A5C1CC" id="svg_1319"/>
   <rect fill="#29516A" height="0.68" id="svg_1320" width="2.15" x="258.72" y="175.76"/>
   <rect fill="#29516A" height="0.68" id="svg_1321" width="2.15" x="261.73" y="175.76"/>
   <rect fill="#29516A" height="0.68" id="svg_1322" width="2.15" x="264.74" y="175.76"/>
   <rect fill="#29516A" height="0.68" id="svg_1323" width="2.15" x="267.76" y="175.76"/>
   <rect fill="#29516A" height="0.68" id="svg_1324" width="2.15" x="270.77" y="175.76"/>
   <rect fill="#29516A" height="0.68" id="svg_1325" width="2.15" x="273.78" y="175.76"/>
   <rect fill="#29516A" height="0.68" id="svg_1326" width="2.15" x="276.8" y="175.76"/>
   <rect fill="#29516A" height="0.68" id="svg_1327" width="2.15" x="279.81" y="175.76"/>
   <rect fill="#29516A" height="0.68" id="svg_1328" width="2.15" x="282.82" y="175.76"/>
   <rect fill="#29516A" height="0.68" id="svg_1329" width="2.15" x="285.83" y="175.76"/>
   <rect fill="#29516A" height="0.68" id="svg_1330" width="2.15" x="288.85" y="175.76"/>
   <rect fill="#29516A" height="0.68" id="svg_1331" width="2.15" x="291.86" y="175.76"/>
   <rect fill="#29516A" height="0.68" id="svg_1332" width="2.15" x="294.87" y="175.76"/>
   <rect fill="#29516A" height="0.68" id="svg_1333" width="2.15" x="297.89" y="175.76"/>
   <rect fill="#29516A" height="0.68" id="svg_1334" width="2.15" x="300.9" y="175.76"/>
   <rect fill="#29516A" height="0.68" id="svg_1335" width="2.15" x="303.91" y="175.76"/>
   <rect fill="#29516A" height="0.68" id="svg_1336" width="2.15" x="306.92" y="175.76"/>
   <rect fill="#29516A" height="0.68" id="svg_1337" width="2.15" x="309.94" y="175.76"/>
   <rect fill="#29516A" height="0.68" id="svg_1338" width="2.15" x="312.95" y="175.76"/>
   <rect fill="#29516A" height="0.68" id="svg_1339" width="2.15" x="315.96" y="175.76"/>
   <rect fill="#29516A" height="0.68" id="svg_1340" width="2.15" x="318.98" y="175.76"/>
   <rect fill="#29516A" height="0.68" id="svg_1341" width="2.15" x="321.99" y="175.76"/>
   <rect fill="#29516A" height="0.68" id="svg_1342" width="2.15" x="325" y="175.76"/>
   <rect fill="#29516A" height="0.68" id="svg_1343" width="2.15" x="328.01" y="175.76"/>
   <rect fill="#29516A" height="0.68" id="svg_1344" width="2.15" x="331.03" y="175.76"/>
   <rect fill="#29516A" height="0.68" id="svg_1345" width="2.15" x="334.04" y="175.76"/>
   <path d="m421.87,170.5c-8.78,4.4 -20.61,10.77 -33.44,17.93c-14.57,0 -141.09,-0.41 -190.03,-0.57l0.55,4.27c0,0 191.85,0.63 209.96,0.63c7.2,-10.69 14.15,-19.63 18.37,-22.85c0.46,-0.35 -1.67,-0.07 -5.41,0.59z" fill="#447284" id="svg_1346"/>
   <polygon fill="#29516A" id="svg_1347" points="400.122,186.45 396.823,189.006 392.942,184.468 396.241,181.912  "/>
   <path d="m409.89,191.85l-211.04,0l0.21,3.44c0.16,0 0.38,0 0.61,0.01l1.21,5.85l3.64,0l1.14,-5.53c2.05,0.13 0.55,0.3 3.22,0.49l0,1.8l-2.83,0l0,1.02l8.36,-0.07c7.86,0.91 9.36,1.82 9.36,1.82s134.83,-0.25 183.67,-0.25c3.97,0 4.31,-2.82 0.48,-4.46c-1.29,-0.56 1.97,-4.12 1.97,-4.12zm-195.55,4.41c6.54,0.48 10.42,2.67 10.43,1.65l-10.43,0l0,-1.65z" fill="#E4355C" id="svg_1348"/>
   <g id="svg_1349">
    <path d="m199.06,195.29l-0.01,-0.08l208.6,0c-0.08,0.35 -0.02,0.63 0.27,0.76c0.38,0.16 0.7,0.33 1,0.51l-192.47,0c-0.67,-0.09 -1.37,-0.16 -2.11,-0.21l0,0.21l-5.46,0l0,-0.37c-2.67,-0.19 -1.17,-0.36 -3.23,-0.49l-0.17,0.87l-5.56,0l-0.25,-1.19c-0.23,-0.01 -0.45,-0.01 -0.61,-0.01z" fill="#F2736D" id="svg_1350"/>
   </g>
   <rect fill="#1E4559" height="5.63" id="svg_1351" width="20.13" x="270.87" y="169.37"/>
   <polygon fill="#1E4559" id="svg_1352" points="300.738,169.373 300.738,172.186 310.043,172.186 310.043,175 320.863,175 320.863,169.373     "/>
   <path d="m252.98,169c0,0.63 -0.51,1.13 -1.13,1.13l-2.14,0c-0.62,0 -1.13,-0.5 -1.13,-1.13l0,0c0,-0.62 0.51,-1.12 1.13,-1.12l2.14,0c0.62,0 1.13,0.5 1.13,1.12l0,0z" fill="#A5C1CC" id="svg_1353"/>
   <path d="m258.17,169c0,0.63 -0.5,1.13 -1.12,1.13l-2.15,0c-0.62,0 -1.12,-0.5 -1.12,-1.13l0,0c0,-0.62 0.5,-1.12 1.12,-1.12l2.15,0c0.62,0 1.12,0.5 1.12,1.12l0,0z" fill="#A5C1CC" id="svg_1354"/>
   <path d="m263.37,169c0,0.63 -0.51,1.13 -1.13,1.13l-2.14,0c-0.62,0 -1.13,-0.5 -1.13,-1.13l0,0c0,-0.62 0.5,-1.12 1.13,-1.12l2.14,0c0.62,0 1.13,0.5 1.13,1.12l0,0z" fill="#A5C1CC" id="svg_1355"/>
   <path d="m268.56,169c0,0.63 -0.5,1.13 -1.13,1.13l-2.14,0c-0.62,0 -1.13,-0.5 -1.13,-1.13l0,0c0,-0.62 0.51,-1.12 1.13,-1.12l2.14,0c0.63,0 1.13,0.5 1.13,1.12l0,0z" fill="#A5C1CC" id="svg_1356"/>
   <path d="m273.75,169c0,0.63 -0.5,1.13 -1.12,1.13l-2.15,0c-0.62,0 -1.12,-0.5 -1.12,-1.13l0,0c0,-0.62 0.5,-1.12 1.12,-1.12l2.15,0c0.62,0 1.12,0.5 1.12,1.12l0,0z" fill="#A5C1CC" id="svg_1357"/>
   <path d="m278.95,169c0,0.63 -0.51,1.13 -1.13,1.13l-2.14,0c-0.62,0 -1.13,-0.5 -1.13,-1.13l0,0c0,-0.62 0.51,-1.12 1.13,-1.12l2.14,0c0.62,0 1.13,0.5 1.13,1.12l0,0z" fill="#A5C1CC" id="svg_1358"/>
   <path d="m284.14,169c0,0.63 -0.5,1.13 -1.13,1.13l-2.14,0c-0.62,0 -1.12,-0.5 -1.12,-1.13l0,0c0,-0.62 0.5,-1.12 1.12,-1.12l2.14,0c0.63,0 1.13,0.5 1.13,1.12l0,0z" fill="#A5C1CC" id="svg_1359"/>
   <path d="m289.33,169c0,0.63 -0.5,1.13 -1.12,1.13l-2.14,0c-0.63,0 -1.13,-0.5 -1.13,-1.13l0,0c0,-0.62 0.5,-1.12 1.13,-1.12l2.14,0c0.62,0 1.12,0.5 1.12,1.12l0,0z" fill="#A5C1CC" id="svg_1360"/>
   <path d="m304.88,169c0,0.63 -0.5,1.13 -1.13,1.13l-2.14,0c-0.62,0 -1.12,-0.5 -1.12,-1.13l0,0c0,-0.62 0.5,-1.12 1.12,-1.12l2.14,0c0.63,0 1.13,0.5 1.13,1.12l0,0z" fill="#A5C1CC" id="svg_1361"/>
   <path d="m310.08,169c0,0.63 -0.51,1.13 -1.13,1.13l-2.14,0c-0.62,0 -1.13,-0.5 -1.13,-1.13l0,0c0,-0.62 0.51,-1.12 1.13,-1.12l2.14,0c0.62,0 1.13,0.5 1.13,1.12l0,0z" fill="#A5C1CC" id="svg_1362"/>
   <path d="m315.27,169c0,0.63 -0.5,1.13 -1.13,1.13l-2.14,0c-0.62,0 -1.13,-0.5 -1.13,-1.13l0,0c0,-0.62 0.51,-1.12 1.13,-1.12l2.14,0c0.62,0 1.13,0.5 1.13,1.12l0,0z" fill="#A5C1CC" id="svg_1363"/>
   <path d="m320.46,169c0,0.63 -0.5,1.13 -1.12,1.13l-2.15,0c-0.62,0 -1.12,-0.5 -1.12,-1.13l0,0c0,-0.62 0.5,-1.12 1.12,-1.12l2.15,0c0.62,0 1.12,0.5 1.12,1.12l0,0z" fill="#A5C1CC" id="svg_1364"/>
   <path d="m325.66,169c0,0.63 -0.51,1.13 -1.13,1.13l-2.14,0c-0.62,0 -1.13,-0.5 -1.13,-1.13l0,0c0,-0.62 0.51,-1.12 1.13,-1.12l2.14,0c0.62,0 1.13,0.5 1.13,1.12l0,0z" fill="#A5C1CC" id="svg_1365"/>
   <rect fill="#1E4559" height="3.46" id="svg_1366" width="6.79" x="274.62" y="163.75"/>
   <rect fill="#1E4559" height="3.46" id="svg_1367" width="7.44" x="281.98" y="163.75"/>
   <rect fill="#1E4559" height="3.46" id="svg_1368" width="7.44" x="289.99" y="163.75"/>
   <rect fill="#1E4559" height="3.46" id="svg_1369" width="6.14" x="297.99" y="163.75"/>
   <rect fill="#1E4559" height="3.46" id="svg_1370" width="6.42" x="304.7" y="163.75"/>
   <rect fill="#1E4559" height="3.46" id="svg_1371" width="8.81" x="265.25" y="163.75"/>
   <path d="m243.82,153.68c0,0.9 -0.72,1.63 -1.62,1.63l-2.38,0c-0.89,0 -1.62,-0.73 -1.62,-1.63l0,0c0,-0.89 0.73,-1.62 1.62,-1.62l2.38,0c0.9,0 1.62,0.73 1.62,1.62l0,0z" fill="#466480" id="svg_1372"/>
   <g id="svg_1373">
    <path d="m252.48,156.17l4.54,0c1.2,0 2.7,0.58 3.42,1.35l4.49,4.86l-3.75,-7.24c-0.39,-0.77 -1.66,-1.35 -2.86,-1.35l-4.54,0c-1.2,0 -2.17,0.58 -2.17,1.35l0,1.16c0.25,-0.08 0.54,-0.13 0.87,-0.13z" fill="#466480" id="svg_1374"/>
   </g>
   <polygon fill="#29516A" id="svg_1375" points="267.863,129.033 266.708,129.033 266.705,129.116 267.867,129.116  "/>
   <polygon fill="#29516A" id="svg_1376" points="267.952,130.582 266.567,130.582 266.563,130.683 267.957,130.683  "/>
   <polygon fill="#29516A" id="svg_1377" points="268.137,132.668 266.412,132.668 266.406,132.796 268.143,132.796  "/>
   <polygon fill="#29516A" id="svg_1378" points="268.068,132.844 266.083,135.588 266.083,135.753 268.082,132.97  "/>
   <polygon fill="#29516A" id="svg_1379" points="268.042,130.655 266.309,132.771 266.311,132.896 268.054,130.754  "/>
   <polygon fill="#29516A" id="svg_1380" points="267.85,129.122 266.57,130.613 266.573,130.711 267.86,129.204  "/>
   <polygon fill="#29516A" id="svg_1381" points="267.693,128.007 266.707,129.128 266.711,129.21 267.701,128.077  "/>
   <polygon fill="#29516A" id="svg_1382" points="266.797,128.007 267.777,129.128 267.773,129.21 266.789,128.077  "/>
   <polygon fill="#29516A" id="svg_1383" points="266.699,129.352 267.972,130.532 267.966,130.632 266.686,129.438  "/>
   <polygon fill="#29516A" id="svg_1384" points="266.621,130.679 268.234,132.809 268.226,132.927 266.605,130.772  "/>
   <polygon fill="#29516A" id="svg_1385" points="266.428,132.694 268.409,135.206 268.399,135.358 266.406,132.813  "/>
   <polygon fill="#29516A" id="svg_1386" points="266.05,137.927 265.772,137.927 266.791,126.821 266.941,126.821  "/>
   <polygon fill="#29516A" id="svg_1387" points="268.511,137.927 268.79,137.927 267.771,126.821 267.62,126.821  "/>
   <rect fill="#29516A" height="0.36" id="svg_1388" width="8.35" x="261.08" y="126.82"/>
   <polygon fill="#29516A" id="svg_1389" points="268.16,127.002 266.708,127.002 267.071,124.824  "/>
   <polygon fill="#29516A" id="svg_1390" points="282.385,142.248 277.417,142.248 277.961,144.789 282.045,143.156 282.385,143.03  "/>
   <polygon fill="#29516A" id="svg_1391" points="283.683,145.697 277.961,145.697 278.632,148.238 283.658,146.604 283.683,146.596  "/>
   <rect fill="#29516A" height="3.29" id="svg_1392" width="1.85" x="288.72" y="152.02"/>
   <polygon fill="#447284" id="svg_1393" points="351.376,179.76 342.071,174.134 342.071,173.268 351.376,178.895  "/>
   <rect fill="#447284" height="0.87" id="svg_1394" width="9.52" x="347.81" y="172.4"/>
  </g>
 </g>
</svg>
