<svg xmlns="http://www.w3.org/2000/svg" xmlns:svg="http://www.w3.org/2000/svg" enable-background="new 0 0 450 450" version="1.1" xml:space="preserve" viewBox="287.89 342.66 133.22 43.68">
 <g class="layer">
  <title>Layer 1</title>
  <g id="svg_1">
   <g id="svg_3425" transform="translate(264.17 -37.44) translate(-12 140)">
    <polygon clip-rule="evenodd" fill="#4C6186" fill-rule="evenodd" id="svg_3426" points="35.723,271.057 42.454,271.057 42.454,272.683     35.723,272.683 35.723,271.057   "/>
   </g>
   <g id="svg_3423" transform="translate(264.17 -37.44) translate(-12 140)">
    <polygon clip-rule="evenodd" fill="#7894AE" fill-rule="evenodd" id="svg_3424" points="35.723,268.837 45.295,265.704 45.514,266.377     35.723,269.581 35.723,268.837   "/>
   </g>
   <g id="svg_3421" transform="translate(264.17 -37.44) translate(-12 140)">
    <polygon clip-rule="evenodd" fill="#7894AE" fill-rule="evenodd" id="svg_3422" points="111.373,240.736 111.763,240.736 111.763,262.016     111.373,262.016 111.373,240.736   "/>
   </g>
   <g id="svg_3419" transform="translate(264.17 -37.44) translate(-12 140)">
    <polygon clip-rule="evenodd" fill="#4C6186" fill-rule="evenodd" id="svg_3420" points="111.07,259.224 114.086,259.224 114.086,260.734     111.07,260.734 111.07,259.224   "/>
   </g>
   <g id="svg_3417" transform="translate(264.17 -37.44) translate(-12 140)">
    <polygon clip-rule="evenodd" fill="#7894AE" fill-rule="evenodd" id="svg_3418" points="61.462,261.775 65.28,261.775 65.28,265.21     61.462,265.21 61.462,261.775   "/>
   </g>
   <g id="svg_3415" transform="translate(264.17 -37.44) translate(-12 140)">
    <polygon clip-rule="evenodd" fill="#4C6186" fill-rule="evenodd" id="svg_3416" points="57.449,265.064 71.71,265.064 71.71,266.179     57.449,266.179 57.449,265.064   "/>
   </g>
   <g id="svg_3413" transform="translate(264.17 -37.44) translate(-12 140)">
    <path clip-rule="evenodd" d="m40.1,276.67c2.21,0.28 4.25,-0.39 6.29,-1.1l-0.29,5.68c-2,-0.76 -4,-1.33 -6,-1.02l0,-3.56l0,0z" fill="#4C6186" fill-rule="evenodd" id="svg_3414"/>
   </g>
   <g id="svg_3411" transform="translate(264.17 -37.44) translate(-12 140)">
    <path clip-rule="evenodd" d="m40.1,276.67c2.07,0.26 4,-0.31 5.91,-0.97l-0.21,4.06c-1.9,-0.71 -3.8,-1.26 -5.7,-1.05l0,-2.04l0,0z" fill="#7894AE" fill-rule="evenodd" id="svg_3412"/>
   </g>
   <g id="svg_3409" transform="translate(264.17 -37.44) translate(-12 140)">
    <path clip-rule="evenodd" d="m38.74,276.29l0.68,0c0.52,0 0.94,0.37 0.94,0.83l0,2.65c0,0.46 -0.42,0.84 -0.94,0.84l-0.68,0c-0.51,0 -0.93,-0.38 -0.93,-0.84l0,-2.65c0,-0.46 0.42,-0.83 0.93,-0.83l0,0z" fill="#4C6186" fill-rule="evenodd" id="svg_3410"/>
   </g>
   <g id="svg_3407" transform="translate(264.17 -37.44) translate(-12 140)">
    <path clip-rule="evenodd" d="m38.74,276.29l0.68,0c0.16,0 0.31,0.03 0.44,0.09l0,2.07c0,0.46 -0.42,0.83 -0.94,0.83l-0.68,0c-0.15,0 -0.3,-0.03 -0.43,-0.09l0,-2.07c0,-0.46 0.42,-0.83 0.93,-0.83l0,0z" fill="#7894AE" fill-rule="evenodd" id="svg_3408"/>
   </g>
   <g id="svg_3405" transform="translate(264.17 -37.44) translate(-12 140)">
    <path clip-rule="evenodd" d="m44.62,265.57l121.63,0.34c-6.24,5.62 -12.59,9.29 -16.12,11.15l-107.23,0l-0.74,-4.38l-2.57,0l5.03,-7.11l0,0z" fill="#7894AE" fill-rule="evenodd" id="svg_3406"/>
   </g>
   <g id="svg_3403" transform="translate(264.17 -37.44) translate(-12 140)">
    <path clip-rule="evenodd" d="m44.62,265.57l121.63,0.34c-1.15,1.04 -2.31,2.01 -3.46,2.91c-0.72,0.28 -1.48,0.55 -2.29,0.81c-7.48,2.56 -25.17,3.69 -50.61,3.69l-67.62,0l-0.11,-0.64l-2.57,0l5.03,-7.11l0,0z" fill="#A3B9C6" fill-rule="evenodd" id="svg_3404"/>
   </g>
   <g id="svg_3401" transform="translate(264.17 -37.44) translate(-12 140)">
    <path clip-rule="evenodd" d="m160.03,270.92c-3.97,2.87 -7.56,4.9 -9.9,6.14l-17.29,0c9.61,-1.72 19.74,-4.18 27.19,-6.14l0,0z" fill="#4C6186" fill-rule="evenodd" id="svg_3402"/>
   </g>
   <g id="svg_3399" transform="translate(264.17 -37.44) translate(-12 140)">
    <path clip-rule="evenodd" d="m42.9,277.06c0.15,0.67 1.48,6.19 2.12,6.23l78.66,0.49c4.87,0.03 13.66,-0.32 17.95,-2.39c4.3,-2.06 5.67,-2.88 8.5,-4.33l-107.23,0l0,0z" fill="#C12025" fill-rule="evenodd" id="svg_3400"/>
   </g>
   <g id="svg_3397" transform="translate(264.17 -37.44) translate(-12 140)">
    <path clip-rule="evenodd" d="m43.44,279.21c0.48,1.8 1.17,4.05 1.58,4.08l78.66,0.49c4.87,0.03 13.66,-0.32 17.95,-2.39c4.3,-2.06 5.66,-2.88 8.5,-4.33l-17.29,0c-7.07,1.27 -13.86,2.15 -19.1,2.15l-70.3,0l0,0z" fill="#9A2429" fill-rule="evenodd" id="svg_3398"/>
   </g>
   <g id="svg_3395" transform="translate(264.17 -37.44) translate(-12 140)">
    <polygon clip-rule="evenodd" fill="#7894AE" fill-rule="evenodd" id="svg_3396" points="35.723,272.682 42.454,272.682 42.454,273.338     35.723,273.338 35.723,272.682   "/>
   </g>
   <g id="svg_3393" transform="translate(264.17 -37.44) translate(-12 140)">
    <polygon clip-rule="evenodd" fill="#D3E0E9" fill-rule="evenodd" id="svg_3394" points="138.633,265.83 131.156,254.853 118.381,254.853     115.284,265.766 138.633,265.83   "/>
   </g>
   <g id="svg_3391" transform="translate(264.17 -37.44) translate(-12 140)">
    <polygon clip-rule="evenodd" fill="#A3B9C6" fill-rule="evenodd" id="svg_3392" points="118.22,255.419 115.284,265.766 136.475,265.824     129.388,255.419 118.22,255.419   "/>
   </g>
   <g id="svg_3389" transform="translate(264.17 -37.44) translate(-12 140)">
    <polygon clip-rule="evenodd" fill="#7894AE" fill-rule="evenodd" id="svg_3390" points="110.625,265.754 115.698,254.853 118.381,254.853     115.284,265.766 110.625,265.754   "/>
   </g>
   <g id="svg_3387" transform="translate(264.17 -37.44) translate(-12 140)">
    <polygon clip-rule="evenodd" fill="#A3B9C6" fill-rule="evenodd" id="svg_3388" points="76.89,262.016 112.364,262.016 110.625,265.754     74.322,265.654 76.89,262.016   "/>
   </g>
   <g id="svg_3385" transform="translate(264.17 -37.44) translate(-12 140)">
    <path clip-rule="evenodd" d="m121.22,256.78l2.29,0c0.31,0 0.56,0.25 0.56,0.56l0,1.4c0,0.3 -0.25,0.56 -0.56,0.56l-2.29,0c-0.31,0 -0.56,-0.26 -0.56,-0.56l0,-1.4c0,-0.31 0.25,-0.56 0.56,-0.56l0,0z" fill="#4C6186" fill-rule="evenodd" id="svg_3386"/>
   </g>
   <g id="svg_3383" transform="translate(264.17 -37.44) translate(-12 140)">
    <path clip-rule="evenodd" d="m127.03,256.78l2.29,0c0.31,0 0.56,0.25 0.56,0.56l0,1.4c0,0.3 -0.25,0.56 -0.56,0.56l-2.29,0c-0.31,0 -0.56,-0.26 -0.56,-0.56l0,-1.4c0,-0.31 0.25,-0.56 0.56,-0.56l0,0z" fill="#4C6186" fill-rule="evenodd" id="svg_3384"/>
   </g>
   <g id="svg_3381" transform="translate(264.17 -37.44) translate(-12 140)">
    <path clip-rule="evenodd" d="m115.75,256.78l1.43,0c0.19,0 0.26,0.25 0.15,0.56l-0.48,1.4c-0.11,0.3 -0.35,0.56 -0.54,0.56l-1.43,0c-0.19,0 -0.26,-0.26 -0.15,-0.56l0.48,-1.4c0.1,-0.31 0.35,-0.56 0.54,-0.56l0,0z" fill="#4C6186" fill-rule="evenodd" id="svg_3382"/>
   </g>
   <g id="svg_3379" transform="translate(264.17 -37.44) translate(-12 140)">
    <polygon clip-rule="evenodd" fill="#7894AE" fill-rule="evenodd" id="svg_3380" points="58.761,261.496 66.657,259.218 67.475,262.054     59.579,264.332 58.761,261.496   "/>
   </g>
   <g id="svg_3377" transform="translate(264.17 -37.44) translate(-12 140)">
    <polygon clip-rule="evenodd" fill="#4C6186" fill-rule="evenodd" id="svg_3378" points="67.168,262.143 59.579,264.333 58.817,261.69     66.405,259.501 67.168,262.143   "/>
   </g>
   <g id="svg_3375" transform="translate(264.17 -37.44) translate(-12 140)">
    <polygon clip-rule="evenodd" fill="#4C6186" fill-rule="evenodd" id="svg_3376" points="66.736,259.497 68.456,259.001 69.113,261.279     67.394,261.775 66.736,259.497   "/>
   </g>
   <g id="svg_3373" transform="translate(264.17 -37.44) translate(-12 140)">
    <polygon clip-rule="evenodd" fill="#7894AE" fill-rule="evenodd" id="svg_3374" points="65.957,263.516 68.955,263.516 68.955,265.064     65.957,265.064 65.957,263.516   "/>
   </g>
   <g id="svg_3371" transform="translate(264.17 -37.44) translate(-12 140)">
    <path clip-rule="evenodd" d="m107.54,263.17c0.46,0 0.83,0.37 0.83,0.83c0,0.45 -0.37,0.83 -0.83,0.83c-0.45,0 -0.82,-0.38 -0.82,-0.83c0,-0.46 0.36,-0.83 0.82,-0.83l0,0z" fill="#4C6186" fill-rule="evenodd" id="svg_3372"/>
   </g>
   <g id="svg_3369" transform="translate(264.17 -37.44) translate(-12 140)">
    <path clip-rule="evenodd" d="m96.57,263.17c0.46,0 0.83,0.37 0.83,0.83c0,0.45 -0.37,0.83 -0.83,0.83c-0.45,0 -0.82,-0.38 -0.82,-0.83c0,-0.46 0.37,-0.83 0.82,-0.83l0,0z" fill="#4C6186" fill-rule="evenodd" id="svg_3370"/>
   </g>
   <g id="svg_3367" transform="translate(264.17 -37.44) translate(-12 140)">
    <path clip-rule="evenodd" d="m85.61,263.17c0.45,0 0.82,0.37 0.82,0.83c0,0.45 -0.37,0.83 -0.82,0.83c-0.46,0 -0.83,-0.38 -0.83,-0.83c0,-0.46 0.37,-0.83 0.83,-0.83l0,0z" fill="#4C6186" fill-rule="evenodd" id="svg_3368"/>
   </g>
   <g id="svg_3365" transform="translate(264.17 -37.44) translate(-12 140)">
    <path clip-rule="evenodd" d="m130.56,269.4c0.45,0 0.82,0.37 0.82,0.83c0,0.46 -0.37,0.83 -0.82,0.83c-0.46,0 -0.83,-0.37 -0.83,-0.83c0,-0.46 0.37,-0.83 0.83,-0.83l0,0z" fill="#4C6186" fill-rule="evenodd" id="svg_3366"/>
   </g>
   <g id="svg_3363" transform="translate(264.17 -37.44) translate(-12 140)">
    <path clip-rule="evenodd" d="m119.59,269.4c0.46,0 0.83,0.37 0.83,0.83c0,0.46 -0.37,0.83 -0.83,0.83c-0.46,0 -0.83,-0.37 -0.83,-0.83c0,-0.46 0.37,-0.83 0.83,-0.83l0,0z" fill="#4C6186" fill-rule="evenodd" id="svg_3364"/>
   </g>
   <g id="svg_3361" transform="translate(264.17 -37.44) translate(-12 140)">
    <path clip-rule="evenodd" d="m120.63,251.74l2.32,0l0,0.28l0,0.62c0.81,-0.88 1.83,-0.87 2.12,-0.36c0.57,1.03 -0.24,1.71 -0.48,2.52l-3.58,0c-0.23,-0.58 -0.11,-1.15 0.41,-1.64l-0.79,0l0,-1.42l0,0z" fill="#4C6186" fill-rule="evenodd" id="svg_3362"/>
   </g>
   <g id="svg_3359" transform="translate(264.17 -37.44) translate(-12 140)">
    <polygon clip-rule="evenodd" fill="#7894AE" fill-rule="evenodd" id="svg_3360" points="120.968,249.808 122.952,249.808 122.952,252.645     120.968,252.645 120.968,249.808   "/>
   </g>
   <g id="svg_3357" transform="translate(264.17 -37.44) translate(-12 140)">
    <polygon clip-rule="evenodd" fill="#7894AE" fill-rule="evenodd" id="svg_3358" points="119.153,250.489 120.968,250.489 120.968,251.737     119.153,251.737 119.153,250.489   "/>
   </g>
   <g id="svg_3355" transform="translate(264.17 -37.44) translate(-12 140)">
    <polygon clip-rule="evenodd" fill="#4C6186" fill-rule="evenodd" id="svg_3356" points="122.952,250.535 129.302,250.535 129.302,250.819     122.952,250.819 122.952,250.535   "/>
   </g>
   <g id="svg_3353" transform="translate(264.17 -37.44) translate(-12 140)">
    <polygon clip-rule="evenodd" fill="#4C6186" fill-rule="evenodd" id="svg_3354" points="122.952,250.955 125.277,250.955 125.277,251.329     122.952,251.329 122.952,250.955   "/>
   </g>
   <g id="svg_3351" transform="translate(264.17 -37.44) translate(-12 140)">
    <path clip-rule="evenodd" d="m44.6,265.6l11.2,0l110.45,0.31c-0.19,0.17 -0.38,0.34 -0.58,0.51l-121.65,0l0.58,-0.82l0,0z" fill="#D3E0E9" fill-rule="evenodd" id="svg_3352"/>
   </g>
   <g id="svg_3349" transform="translate(264.17 -37.44) translate(-12 140)">
    <polygon clip-rule="evenodd" fill="#D3E0E9" fill-rule="evenodd" id="svg_3350" points="124.801,254.853 131.168,254.87 131.604,255.51     115.392,255.51 115.698,254.853 118.381,254.853 124.801,254.853   "/>
   </g>
   <g id="svg_3347" transform="translate(264.17 -37.44) translate(-12 140)">
    <polygon clip-rule="evenodd" fill="#D3E0E9" fill-rule="evenodd" id="svg_3348" points="112.127,262.526 76.529,262.526 76.89,262.016     112.364,262.016 112.127,262.526   "/>
   </g>
   <g id="svg_3345" transform="translate(264.17 -37.44) translate(-12 140)">
    <path clip-rule="evenodd" d="m89.83,258.89l-2.32,0l0,0.28l0,0.63c-0.81,-0.89 -1.83,-0.88 -2.12,-0.36c-0.57,1.03 0.24,1.71 0.47,2.51l3.59,0c0.23,-0.58 0.11,-1.15 -0.41,-1.64l0.79,0l0,-1.42l0,0z" fill="#4C6186" fill-rule="evenodd" id="svg_3346"/>
   </g>
   <g id="svg_3343" transform="translate(264.17 -37.44) translate(-12 140)">
    <polygon clip-rule="evenodd" fill="#7894AE" fill-rule="evenodd" id="svg_3344" points="89.491,256.961 87.507,256.961 87.507,259.799     89.491,259.799 89.491,256.961   "/>
   </g>
   <g id="svg_3341" transform="translate(264.17 -37.44) translate(-12 140)">
    <polygon clip-rule="evenodd" fill="#7894AE" fill-rule="evenodd" id="svg_3342" points="91.306,257.642 89.491,257.642 89.491,258.891     91.306,258.891 91.306,257.642   "/>
   </g>
   <g id="svg_3339" transform="translate(264.17 -37.44) translate(-12 140)">
    <polygon clip-rule="evenodd" fill="#4C6186" fill-rule="evenodd" id="svg_3340" points="87.507,257.689 81.157,257.689 81.157,257.972     87.507,257.972 87.507,257.689   "/>
   </g>
   <g id="svg_3337" transform="translate(264.17 -37.44) translate(-12 140)">
    <polygon clip-rule="evenodd" fill="#4C6186" fill-rule="evenodd" id="svg_3338" points="87.507,258.108 85.182,258.108 85.182,258.482     87.507,258.482 87.507,258.108   "/>
   </g>
   <g id="svg_3335" transform="translate(264.17 -37.44) translate(-12 140)">
    <polygon clip-rule="evenodd" fill="#7894AE" fill-rule="evenodd" id="svg_3336" points="77.821,261.426 83.984,261.426 83.984,262.016     77.821,262.016 77.821,261.426   "/>
   </g>
   <g id="svg_3333" transform="translate(264.17 -37.44) translate(-12 140)">
    <polygon clip-rule="evenodd" fill="#7894AE" fill-rule="evenodd" id="svg_3334" points="91.546,261.426 102.473,261.426 102.473,262.016     91.546,262.016 91.546,261.426   "/>
   </g>
   <g id="svg_3331" transform="translate(264.17 -37.44) translate(-12 140)">
    <polygon clip-rule="evenodd" fill="#7894AE" fill-rule="evenodd" id="svg_3332" points="94.346,260.206 99.673,260.206 99.673,261.425     94.346,261.425 94.346,260.206   "/>
   </g>
   <g id="svg_3329" transform="translate(264.17 -37.44) translate(-12 140)">
    <path clip-rule="evenodd" d="m41.67,273.47l67.19,-0.15c-0.11,0.18 -0.92,0.8 -1.03,0.97l-65.54,0l-0.13,-0.79l-0.5,0l0.01,-0.03l0,0z" fill="#4C6186" fill-rule="evenodd" id="svg_3330"/>
   </g>
   <g id="svg_3327" transform="translate(264.17 -37.44) translate(-12 140)">
    <path clip-rule="evenodd" d="m134.08,265.81l0,0l0,0l0,0zm0.2,0l22.38,0l-22.38,0l0,0zm0.15,-2.89l5.23,0l-5.23,0l0,0zm5.43,0l5.39,0l-5.39,0l0,0zm5.59,0l5.38,0l-5.38,0l0,0zm5.58,0l5.39,0l-5.39,0l0,0zm5.59,0l0.05,0l-0.05,0l0,0zm-22.19,1.03l5.23,0l-5.23,0l0,0zm5.43,0l5.39,0l-5.39,0l0,0zm5.59,0l5.38,0l-5.38,0l0,0zm5.58,0l5.39,0l-5.39,0l0,0zm5.59,0l0.05,0l-0.05,0l0,0zm-22.19,1.08l5.23,0l-5.23,0l0,0zm5.43,0l5.39,0l-5.39,0l0,0zm5.59,0l5.38,0l-5.38,0l0,0zm5.58,0l5.39,0l-5.39,0l0,0zm5.59,0l0.05,0l-0.05,0l0,0zm-16.96,-2.18c0.07,0 0.14,0 0.2,0l0,0.07l0,0.68l0,0.35l0,0.73l0,0.35l0,0.43l0,0.35c-0.06,0 -0.13,0 -0.2,0l0,-0.35l0,-0.43l0,-0.36l0,-0.72l0,-0.35l0,-0.68l0,-0.07l0,0zm-5.58,0l0.2,0l0,2.59l0,0.37l-0.2,0l0,-0.38l0,-2.58l0,0zm11.17,0c0.06,0 0.13,0 0.2,0l0,0.07l0,0.71l0,0.32l0,0.75l0,0.33l0,0.46l0,0.32c-0.07,0 -0.14,0 -0.2,0l0,-0.32l0,-0.46l0,-0.33l0,-0.75l0,-0.33l0,-0.71l0,-0.06l0,0zm5.58,0c0.07,0 0.14,0 0.2,0l0,0.07l0,0.73l0,0.3l0,0.78l0,0.3l0,0.49l0,0.29c-0.06,0 -0.13,0 -0.2,0l0,-0.3l0,-0.48l0,-0.3l0,-0.78l0,-0.3l0,-0.73l0,-0.07l0,0zm5.59,0c0.06,0 0.13,0 0.2,0l0,0.07l0,0.76l0,0.27l0,0.81l0,0.27l0,0.51l0,0.27c-0.07,0 -0.14,0 -0.2,0l0,-0.27l0,-0.51l0,-0.27l0,-0.81l0,-0.27l0,-0.76l0,-0.07l0,0z" fill="#231F20" fill-rule="evenodd" id="svg_3328"/>
   </g>
   <g id="svg_3325" transform="translate(264.17 -37.44) translate(-12 140)">
    <path d="m156.72,265.92l-22.75,0l0,-3.18l0.42,0l0,2.97l5.17,0l0,-0.57l-5.13,0l0,-0.22l5.13,0l0,-0.86l-5.13,0l0,-0.22l5.13,0l0,-0.81l-5.13,0l0,-0.22l5.13,0l0,-0.07l0.41,0l0,0.07l5.17,0l0,-0.07l0.41,0l0,0.07l5.18,0l0,-0.07l0.41,0l0,0.07l5.17,0l0,-0.07l0.41,0l0,3.18zm-5.58,-0.22l5.17,0l0,-0.56l-5.17,0l0,0.56zm-5.59,0l5.17,0l0,-0.56l-5.17,0l0,0.56zm-5.58,0l5.17,0l0,-0.56l-5.17,0l0,0.56zm11.17,-0.78l5.17,0l0,-0.86l-5.17,0l0,0.86zm-5.59,0l5.17,0l0,-0.86l-5.17,0l0,0.86zm-5.58,0l5.17,0l0,-0.86l-5.17,0l0,0.86zm11.17,-1.08l5.17,0l0,-0.81l-5.17,0l0,0.81zm-5.59,0l5.17,0l0,-0.81l-5.17,0l0,0.81zm-5.58,0l5.17,0l0,-0.81l-5.17,0l0,0.81z" fill="#231F20" id="svg_3326"/>
   </g>
   <g id="svg_3323" transform="translate(264.17 -37.44) translate(-12 140)">
    <path clip-rule="evenodd" d="m164.49,266.35l3.73,0l0,3.28l-7.72,0c1.31,-1 2.65,-2.09 3.99,-3.28l0,0z" fill="#7894AE" fill-rule="evenodd" id="svg_3324"/>
   </g>
   <g id="svg_3321" transform="translate(264.17 -37.44) translate(-12 140)">
    <path clip-rule="evenodd" d="m168.81,266.01l-0.45,0c-0.08,0 -0.14,0.07 -0.14,0.16l0,3.8c0,0.09 0.06,0.16 0.14,0.16l0.45,0c0.07,0 0.13,-0.07 0.13,-0.16l0,-3.8c0,-0.09 -0.06,-0.16 -0.13,-0.16l0,0z" fill="#4C6186" fill-rule="evenodd" id="svg_3322"/>
   </g>
   <g id="svg_3319" transform="translate(264.17 -37.44) translate(-12 140)">
    <path clip-rule="evenodd" d="m88.21,265.81l0,0l0,0l0,0zm0.19,0l21.5,0l-21.5,0l0,0zm0.15,-2.89l5.02,0l-5.02,0l0,0zm5.21,0l5.18,0l-5.18,0l0,0zm5.36,0l5.18,0l-5.18,0l0,0zm5.37,0l5.17,0l-5.17,0l0,0zm5.36,0l0.05,0l-0.05,0l0,0zm-21.3,1.03l5.02,0l-5.02,0l0,0zm5.21,0l5.18,0l-5.18,0l0,0zm5.36,0l5.18,0l-5.18,0l0,0zm5.37,0l5.17,0l-5.17,0l0,0zm5.36,0l0.05,0l-0.05,0l0,0zm-21.3,1.08l5.02,0l-5.02,0l0,0zm5.21,0l5.18,0l-5.18,0l0,0zm5.36,0l5.18,0l-5.18,0l0,0zm5.37,0l5.17,0l-5.17,0l0,0zm5.36,0l0.05,0l-0.05,0l0,0zm-16.28,-2.18c0.06,0 0.13,0 0.19,0l0,0.07l0,0.68l0,0.35l0,0.73l0,0.35l0,0.43l0,0.35c-0.06,0 -0.13,0 -0.19,0l0,-0.35l0,-0.43l0,-0.36l0,-0.72l0,-0.35l0,-0.68l0,-0.07l0,0zm-5.36,0l0.18,0l0,2.59l0,0.37l-0.18,0l0,-0.38l0,-2.58l0,0zm10.73,0c0.06,0 0.12,0 0.18,0l0,0.07l0,0.71l0,0.32l0,0.75l0,0.33l0,0.46l0,0.32c-0.06,0 -0.12,0 -0.18,0l0,-0.32l0,-0.46l0,-0.33l0,-0.75l0,-0.33l0,-0.71l0,-0.06l0,0zm5.36,0c0.06,0 0.12,0 0.19,0l0,0.07l0,0.73l0,0.3l0,0.78l0,0.3l0,0.49l0,0.29c-0.07,0 -0.13,0 -0.19,0l0,-0.3l0,-0.48l0,-0.3l0,-0.78l0,-0.3l0,-0.73l0,-0.07l0,0zm5.36,0c0.07,0 0.13,0 0.19,0l0,0.07l0,0.76l0,0.27l0,0.81l0,0.27l0,0.51l0,0.27c-0.06,0 -0.13,0 -0.19,0l0,-0.27l0,-0.51l0,-0.27l0,-0.81l0,-0.27l0,-0.76l0,-0.07l0,0z" fill="#231F20" fill-rule="evenodd" id="svg_3320"/>
   </g>
   <g id="svg_3317" transform="translate(264.17 -37.44) translate(-12 140)">
    <path d="m109.96,265.92l-21.86,0l0,-3.18l0.4,0l0,2.97l4.96,0l0,-0.57l-4.91,0l0,-0.22l4.91,0l0,-0.86l-4.91,0l0,-0.22l4.91,0l0,-0.81l-4.91,0l0,-0.22l4.91,0l0,-0.07l0.41,0l0,0.07l4.96,0l0,-0.07l0.4,0l0,0.07l4.96,0l0,-0.07l0.41,0l0,0.07l4.96,0l0,-0.07l0.4,0l0,3.18zm-5.37,-0.22l4.96,0l0,-0.56l-4.96,0l0,0.56zm-5.36,0l4.96,0l0,-0.56l-4.96,0l0,0.56zm-5.36,0l4.96,0l0,-0.56l-4.96,0l0,0.56zm10.72,-0.78l4.96,0l0,-0.86l-4.96,0l0,0.86zm-5.36,0l4.96,0l0,-0.86l-4.96,0l0,0.86zm-5.36,0l4.96,0l0,-0.86l-4.96,0l0,0.86zm10.72,-1.08l4.96,0l0,-0.81l-4.96,0l0,0.81zm-5.36,0l4.96,0l0,-0.81l-4.96,0l0,0.81zm-5.36,0l4.96,0l0,-0.81l-4.96,0l0,0.81z" fill="#231F20" id="svg_3318"/>
   </g>
   <g id="svg_3315" transform="translate(264.17 -37.44) translate(-12 140)">
    <path clip-rule="evenodd" d="m66.7,265.81l0,0l0,0l0,0zm0.19,0l21.5,0l-21.5,0l0,0zm0.15,-2.89l5.02,0l-5.02,0l0,0zm5.21,0l5.18,0l-5.18,0l0,0zm5.37,0l5.17,0l-5.17,0l0,0zm5.36,0l5.18,0l-5.18,0l0,0zm5.37,0l0.04,0l-0.04,0l0,0zm-21.31,1.03l5.02,0l-5.02,0l0,0zm5.21,0l5.18,0l-5.18,0l0,0zm5.37,0l5.17,0l-5.17,0l0,0zm5.36,0l5.18,0l-5.18,0l0,0zm5.37,0l0.04,0l-0.04,0l0,0zm-21.31,1.08l5.02,0l-5.02,0l0,0zm5.21,0l5.18,0l-5.18,0l0,0zm5.37,0l5.17,0l-5.17,0l0,0zm5.36,0l5.18,0l-5.18,0l0,0zm5.37,0l0.04,0l-0.04,0l0,0zm-16.29,-2.18c0.07,0 0.13,0 0.19,0l0,0.07l0,0.68l0,0.35l0,0.73l0,0.35l0,0.43l0,0.35c-0.06,0 -0.12,0 -0.19,0l0,-0.35l0,-0.43l0,-0.36l0,-0.72l0,-0.35l0,-0.68l0,-0.07l0,0zm-5.36,0l0.19,0l0,2.59l0,0.37l-0.19,0l0,-0.38l0,-2.58l0,0zm10.73,0c0.06,0 0.13,0 0.19,0l0,0.07l0,0.71l0,0.32l0,0.75l0,0.33l0,0.46l0,0.32c-0.07,0 -0.13,0 -0.19,0l0,-0.32l0,-0.46l0,-0.33l0,-0.75l0,-0.33l0,-0.71l0,-0.06l0,0zm5.36,0c0.07,0 0.13,0 0.19,0l0,0.07l0,0.73l0,0.3l0,0.78l0,0.3l0,0.49l0,0.29c-0.06,0 -0.12,0 -0.19,0l0,-0.3l0,-0.48l0,-0.3l0,-0.78l0,-0.3l0,-0.73l0,-0.07l0,0zm5.37,0c0.06,0 0.12,0 0.19,0l0,0.07l0,0.76l0,0.27l0,0.81l0,0.27l0,0.51l0,0.27c-0.07,0 -0.13,0 -0.19,0l0,-0.27l0,-0.51l0,-0.27l0,-0.81l0,-0.27l0,-0.76l0,-0.07l0,0z" fill="#231F20" fill-rule="evenodd" id="svg_3316"/>
   </g>
   <g id="svg_3313" transform="translate(264.17 -37.44) translate(-12 140)">
    <path d="m88.45,265.92l-21.86,0l0,-3.18l0.41,0l0,2.97l4.96,0l0,-0.57l-4.92,0l0,-0.22l4.92,0l0,-0.86l-4.92,0l0,-0.22l4.92,0l0,-0.81l-4.92,0l0,-0.22l4.92,0l0,-0.07l0.4,0l0,0.07l4.96,0l0,-0.07l0.41,0l0,0.07l4.96,0l0,-0.07l0.4,0l0,0.07l4.96,0l0,-0.07l0.4,0l0,3.18zm-5.36,-0.22l4.96,0l0,-0.56l-4.96,0l0,0.56zm-5.36,0l4.96,0l0,-0.56l-4.96,0l0,0.56zm-5.37,0l4.96,0l0,-0.56l-4.96,0l0,0.56zm10.73,-0.78l4.96,0l0,-0.86l-4.96,0l0,0.86zm-5.36,0l4.96,0l0,-0.86l-4.96,0l0,0.86zm-5.37,0l4.96,0l0,-0.86l-4.96,0l0,0.86zm10.73,-1.08l4.96,0l0,-0.81l-4.96,0l0,0.81zm-5.36,0l4.96,0l0,-0.81l-4.96,0l0,0.81zm-5.37,0l4.96,0l0,-0.81l-4.96,0l0,0.81z" fill="#231F20" id="svg_3314"/>
   </g>
   <g id="svg_3311" transform="translate(264.17 -37.44) translate(-12 140)">
    <path clip-rule="evenodd" d="m45.01,265.81l0,0l0,0l0,0zm0.19,0l21.5,0l-21.5,0l0,0zm0.14,-2.89l5.03,0l-5.03,0l0,0zm5.22,0l5.17,0l-5.17,0l0,0zm5.36,0l5.18,0l-5.18,0l0,0zm5.37,0l5.17,0l-5.17,0l0,0zm5.36,0l0.05,0l-0.05,0l0,0zm-21.31,1.03l5.03,0l-5.03,0l0,0zm5.22,0l5.17,0l-5.17,0l0,0zm5.36,0l5.18,0l-5.18,0l0,0zm5.37,0l5.17,0l-5.17,0l0,0zm5.36,0l0.05,0l-0.05,0l0,0zm-21.31,1.08l5.03,0l-5.03,0l0,0zm5.22,0l5.17,0l-5.17,0l0,0zm5.36,0l5.18,0l-5.18,0l0,0zm5.37,0l5.17,0l-5.17,0l0,0zm5.36,0l0.05,0l-0.05,0l0,0zm-16.28,-2.18c0.06,0 0.13,0 0.19,0l0,0.07l0,0.68l0,0.35l0,0.73l0,0.35l0,0.43l0,0.35c-0.06,0 -0.13,0 -0.19,0l0,-0.35l0,-0.43l0,-0.36l0,-0.72l0,-0.35l0,-0.68l0,-0.07l0,0zm-5.36,0l0.19,0l0,2.59l0,0.37l-0.19,0l0,-0.38l0,-2.58l0,0zm10.72,0c0.07,0 0.13,0 0.19,0l0,0.07l0,0.71l0,0.32l0,0.75l0,0.33l0,0.46l0,0.32c-0.06,0 -0.12,0 -0.19,0l0,-0.32l0,-0.46l0,-0.33l0,-0.75l0,-0.33l0,-0.71l0,-0.06l0,0zm5.37,0c0.06,0 0.12,0 0.19,0l0,0.07l0,0.73l0,0.3l0,0.78l0,0.3l0,0.49l0,0.29c-0.07,0 -0.13,0 -0.19,0l0,-0.3l0,-0.48l0,-0.3l0,-0.78l0,-0.3l0,-0.73l0,-0.07l0,0zm5.36,0c0.07,0 0.13,0 0.19,0l0,0.07l0,0.76l0,0.27l0,0.81l0,0.27l0,0.51l0,0.27c-0.06,0 -0.13,0 -0.19,0l0,-0.27l0,-0.51l0,-0.27l0,-0.81l0,-0.27l0,-0.76l0,-0.07l0,0z" fill="#231F20" fill-rule="evenodd" id="svg_3312"/>
   </g>
   <g id="svg_3309" transform="translate(264.17 -37.44) translate(-12 140)">
    <path d="m66.76,265.92l-21.86,0l0,-3.18l0.4,0l0,2.97l4.96,0l0,-0.57l-4.92,0l0,-0.22l4.92,0l0,-0.86l-4.92,0l0,-0.22l4.92,0l0,-0.81l-4.92,0l0,-0.22l4.92,0l0,-0.07l0.41,0l0,0.07l4.96,0l0,-0.07l0.4,0l0,0.07l4.96,0l0,-0.07l0.4,0l0,0.07l4.96,0l0,-0.07l0.41,0l0,3.18zm-5.36,-0.22l4.96,0l0,-0.56l-4.96,0l0,0.56zm-5.37,0l4.96,0l0,-0.56l-4.96,0l0,0.56zm-5.36,0l4.96,0l0,-0.56l-4.96,0l0,0.56zm10.73,-0.78l4.96,0l0,-0.86l-4.96,0l0,0.86zm-5.37,0l4.96,0l0,-0.86l-4.96,0l0,0.86zm-5.36,0l4.96,0l0,-0.86l-4.96,0l0,0.86zm10.73,-1.08l4.96,0l0,-0.81l-4.96,0l0,0.81zm-5.37,0l4.96,0l0,-0.81l-4.96,0l0,0.81zm-5.36,0l4.96,0l0,-0.81l-4.96,0l0,0.81z" fill="#231F20" id="svg_3310"/>
   </g>
   <g id="svg_3307" transform="translate(264.17 -37.44) translate(-12 140)">
    <polygon clip-rule="evenodd" fill="#7894AE" fill-rule="evenodd" id="svg_3308" points="66.986,259.838 68.329,259.451 68.433,259.81     67.09,260.198 66.986,259.838   "/>
   </g>
   <g id="svg_3305" transform="translate(264.17 -37.44) translate(-12 140)">
    <polygon clip-rule="evenodd" fill="#7894AE" fill-rule="evenodd" id="svg_3306" points="67.153,260.416 68.484,260.031 68.589,260.391     67.256,260.775 67.153,260.416   "/>
   </g>
   <g id="svg_3303" transform="translate(264.17 -37.44) translate(-12 140)">
    <polygon clip-rule="evenodd" fill="#7894AE" fill-rule="evenodd" id="svg_3304" points="67.319,260.993 68.639,260.612 68.744,260.971     67.423,261.353 67.319,260.993   "/>
   </g>
   <g id="svg_3301" transform="translate(264.17 -37.44) translate(-12 140)">
    <polygon clip-rule="evenodd" fill="#7894AE" fill-rule="evenodd" id="svg_3302" points="108.711,240.101 114.426,240.101 114.426,240.655     108.711,240.655 108.711,240.101   "/>
   </g>
   <g id="svg_3299" transform="translate(264.17 -37.44) translate(-12 140)">
    <polygon clip-rule="evenodd" fill="#7894AE" fill-rule="evenodd" id="svg_3300" points="111.373,243.854 114.426,243.854 114.426,244.408     111.373,244.408 111.373,243.854   "/>
   </g>
   <g id="svg_3297" transform="translate(264.17 -37.44) translate(-12 140)">
    <polygon clip-rule="evenodd" fill="#7894AE" fill-rule="evenodd" id="svg_3298" points="108.484,245.577 111.537,245.577 111.537,246.13     108.484,246.13 108.484,245.577   "/>
   </g>
   <g id="svg_3295" transform="translate(264.17 -37.44) translate(-12 140)">
    <path clip-rule="evenodd" d="m108.66,242.69c0.75,0 1.35,0.61 1.35,1.35c0,0.74 -0.6,1.35 -1.35,1.35c-0.74,0 -1.34,-0.61 -1.34,-1.35c0,-0.75 0.6,-1.35 1.34,-1.35l0,0z" fill="#A3B9C6" fill-rule="evenodd" id="svg_3296"/>
   </g>
   <g id="svg_3293" transform="translate(264.17 -37.44) translate(-12 140)">
    <path clip-rule="evenodd" d="m114.07,241.86c0.42,0 0.77,0.34 0.77,0.76c0,0.43 -0.35,0.77 -0.77,0.77c-0.42,0 -0.76,-0.35 -0.76,-0.77c0,-0.42 0.34,-0.76 0.76,-0.76l0,0z" fill="#A3B9C6" fill-rule="evenodd" id="svg_3294"/>
   </g>
   <g id="svg_3291" transform="translate(264.17 -37.44) translate(-12 140)">
    <path clip-rule="evenodd" d="m103.69,267.66l4.78,0c0.22,0 0.4,0.18 0.4,0.41l0,0c0,0.22 -0.18,0.4 -0.4,0.4l-4.78,0c-0.22,0 -0.4,-0.18 -0.4,-0.4l0,0c0,-0.23 0.18,-0.41 0.4,-0.41l0,0z" fill="#4C6186" fill-rule="evenodd" id="svg_3292"/>
   </g>
   <g id="svg_3289" transform="translate(264.17 -37.44) translate(-12 140)">
    <path clip-rule="evenodd" d="m88.26,267.66l4.77,0c0.23,0 0.41,0.18 0.41,0.41l0,0c0,0.22 -0.18,0.4 -0.41,0.4l-4.77,0c-0.22,0 -0.4,-0.18 -0.4,-0.4l0,0c0,-0.23 0.18,-0.41 0.4,-0.41l0,0z" fill="#4C6186" fill-rule="evenodd" id="svg_3290"/>
   </g>
   <g id="svg_3287" transform="translate(264.17 -37.44) translate(-12 140)">
    <path clip-rule="evenodd" d="m72.83,267.66l4.77,0c0.23,0 0.41,0.18 0.41,0.41l0,0c0,0.22 -0.18,0.4 -0.41,0.4l-4.77,0c-0.22,0 -0.41,-0.18 -0.41,-0.4l0,0c0,-0.23 0.19,-0.41 0.41,-0.41l0,0z" fill="#4C6186" fill-rule="evenodd" id="svg_3288"/>
   </g>
   <g id="svg_3285" transform="translate(264.17 -37.44) translate(-12 140)">
    <polygon clip-rule="evenodd" fill="#7894AE" fill-rule="evenodd" id="svg_3286" points="35.723,273.338 35.723,269.581 36.379,269.367     36.379,273.338 35.723,273.338   "/>
   </g>
   <g id="svg_3283" transform="translate(264.17 -37.44) translate(-12 140)">
    <path clip-rule="evenodd" d="m114.49,261.13c0.99,0.24 1.52,1.44 1.19,2.7c-0.34,1.25 -1.41,2.08 -2.4,1.85c-0.99,-0.24 -1.53,-1.44 -1.19,-2.7c0.33,-1.25 1.41,-2.08 2.4,-1.85l0,0zm-0.26,0.98c0.57,0.13 0.87,0.82 0.68,1.54c-0.19,0.71 -0.81,1.18 -1.37,1.05c-0.57,-0.13 -0.87,-0.82 -0.68,-1.54c0.19,-0.71 0.81,-1.18 1.37,-1.05l0,0z" fill="#4C6186" fill-rule="evenodd" id="svg_3284"/>
   </g>
   <g id="svg_3281" transform="translate(264.17 -37.44) translate(-12 140)">
    <path clip-rule="evenodd" d="m114.25,260.67c0.99,0.23 1.52,1.44 1.18,2.69c-0.33,1.26 -1.41,2.09 -2.4,1.85c-0.99,-0.23 -1.52,-1.44 -1.18,-2.7c0.33,-1.25 1.41,-2.08 2.4,-1.84l0,0zm-0.26,0.97c0.56,0.14 0.86,0.83 0.67,1.54c-0.19,0.72 -0.8,1.19 -1.37,1.05c-0.56,-0.13 -0.86,-0.82 -0.67,-1.53c0.19,-0.72 0.8,-1.19 1.37,-1.06l0,0z" fill="#C12025" fill-rule="evenodd" id="svg_3282"/>
   </g>
   <g id="svg_3279" transform="translate(264.17 -37.44) translate(-12 140)">
    <polygon clip-rule="evenodd" fill="#A3B9C6" fill-rule="evenodd" id="svg_3280" points="114.094,260.496 114.482,260.587 114.145,261.849     113.757,261.758 114.094,260.496   "/>
   </g>
   <g id="svg_3277" transform="translate(264.17 -37.44) translate(-12 140)">
    <polygon clip-rule="evenodd" fill="#A3B9C6" fill-rule="evenodd" id="svg_3278" points="113.164,263.975 113.552,264.067 113.215,265.329     112.826,265.237 113.164,263.975   "/>
   </g>
   <g id="svg_3275" transform="translate(264.17 -37.44) translate(-12 140)">
    <path d="m123.49,265.16l0,-3.77c-0.06,0.08 -0.15,0.13 -0.26,0.17s-0.21,0.06 -0.32,0.06l0,-0.52c0.15,-0.02 0.29,-0.08 0.43,-0.19c0.13,-0.1 0.24,-0.23 0.31,-0.39l0.55,0l0,4.65l-0.71,0l0,-0.01z" fill="#FFFFFF" id="svg_3276"/>
   </g>
   <g id="svg_3273" transform="translate(264.17 -37.44) translate(-12 140)">
    <path d="m125.83,265.22c-0.61,0 -0.92,-0.32 -0.92,-0.96l0,-0.59l0.67,0l0,0.51c0,0.22 0.04,0.35 0.12,0.4c0.03,0.02 0.08,0.03 0.15,0.03c0,0 0.01,0 0.02,0c0.15,0 0.23,-0.15 0.23,-0.46l0,-1.18c0,-0.17 -0.02,-0.3 -0.05,-0.38c-0.04,-0.09 -0.11,-0.13 -0.21,-0.13c-0.18,0 -0.28,0.15 -0.28,0.45l-0.62,-0.02l0,-2.37l1.72,0l0,0.63l-1.07,0l0,0.94c0.04,-0.06 0.1,-0.12 0.18,-0.16c0.09,-0.04 0.19,-0.06 0.29,-0.06c0.27,0 0.46,0.12 0.57,0.36c0.1,0.24 0.16,0.62 0.16,1.14c0,0.52 -0.02,0.88 -0.06,1.08c-0.04,0.2 -0.09,0.35 -0.16,0.46c-0.13,0.2 -0.38,0.31 -0.74,0.31l0,0z" fill="#FFFFFF" id="svg_3274"/>
   </g>
   <g id="svg_3271" transform="translate(264.17 -37.44) translate(-12 140)">
    <path clip-rule="evenodd" d="m117.6,259.79c0.13,0 0.24,0.11 0.24,0.24c0,0.13 -0.11,0.24 -0.24,0.24c-0.14,0 -0.24,-0.11 -0.24,-0.24c0,-0.13 0.11,-0.24 0.24,-0.24l0,0z" fill="#4C6186" fill-rule="evenodd" id="svg_3272"/>
   </g>
   <g id="svg_3269" transform="translate(264.17 -37.44) translate(-12 140)">
    <path clip-rule="evenodd" d="m121.8,259.79c0.13,0 0.24,0.11 0.24,0.24c0,0.13 -0.11,0.24 -0.24,0.24c-0.13,0 -0.24,-0.11 -0.24,-0.24c0,-0.13 0.11,-0.24 0.24,-0.24l0,0z" fill="#4C6186" fill-rule="evenodd" id="svg_3270"/>
   </g>
   <g id="svg_3267" transform="translate(264.17 -37.44) translate(-12 140)">
    <path clip-rule="evenodd" d="m126,259.79c0.13,0 0.24,0.11 0.24,0.24c0,0.13 -0.11,0.24 -0.24,0.24c-0.13,0 -0.24,-0.11 -0.24,-0.24c0,-0.13 0.11,-0.24 0.24,-0.24l0,0z" fill="#4C6186" fill-rule="evenodd" id="svg_3268"/>
   </g>
   <g id="svg_3265" transform="translate(264.17 -37.44) translate(-12 140)">
    <path clip-rule="evenodd" d="m130.2,259.79c0.14,0 0.24,0.11 0.24,0.24c0,0.13 -0.1,0.24 -0.24,0.24c-0.13,0 -0.23,-0.11 -0.23,-0.24c-0.01,-0.13 0.1,-0.24 0.23,-0.24l0,0z" fill="#4C6186" fill-rule="evenodd" id="svg_3266"/>
   </g>
   <g id="svg_3263" transform="translate(264.17 -37.44) translate(-12 140)">
    <path clip-rule="evenodd" d="m117.67,259.79l17.84,0c0.07,0 0.12,0.05 0.12,0.12l0,0c0,0.06 -0.05,0.12 -0.12,0.12l-17.84,0c-0.07,0 -0.12,-0.06 -0.12,-0.12l0,0c0,-0.07 0.05,-0.12 0.12,-0.12l0,0z" fill="#7894AE" fill-rule="evenodd" id="svg_3264"/>
   </g>
   <g id="svg_3261" transform="translate(264.17 -37.44) translate(-12 140)">
    <path clip-rule="evenodd" d="m50.09,267.53l2.44,0c0.32,0 0.58,0.26 0.58,0.57l0,1.35c0,0.32 -0.26,0.58 -0.58,0.58l-2.44,0c-0.32,0 -0.57,-0.26 -0.57,-0.58l0,-1.35c0,-0.31 0.25,-0.57 0.57,-0.57l0,0z" fill="#7894AE" fill-rule="evenodd" id="svg_3262"/>
   </g>
   <g id="svg_3259" transform="translate(264.17 -37.44) translate(-12 140)">
    <path clip-rule="evenodd" d="m50.3,267.29l2.44,0c0.32,0 0.58,0.25 0.58,0.57l0,1.35c0,0.32 -0.26,0.58 -0.58,0.58l-2.44,0c-0.32,0 -0.57,-0.26 -0.57,-0.58l0,-1.35c0,-0.32 0.25,-0.57 0.57,-0.57l0,0z" fill="#D3E0E9" fill-rule="evenodd" id="svg_3260"/>
   </g>
   <g id="svg_3257" transform="translate(264.17 -37.44) translate(-12 140)">
    <path clip-rule="evenodd" d="m52.88,269.77c-0.04,0.01 -0.09,0.02 -0.14,0.02l-2.44,0c-0.31,0 -0.57,-0.26 -0.57,-0.58l0,-1.35c0,-0.13 0.04,-0.25 0.12,-0.35c0.04,-0.01 0.09,-0.02 0.14,-0.02l2.44,0c0.31,0 0.57,0.26 0.57,0.58l0,1.35c0,0.13 -0.04,0.25 -0.12,0.35l0,0z" fill="#A3B9C6" fill-rule="evenodd" id="svg_3258"/>
   </g>
   <g id="svg_3255" transform="translate(264.17 -37.44) translate(-12 140)">
    <path clip-rule="evenodd" d="m41.67,272.65l67.42,0.31c-0.11,0.17 -0.21,0.34 -0.32,0.51l-66.48,0l-0.13,-0.79l-0.5,0l0.01,-0.03l0,0z" fill="#D3E0E9" fill-rule="evenodd" id="svg_3256"/>
   </g>
  </g>
 </g>
</svg>