<svg preserveAspectRatio="none" xmlns="http://www.w3.org/2000/svg" xmlns:svg="http://www.w3.org/2000/svg" enable-background="new 0 0 450 450" version="1.1" xml:space="preserve" viewBox="210.46 123.9 214.33 44.46">
 <g class="layer">
  <title>Layer 1</title>
  <g id="svg_1">
   <g id="svg_1330" transform="translate(12.26 -22.455)">
    <path clip-rule="evenodd" d="m332.72,146.59l0,0c0.11,0 0.19,0.11 0.19,0.25l0,11.54c0,0.14 -0.08,0.25 -0.19,0.25l0,0c-0.1,0 -0.18,-0.11 -0.18,-0.25l0,-11.54c0,-0.14 0.08,-0.25 0.18,-0.25l0,0z" fill="#4D6987" fill-rule="evenodd" id="svg_1331"/>
   </g>
   <g id="svg_1328" transform="translate(12.26 -22.455)">
    <polygon clip-rule="evenodd" fill="#4D6987" fill-rule="evenodd" id="svg_1329" points="332.047,148.129 333.399,148.129 333.399,148.279     332.047,148.279 332.047,148.129   "/>
   </g>
   <g id="svg_1326" transform="translate(12.26 -22.455)">
    <path clip-rule="evenodd" d="m336.83,147.89l0,0c0.1,0 0.19,0.1 0.19,0.22l0,10.3c0,0.12 -0.09,0.22 -0.19,0.22l0,0c-0.1,0 -0.19,-0.1 -0.19,-0.22l0,-10.3c0,-0.12 0.09,-0.22 0.19,-0.22l0,0z" fill="#4D6987" fill-rule="evenodd" id="svg_1327"/>
   </g>
   <g id="svg_1324" transform="translate(12.26 -22.455)">
    <polygon clip-rule="evenodd" fill="#4D6987" fill-rule="evenodd" id="svg_1325" points="336.393,148.129 337.267,148.129 337.267,148.279     336.393,148.279 336.393,148.129   "/>
   </g>
   <g id="svg_1322" transform="translate(12.26 -22.455)">
    <path clip-rule="evenodd" d="m338.56,147.22l0,0c0.1,0 0.19,0.1 0.19,0.23l0,10.94c0,0.13 -0.09,0.24 -0.19,0.24l0,0c-0.11,0 -0.19,-0.11 -0.19,-0.24l0,-10.94c0,-0.13 0.08,-0.23 0.19,-0.23l0,0z" fill="#4D6987" fill-rule="evenodd" id="svg_1323"/>
   </g>
   <g id="svg_1320" transform="translate(12.26 -22.455)">
    <polygon clip-rule="evenodd" fill="#4D6987" fill-rule="evenodd" id="svg_1321" points="338.196,147.544 338.919,147.544 338.919,148.721     338.196,148.721 338.196,147.544   "/>
   </g>
   <g id="svg_1318" transform="translate(12.26 -22.455)">
    <path clip-rule="evenodd" d="m343.62,147.22l0,0c0.1,0 0.18,0.1 0.18,0.23l0,10.94c0,0.13 -0.08,0.24 -0.18,0.24l0,0c-0.11,0 -0.19,-0.11 -0.19,-0.24l0,-10.94c0,-0.13 0.08,-0.23 0.19,-0.23l0,0z" fill="#4D6987" fill-rule="evenodd" id="svg_1319"/>
   </g>
   <g id="svg_1316" transform="translate(12.26 -22.455)">
    <polygon clip-rule="evenodd" fill="#4D6987" fill-rule="evenodd" id="svg_1317" points="342.996,148.465 344.236,148.465 344.236,148.721     342.996,148.721 342.996,148.465   "/>
   </g>
   <g id="svg_1314" transform="translate(12.26 -22.455)">
    <polygon clip-rule="evenodd" fill="#4D6987" fill-rule="evenodd" id="svg_1315" points="342.801,147.869 344.431,147.869 344.431,148.125     342.801,148.125 342.801,147.869   "/>
   </g>
   <g id="svg_1312" transform="translate(12.26 -22.455)">
    <polygon clip-rule="evenodd" fill="#4D6987" fill-rule="evenodd" id="svg_1313" points="344.185,147.57 344.431,147.57 344.431,147.87     344.185,147.87 344.185,147.57   "/>
   </g>
   <g id="svg_1310" transform="translate(12.26 -22.455)">
    <path clip-rule="evenodd" d="m345.79,148.26l0,0c0.1,0 0.18,0.09 0.18,0.21l0,9.95c0,0.11 -0.08,0.21 -0.18,0.21l0,0c-0.11,0 -0.19,-0.1 -0.19,-0.21l0,-9.95c0,-0.12 0.08,-0.21 0.19,-0.21l0,0z" fill="#4D6987" fill-rule="evenodd" id="svg_1311"/>
   </g>
   <g id="svg_1308" transform="translate(12.26 -22.455)">
    <path clip-rule="evenodd" d="m340.55,146.35l0,0c0.05,0 0.1,0.12 0.1,0.25l0,11.78c0,0.13 -0.05,0.25 -0.1,0.25l0,0c-0.05,0 -0.1,-0.12 -0.1,-0.25l0,-11.78c0,-0.13 0.05,-0.25 0.1,-0.25l0,0z" fill="#4D6987" fill-rule="evenodd" id="svg_1309"/>
   </g>
   <g id="svg_1306" transform="translate(12.26 -22.455)">
    <polygon clip-rule="evenodd" fill="#4D6987" fill-rule="evenodd" id="svg_1307" points="340.244,148.129 340.857,148.129 340.857,148.279     340.244,148.279 340.244,148.129   "/>
   </g>
   <g id="svg_1304" transform="translate(12.26 -22.455)">
    <path clip-rule="evenodd" d="m371.85,163.39l0.32,0.01c0.16,0 0.3,0.13 0.3,0.3l-0.01,1.33c0,0.16 -0.14,0.3 -0.31,0.3l-0.32,0c-0.17,0 -0.3,-0.14 -0.3,-0.31l0.01,-1.32c0,-0.17 0.14,-0.31 0.31,-0.31l0,0z" fill="#39506E" fill-rule="evenodd" id="svg_1305"/>
   </g>
   <g id="svg_1302" transform="translate(12.26 -22.455)">
    <path clip-rule="evenodd" d="m388.63,163.45l0.32,0.02c0.17,0 0.3,0.15 0.29,0.32l-0.06,1.32c-0.01,0.17 -0.16,0.3 -0.33,0.29l-0.32,-0.02c-0.16,-0.01 -0.3,-0.15 -0.29,-0.32l0.07,-1.32c0.01,-0.17 0.15,-0.3 0.32,-0.29l0,0z" fill="#39506E" fill-rule="evenodd" id="svg_1303"/>
   </g>
   <g id="svg_1300" transform="translate(12.26 -22.455)">
    <path clip-rule="evenodd" d="m390.24,163.53l0.32,0.02c0.17,0.01 0.3,0.15 0.29,0.32l-0.07,1.32c-0.01,0.17 -0.15,0.3 -0.32,0.29l-0.32,-0.01c-0.17,-0.01 -0.3,-0.16 -0.29,-0.33l0.07,-1.32c0,-0.16 0.15,-0.3 0.32,-0.29l0,0z" fill="#39506E" fill-rule="evenodd" id="svg_1301"/>
   </g>
   <g id="svg_1298" transform="translate(12.26 -22.455)">
    <path clip-rule="evenodd" d="m273.27,166.27l0.31,-0.04c0.17,-0.02 0.33,0.1 0.35,0.27l0.15,1.31c0.02,0.17 -0.1,0.32 -0.27,0.35l-0.31,0.03c-0.17,0.02 -0.32,-0.1 -0.35,-0.26l-0.15,-1.32c-0.02,-0.16 0.1,-0.32 0.27,-0.34l0,0z" fill="#39506E" fill-rule="evenodd" id="svg_1299"/>
   </g>
   <g id="svg_1296" transform="translate(12.26 -22.455)">
    <path clip-rule="evenodd" d="m257.48,168.19l0.32,-0.03c0.17,-0.02 0.32,0.1 0.34,0.27l0.15,1.31c0.02,0.17 -0.1,0.32 -0.27,0.34l-0.32,0.03c-0.16,0.02 -0.32,-0.1 -0.34,-0.27l-0.15,-1.31c-0.02,-0.17 0.1,-0.32 0.27,-0.34l0,0z" fill="#39506E" fill-rule="evenodd" id="svg_1297"/>
   </g>
   <g id="svg_1294" transform="translate(12.26 -22.455)">
    <path clip-rule="evenodd" d="m259.08,168.01l0.32,-0.04c0.17,-0.02 0.32,0.1 0.34,0.27l0.15,1.31c0.02,0.17 -0.1,0.32 -0.27,0.34l-0.32,0.04c-0.17,0.02 -0.32,-0.1 -0.34,-0.27l-0.15,-1.31c-0.02,-0.17 0.1,-0.32 0.27,-0.34l0,0z" fill="#39506E" fill-rule="evenodd" id="svg_1295"/>
   </g>
   <g id="svg_1292" transform="translate(12.26 -22.455)">
    <path clip-rule="evenodd" d="m293.28,164.92l0.32,-0.02c0.17,-0.02 0.31,0.11 0.33,0.28l0.09,1.32c0.01,0.17 -0.12,0.32 -0.29,0.33l-0.32,0.02c-0.16,0.01 -0.31,-0.12 -0.32,-0.29l-0.1,-1.31c-0.01,-0.17 0.12,-0.32 0.29,-0.33l0,0z" fill="#39506E" fill-rule="evenodd" id="svg_1293"/>
   </g>
   <g id="svg_1290" transform="translate(12.26 -22.455)">
    <path clip-rule="evenodd" d="m294.88,164.81l0.32,-0.03c0.17,-0.01 0.32,0.12 0.33,0.29l0.09,1.32c0.01,0.17 -0.11,0.31 -0.28,0.33l-0.32,0.02c-0.17,0.01 -0.32,-0.12 -0.33,-0.29l-0.09,-1.32c-0.01,-0.16 0.12,-0.31 0.28,-0.32l0,0z" fill="#39506E" fill-rule="evenodd" id="svg_1291"/>
   </g>
   <g id="svg_1288" transform="translate(12.26 -22.455)">
    <path clip-rule="evenodd" d="m310.62,163.9l0.32,0c0.17,0 0.3,0.14 0.3,0.31l0,1.32c0,0.17 -0.13,0.31 -0.3,0.31l-0.32,0c-0.17,0 -0.31,-0.14 -0.31,-0.31l0,-1.32c0,-0.17 0.14,-0.31 0.31,-0.31l0,0z" fill="#39506E" fill-rule="evenodd" id="svg_1289"/>
   </g>
   <g id="svg_1286" transform="translate(12.26 -22.455)">
    <path clip-rule="evenodd" d="m312.23,163.9l0.32,0c0.16,0 0.3,0.14 0.3,0.31l0,1.32c0,0.17 -0.14,0.31 -0.3,0.31l-0.32,0c-0.17,0 -0.31,-0.14 -0.31,-0.31l0,-1.32c0,-0.17 0.14,-0.31 0.31,-0.31l0,0z" fill="#39506E" fill-rule="evenodd" id="svg_1287"/>
   </g>
   <g id="svg_1284" transform="translate(12.26 -22.455)">
    <path d="m248.28,170.52l-0.27,-1.78l0.21,-0.04l0.28,1.79l-0.22,0.03zm13.53,-1.88l-0.28,-1.79l0.21,-0.03l0.28,1.78l-0.21,0.04zm13.5,-1.41l-0.26,-2.27l0.22,-0.03l0.25,2.27l-0.21,0.03zm14.28,-1.08l-0.24,-2.39l0.21,-0.02l0.24,2.39l-0.21,0.02zm48.41,-0.95l-0.01,-2.58l0.22,0l0,2.58l-0.21,0zm-9.35,0l-0.01,-2.58l0.22,0l0.01,2.58l-0.22,0zm-11.21,0l0,-2.58l0.22,0l0,2.58l-0.22,0zm-13.28,0l-0.01,-2.58l0.22,0l0,2.58l-0.21,0z" fill="#231F20" id="svg_1285"/>
   </g>
   <g id="svg_1282" transform="translate(12.26 -22.455)">
    <path clip-rule="evenodd" d="m318.45,166.74c5.94,-5.49 13.43,-9.36 23.42,-10.62c6.01,-0.86 10.89,-0.34 15,1.28c1.77,0.7 2.11,1.77 2.2,2.75c0.21,2.58 1.86,4.1 3.65,5.49c-14.75,0.36 -29.51,0.73 -44.27,1.1l0,0z" fill="#4D6987" fill-rule="evenodd" id="svg_1283"/>
   </g>
   <g id="svg_1280" transform="translate(12.26 -22.455)">
    <path clip-rule="evenodd" d="m322.26,167.55c5.33,-5.49 12.05,-9.36 21.02,-10.62c5.4,-0.86 9.77,-0.34 13.46,1.29c1.59,0.69 1.9,1.76 1.97,2.74c0.19,2.58 1.68,4.1 3.29,5.49c-13.25,0.36 -26.49,0.73 -39.74,1.1l0,0z" fill="#6987A1" fill-rule="evenodd" id="svg_1281"/>
   </g>
   <g id="svg_1278" transform="translate(12.26 -22.455)">
    <path d="m393.42,164.95l-0.02,-2.17l0.21,0l0.02,2.17l-0.21,0zm-9.48,-0.4l-0.02,-2.18l0.21,0l0.02,2.18l-0.21,0zm-9.75,0l-0.02,-2.18l0.21,0l0.02,2.18l-0.21,0zm-9.75,0l-0.03,-2.18l0.22,0l0.02,2.18l-0.21,0zm-9.76,0l-0.02,-2.18l0.22,0l0.02,2.18l-0.22,0zm-9.75,0l-0.02,-2.18l0.22,0l0.02,2.18l-0.22,0z" fill="#231F20" id="svg_1279"/>
   </g>
   <g id="svg_1276" transform="translate(12.26 -22.455)">
    <path clip-rule="evenodd" d="m335.57,160.72c2.67,-1.25 5.62,-2.16 8.89,-2.65c4.99,-0.87 9.02,-0.34 12.43,1.28c0.82,0.39 1.27,0.89 1.52,1.43l-0.08,-0.04c-4.37,-1.61 -9.54,-2.14 -15.92,-1.28c-2.42,0.29 -4.69,0.71 -6.84,1.26l0,0z" fill="#8CABBA" fill-rule="evenodd" id="svg_1277"/>
   </g>
   <g id="svg_1274" transform="translate(12.26 -22.455)">
    <path clip-rule="evenodd" d="m213.49,190.81l0,-29.18l5.95,0c0.59,0 1.1,0.3 1.4,0.82l5.73,10.19c0.3,0.54 0.84,0.84 1.46,0.82l10.6,-0.39c-3.17,3.54 -6.34,7.09 -9.5,10.63c-2.05,0.27 -3.96,0.78 -4.86,3.05c-0.46,1.02 -0.93,2.04 -1.39,3.06c-0.26,0.59 -0.81,0.94 -1.45,0.95l-7.94,0.05l0,0z" fill="#4D6987" fill-rule="evenodd" id="svg_1275"/>
   </g>
   <g id="svg_1272" transform="translate(12.26 -22.455)">
    <path clip-rule="evenodd" d="m198.47,178.76c25.36,-3.83 52.98,-9.62 76.07,-11.48c9.88,-0.79 32,-2.36 37.38,-2.41l66.89,-0.65c7.37,-0.07 15.66,0.37 21.84,1.55c19.29,3.65 13.64,22.84 -6.53,23.4l-8.89,0.25l-83.27,1.04c-10.8,0.14 -27.64,-0.55 -41.69,-1.95c-19.23,-1.92 -40.43,-5.52 -61.79,-9.12c-0.16,-0.02 -0.28,-0.15 -0.28,-0.31c0,-0.17 0.11,-0.3 0.27,-0.32l0,0z" fill="#4D6987" fill-rule="evenodd" id="svg_1273"/>
   </g>
   <g id="svg_1270" transform="translate(12.26 -22.455)">
    <path clip-rule="evenodd" d="m198.47,178.76c25.36,-3.83 52.98,-9.62 76.07,-11.48c9.88,-0.79 32,-2.36 37.38,-2.41l66.89,-0.65c7.37,-0.07 15.66,0.37 21.84,1.55c8.86,1.67 12.45,6.62 11.81,11.54c-1.83,5.18 -8.65,9.91 -19.17,10.18l-9.5,0.25l-88.92,1.04c-11.53,0.14 -29.53,-0.55 -44.53,-1.95c-7.04,-0.66 -14.34,-1.52 -21.8,-2.5c-9.86,-1.53 -19.94,-3.23 -30.07,-4.94c-0.15,-0.02 -0.27,-0.16 -0.27,-0.32c0,-0.16 0.11,-0.29 0.27,-0.31l0,0z" fill="#39506E" fill-rule="evenodd" id="svg_1271"/>
   </g>
   <g id="svg_1268" transform="translate(12.26 -22.455)">
    <path clip-rule="evenodd" d="m198.66,178.73c25.31,-3.83 52.85,-9.6 75.88,-11.45c9.88,-0.79 32,-2.36 37.38,-2.41l66.89,-0.65c7.37,-0.07 15.66,0.37 21.84,1.55c3.23,0.61 5.76,1.66 7.64,2.98c3,6.87 -4,15.87 -17.72,16.25l-8.89,0.25l-83.27,1.04c-10.8,0.14 -27.65,-0.55 -41.69,-1.95c-17.56,-1.75 -38.31,-2.71 -58.06,-5.61l0,0z" fill="#4D6987" fill-rule="evenodd" id="svg_1269"/>
   </g>
   <g id="svg_1266" transform="translate(12.26 -22.455)">
    <path clip-rule="evenodd" d="m201.16,178.96c27.9,-3.97 47.89,-8.12 70.92,-9.96c9.88,-0.8 31.37,-2.54 36.75,-2.59l66.89,-0.65c7.38,-0.07 15.7,0.23 21.85,1.55c12.16,2.62 8.97,13.92 -9.93,14.45l-8.89,0.25l-83.27,1.04c-10.8,0.14 -27.65,-0.55 -41.69,-1.95c-17.56,-1.75 -37.35,-1.47 -52.63,-2.14l0,0z" fill="#6987A1" fill-rule="evenodd" id="svg_1267"/>
   </g>
   <g id="svg_1264" transform="translate(12.26 -22.455)">
    <path clip-rule="evenodd" d="m201.16,178.34c0.66,-0.1 1.32,-0.2 1.98,-0.31l0,2.15l-1.98,-0.34l0,-1.5l0,0z" fill="#C97731" fill-rule="evenodd" id="svg_1265"/>
   </g>
   <g id="svg_1262" transform="translate(12.26 -22.455)">
    <path clip-rule="evenodd" d="m201.16,178.34l1.05,-0.16l0.03,0l0.01,0l0.89,-0.15l0,1.32c-0.66,-0.09 -1.32,-0.18 -1.98,-0.27l0,-0.74l0,0z" fill="#E5962E" fill-rule="evenodd" id="svg_1263"/>
   </g>
   <g id="svg_1260" transform="translate(12.26 -22.455)">
    <path clip-rule="evenodd" d="m213.49,166.16l5,0c0.32,0 0.58,0.26 0.58,0.58l0,7.52c0,0.32 -0.26,0.58 -0.58,0.58l-5,0l0,-8.68l0,0z" fill="#39506E" fill-rule="evenodd" id="svg_1261"/>
   </g>
   <g id="svg_1258" transform="translate(12.26 -22.455)">
    <path clip-rule="evenodd" d="m224.24,172l-1.25,0c-0.21,0 -0.38,0.17 -0.38,0.38l0,1.25c0,0.21 0.17,0.38 0.38,0.38l1.25,0c0.21,0 0.38,-0.17 0.38,-0.38l0,-1.25c0,-0.21 -0.17,-0.38 -0.38,-0.38l0,0z" fill="#39506E" fill-rule="evenodd" id="svg_1259"/>
   </g>
   <g id="svg_1256" transform="translate(12.26 -22.455)">
    <path clip-rule="evenodd" d="m213.49,166.51l4.75,0c0.3,0 0.54,0.24 0.54,0.54l0,6.9c0,0.29 -0.24,0.54 -0.54,0.54l-4.75,0l0,-7.98l0,0z" fill="#8CABBA" fill-rule="evenodd" id="svg_1257"/>
   </g>
   <g id="svg_1254" transform="translate(12.26 -22.455)">
    <path clip-rule="evenodd" d="m213.49,166.84l4.51,0c0.27,0 0.49,0.23 0.49,0.52l0,6.61c0,0.28 -0.22,0.51 -0.49,0.51l-4.51,0l0,-7.64l0,0z" fill="#4D6987" fill-rule="evenodd" id="svg_1255"/>
   </g>
   <g id="svg_1252" transform="translate(12.26 -22.455)">
    <path clip-rule="evenodd" d="m224.42,171.85l-1.25,0c-0.14,0 -0.26,0.07 -0.33,0.18c0.05,-0.02 0.1,-0.03 0.15,-0.03l1.25,0c0.21,0 0.38,0.17 0.38,0.38l0,1.25c0,0.07 -0.02,0.14 -0.06,0.2c0.14,-0.06 0.24,-0.2 0.24,-0.35l0,-1.25c-0.01,-0.21 -0.17,-0.38 -0.38,-0.38l0,0z" fill="#8CABBA" fill-rule="evenodd" id="svg_1253"/>
   </g>
   <g id="svg_1250" transform="translate(12.26 -22.455)">
    <path clip-rule="evenodd" d="m223.13,172l1.15,0c0.19,0 0.34,0.16 0.34,0.35l0,1.14c0,0.19 -0.15,0.35 -0.34,0.35l-1.15,0c-0.19,0 -0.34,-0.16 -0.34,-0.35l0,-1.14c0,-0.19 0.15,-0.35 0.34,-0.35l0,0z" fill="#4D6987" fill-rule="evenodd" id="svg_1251"/>
   </g>
   <g id="svg_1248" transform="translate(12.26 -22.455)">
    <path clip-rule="evenodd" d="m210.77,179l1.79,0c0.07,0 0.12,0.05 0.12,0.12l0,0.24c0,0.07 -0.06,0.12 -0.12,0.12l-1.79,0c-0.06,0 -0.11,-0.05 -0.11,-0.12l0,-0.24c0,-0.07 0.05,-0.12 0.11,-0.12l0,0z" fill="#E5962E" fill-rule="evenodd" id="svg_1249"/>
   </g>
   <g id="svg_1246" transform="translate(12.26 -22.455)">
    <path clip-rule="evenodd" d="m211.71,179.38c-0.17,-0.25 -0.77,-1.65 -0.13,-1.77c0.08,-0.02 0.16,0.02 0.2,0.09c0.28,0.49 0.29,1.05 -0.07,1.68l0,0z" fill="#C97731" fill-rule="evenodd" id="svg_1247"/>
   </g>
   <g id="svg_1244" transform="translate(12.26 -22.455)">
    <path clip-rule="evenodd" d="m211.57,179.17c0.17,0.25 0.76,1.65 0.13,1.77c-0.08,0.01 -0.16,-0.02 -0.2,-0.1c-0.28,-0.49 -0.29,-1.04 0.07,-1.67l0,0z" fill="#F6B859" fill-rule="evenodd" id="svg_1245"/>
   </g>
   <g id="svg_1242" transform="translate(12.26 -22.455)">
    <path clip-rule="evenodd" d="m203.14,178.04l-1,-2.46c-0.25,-0.59 -0.98,-0.47 -0.98,0.31l0,2.46l1.98,-0.31l0,0z" fill="#F6B859" fill-rule="evenodd" id="svg_1243"/>
   </g>
   <g id="svg_1240" transform="translate(12.26 -22.455)">
    <path clip-rule="evenodd" d="m201.2,175.61c-0.02,0.08 -0.04,0.18 -0.04,0.28l0,2.45l1.74,-0.27l-0.91,-2.22c-0.17,-0.41 -0.56,-0.48 -0.79,-0.24l0,0z" fill="#C97731" fill-rule="evenodd" id="svg_1241"/>
   </g>
   <g id="svg_1238" transform="translate(12.26 -22.455)">
    <path clip-rule="evenodd" d="m203.14,180.15l-1,2.46c-0.25,0.59 -0.98,0.47 -0.98,-0.31l0,-2.46l1.98,0.31l0,0z" fill="#C97731" fill-rule="evenodd" id="svg_1239"/>
   </g>
   <g id="svg_1236" transform="translate(12.26 -22.455)">
    <path clip-rule="evenodd" d="m201.41,182.9c-0.14,-0.11 -0.25,-0.31 -0.25,-0.6l0,-2.46l1.68,0.27l-0.99,2.42c-0.1,0.23 -0.27,0.35 -0.44,0.37l0,0z" fill="#F6B859" fill-rule="evenodd" id="svg_1237"/>
   </g>
   <g id="svg_1234" transform="translate(12.26 -22.455)">
    <path clip-rule="evenodd" d="m303.53,168.48l-1.91,0c-0.06,0 -0.11,0.05 -0.11,0.12l0,0.97c0,0.07 0.05,0.12 0.11,0.12l1.91,0c0.07,0 0.12,-0.05 0.12,-0.12l0,-0.97c0,-0.07 -0.05,-0.12 -0.12,-0.12l0,0z" fill="#8CABBA" fill-rule="evenodd" id="svg_1235"/>
   </g>
   <g id="svg_1232" transform="translate(12.26 -22.455)">
    <path clip-rule="evenodd" d="m303.62,168.33l-1.91,0c-0.06,0 -0.11,0.06 -0.11,0.12l0,0.98c0,0.06 0.05,0.11 0.11,0.11l1.91,0c0.07,0 0.12,-0.05 0.12,-0.11l0,-0.98c0,-0.06 -0.05,-0.12 -0.12,-0.12l0,0z" fill="#39506E" fill-rule="evenodd" id="svg_1233"/>
   </g>
   <g id="svg_1230" transform="translate(12.26 -22.455)">
    <path clip-rule="evenodd" d="m300.77,168.48l-1.9,0c-0.07,0 -0.12,0.05 -0.12,0.12l0,0.97c0,0.07 0.05,0.12 0.12,0.12l1.9,0c0.07,0 0.12,-0.05 0.12,-0.12l0,-0.97c0,-0.07 -0.05,-0.12 -0.12,-0.12l0,0z" fill="#8CABBA" fill-rule="evenodd" id="svg_1231"/>
   </g>
   <g id="svg_1228" transform="translate(12.26 -22.455)">
    <path clip-rule="evenodd" d="m300.86,168.33l-1.91,0c-0.06,0 -0.11,0.06 -0.11,0.12l0,0.98c0,0.06 0.05,0.11 0.11,0.11l1.91,0c0.07,0 0.12,-0.05 0.12,-0.11l0,-0.98c0,-0.06 -0.05,-0.12 -0.12,-0.12l0,0z" fill="#39506E" fill-rule="evenodd" id="svg_1229"/>
   </g>
   <g id="svg_1226" transform="translate(12.26 -22.455)">
    <path clip-rule="evenodd" d="m272.73,169.11l-1.31,0c-0.04,0 -0.08,0.03 -0.08,0.08l0,0.67c0,0.04 0.04,0.08 0.08,0.08l1.31,0c0.04,0 0.08,-0.04 0.08,-0.08l0,-0.67c0,-0.05 -0.04,-0.08 -0.08,-0.08l0,0z" fill="#8CABBA" fill-rule="evenodd" id="svg_1227"/>
   </g>
   <g id="svg_1224" transform="translate(12.26 -22.455)">
    <path clip-rule="evenodd" d="m272.84,169l-1.31,0c-0.04,0 -0.08,0.03 -0.08,0.08l0,0.66c0,0.05 0.04,0.08 0.08,0.08l1.31,0c0.04,0 0.08,-0.03 0.08,-0.08l0,-0.66c0,-0.05 -0.04,-0.08 -0.08,-0.08l0,0z" fill="#39506E" fill-rule="evenodd" id="svg_1225"/>
   </g>
   <g id="svg_1222" transform="translate(12.26 -22.455)">
    <path clip-rule="evenodd" d="m270.35,169.11l-1.31,0c-0.04,0 -0.08,0.03 -0.08,0.08l0,0.67c0,0.04 0.04,0.08 0.08,0.08l1.31,0c0.04,0 0.08,-0.04 0.08,-0.08l0,-0.67c0,-0.05 -0.04,-0.08 -0.08,-0.08l0,0z" fill="#8CABBA" fill-rule="evenodd" id="svg_1223"/>
   </g>
   <g id="svg_1220" transform="translate(12.26 -22.455)">
    <path clip-rule="evenodd" d="m270.46,169l-1.31,0c-0.04,0 -0.08,0.03 -0.08,0.08l0,0.66c0,0.05 0.04,0.08 0.08,0.08l1.31,0c0.04,0 0.08,-0.03 0.08,-0.08l0,-0.66c0,-0.05 -0.04,-0.08 -0.08,-0.08l0,0z" fill="#39506E" fill-rule="evenodd" id="svg_1221"/>
   </g>
   <g id="svg_1218" transform="translate(12.26 -22.455)">
    <path clip-rule="evenodd" d="m267.97,169.11l-1.31,0c-0.04,0 -0.08,0.03 -0.08,0.08l0,0.67c0,0.04 0.04,0.08 0.08,0.08l1.31,0c0.04,0 0.08,-0.04 0.08,-0.08l0,-0.67c0,-0.05 -0.04,-0.08 -0.08,-0.08l0,0z" fill="#8CABBA" fill-rule="evenodd" id="svg_1219"/>
   </g>
   <g id="svg_1216" transform="translate(12.26 -22.455)">
    <path clip-rule="evenodd" d="m268.08,169l-1.31,0c-0.04,0 -0.08,0.03 -0.08,0.08l0,0.66c0,0.05 0.04,0.08 0.08,0.08l1.31,0c0.04,0 0.08,-0.03 0.08,-0.08l0,-0.66c0,-0.05 -0.04,-0.08 -0.08,-0.08l0,0z" fill="#39506E" fill-rule="evenodd" id="svg_1217"/>
   </g>
   <g id="svg_1214" transform="translate(12.26 -22.455)">
    <path clip-rule="evenodd" d="m243.2,172.28l-1.3,0.18c-0.04,0.01 -0.07,0.05 -0.07,0.09l0.1,0.67c0,0.04 0.04,0.07 0.09,0.06l1.29,-0.17c0.05,-0.01 0.08,-0.05 0.07,-0.1l-0.09,-0.66c-0.01,-0.04 -0.05,-0.07 -0.09,-0.07l0,0z" fill="#8CABBA" fill-rule="evenodd" id="svg_1215"/>
   </g>
   <g id="svg_1212" transform="translate(12.26 -22.455)">
    <path clip-rule="evenodd" d="m243.29,172.16l-1.29,0.18c-0.05,0 -0.08,0.04 -0.07,0.09l0.09,0.66c0.01,0.05 0.05,0.08 0.09,0.07l1.3,-0.18c0.04,-0.01 0.07,-0.05 0.07,-0.09l-0.1,-0.66c0,-0.05 -0.04,-0.08 -0.09,-0.07l0,0z" fill="#39506E" fill-rule="evenodd" id="svg_1213"/>
   </g>
   <g id="svg_1210" transform="translate(12.26 -22.455)">
    <path clip-rule="evenodd" d="m245.94,171.9l-1.29,0.18c-0.05,0.01 -0.08,0.05 -0.07,0.09l0.09,0.67c0.01,0.04 0.05,0.07 0.09,0.07l1.3,-0.18c0.04,-0.01 0.07,-0.05 0.07,-0.1l-0.1,-0.66c0,-0.04 -0.04,-0.07 -0.09,-0.07l0,0z" fill="#8CABBA" fill-rule="evenodd" id="svg_1211"/>
   </g>
   <g id="svg_1208" transform="translate(12.26 -22.455)">
    <path clip-rule="evenodd" d="m246.04,171.78l-1.3,0.18c-0.04,0 -0.07,0.04 -0.07,0.09l0.1,0.66c0,0.04 0.04,0.07 0.09,0.07l1.29,-0.18c0.04,-0.01 0.08,-0.05 0.07,-0.09l-0.09,-0.66c-0.01,-0.05 -0.05,-0.08 -0.09,-0.07l0,0z" fill="#39506E" fill-rule="evenodd" id="svg_1209"/>
   </g>
   <g id="svg_1206" transform="translate(12.26 -22.455)">
    <path clip-rule="evenodd" d="m248.69,171.52l-1.3,0.18c-0.04,0.01 -0.07,0.05 -0.07,0.09l0.1,0.67c0,0.04 0.04,0.07 0.09,0.06l1.29,-0.18c0.05,0 0.08,-0.04 0.07,-0.09l-0.09,-0.66c-0.01,-0.04 -0.05,-0.07 -0.09,-0.07l0,0z" fill="#8CABBA" fill-rule="evenodd" id="svg_1207"/>
   </g>
   <g id="svg_1204" transform="translate(12.26 -22.455)">
    <path clip-rule="evenodd" d="m248.78,171.4l-1.29,0.18c-0.05,0 -0.08,0.05 -0.07,0.09l0.09,0.66c0.01,0.04 0.05,0.08 0.09,0.07l1.3,-0.18c0.04,-0.01 0.07,-0.05 0.07,-0.09l-0.1,-0.66c0,-0.05 -0.04,-0.08 -0.09,-0.07l0,0z" fill="#39506E" fill-rule="evenodd" id="svg_1205"/>
   </g>
   <g id="svg_1202" transform="translate(12.26 -22.455)">
    <path clip-rule="evenodd" d="m251.43,171.14l-1.29,0.18c-0.05,0.01 -0.08,0.05 -0.07,0.09l0.09,0.67c0.01,0.04 0.05,0.07 0.09,0.06l1.3,-0.17c0.04,-0.01 0.07,-0.05 0.07,-0.1l-0.1,-0.66c0,-0.04 -0.04,-0.07 -0.09,-0.07l0,0z" fill="#8CABBA" fill-rule="evenodd" id="svg_1203"/>
   </g>
   <g id="svg_1200" transform="translate(12.26 -22.455)">
    <path clip-rule="evenodd" d="m251.53,171.02l-1.3,0.18c-0.04,0 -0.07,0.05 -0.07,0.09l0.1,0.66c0,0.05 0.04,0.08 0.09,0.07l1.29,-0.18c0.05,-0.01 0.08,-0.05 0.07,-0.09l-0.09,-0.66c-0.01,-0.05 -0.05,-0.08 -0.09,-0.07l0,0z" fill="#39506E" fill-rule="evenodd" id="svg_1201"/>
   </g>
   <g id="svg_1198" transform="translate(12.26 -22.455)">
    <path clip-rule="evenodd" d="m254.18,170.76l-1.3,0.18c-0.04,0.01 -0.07,0.05 -0.07,0.09l0.1,0.67c0,0.04 0.04,0.07 0.09,0.06l1.29,-0.17c0.05,-0.01 0.08,-0.05 0.07,-0.1l-0.09,-0.66c-0.01,-0.04 -0.05,-0.07 -0.09,-0.07l0,0z" fill="#8CABBA" fill-rule="evenodd" id="svg_1199"/>
   </g>
   <g id="svg_1196" transform="translate(12.26 -22.455)">
    <path clip-rule="evenodd" d="m254.27,170.64l-1.29,0.18c-0.05,0 -0.08,0.05 -0.07,0.09l0.09,0.66c0.01,0.05 0.05,0.08 0.09,0.07l1.3,-0.18c0.04,0 0.07,-0.05 0.06,-0.09l-0.09,-0.66c0,-0.05 -0.04,-0.08 -0.09,-0.07l0,0z" fill="#39506E" fill-rule="evenodd" id="svg_1197"/>
   </g>
   <g id="svg_1194" transform="translate(12.26 -22.455)">
    <path clip-rule="evenodd" d="m256.92,170.38l-1.29,0.18c-0.05,0.01 -0.08,0.05 -0.07,0.09l0.09,0.66c0.01,0.05 0.05,0.08 0.09,0.07l1.3,-0.18c0.04,0 0.07,-0.04 0.07,-0.09l-0.1,-0.66c0,-0.04 -0.04,-0.07 -0.09,-0.07l0,0z" fill="#8CABBA" fill-rule="evenodd" id="svg_1195"/>
   </g>
   <g id="svg_1192" transform="translate(12.26 -22.455)">
    <path clip-rule="evenodd" d="m257.02,170.26l-1.3,0.18c-0.04,0 -0.07,0.04 -0.07,0.09l0.1,0.66c0,0.05 0.04,0.08 0.09,0.07l1.29,-0.18c0.05,-0.01 0.08,-0.05 0.07,-0.09l-0.09,-0.66c-0.01,-0.05 -0.05,-0.08 -0.09,-0.07l0,0z" fill="#39506E" fill-rule="evenodd" id="svg_1193"/>
   </g>
   <g id="svg_1190" transform="translate(12.26 -22.455)">
    <path clip-rule="evenodd" d="m329.19,159.59l8.78,0l0,-0.33l-8.01,0c-0.26,0.11 -0.52,0.22 -0.77,0.33l0,0zm21.17,0l8.63,0c-0.03,-0.11 -0.06,-0.22 -0.1,-0.33l-8.53,0l0,0.33l0,0z" fill="#8CABBA" fill-rule="evenodd" id="svg_1191"/>
   </g>
   <g id="svg_1188" transform="translate(12.26 -22.455)">
    <path clip-rule="evenodd" d="m371.4,174.51l2.47,0c0.4,0 0.74,-0.33 0.74,-0.74l0,-2.46c0,-0.41 -0.34,-0.74 -0.74,-0.74l-2.47,0c-0.4,0 -0.73,0.33 -0.73,0.74l0,2.46c0,0.41 0.33,0.74 0.73,0.74l0,0z" fill="#39506E" fill-rule="evenodd" id="svg_1189"/>
   </g>
   <g id="svg_1186" transform="translate(12.26 -22.455)">
    <path clip-rule="evenodd" d="m371.05,174.81l2.47,0c0.26,0 0.5,-0.14 0.63,-0.35c-0.09,0.03 -0.18,0.05 -0.28,0.05l-2.46,0c-0.41,0 -0.74,-0.33 -0.74,-0.74l0,-2.46c0,-0.14 0.04,-0.27 0.1,-0.38c-0.26,0.11 -0.46,0.37 -0.46,0.68l0,2.46c0,0.41 0.34,0.74 0.74,0.74l0,0z" fill="#8CABBA" fill-rule="evenodd" id="svg_1187"/>
   </g>
   <g id="svg_1184" transform="translate(12.26 -22.455)">
    <path clip-rule="evenodd" d="m371.34,174.51l2.26,0c0.37,0 0.67,-0.3 0.67,-0.67l0,-2.26c0,-0.37 -0.3,-0.67 -0.67,-0.67l-2.26,0c-0.37,0 -0.67,0.3 -0.67,0.67l0,2.26c0,0.37 0.3,0.67 0.67,0.67l0,0z" fill="#6987A1" fill-rule="evenodd" id="svg_1185"/>
   </g>
   <g id="svg_1182" transform="translate(12.26 -22.455)">
    <path clip-rule="evenodd" d="m235.67,174.7c12.02,-1.89 23.3,-3.5 35.42,-4.47c9.88,-0.79 31.37,-2.53 36.75,-2.58l66.89,-0.65c7.38,-0.07 15.7,0.22 21.85,1.54c3.38,0.73 5.57,2.13 6.57,3.78c-1.2,-0.88 -2.87,-1.59 -5.02,-2.05c-6.24,-1.32 -14.68,-1.61 -22.17,-1.54l-67.88,0.65c-5.46,0.05 -30.36,1.17 -40.39,1.96c-10.8,0.86 -21.19,1.99 -32.02,3.36l0,0z" fill="#8CABBA" fill-rule="evenodd" id="svg_1183"/>
   </g>
   <g id="svg_1180" transform="translate(12.26 -22.455)">
    <path clip-rule="evenodd" d="m326.88,167.14l-1.91,0c-0.07,0 -0.12,0.05 -0.12,0.11l0,0.98c0,0.06 0.05,0.12 0.12,0.12l1.91,0c0.06,0 0.11,-0.06 0.11,-0.12l0,-0.98c0,-0.06 -0.05,-0.11 -0.11,-0.11l0,0z" fill="#8CABBA" fill-rule="evenodd" id="svg_1181"/>
   </g>
   <g id="svg_1178" transform="translate(12.26 -22.455)">
    <path clip-rule="evenodd" d="m326.97,166.99l-1.91,0c-0.07,0 -0.12,0.05 -0.12,0.11l0,0.98c0,0.07 0.05,0.12 0.12,0.12l1.91,0c0.06,0 0.11,-0.05 0.11,-0.12l0,-0.98c0,-0.06 -0.05,-0.11 -0.11,-0.11l0,0z" fill="#39506E" fill-rule="evenodd" id="svg_1179"/>
   </g>
   <g id="svg_1176" transform="translate(12.26 -22.455)">
    <path clip-rule="evenodd" d="m324.12,167.14l-1.91,0c-0.07,0 -0.12,0.05 -0.12,0.11l0,0.98c0,0.06 0.05,0.12 0.12,0.12l1.91,0c0.06,0 0.12,-0.06 0.12,-0.12l0,-0.98c0,-0.06 -0.06,-0.11 -0.12,-0.11l0,0z" fill="#8CABBA" fill-rule="evenodd" id="svg_1177"/>
   </g>
   <g id="svg_1174" transform="translate(12.26 -22.455)">
    <path clip-rule="evenodd" d="m324.21,166.99l-1.91,0c-0.07,0 -0.12,0.05 -0.12,0.11l0,0.98c0,0.07 0.05,0.12 0.12,0.12l1.91,0c0.06,0 0.11,-0.05 0.11,-0.12l0,-0.98c0,-0.06 -0.05,-0.11 -0.11,-0.11l0,0z" fill="#39506E" fill-rule="evenodd" id="svg_1175"/>
   </g>
   <g id="svg_1172" transform="translate(12.26 -22.455)">
    <path clip-rule="evenodd" d="m337.97,167.14l-1.91,0c-0.06,0 -0.12,0.05 -0.12,0.11l0,0.98c0,0.06 0.06,0.12 0.12,0.12l1.91,0c0.06,0 0.12,-0.06 0.12,-0.12l0,-0.98c0,-0.06 -0.06,-0.11 -0.12,-0.11l0,0z" fill="#8CABBA" fill-rule="evenodd" id="svg_1173"/>
   </g>
   <g id="svg_1170" transform="translate(12.26 -22.455)">
    <path clip-rule="evenodd" d="m338.06,166.99l-1.91,0c-0.07,0 -0.12,0.05 -0.12,0.11l0,0.98c0,0.07 0.05,0.12 0.12,0.12l1.91,0c0.06,0 0.12,-0.05 0.12,-0.12l0,-0.98c0,-0.06 -0.06,-0.11 -0.12,-0.11l0,0z" fill="#39506E" fill-rule="evenodd" id="svg_1171"/>
   </g>
   <g id="svg_1168" transform="translate(12.26 -22.455)">
    <path clip-rule="evenodd" d="m335.21,167.14l-1.91,0c-0.06,0 -0.11,0.05 -0.11,0.11l0,0.98c0,0.06 0.05,0.12 0.11,0.12l1.91,0c0.07,0 0.12,-0.06 0.12,-0.12l0,-0.98c0,-0.06 -0.06,-0.11 -0.12,-0.11l0,0z" fill="#8CABBA" fill-rule="evenodd" id="svg_1169"/>
   </g>
   <g id="svg_1166" transform="translate(12.26 -22.455)">
    <path clip-rule="evenodd" d="m335.3,166.99l-1.91,0c-0.06,0 -0.12,0.05 -0.12,0.11l0,0.98c0,0.07 0.06,0.12 0.12,0.12l1.91,0c0.07,0 0.12,-0.05 0.12,-0.12l0,-0.98c0,-0.06 -0.06,-0.11 -0.12,-0.11l0,0z" fill="#39506E" fill-rule="evenodd" id="svg_1167"/>
   </g>
   <g id="svg_1164" transform="translate(12.26 -22.455)">
    <path clip-rule="evenodd" d="m348.36,167.14l-1.91,0c-0.07,0 -0.12,0.05 -0.12,0.11l0,0.98c0,0.06 0.05,0.12 0.12,0.12l1.91,0c0.06,0 0.11,-0.06 0.11,-0.12l0,-0.98c0,-0.06 -0.05,-0.11 -0.11,-0.11l0,0z" fill="#8CABBA" fill-rule="evenodd" id="svg_1165"/>
   </g>
   <g id="svg_1162" transform="translate(12.26 -22.455)">
    <path clip-rule="evenodd" d="m348.44,166.99l-1.9,0c-0.07,0 -0.12,0.05 -0.12,0.11l0,0.98c0,0.07 0.05,0.12 0.12,0.12l1.9,0c0.07,0 0.12,-0.05 0.12,-0.12l0,-0.98c0,-0.06 -0.05,-0.11 -0.12,-0.11l0,0z" fill="#39506E" fill-rule="evenodd" id="svg_1163"/>
   </g>
   <g id="svg_1160" transform="translate(12.26 -22.455)">
    <path clip-rule="evenodd" d="m345.6,167.14l-1.91,0c-0.07,0 -0.12,0.05 -0.12,0.11l0,0.98c0,0.06 0.05,0.12 0.12,0.12l1.91,0c0.06,0 0.11,-0.06 0.11,-0.12l0,-0.98c0,-0.06 -0.05,-0.11 -0.11,-0.11l0,0z" fill="#8CABBA" fill-rule="evenodd" id="svg_1161"/>
   </g>
   <g id="svg_1158" transform="translate(12.26 -22.455)">
    <path clip-rule="evenodd" d="m345.69,166.99l-1.91,0c-0.07,0 -0.12,0.05 -0.12,0.11l0,0.98c0,0.07 0.05,0.12 0.12,0.12l1.91,0c0.06,0 0.11,-0.05 0.11,-0.12l0,-0.98c0,-0.06 -0.05,-0.11 -0.11,-0.11l0,0z" fill="#39506E" fill-rule="evenodd" id="svg_1159"/>
   </g>
   <g id="svg_1156" transform="translate(12.26 -22.455)">
    <path clip-rule="evenodd" d="m379.99,167.14l-1.91,0c-0.06,0 -0.12,0.05 -0.12,0.11l0,0.98c0,0.06 0.06,0.12 0.12,0.12l1.91,0c0.07,0 0.12,-0.06 0.12,-0.12l0,-0.98c0,-0.06 -0.06,-0.11 -0.12,-0.11l0,0z" fill="#8CABBA" fill-rule="evenodd" id="svg_1157"/>
   </g>
   <g id="svg_1154" transform="translate(12.26 -22.455)">
    <path clip-rule="evenodd" d="m380.08,166.99l-1.91,0c-0.07,0 -0.12,0.05 -0.12,0.11l0,0.98c0,0.07 0.06,0.12 0.12,0.12l1.91,0c0.06,0 0.12,-0.05 0.12,-0.12l0,-0.98c0,-0.06 -0.06,-0.11 -0.12,-0.11l0,0z" fill="#39506E" fill-rule="evenodd" id="svg_1155"/>
   </g>
   <g id="svg_1152" transform="translate(12.26 -22.455)">
    <path clip-rule="evenodd" d="m377.23,167.14l-1.91,0c-0.06,0 -0.12,0.05 -0.12,0.11l0,0.98c0,0.06 0.06,0.12 0.12,0.12l1.91,0c0.07,0 0.12,-0.06 0.12,-0.12l0,-0.98c0,-0.06 -0.05,-0.11 -0.12,-0.11l0,0z" fill="#8CABBA" fill-rule="evenodd" id="svg_1153"/>
   </g>
   <g id="svg_1150" transform="translate(12.26 -22.455)">
    <path clip-rule="evenodd" d="m377.32,166.99l-1.91,0c-0.06,0 -0.12,0.05 -0.12,0.11l0,0.98c0,0.07 0.06,0.12 0.12,0.12l1.91,0c0.06,0 0.12,-0.05 0.12,-0.12l0,-0.98c0,-0.06 -0.06,-0.11 -0.12,-0.11l0,0z" fill="#39506E" fill-rule="evenodd" id="svg_1151"/>
   </g>
   <g id="svg_1148" transform="translate(12.26 -22.455)">
    <path clip-rule="evenodd" d="m356.64,168.16l-1.29,0c-0.05,0 -0.08,0.05 -0.08,0.1l0,0.85c0,0.05 0.03,0.1 0.08,0.1l1.29,0c0.04,0 0.08,-0.05 0.08,-0.1l0,-0.85c0,-0.05 -0.04,-0.1 -0.08,-0.1l0,0z" fill="#8CABBA" fill-rule="evenodd" id="svg_1149"/>
   </g>
   <g id="svg_1146" transform="translate(12.26 -22.455)">
    <path clip-rule="evenodd" d="m356.75,168.02l-1.29,0c-0.05,0 -0.08,0.05 -0.08,0.1l0,0.85c0,0.05 0.03,0.1 0.08,0.1l1.29,0c0.04,0 0.08,-0.05 0.08,-0.1l0,-0.85c0,-0.05 -0.04,-0.1 -0.08,-0.1l0,0z" fill="#39506E" fill-rule="evenodd" id="svg_1147"/>
   </g>
   <g id="svg_1144" transform="translate(12.26 -22.455)">
    <path clip-rule="evenodd" d="m359.36,168.16l-1.29,0c-0.04,0 -0.08,0.05 -0.08,0.1l0,0.85c0,0.05 0.04,0.1 0.08,0.1l1.29,0c0.05,0 0.08,-0.05 0.08,-0.1l0,-0.85c0,-0.05 -0.03,-0.1 -0.08,-0.1l0,0z" fill="#8CABBA" fill-rule="evenodd" id="svg_1145"/>
   </g>
   <g id="svg_1142" transform="translate(12.26 -22.455)">
    <path clip-rule="evenodd" d="m359.47,168.02l-1.29,0c-0.05,0 -0.08,0.05 -0.08,0.1l0,0.85c0,0.05 0.03,0.1 0.08,0.1l1.29,0c0.05,0 0.08,-0.05 0.08,-0.1l0,-0.85c0,-0.05 -0.03,-0.1 -0.08,-0.1l0,0z" fill="#39506E" fill-rule="evenodd" id="svg_1143"/>
   </g>
   <g id="svg_1140" transform="translate(12.26 -22.455)">
    <path clip-rule="evenodd" d="m369.42,166.1l-1.51,4.2c-0.09,0.25 -0.32,0.51 -0.66,0.74c-0.33,0.23 -0.67,0.36 -0.94,0.36l-6.77,0.02c-0.53,0 -0.74,-0.3 -0.55,-0.79l1.76,-4.53l8.67,0l0,0z" fill="#39506E" fill-rule="evenodd" id="svg_1141"/>
   </g>
   <g id="svg_1138" transform="translate(12.26 -22.455)">
    <path clip-rule="evenodd" d="m368.64,165.62c0.48,0.07 0.78,0.37 0.78,0.48c0,0.2 -1.2,0.37 -2.68,0.37s-2.67,-0.17 -2.67,-0.37c-0.01,-0.44 3.92,-0.57 4.57,-0.48l0,0z" fill="#4D6987" fill-rule="evenodd" id="svg_1139"/>
   </g>
   <g id="svg_1136" transform="translate(12.26 -22.455)">
    <path clip-rule="evenodd" d="m362.09,168.16l-1.3,0c-0.04,0 -0.08,0.05 -0.08,0.1l0,0.85c0,0.05 0.04,0.1 0.08,0.1l1.3,0c0.04,0 0.08,-0.05 0.08,-0.1l0,-0.85c0,-0.05 -0.04,-0.1 -0.08,-0.1l0,0z" fill="#7A8999" fill-rule="evenodd" id="svg_1137"/>
   </g>
   <g id="svg_1134" transform="translate(12.26 -22.455)">
    <path clip-rule="evenodd" d="m362.2,168.02l-1.3,0c-0.04,0 -0.08,0.05 -0.08,0.1l0,0.85c0,0.05 0.04,0.1 0.08,0.1l1.3,0c0.04,0 0.08,-0.05 0.08,-0.1l0,-0.85c0,-0.05 -0.04,-0.1 -0.08,-0.1l0,0z" fill="#39506E" fill-rule="evenodd" id="svg_1135"/>
   </g>
   <g id="svg_1132" transform="translate(12.26 -22.455)">
    <path clip-rule="evenodd" d="m364.81,168.16l-1.29,0c-0.05,0 -0.08,0.05 -0.08,0.1l0,0.85c0,0.05 0.03,0.1 0.08,0.1l1.29,0c0.04,0 0.08,-0.05 0.08,-0.1l0,-0.85c0,-0.05 -0.04,-0.1 -0.08,-0.1l0,0z" fill="#7A8999" fill-rule="evenodd" id="svg_1133"/>
   </g>
   <g id="svg_1130" transform="translate(12.26 -22.455)">
    <path clip-rule="evenodd" d="m364.92,168.02l-1.29,0c-0.05,0 -0.08,0.05 -0.08,0.1l0,0.85c0,0.05 0.03,0.1 0.08,0.1l1.29,0c0.04,0 0.08,-0.05 0.08,-0.1l0,-0.85c0,-0.05 -0.04,-0.1 -0.08,-0.1l0,0z" fill="#39506E" fill-rule="evenodd" id="svg_1131"/>
   </g>
   <g id="svg_1128" transform="translate(12.26 -22.455)">
    <path clip-rule="evenodd" d="m397.56,169.44l-1.29,0c-0.04,0 -0.08,0.04 -0.08,0.1l0,0.84c0,0.06 0.04,0.1 0.08,0.1l1.29,0c0.05,0 0.08,-0.04 0.08,-0.1l0,-0.84c0,-0.06 -0.03,-0.1 -0.08,-0.1l0,0z" fill="#8CABBA" fill-rule="evenodd" id="svg_1129"/>
   </g>
   <g id="svg_1126" transform="translate(12.26 -22.455)">
    <path clip-rule="evenodd" d="m397.67,169.3l-1.29,0c-0.04,0 -0.08,0.04 -0.08,0.1l0,0.84c0,0.06 0.04,0.1 0.08,0.1l1.29,0c0.05,0 0.08,-0.04 0.08,-0.1l0,-0.84c0,-0.06 -0.03,-0.1 -0.08,-0.1l0,0z" fill="#39506E" fill-rule="evenodd" id="svg_1127"/>
   </g>
   <g id="svg_1124" transform="translate(12.26 -22.455)">
    <path clip-rule="evenodd" d="m394.84,169.44l-1.29,0c-0.05,0 -0.08,0.04 -0.08,0.1l0,0.84c0,0.06 0.03,0.1 0.08,0.1l1.29,0c0.04,0 0.08,-0.04 0.08,-0.1l0,-0.84c0,-0.06 -0.04,-0.1 -0.08,-0.1l0,0z" fill="#8CABBA" fill-rule="evenodd" id="svg_1125"/>
   </g>
   <g id="svg_1122" transform="translate(12.26 -22.455)">
    <path clip-rule="evenodd" d="m394.95,169.3l-1.29,0c-0.05,0 -0.08,0.04 -0.08,0.1l0,0.84c0,0.06 0.03,0.1 0.08,0.1l1.29,0c0.04,0 0.08,-0.04 0.08,-0.1l0,-0.84c0,-0.06 -0.04,-0.1 -0.08,-0.1l0,0z" fill="#39506E" fill-rule="evenodd" id="svg_1123"/>
   </g>
   <g id="svg_1120" transform="translate(12.26 -22.455)">
    <path clip-rule="evenodd" d="m392.12,169.44l-1.3,0c-0.04,0 -0.08,0.04 -0.08,0.1l0,0.84c0,0.06 0.04,0.1 0.08,0.1l1.3,0c0.04,0 0.08,-0.04 0.08,-0.1l0,-0.84c0,-0.06 -0.04,-0.1 -0.08,-0.1l0,0z" fill="#8CABBA" fill-rule="evenodd" id="svg_1121"/>
   </g>
   <g id="svg_1118" transform="translate(12.26 -22.455)">
    <path clip-rule="evenodd" d="m392.23,169.3l-1.3,0c-0.04,0 -0.08,0.04 -0.08,0.1l0,0.84c0,0.06 0.04,0.1 0.08,0.1l1.3,0c0.04,0 0.08,-0.04 0.08,-0.1l0,-0.84c0,-0.06 -0.04,-0.1 -0.08,-0.1l0,0z" fill="#39506E" fill-rule="evenodd" id="svg_1119"/>
   </g>
   <g id="svg_1116" transform="translate(12.26 -22.455)">
    <path clip-rule="evenodd" d="m389.39,169.44l-1.29,0c-0.04,0 -0.08,0.04 -0.08,0.1l0,0.84c0,0.06 0.04,0.1 0.08,0.1l1.29,0c0.05,0 0.08,-0.04 0.08,-0.1l0,-0.84c0,-0.06 -0.03,-0.1 -0.08,-0.1l0,0z" fill="#8CABBA" fill-rule="evenodd" id="svg_1117"/>
   </g>
   <g id="svg_1114" transform="translate(12.26 -22.455)">
    <path clip-rule="evenodd" d="m389.5,169.3l-1.29,0c-0.05,0 -0.08,0.04 -0.08,0.1l0,0.84c0,0.06 0.03,0.1 0.08,0.1l1.29,0c0.05,0 0.08,-0.04 0.08,-0.1l0,-0.84c0,-0.06 -0.03,-0.1 -0.08,-0.1l0,0z" fill="#39506E" fill-rule="evenodd" id="svg_1115"/>
   </g>
   <g id="svg_1112" transform="translate(12.26 -22.455)">
    <path clip-rule="evenodd" d="m292.41,168.48l-1.91,0c-0.06,0 -0.11,0.05 -0.11,0.12l0,0.97c0,0.07 0.05,0.12 0.11,0.12l1.91,0c0.07,0 0.12,-0.05 0.12,-0.12l0,-0.97c0,-0.07 -0.05,-0.12 -0.12,-0.12l0,0z" fill="#8CABBA" fill-rule="evenodd" id="svg_1113"/>
   </g>
   <g id="svg_1110" transform="translate(12.26 -22.455)">
    <path clip-rule="evenodd" d="m292.5,168.33l-1.91,0c-0.06,0 -0.11,0.06 -0.11,0.12l0,0.98c0,0.06 0.05,0.11 0.11,0.11l1.91,0c0.07,0 0.12,-0.05 0.12,-0.11l0,-0.98c0,-0.06 -0.05,-0.12 -0.12,-0.12l0,0z" fill="#39506E" fill-rule="evenodd" id="svg_1111"/>
   </g>
   <g id="svg_1108" transform="translate(12.26 -22.455)">
    <path clip-rule="evenodd" d="m289.65,168.48l-1.9,0c-0.07,0 -0.12,0.05 -0.12,0.12l0,0.97c0,0.07 0.05,0.12 0.12,0.12l1.9,0c0.07,0 0.12,-0.05 0.12,-0.12l0,-0.97c0,-0.07 -0.05,-0.12 -0.12,-0.12l0,0z" fill="#8CABBA" fill-rule="evenodd" id="svg_1109"/>
   </g>
   <g id="svg_1106" transform="translate(12.26 -22.455)">
    <path clip-rule="evenodd" d="m289.74,168.33l-1.9,0c-0.07,0 -0.12,0.06 -0.12,0.12l0,0.98c0,0.06 0.05,0.11 0.12,0.11l1.9,0c0.07,0 0.12,-0.05 0.12,-0.11l0,-0.98c0,-0.06 -0.05,-0.12 -0.12,-0.12l0,0z" fill="#39506E" fill-rule="evenodd" id="svg_1107"/>
   </g>
   <g id="svg_1104" transform="translate(12.26 -22.455)">
    <path clip-rule="evenodd" d="m284.43,169.11l-1.3,0c-0.05,0 -0.08,0.03 -0.08,0.08l0,0.67c0,0.04 0.03,0.08 0.08,0.08l1.3,0c0.05,0 0.08,-0.04 0.08,-0.08l0,-0.67c0,-0.05 -0.03,-0.08 -0.08,-0.08l0,0z" fill="#8CABBA" fill-rule="evenodd" id="svg_1105"/>
   </g>
   <g id="svg_1102" transform="translate(12.26 -22.455)">
    <path clip-rule="evenodd" d="m284.54,169l-1.3,0c-0.05,0 -0.08,0.03 -0.08,0.08l0,0.66c0,0.05 0.03,0.08 0.08,0.08l1.3,0c0.05,0 0.08,-0.03 0.08,-0.08l0,-0.66c0,-0.05 -0.03,-0.08 -0.08,-0.08l0,0z" fill="#39506E" fill-rule="evenodd" id="svg_1103"/>
   </g>
   <g id="svg_1100" transform="translate(12.26 -22.455)">
    <path clip-rule="evenodd" d="m282.05,169.11l-1.3,0c-0.05,0 -0.09,0.03 -0.09,0.08l0,0.67c0,0.04 0.04,0.08 0.09,0.08l1.3,0c0.04,0 0.08,-0.04 0.08,-0.08l0,-0.67c0,-0.05 -0.03,-0.08 -0.08,-0.08l0,0z" fill="#8CABBA" fill-rule="evenodd" id="svg_1101"/>
   </g>
   <g id="svg_1098" transform="translate(12.26 -22.455)">
    <path clip-rule="evenodd" d="m282.16,169l-1.3,0c-0.05,0 -0.09,0.03 -0.09,0.08l0,0.66c0,0.05 0.04,0.08 0.09,0.08l1.3,0c0.05,0 0.08,-0.03 0.08,-0.08l0,-0.66c0,-0.05 -0.03,-0.08 -0.08,-0.08l0,0z" fill="#39506E" fill-rule="evenodd" id="svg_1099"/>
   </g>
   <g id="svg_1096" transform="translate(12.26 -22.455)">
    <path clip-rule="evenodd" d="m279.67,169.11l-1.31,0c-0.04,0 -0.08,0.03 -0.08,0.08l0,0.67c0,0.04 0.04,0.08 0.08,0.08l1.31,0c0.04,0 0.08,-0.04 0.08,-0.08l0,-0.67c0,-0.05 -0.04,-0.08 -0.08,-0.08l0,0z" fill="#8CABBA" fill-rule="evenodd" id="svg_1097"/>
   </g>
   <g id="svg_1094" transform="translate(12.26 -22.455)">
    <path clip-rule="evenodd" d="m279.78,169l-1.31,0c-0.04,0 -0.08,0.03 -0.08,0.08l0,0.66c0,0.05 0.04,0.08 0.08,0.08l1.31,0c0.04,0 0.08,-0.03 0.08,-0.08l0,-0.66c0,-0.05 -0.04,-0.08 -0.08,-0.08l0,0z" fill="#39506E" fill-rule="evenodd" id="svg_1095"/>
   </g>
   <g id="svg_1092" transform="translate(12.26 -22.455)">
    <path clip-rule="evenodd" d="m224.71,183.73l-0.74,2.05c-0.13,0.36 -0.47,0.75 -0.96,1.09c-0.49,0.33 -0.99,0.52 -1.39,0.52l-8.13,0.02l0,-5.5c3.76,0.62 7.5,1.23 11.22,1.82l0,0z" fill="#39506E" fill-rule="evenodd" id="svg_1093"/>
   </g>
   <g id="svg_1090" transform="translate(12.26 -22.455)">
    <path clip-rule="evenodd" d="m228.63,178.76l-1.9,5.29c-3.99,-0.63 -8.02,-1.28 -12.07,-1.95l1.29,-3.34l12.68,0l0,0z" fill="#39506E" fill-rule="evenodd" id="svg_1091"/>
   </g>
   <g id="svg_1088" transform="translate(12.26 -22.455)">
    <path clip-rule="evenodd" d="m212.59,179.11c2.94,-1.27 7.48,-1.58 14,-1.29c2.34,0.11 2.76,1.4 0.7,1.68c-3.44,0.45 -6.04,0.69 -8.72,0.67c-3.97,-0.01 -6.29,-0.49 -5.98,-1.06l0,0z" fill="#4D6987" fill-rule="evenodd" id="svg_1089"/>
   </g>
   <g id="svg_1086" transform="translate(12.26 -22.455)">
    <path clip-rule="evenodd" d="m212.59,179.11c2.94,-1.27 7.48,-1.58 14,-1.29c1.04,0.05 1.7,0.33 1.93,0.65c-0.97,0.6 -4.24,1.14 -8.15,1.31c-1.38,0.06 -2.67,0.07 -3.83,0.03l-3.95,-0.7l0,0z" fill="#8CABBA" fill-rule="evenodd" id="svg_1087"/>
   </g>
   <g id="svg_1084" transform="translate(12.26 -22.455)">
    <path clip-rule="evenodd" d="m218.05,178.43c3.23,0 5.85,0.36 5.85,0.79c0,0.44 -2.62,0.79 -5.85,0.79s-5.86,-0.35 -5.86,-0.79c0,-0.43 2.63,-0.79 5.86,-0.79l0,0z" fill="#4D6987" fill-rule="evenodd" id="svg_1085"/>
   </g>
   <g id="svg_1082" transform="translate(12.26 -22.455)">
    <path clip-rule="evenodd" d="m213.49,183.64l5,0c0.32,0 0.58,0.26 0.58,0.58l0,6.55l-5.58,0.04l0,-7.17l0,0z" fill="#39506E" fill-rule="evenodd" id="svg_1083"/>
   </g>
   <g id="svg_1080" transform="translate(12.26 -22.455)">
    <path clip-rule="evenodd" d="m213.49,183.99l4.75,0c0.3,0 0.54,0.24 0.54,0.54l0,6.24l-5.29,0.04l0,-6.82l0,0z" fill="#8CABBA" fill-rule="evenodd" id="svg_1081"/>
   </g>
   <g id="svg_1078" transform="translate(12.26 -22.455)">
    <path clip-rule="evenodd" d="m213.49,183.99l4.75,0c0.3,0 0.54,0.24 0.54,0.54l0,2.87l-5.29,0.01l0,-3.42l0,0z" fill="#4D6987" fill-rule="evenodd" id="svg_1079"/>
   </g>
   <g id="svg_1076" transform="translate(12.26 -22.455)">
    <path clip-rule="evenodd" d="m213.49,184.32l4.51,0c0.27,0 0.49,0.23 0.49,0.52l0,5.94l-5,0.03l0,-6.49l0,0z" fill="#4D6987" fill-rule="evenodd" id="svg_1077"/>
   </g>
   <g id="svg_1074" transform="translate(12.26 -22.455)">
    <path clip-rule="evenodd" d="m213.49,184.32l4.51,0c0.27,0 0.49,0.23 0.49,0.52l0,2.56l-5,0.01l0,-3.09l0,0z" fill="#39506E" fill-rule="evenodd" id="svg_1075"/>
   </g>
   <g id="svg_1072" transform="translate(12.26 -22.455)">
    <path clip-rule="evenodd" d="m344.42,172.6l-1.29,0c-0.04,0 -0.08,0.04 -0.08,0.1l0,0.85c0,0.05 0.04,0.1 0.08,0.1l1.29,0c0.05,0 0.08,-0.05 0.08,-0.1l0,-0.85c0,-0.06 -0.03,-0.1 -0.08,-0.1l0,0z" fill="#8CABBA" fill-rule="evenodd" id="svg_1073"/>
   </g>
   <g id="svg_1070" transform="translate(12.26 -22.455)">
    <path clip-rule="evenodd" d="m344.53,172.46l-1.29,0c-0.04,0 -0.08,0.04 -0.08,0.1l0,0.85c0,0.05 0.04,0.1 0.08,0.1l1.29,0c0.05,0 0.08,-0.05 0.08,-0.1l0,-0.85c0,-0.06 -0.03,-0.1 -0.08,-0.1l0,0z" fill="#39506E" fill-rule="evenodd" id="svg_1071"/>
   </g>
   <g id="svg_1068" transform="translate(12.26 -22.455)">
    <path clip-rule="evenodd" d="m340.5,175.08l-2.23,0c-0.08,0 -0.14,0.08 -0.14,0.18l0,1.45c0,0.1 0.06,0.18 0.14,0.18l2.23,0c0.07,0 0.13,-0.08 0.13,-0.18l0,-1.45c0,-0.1 -0.06,-0.18 -0.13,-0.18l0,0z" fill="#8CABBA" fill-rule="evenodd" id="svg_1069"/>
   </g>
   <g id="svg_1066" transform="translate(12.26 -22.455)">
    <path clip-rule="evenodd" d="m340.68,174.84l-2.22,0c-0.08,0 -0.14,0.08 -0.14,0.18l0,1.45c0,0.1 0.06,0.18 0.14,0.18l2.22,0c0.08,0 0.14,-0.08 0.14,-0.18l0,-1.45c0,-0.1 -0.06,-0.18 -0.14,-0.18l0,0z" fill="#39506E" fill-rule="evenodd" id="svg_1067"/>
   </g>
   <g id="svg_1064" transform="translate(12.26 -22.455)">
    <path clip-rule="evenodd" d="m311.38,178.62l-2.22,0c-0.08,0 -0.14,0.08 -0.14,0.17l0,1.46c0,0.09 0.06,0.17 0.14,0.17l2.22,0c0.08,0 0.14,-0.08 0.14,-0.17l0,-1.46c0,-0.09 -0.06,-0.17 -0.14,-0.17l0,0z" fill="#8CABBA" fill-rule="evenodd" id="svg_1065"/>
   </g>
   <g id="svg_1062" transform="translate(12.26 -22.455)">
    <path clip-rule="evenodd" d="m311.57,178.38l-2.22,0c-0.08,0 -0.14,0.08 -0.14,0.17l0,1.46c0,0.09 0.06,0.17 0.14,0.17l2.22,0c0.08,0 0.14,-0.08 0.14,-0.17l0,-1.46c0,-0.09 -0.06,-0.17 -0.14,-0.17l0,0z" fill="#39506E" fill-rule="evenodd" id="svg_1063"/>
   </g>
   <g id="svg_1060" transform="translate(12.26 -22.455)">
    <path clip-rule="evenodd" d="m292.91,182.28l-2.23,0c-0.08,0 -0.14,0.07 -0.14,0.16l0,1.28c0,0.09 0.06,0.16 0.14,0.16l2.23,0c0.07,0 0.13,-0.07 0.13,-0.16l0,-1.28c0,-0.09 -0.06,-0.16 -0.13,-0.16l0,0z" fill="#8CABBA" fill-rule="evenodd" id="svg_1061"/>
   </g>
   <g id="svg_1058" transform="translate(12.26 -22.455)">
    <path clip-rule="evenodd" d="m293.1,182.07l-2.23,0c-0.08,0 -0.14,0.07 -0.14,0.16l0,1.28c0,0.08 0.06,0.15 0.14,0.15l2.23,0c0.07,0 0.13,-0.07 0.13,-0.15l0,-1.28c0,-0.09 -0.06,-0.16 -0.13,-0.16l0,0z" fill="#39506E" fill-rule="evenodd" id="svg_1059"/>
   </g>
   <g id="svg_1056" transform="translate(12.26 -22.455)">
    <polygon clip-rule="evenodd" fill="#39506E" fill-rule="evenodd" id="svg_1057" points="350.698,164.463 350.698,158.92 350.363,158.92     350.363,164.463 350.698,164.463   "/>
   </g>
   <g id="svg_1054" transform="translate(12.26 -22.455)">
    <polygon clip-rule="evenodd" fill="#39506E" fill-rule="evenodd" id="svg_1055" points="337.969,164.617 337.969,156.772 337.634,156.842     337.634,164.617 337.969,164.617   "/>
   </g>
   <g id="svg_1052" transform="translate(12.26 -22.455)">
    <polygon clip-rule="evenodd" fill="#8CABBA" fill-rule="evenodd" id="svg_1053" points="350.363,164.463 350.363,158.92 350.029,158.92     350.029,164.463 350.363,164.463   "/>
   </g>
   <g id="svg_1050" transform="translate(12.26 -22.455)">
    <polygon clip-rule="evenodd" fill="#8CABBA" fill-rule="evenodd" id="svg_1051" points="337.634,164.617 337.634,156.842 337.3,156.916     337.3,164.617 337.634,164.617   "/>
   </g>
   <g id="svg_1048" transform="translate(12.26 -22.455)">
    <path clip-rule="evenodd" d="m329.95,159.26l8.02,0l0,-0.34l-7.2,0c-0.28,0.11 -0.55,0.22 -0.82,0.34l0,0zm20.41,0l8.53,0c-0.04,-0.12 -0.08,-0.23 -0.14,-0.34l-8.39,0l0,0.34l0,0z" fill="#39506E" fill-rule="evenodd" id="svg_1049"/>
   </g>
   <g id="svg_1046" transform="translate(12.26 -22.455)">
    <polygon fill="#231F20" id="svg_1047" points="243.642,171.355 243.536,171.167 248.099,168.613 275.141,164.78 304.299,162.518     338.188,162.464 338.221,162.497 340.16,164.521 340.004,164.67 338.097,162.68 304.308,162.734 275.165,164.995 248.149,168.824       "/>
   </g>
   <g id="svg_1044" transform="translate(12.26 -22.455)">
    <polygon clip-rule="evenodd" fill="#39506E" fill-rule="evenodd" id="svg_1045" points="347.178,164.463 347.178,160.212 347.513,160.212     347.513,164.463 347.178,164.463   "/>
   </g>
   <g id="svg_1042" transform="translate(12.26 -22.455)">
    <polygon clip-rule="evenodd" fill="#39506E" fill-rule="evenodd" id="svg_1043" points="347.178,159.878 349.972,159.878 349.972,160.212     347.178,160.212 347.178,159.878   "/>
   </g>
   <g id="svg_1040" transform="translate(12.26 -22.455)">
    <polygon clip-rule="evenodd" fill="#8CABBA" fill-rule="evenodd" id="svg_1041" points="347.513,160.212 349.972,160.212 349.972,160.547     347.513,160.547 347.513,160.212   "/>
   </g>
   <g id="svg_1038" transform="translate(12.26 -22.455)">
    <path clip-rule="evenodd" d="m341.25,157.9l-0.83,0c-0.13,0 -0.25,0.13 -0.25,0.29l0,0.94c0,0.16 0.12,0.28 0.25,0.28l0.83,0c0.14,0 0.25,-0.13 0.25,-0.28l0,-0.94c0,-0.16 -0.11,-0.29 -0.25,-0.29l0,0z" fill="#39506E" fill-rule="evenodd" id="svg_1039"/>
   </g>
   <g id="svg_1036" transform="translate(12.26 -22.455)">
    <path clip-rule="evenodd" d="m341.37,157.79l-0.83,0c-0.09,0 -0.17,0.05 -0.21,0.13c0.03,-0.01 0.06,-0.02 0.09,-0.02l0.83,0c0.14,0 0.25,0.13 0.25,0.29l0,0.94c0,0.06 -0.01,0.1 -0.04,0.15c0.09,-0.05 0.16,-0.15 0.16,-0.26l0,-0.95c0,-0.16 -0.11,-0.28 -0.25,-0.28l0,0z" fill="#8CABBA" fill-rule="evenodd" id="svg_1037"/>
   </g>
   <g id="svg_1034" transform="translate(12.26 -22.455)">
    <path clip-rule="evenodd" d="m341.27,157.9l-0.76,0c-0.12,0 -0.22,0.12 -0.22,0.26l0,0.86c0,0.15 0.1,0.26 0.22,0.26l0.76,0c0.13,0 0.23,-0.11 0.23,-0.26l0,-0.86c0,-0.14 -0.1,-0.26 -0.23,-0.26l0,0z" fill="#6987A1" fill-rule="evenodd" id="svg_1035"/>
   </g>
   <g id="svg_1032" transform="translate(12.26 -22.455)">
    <path clip-rule="evenodd" d="m345.63,157.9l-0.83,0c-0.14,0 -0.25,0.13 -0.25,0.29l0,0.94c0,0.16 0.11,0.28 0.25,0.28l0.83,0c0.14,0 0.25,-0.13 0.25,-0.28l0,-0.94c0,-0.16 -0.11,-0.29 -0.25,-0.29l0,0z" fill="#39506E" fill-rule="evenodd" id="svg_1033"/>
   </g>
   <g id="svg_1030" transform="translate(12.26 -22.455)">
    <path clip-rule="evenodd" d="m345.75,157.79l-0.83,0c-0.09,0 -0.17,0.05 -0.22,0.13c0.03,-0.01 0.07,-0.02 0.1,-0.02l0.83,0c0.13,0 0.25,0.13 0.25,0.29l0,0.94c0,0.06 -0.02,0.1 -0.04,0.15c0.09,-0.05 0.16,-0.15 0.16,-0.26l0,-0.95c0,-0.16 -0.12,-0.28 -0.25,-0.28l0,0z" fill="#8CABBA" fill-rule="evenodd" id="svg_1031"/>
   </g>
   <g id="svg_1028" transform="translate(12.26 -22.455)">
    <path clip-rule="evenodd" d="m345.65,157.9l-0.76,0c-0.12,0 -0.23,0.12 -0.23,0.26l0,0.86c0,0.15 0.11,0.26 0.23,0.26l0.76,0c0.13,0 0.23,-0.11 0.23,-0.26l0,-0.86c0,-0.14 -0.1,-0.26 -0.23,-0.26l0,0z" fill="#6987A1" fill-rule="evenodd" id="svg_1029"/>
   </g>
   <g id="svg_1026" transform="translate(12.26 -22.455)">
    <path clip-rule="evenodd" d="m342.67,157.86l-0.55,0c-0.09,0 -0.17,0.09 -0.17,0.2l0,0.63c0,0.1 0.08,0.19 0.17,0.19l0.55,0c0.09,0 0.16,-0.09 0.16,-0.19l0,-0.63c0,-0.11 -0.07,-0.2 -0.16,-0.2l0,0z" fill="#39506E" fill-rule="evenodd" id="svg_1027"/>
   </g>
   <g id="svg_1024" transform="translate(12.26 -22.455)">
    <path clip-rule="evenodd" d="m342.75,157.79l-0.55,0c-0.06,0 -0.12,0.03 -0.14,0.09c0.01,-0.01 0.04,-0.02 0.06,-0.02l0.55,0c0.09,0 0.16,0.09 0.16,0.2l0,0.63c0,0.04 -0.01,0.07 -0.02,0.1c0.06,-0.03 0.1,-0.1 0.1,-0.18l0,-0.63c0,-0.11 -0.07,-0.19 -0.16,-0.19l0,0z" fill="#8CABBA" fill-rule="evenodd" id="svg_1025"/>
   </g>
   <g id="svg_1022" transform="translate(12.26 -22.455)">
    <path clip-rule="evenodd" d="m342.68,157.86l-0.5,0c-0.08,0 -0.15,0.08 -0.15,0.18l0,0.58c0,0.1 0.07,0.17 0.15,0.17l0.5,0c0.08,0 0.15,-0.08 0.15,-0.17l0,-0.58c0,-0.1 -0.07,-0.18 -0.15,-0.18l0,0z" fill="#6987A1" fill-rule="evenodd" id="svg_1023"/>
   </g>
   <g id="svg_1020" transform="translate(12.26 -22.455)">
    <path clip-rule="evenodd" d="m343.87,157.86l-0.55,0c-0.09,0 -0.16,0.09 -0.16,0.2l0,0.63c0,0.1 0.07,0.19 0.16,0.19l0.55,0c0.09,0 0.17,-0.09 0.17,-0.19l0,-0.63c0,-0.11 -0.08,-0.2 -0.17,-0.2l0,0z" fill="#39506E" fill-rule="evenodd" id="svg_1021"/>
   </g>
   <g id="svg_1018" transform="translate(12.26 -22.455)">
    <path clip-rule="evenodd" d="m343.95,157.79l-0.55,0c-0.06,0 -0.11,0.03 -0.14,0.09c0.02,-0.01 0.04,-0.02 0.06,-0.02l0.55,0c0.09,0 0.16,0.09 0.16,0.2l0,0.63c0,0.04 -0.01,0.07 -0.02,0.1c0.06,-0.03 0.1,-0.1 0.1,-0.18l0,-0.63c0,-0.11 -0.07,-0.19 -0.16,-0.19l0,0z" fill="#8CABBA" fill-rule="evenodd" id="svg_1019"/>
   </g>
   <g id="svg_1016" transform="translate(12.26 -22.455)">
    <path clip-rule="evenodd" d="m343.88,157.86l-0.5,0c-0.08,0 -0.15,0.08 -0.15,0.18l0,0.58c0,0.1 0.07,0.17 0.15,0.17l0.5,0c0.09,0 0.16,-0.08 0.16,-0.17l0,-0.58c0,-0.1 -0.07,-0.18 -0.16,-0.18l0,0z" fill="#6987A1" fill-rule="evenodd" id="svg_1017"/>
   </g>
   <g id="svg_1014" transform="translate(12.26 -22.455)">
    <polygon fill="#231F20" id="svg_1015" points="396.696,165.314 393.462,162.911 384.019,162.417 345.064,162.481 343.06,164.641     342.901,164.494 344.971,162.265 345.018,162.265 384.024,162.201 393.538,162.699 393.564,162.718 396.825,165.141   "/>
   </g>
   <g id="svg_1012" transform="translate(12.26 -22.455)">
    <path d="m412.53,176.24c-9.35,0 -16.34,-0.02 -25.02,-0.02c-0.28,0 -0.53,0.12 -0.71,0.3l0,0c-0.19,0.18 -0.3,0.43 -0.3,0.71l0,0l0,5l0,0c0,0.63 0.2,1.16 0.53,1.62c0.34,0.47 0.82,0.88 1.36,1.24c1.96,1.28 4.68,2.37 7.68,3.13c0.77,0.2 1.56,0.37 2.35,0.52c-0.52,0.09 -1.06,0.17 -1.61,0.24c-0.29,-0.07 -0.58,-0.14 -0.87,-0.21c-3.06,-0.78 -5.85,-1.89 -7.86,-3.21c-0.59,-0.4 -1.12,-0.85 -1.51,-1.39c-0.39,-0.55 -0.63,-1.19 -0.63,-1.94l0,0l0,-5l0,0c0,-0.43 0.18,-0.82 0.46,-1.11l0,0c0.28,-0.28 0.68,-0.46 1.11,-0.46c8.69,0 15.66,0.02 25.01,0.02c0.01,0.18 0.01,0.37 0.01,0.56l0,0z" fill="#8CABBA" id="svg_1013"/>
   </g>
   <g id="svg_1010" transform="translate(12.26 -22.455)">
    <path d="m412.48,176.01c-9.21,0 -16.06,0.03 -24.63,0.03c-0.27,0 -0.52,0.11 -0.7,0.29l0,0c-0.19,0.18 -0.3,0.43 -0.3,0.71l0,0l0,4.97l0,0c0,0.62 0.2,1.15 0.53,1.61c0.34,0.48 0.82,0.89 1.36,1.25c1.96,1.28 4.68,2.37 7.68,3.13c0.9,0.23 1.83,0.43 2.77,0.59c-0.5,0.1 -1.01,0.2 -1.53,0.27c-0.46,-0.1 -0.92,-0.2 -1.37,-0.32c-3.06,-0.77 -5.85,-1.89 -7.86,-3.21c-0.6,-0.39 -1.13,-0.84 -1.51,-1.38c-0.39,-0.56 -0.63,-1.19 -0.63,-1.94l0,0l0,-4.97l0,0c0,-0.43 0.17,-0.82 0.46,-1.11l0,0c0.28,-0.28 0.68,-0.46 1.11,-0.46c8.56,0 15.37,-0.02 24.58,-0.02c0.02,0.19 0.04,0.37 0.04,0.56l0,0z" fill="#39506E" id="svg_1011"/>
   </g>
   <g id="svg_1008" transform="translate(12.26 -22.455)">
    <path clip-rule="evenodd" d="m367.65,165.32c1.38,0.28 1.77,0.9 1.77,1.22c-0.3,0.28 -2.33,0.56 -5.21,0.56c-2.87,0 -4.74,-0.21 -5.17,-0.62c0.34,-1.07 7.08,-1.47 8.61,-1.16l0,0z" fill="#8CABBA" fill-rule="evenodd" id="svg_1009"/>
   </g>
   <g id="svg_1006" transform="translate(12.26 -22.455)">
    <path clip-rule="evenodd" d="m364.21,166.12c2.88,0 5.21,0.22 5.21,0.49c0,0.27 -2.33,0.49 -5.21,0.49s-5.2,-0.22 -5.2,-0.49c0,-0.27 2.33,-0.49 5.2,-0.49l0,0z" fill="#4D6987" fill-rule="evenodd" id="svg_1007"/>
   </g>
   <g id="svg_1004" transform="translate(12.26 -22.455)">
    <path clip-rule="evenodd" d="m358.64,186.9l-1.4,0.01c-0.05,0 -0.09,0.02 -0.09,0.06l0.01,0.5c0,0.04 0.04,0.07 0.09,0.06l1.39,0c0.05,0 0.09,-0.03 0.09,-0.07l-0.01,-0.5c0.01,-0.03 -0.03,-0.06 -0.08,-0.06l0,0z" fill="#4D6987" fill-rule="evenodd" id="svg_1005"/>
   </g>
   <g id="svg_1002" transform="translate(12.26 -22.455)">
    <path clip-rule="evenodd" d="m358.91,186.58l-1.4,0.01c-0.05,0 -0.09,0.03 -0.09,0.06l0.01,0.51c0,0.03 0.04,0.06 0.09,0.06l1.39,-0.01c0.05,0 0.09,-0.03 0.09,-0.06l-0.01,-0.51c0,-0.03 -0.04,-0.06 -0.08,-0.06l0,0z" fill="#39506E" fill-rule="evenodd" id="svg_1003"/>
   </g>
   <g id="svg_1000" transform="translate(12.26 -22.455)">
    <path clip-rule="evenodd" d="m361.93,186.9l-1.4,0.01c-0.05,0 -0.09,0.02 -0.09,0.06l0.01,0.5c0,0.04 0.04,0.07 0.09,0.06l1.4,0c0.04,0 0.08,-0.03 0.08,-0.07l0,-0.5c-0.01,-0.03 -0.04,-0.06 -0.09,-0.06l0,0z" fill="#4D6987" fill-rule="evenodd" id="svg_1001"/>
   </g>
   <g id="svg_998" transform="translate(12.26 -22.455)">
    <path clip-rule="evenodd" d="m362.2,186.58l-1.4,0.01c-0.05,0 -0.09,0.03 -0.09,0.06l0.01,0.51c0,0.03 0.04,0.06 0.08,0.06l1.4,-0.01c0.05,0 0.09,-0.03 0.09,-0.06l-0.01,-0.51c0,-0.03 -0.04,-0.06 -0.08,-0.06l0,0z" fill="#39506E" fill-rule="evenodd" id="svg_999"/>
   </g>
   <g id="svg_996" transform="translate(12.26 -22.455)">
    <path clip-rule="evenodd" d="m365.22,186.9l-1.4,0.01c-0.05,0 -0.09,0.02 -0.09,0.06l0.01,0.5c0,0.04 0.04,0.07 0.08,0.06l1.4,0c0.05,0 0.09,-0.03 0.09,-0.07l-0.01,-0.5c0,-0.03 -0.04,-0.06 -0.08,-0.06l0,0z" fill="#4D6987" fill-rule="evenodd" id="svg_997"/>
   </g>
   <g id="svg_994" transform="translate(12.26 -22.455)">
    <path clip-rule="evenodd" d="m365.49,186.58l-1.4,0.01c-0.05,0 -0.09,0.03 -0.09,0.06l0.01,0.51c0,0.03 0.04,0.06 0.08,0.06l1.4,-0.01c0.05,0 0.09,-0.03 0.09,-0.06l-0.01,-0.51c0,-0.03 -0.04,-0.06 -0.08,-0.06l0,0z" fill="#39506E" fill-rule="evenodd" id="svg_995"/>
   </g>
   <g id="svg_992" transform="translate(12.26 -22.455)">
    <path clip-rule="evenodd" d="m368.51,186.9l-1.4,0.01c-0.05,0 -0.09,0.02 -0.09,0.06l0.01,0.5c0,0.04 0.04,0.07 0.08,0.06l1.4,0c0.05,0 0.09,-0.03 0.09,-0.07l-0.01,-0.5c0,-0.03 -0.04,-0.06 -0.08,-0.06l0,0z" fill="#4D6987" fill-rule="evenodd" id="svg_993"/>
   </g>
   <g id="svg_990" transform="translate(12.26 -22.455)">
    <path clip-rule="evenodd" d="m368.77,186.58l-1.39,0.01c-0.05,0 -0.09,0.03 -0.09,0.06l0.01,0.51c0,0.03 0.03,0.06 0.08,0.06l1.4,-0.01c0.05,0 0.09,-0.03 0.09,-0.06l-0.01,-0.51c0,-0.03 -0.04,-0.06 -0.09,-0.06l0,0z" fill="#39506E" fill-rule="evenodd" id="svg_991"/>
   </g>
   <g id="svg_988" transform="translate(12.26 -22.455)">
    <path clip-rule="evenodd" d="m371.8,186.9l-1.4,0.01c-0.05,0 -0.09,0.02 -0.09,0.06l0.01,0.5c0,0.04 0.04,0.07 0.08,0.06l1.4,0c0.05,0 0.09,-0.03 0.09,-0.07l-0.01,-0.5c0,-0.03 -0.04,-0.06 -0.08,-0.06l0,0z" fill="#4D6987" fill-rule="evenodd" id="svg_989"/>
   </g>
   <g id="svg_986" transform="translate(12.26 -22.455)">
    <path clip-rule="evenodd" d="m372.06,186.58l-1.39,0.01c-0.05,0 -0.09,0.03 -0.09,0.06l0.01,0.51c0,0.03 0.03,0.06 0.08,0.06l1.4,-0.01c0.05,0 0.09,-0.03 0.09,-0.06l-0.01,-0.51c0,-0.03 -0.04,-0.06 -0.09,-0.06l0,0z" fill="#39506E" fill-rule="evenodd" id="svg_987"/>
   </g>
   <g id="svg_984" transform="translate(12.26 -22.455)">
    <path clip-rule="evenodd" d="m375.08,186.9l-1.39,0.01c-0.05,0 -0.09,0.02 -0.09,0.06l0.01,0.5c0,0.04 0.03,0.07 0.08,0.06l1.4,0c0.05,0 0.09,-0.03 0.09,-0.07l-0.01,-0.5c0,-0.03 -0.04,-0.06 -0.09,-0.06l0,0z" fill="#4D6987" fill-rule="evenodd" id="svg_985"/>
   </g>
   <g id="svg_982" transform="translate(12.26 -22.455)">
    <path clip-rule="evenodd" d="m375.35,186.58l-1.4,0.01c-0.04,0 -0.08,0.03 -0.08,0.06l0,0.51c0,0.03 0.04,0.06 0.09,0.06l1.4,-0.01c0.05,0 0.09,-0.03 0.09,-0.06l-0.01,-0.51c0,-0.03 -0.04,-0.06 -0.09,-0.06l0,0z" fill="#39506E" fill-rule="evenodd" id="svg_983"/>
   </g>
   <g id="svg_980" transform="translate(12.26 -22.455)">
    <path clip-rule="evenodd" d="m332.99,186.9l-1.4,0.01c-0.05,0 -0.09,0.02 -0.08,0.06l0,0.5c0,0.04 0.04,0.07 0.09,0.06l1.4,0c0.05,0 0.08,-0.03 0.08,-0.07l0,-0.5c0,-0.03 -0.04,-0.06 -0.09,-0.06l0,0z" fill="#4D6987" fill-rule="evenodd" id="svg_981"/>
   </g>
   <g id="svg_978" transform="translate(12.26 -22.455)">
    <path clip-rule="evenodd" d="m333.26,186.58l-1.4,0.01c-0.05,0 -0.09,0.03 -0.09,0.06l0.01,0.51c0,0.03 0.04,0.06 0.09,0.06l1.39,-0.01c0.05,0 0.09,-0.03 0.09,-0.06l0,-0.51c0,-0.03 -0.04,-0.06 -0.09,-0.06l0,0z" fill="#39506E" fill-rule="evenodd" id="svg_979"/>
   </g>
   <g id="svg_976" transform="translate(12.26 -22.455)">
    <path clip-rule="evenodd" d="m336.29,186.9l-1.4,0.01c-0.05,0 -0.09,0.02 -0.09,0.06l0.01,0.5c0,0.04 0.04,0.07 0.08,0.06l1.4,0c0.05,0 0.09,-0.03 0.09,-0.07l-0.01,-0.5c0,-0.03 -0.04,-0.06 -0.08,-0.06l0,0z" fill="#4D6987" fill-rule="evenodd" id="svg_977"/>
   </g>
   <g id="svg_974" transform="translate(12.26 -22.455)">
    <path clip-rule="evenodd" d="m336.55,186.58l-1.4,0.01c-0.04,0 -0.08,0.03 -0.08,0.06l0,0.51c0,0.03 0.04,0.06 0.09,0.06l1.4,-0.01c0.05,0 0.09,-0.03 0.09,-0.06l-0.01,-0.51c0,-0.03 -0.04,-0.06 -0.09,-0.06l0,0z" fill="#39506E" fill-rule="evenodd" id="svg_975"/>
   </g>
   <g id="svg_972" transform="translate(12.26 -22.455)">
    <path clip-rule="evenodd" d="m339.58,186.9l-1.4,0.01c-0.05,0 -0.08,0.02 -0.08,0.06l0,0.5c0,0.04 0.04,0.07 0.09,0.06l1.4,0c0.05,0 0.08,-0.03 0.08,-0.07l0,-0.5c0,-0.03 -0.04,-0.06 -0.09,-0.06l0,0z" fill="#4D6987" fill-rule="evenodd" id="svg_973"/>
   </g>
   <g id="svg_970" transform="translate(12.26 -22.455)">
    <path clip-rule="evenodd" d="m339.85,186.58l-1.4,0.01c-0.05,0 -0.08,0.03 -0.08,0.06l0,0.51c0,0.03 0.04,0.06 0.09,0.06l1.4,-0.01c0.04,0 0.08,-0.03 0.08,-0.06l0,-0.51c0,-0.03 -0.04,-0.06 -0.09,-0.06l0,0z" fill="#39506E" fill-rule="evenodd" id="svg_971"/>
   </g>
   <g id="svg_968" transform="translate(12.26 -22.455)">
    <path clip-rule="evenodd" d="m342.88,186.9l-1.4,0.01c-0.05,0 -0.09,0.02 -0.09,0.06l0.01,0.5c0,0.04 0.04,0.07 0.09,0.06l1.39,0c0.05,0 0.09,-0.03 0.09,-0.07l-0.01,-0.5c0,-0.03 -0.03,-0.06 -0.08,-0.06l0,0z" fill="#4D6987" fill-rule="evenodd" id="svg_969"/>
   </g>
   <g id="svg_966" transform="translate(12.26 -22.455)">
    <path clip-rule="evenodd" d="m343.15,186.58l-1.4,0.01c-0.05,0 -0.09,0.03 -0.09,0.06l0.01,0.51c0,0.03 0.04,0.06 0.08,0.06l1.4,-0.01c0.05,0 0.09,-0.03 0.09,-0.06l-0.01,-0.51c0,-0.03 -0.04,-0.06 -0.08,-0.06l0,0z" fill="#39506E" fill-rule="evenodd" id="svg_967"/>
   </g>
   <g id="svg_964" transform="translate(12.26 -22.455)">
    <path clip-rule="evenodd" d="m308.17,186.9l-1.4,0.01c-0.05,0 -0.09,0.02 -0.09,0.06l0.01,0.5c0,0.04 0.04,0.07 0.09,0.06l1.4,0c0.04,0 0.08,-0.03 0.08,-0.07l0,-0.5c-0.01,-0.03 -0.04,-0.06 -0.09,-0.06l0,0z" fill="#4D6987" fill-rule="evenodd" id="svg_965"/>
   </g>
   <g id="svg_962" transform="translate(12.26 -22.455)">
    <path clip-rule="evenodd" d="m308.44,186.58l-1.4,0.01c-0.05,0 -0.09,0.03 -0.09,0.06l0.01,0.51c0,0.03 0.04,0.06 0.09,0.06l1.39,-0.01c0.05,0 0.09,-0.03 0.09,-0.06l-0.01,-0.51c0,-0.03 -0.04,-0.06 -0.08,-0.06l0,0z" fill="#39506E" fill-rule="evenodd" id="svg_963"/>
   </g>
   <g id="svg_960" transform="translate(12.26 -22.455)">
    <path clip-rule="evenodd" d="m312.08,186.9l-1.4,0.01c-0.05,0 -0.08,0.02 -0.08,0.06l0,0.5c0,0.04 0.04,0.07 0.09,0.06l1.4,0c0.05,0 0.09,-0.03 0.09,-0.07l-0.01,-0.5c0,-0.03 -0.04,-0.06 -0.09,-0.06l0,0z" fill="#4D6987" fill-rule="evenodd" id="svg_961"/>
   </g>
   <g id="svg_958" transform="translate(12.26 -22.455)">
    <path clip-rule="evenodd" d="m312.35,186.58l-1.4,0.01c-0.05,0 -0.08,0.03 -0.08,0.06l0,0.51c0,0.03 0.04,0.06 0.09,0.06l1.4,-0.01c0.05,0 0.08,-0.03 0.08,-0.06l0,-0.51c0,-0.03 -0.04,-0.06 -0.09,-0.06l0,0z" fill="#39506E" fill-rule="evenodd" id="svg_959"/>
   </g>
   <g id="svg_956" transform="translate(12.26 -22.455)">
    <path clip-rule="evenodd" d="m316,186.9l-1.4,0.01c-0.05,0 -0.09,0.02 -0.09,0.06l0.01,0.5c0,0.04 0.04,0.07 0.08,0.06l1.4,0c0.05,0 0.09,-0.03 0.09,-0.07l-0.01,-0.5c0,-0.03 -0.04,-0.06 -0.08,-0.06l0,0z" fill="#4D6987" fill-rule="evenodd" id="svg_957"/>
   </g>
   <g id="svg_954" transform="translate(12.26 -22.455)">
    <path clip-rule="evenodd" d="m316.26,186.58l-1.39,0.01c-0.05,0 -0.09,0.03 -0.09,0.06l0,0.51c0,0.03 0.04,0.06 0.09,0.06l1.4,-0.01c0.05,0 0.09,-0.03 0.09,-0.06l-0.01,-0.51c0,-0.03 -0.04,-0.06 -0.09,-0.06l0,0z" fill="#39506E" fill-rule="evenodd" id="svg_955"/>
   </g>
   <g id="svg_952" transform="translate(12.26 -22.455)">
    <path clip-rule="evenodd" d="m243.55,184.62l-1.39,-0.15c-0.05,0 -0.09,0.02 -0.09,0.06l-0.05,0.5c-0.01,0.03 0.03,0.07 0.07,0.07l1.4,0.15c0.04,0 0.08,-0.02 0.09,-0.05l0.05,-0.51c0,-0.03 -0.03,-0.06 -0.08,-0.07l0,0z" fill="#4D6987" fill-rule="evenodd" id="svg_953"/>
   </g>
   <g id="svg_950" transform="translate(12.26 -22.455)">
    <path clip-rule="evenodd" d="m243.85,184.34l-1.39,-0.15c-0.05,-0.01 -0.09,0.02 -0.09,0.05l-0.05,0.51c-0.01,0.03 0.03,0.06 0.08,0.07l1.39,0.14c0.05,0.01 0.09,-0.02 0.09,-0.05l0.05,-0.5c0,-0.04 -0.03,-0.07 -0.08,-0.07l0,0z" fill="#39506E" fill-rule="evenodd" id="svg_951"/>
   </g>
   <g id="svg_948" transform="translate(12.26 -22.455)">
    <path clip-rule="evenodd" d="m246.82,184.99l-1.39,-0.15c-0.05,-0.01 -0.09,0.02 -0.09,0.05l-0.06,0.5c0,0.04 0.04,0.07 0.08,0.07l1.39,0.15c0.05,0.01 0.09,-0.02 0.1,-0.05l0.05,-0.5c0,-0.04 -0.03,-0.07 -0.08,-0.07l0,0z" fill="#4D6987" fill-rule="evenodd" id="svg_949"/>
   </g>
   <g id="svg_946" transform="translate(12.26 -22.455)">
    <path clip-rule="evenodd" d="m247.12,184.7l-1.39,-0.15c-0.05,0 -0.09,0.02 -0.09,0.06l-0.05,0.5c-0.01,0.03 0.03,0.07 0.08,0.07l1.39,0.15c0.04,0 0.09,-0.02 0.09,-0.05l0.05,-0.51c0,-0.03 -0.03,-0.06 -0.08,-0.07l0,0z" fill="#39506E" fill-rule="evenodd" id="svg_947"/>
   </g>
   <g id="svg_944" transform="translate(12.26 -22.455)">
    <path clip-rule="evenodd" d="m250.09,185.35l-1.39,-0.15c-0.05,0 -0.09,0.02 -0.1,0.05l-0.05,0.51c0,0.03 0.04,0.06 0.08,0.07l1.39,0.15c0.05,0 0.09,-0.02 0.1,-0.06l0.05,-0.5c0,-0.03 -0.04,-0.06 -0.08,-0.07l0,0z" fill="#4D6987" fill-rule="evenodd" id="svg_945"/>
   </g>
   <g id="svg_942" transform="translate(12.26 -22.455)">
    <path clip-rule="evenodd" d="m250.39,185.07l-1.39,-0.15c-0.05,-0.01 -0.09,0.02 -0.09,0.05l-0.05,0.5c-0.01,0.04 0.03,0.07 0.08,0.07l1.39,0.15c0.04,0.01 0.08,-0.02 0.09,-0.05l0.05,-0.51c0,-0.03 -0.03,-0.06 -0.08,-0.06l0,0z" fill="#39506E" fill-rule="evenodd" id="svg_943"/>
   </g>
   <g id="svg_940" transform="translate(12.26 -22.455)">
    <path clip-rule="evenodd" d="m253.36,185.72l-1.39,-0.15c-0.05,-0.01 -0.09,0.02 -0.1,0.05l-0.05,0.51c0,0.03 0.03,0.06 0.08,0.06l1.39,0.15c0.05,0.01 0.09,-0.02 0.09,-0.05l0.06,-0.5c0,-0.04 -0.04,-0.07 -0.08,-0.07l0,0z" fill="#4D6987" fill-rule="evenodd" id="svg_941"/>
   </g>
   <g id="svg_938" transform="translate(12.26 -22.455)">
    <path clip-rule="evenodd" d="m253.66,185.43l-1.39,-0.15c-0.05,0 -0.09,0.02 -0.1,0.06l-0.05,0.5c0,0.03 0.04,0.07 0.08,0.07l1.39,0.15c0.05,0 0.09,-0.02 0.1,-0.05l0.05,-0.51c0,-0.03 -0.03,-0.06 -0.08,-0.07l0,0z" fill="#39506E" fill-rule="evenodd" id="svg_939"/>
   </g>
   <g id="svg_936" transform="translate(12.26 -22.455)">
    <path clip-rule="evenodd" d="m256.63,186.08l-1.4,-0.15c-0.04,0 -0.08,0.02 -0.09,0.05l-0.05,0.51c0,0.03 0.03,0.06 0.08,0.07l1.39,0.15c0.05,0 0.09,-0.02 0.09,-0.06l0.05,-0.5c0.01,-0.03 -0.03,-0.06 -0.07,-0.07l0,0z" fill="#4D6987" fill-rule="evenodd" id="svg_937"/>
   </g>
   <g id="svg_934" transform="translate(12.26 -22.455)">
    <path clip-rule="evenodd" d="m256.93,185.8l-1.39,-0.15c-0.05,-0.01 -0.09,0.02 -0.1,0.05l-0.05,0.5c0,0.04 0.04,0.07 0.08,0.07l1.39,0.15c0.05,0.01 0.09,-0.02 0.1,-0.05l0.05,-0.5c0,-0.04 -0.04,-0.07 -0.08,-0.07l0,0z" fill="#39506E" fill-rule="evenodd" id="svg_935"/>
   </g>
   <g id="svg_932" transform="translate(12.26 -22.455)">
    <path clip-rule="evenodd" d="m259.89,186.44l-1.39,-0.14c-0.04,-0.01 -0.09,0.02 -0.09,0.05l-0.05,0.5c0,0.04 0.03,0.07 0.08,0.07l1.39,0.15c0.05,0.01 0.09,-0.02 0.09,-0.05l0.05,-0.5c0.01,-0.04 -0.03,-0.07 -0.08,-0.08l0,0z" fill="#4D6987" fill-rule="evenodd" id="svg_933"/>
   </g>
   <g id="svg_930" transform="translate(12.26 -22.455)">
    <path clip-rule="evenodd" d="m260.19,186.16l-1.39,-0.15c-0.04,0 -0.08,0.02 -0.09,0.06l-0.05,0.5c0,0.03 0.03,0.07 0.08,0.07l1.39,0.15c0.05,0 0.09,-0.02 0.09,-0.05l0.05,-0.51c0.01,-0.03 -0.03,-0.06 -0.08,-0.07l0,0z" fill="#39506E" fill-rule="evenodd" id="svg_931"/>
   </g>
  </g>
 </g>
</svg>
