<svg xmlns="http://www.w3.org/2000/svg" viewBox="0 0 57.83 148.19"><g xmlns="http://www.w3.org/2000/svg" transform="matrix(0 -1 1 0 -126.08 283.09)"> <g class="layer" display="inline">  <title>Layer 1</title>  <g id="svg_1482" transform="translate(-417 -70) translate(521.245 62.765)">   <g id="svg_1483">    <rect fill="#29516A" height="14.51" id="svg_1484" width="0.28" x="133.81" y="160.37" />    <rect fill="#29516A" height="4.74" id="svg_1485" width="0.28" x="165.61" y="164.42" />    <rect fill="#29516A" height="4.74" id="svg_1486" width="0.28" x="163.94" y="166.37" />    <rect fill="#29516A" height="4.74" id="svg_1487" width="0.28" x="147.2" y="163.86" />    <rect fill="#29516A" height="4.74" id="svg_1488" width="0.28" x="140.79" y="164.7" />    <rect fill="#29516A" height="4.74" id="svg_1489" width="0.28" x="136.88" y="163.58" />    <rect fill="#29516A" height="4.74" id="svg_1490" width="0.28" x="58.22" y="163.58" />    <rect fill="#29516A" height="4.74" id="svg_1491" width="0.28" x="55.16" y="163.3" />    <rect fill="#29516A" height="6.42" id="svg_1492" width="1.67" x="59.2" y="164" />    <rect fill="#29516A" height="6.42" id="svg_1493" width="1.67" x="144.28" y="164.84" />    <rect fill="#29516A" height="6.42" id="svg_1494" width="7.83" x="154.32" y="166.37" />    <rect fill="#29516A" height="3.67" id="svg_1495" width="3.37" x="167.42" y="167.19" />   </g>   <g id="svg_1496">    <path d="m82.72,135.64c0,1.28 1.05,2.33 2.33,2.33c1.28,0 2.32,-1.05 2.32,-2.33s-1.04,-2.32 -2.32,-2.32c-1.28,0 -2.33,1.04 -2.33,2.32z" fill="#6B99B5" id="svg_1497" />    <g id="svg_1498">     <path d="m73.45,158.03c-0.12,0.76 0.43,1.38 1.22,1.38l13.93,0c0.92,0 1.58,-0.71 1.49,-1.58l-1.92,-18.35c-0.06,-0.58 -0.7,-1.05 -1.43,-1.05l-8.9,0c-0.73,0 -1.41,0.54 -1.51,1.2l-2.88,18.4z" fill="#6B99B5" id="svg_1499" />     <path d="m84.26,155.17l-1.67,-15.97c-0.03,-0.3 -0.22,-0.58 -0.51,-0.77l4.66,0c0.73,0 1.37,0.47 1.43,1.05l1.64,15.69l-5.55,0z" fill="#9DC0E1" id="svg_1500" />    </g>    <path d="m72.06,166.67c-0.12,0.77 0.42,1.39 1.22,1.39l40.57,0c0.79,0 1.44,-0.62 1.44,-1.39l0,-18.39c0,-0.67 -0.6,-1.2 -1.33,-1.2l-37.51,0c-0.74,0 -1.41,0.53 -1.52,1.2l-2.87,18.39z" fill="#6B99B5" id="svg_1501" />    <path d="m106.92,147.08l7.04,0c0.73,0 1.33,0.53 1.33,1.2l0,18.39c0,0.77 -0.65,1.39 -1.44,1.39l-6.93,0l0,-20.98z" fill="#9DC0E1" id="svg_1502" />    <path d="m71.21,174.36c-0.11,0.85 0.49,1.54 1.35,1.54l49.15,0c0.86,0 1.46,-0.69 1.35,-1.54l-2.24,-17.28c-0.09,-0.7 -0.78,-1.26 -1.55,-1.26l-44.26,0c-0.77,0 -1.47,0.56 -1.56,1.26l-2.24,17.28z" fill="#29516A" id="svg_1503" />    <path d="m115.44,155.82l3.82,0c0.77,0 1.47,0.56 1.56,1.26l2.24,17.28c0.11,0.85 -0.49,1.54 -1.35,1.54l-4.25,0l-2.02,-20.08z" fill="#466480" id="svg_1504" />    <path d="m116.2,168c0,0.77 0.62,1.39 1.39,1.39l10.04,0c0.77,0 1.4,-0.62 1.4,-1.39l0,-5.4c0,-0.77 -0.63,-1.39 -1.4,-1.39l-10.04,0c-0.77,0 -1.39,0.62 -1.39,1.39l0,5.4z" fill="#6B99B5" id="svg_1505" />    <path d="m92.58,171.72c0,0.77 0.62,1.39 1.39,1.39l10.05,0c0.77,0 1.39,-0.62 1.39,-1.39l0,-5.4c0,-0.77 -0.62,-1.39 -1.39,-1.39l-10.05,0c-0.77,0 -1.39,0.62 -1.39,1.39l0,5.4z" fill="#6B99B5" id="svg_1506" />    <path d="m63.57,171.53c0,0.77 0.62,1.4 1.4,1.4l10.04,0c0.77,0 1.39,-0.63 1.39,-1.4l0,-5.39c0,-0.77 -0.62,-1.4 -1.39,-1.4l-10.04,0c-0.77,0 -1.4,0.63 -1.4,1.4l0,5.39z" fill="#6B99B5" id="svg_1507" />    <path d="m80.86,156.1c0,0.56 0.46,1.02 1.03,1.02l25.1,0c0.57,0 1.02,-0.46 1.02,-1.02l0,0c0,-0.57 -0.45,-1.03 -1.02,-1.03l-25.1,0c-0.57,0 -1.03,0.46 -1.03,1.03l0,0z" fill="#588399" id="svg_1508" />    <rect fill="#254254" height="2.23" id="svg_1509" width="2.61" x="111.54" y="148.19" />    <rect fill="#254254" height="2.23" id="svg_1510" width="3.73" x="107.45" y="148.19" />    <rect fill="#254254" height="2.23" id="svg_1511" width="4.84" x="102.25" y="148.19" />    <rect fill="#254254" height="2.23" id="svg_1512" width="5.02" x="96.86" y="148.19" />    <rect fill="#254254" height="1.3" id="svg_1513" width="9.86" x="83.47" y="148.56" />    <rect fill="#254254" height="1.49" id="svg_1514" width="25.66" x="76.59" y="157.12" />    <path d="m75.92,138.41c0,0.45 0.37,0.83 0.83,0.83l11.84,0c0.46,0 0.83,-0.38 0.83,-0.83l0,0c0,-0.46 -0.37,-0.84 -0.83,-0.84l-11.84,0c-0.46,0 -0.83,0.38 -0.83,0.84l0,0z" fill="#29516A" id="svg_1515" />   </g>   <path d="m38.65,156.28c0,0.77 0.63,1.4 1.4,1.4l7.81,0c0.77,0 1.39,-0.63 1.39,-1.4l0,-1.3c0,-0.77 -0.62,-1.39 -1.39,-1.39l-7.81,0c-0.77,0 -1.4,0.62 -1.4,1.39l0,1.3z" fill="#466480" id="svg_1516" />   <path d="m44.23,168c0,0.77 -0.62,1.39 -1.39,1.39l-0.38,0c-0.77,0 -1.39,-0.62 -1.39,-1.39l0,-10.42c0,-0.77 0.62,-1.39 1.39,-1.39l0.38,0c0.77,0 1.39,0.62 1.39,1.39l0,10.42z" fill="#6B99B5" id="svg_1517" />   <path d="m51.85,163.22c0,0.84 -0.67,1.45 -1.5,1.37l-6.13,-0.64c-0.72,-0.08 -1.29,-0.76 -1.29,-1.53l0,-14.88c0,-0.77 0.57,-1.44 1.29,-1.5l6.13,-0.52c0.83,-0.07 1.5,0.56 1.5,1.4l0,16.3z" fill="#588399" id="svg_1518" />   <path d="m34.19,184.08l78.29,0c0.05,-3.8 3.15,-6.88 6.97,-6.88l45.56,0c3.85,0 6.97,3.12 6.97,6.98s-3.12,6.97 -6.97,6.97l-26.86,0l-18.7,0l-85.26,0c-1.95,0 -3.53,-1.58 -3.53,-3.53c0,-1.96 1.58,-3.54 3.53,-3.54z" fill="#254254" id="svg_1519" />   <path d="m39.4,184.47c0,0.2 0.35,0.36 0.79,0.36l68.94,0c9.3,0 34.58,-0.39 54.67,-7.44c8.55,-3 20.53,-6.08 12.27,-7.81c-0.9,-0.19 -37.63,-2.79 -40.16,-2.79l-95.4,0c-0.61,0 -1.11,0.7 -1.11,1.53l0,16.15z" fill="#588399" id="svg_1520" />   <path d="m168.96,174.46c-20.09,7.05 -45.37,7.44 -54.67,7.44l-68.94,0c-0.44,0 -0.79,-0.16 -0.79,-0.36l0,-14.75l-4.05,0c-0.61,0 -1.11,0.69 -1.11,1.53l0,16.15c0,0.2 0.35,0.36 0.79,0.36l68.94,0c9.3,0 34.58,-0.39 54.67,-7.44c6.42,-2.25 14.77,-4.55 15.04,-6.29c-2.93,1.08 -6.65,2.23 -9.88,3.36z" fill="#254254" id="svg_1521" />   <path d="m155.06,174.97c4.09,0 10.95,1.64 8.74,2.42c-20.08,7.06 -45.37,7.44 -54.67,7.44l-75.64,0c-0.43,0 -0.79,-0.16 -0.79,-0.36l6.7,-9.5l115.66,0z" fill="#6B99B5" id="svg_1522" />   <path d="m111.55,174.23c0,0.61 0.5,1.11 1.11,1.11l9.86,0c0.61,0 1.11,-0.5 1.11,-1.11l0,0c0,-0.62 -0.5,-1.12 -1.11,-1.12l-9.86,0c-0.61,0 -1.11,0.5 -1.11,1.12l0,0z" fill="#466480" id="svg_1523" />   <path d="m74.08,174.23c0,0.61 0.5,1.11 1.11,1.11l9.86,0c0.61,0 1.11,-0.5 1.11,-1.11l0,0c0,-0.62 -0.5,-1.12 -1.11,-1.12l-9.86,0c-0.61,0 -1.11,0.5 -1.11,1.12l0,0z" fill="#466480" id="svg_1524" />   <rect fill="#466480" height="4.28" id="svg_1525" width="2.05" x="124.75" y="177.39" />   <rect fill="#466480" height="4.28" id="svg_1526" width="2.05" x="121.78" y="177.39" />   <rect fill="#466480" height="4.28" id="svg_1527" width="2.05" x="44.79" y="177.39" />   <rect fill="#466480" height="4.28" id="svg_1528" width="2.05" x="41.81" y="177.39" />   <path d="m31.3,185.59c0.35,1.58 1.76,2.77 3.45,2.77l85.26,0l18.69,0l26.87,0c2.88,0 5.35,-1.75 6.41,-4.23c0,0.01 0,0.03 0,0.05c0,3.85 -3.12,6.97 -6.97,6.97l-26.87,0l-18.69,0l-85.26,0c-1.95,0 -3.53,-1.58 -3.53,-3.53c0,-0.76 0.23,-1.46 0.64,-2.03z" fill="#162B35" id="svg_1529" />   <rect fill="#588399" height="0.71" id="svg_1530" width="7.08" x="88.17" y="151.36" />   <rect fill="#588399" height="1.29" id="svg_1531" width="3.45" x="102.59" y="152.71" />   <rect fill="#588399" height="1.29" id="svg_1532" width="3.45" x="97.9" y="152.97" />   <path d="m177.39,170.69c-0.94,-0.19 -38.76,-2.78 -41.38,-2.78l-96.57,0c0.13,-0.64 0.56,-1.12 1.07,-1.12l95.4,0c2.53,0 39.26,2.6 40.16,2.79c2.02,0.42 2.83,0.92 2.77,1.49c-0.39,-0.13 -0.87,-0.26 -1.45,-0.38z" fill="#E4355C" id="svg_1533" />   <rect fill="#1E4559" height="0.15" id="svg_1534" transform="matrix(0.8985 -0.439 0.439 0.8985 -56.4428 71.334)" width="6.77" x="122.66" y="157.65" />   <rect fill="#29516A" height="0.72" id="svg_1535" transform="matrix(0.8985 -0.439 0.439 0.8985 -56.6357 71.0919)" width="2.3" x="124.25" y="157.65" />   <path d="m119.18,161.21c-0.16,-0.72 0.29,-1.5 0.78,-2.3c0.67,-1.11 1.26,-1.88 2.28,-1.68l1.72,0.34c0.84,0.17 1.13,0.82 1.5,1.87c0.22,0.6 0.24,1.22 0.08,1.77l-6.36,0z" fill="#9DC0E1" id="svg_1536" />   <path d="m163.8,177.39c-0.36,0.12 -0.71,0.25 -1.07,0.37c-2.02,-0.47 -4.69,-0.84 -6.72,-0.84l-117.99,0l1.38,-1.95l115.66,0c4.09,0 10.95,1.64 8.74,2.42z" fill="#F2736D" id="svg_1537" />   <path d="m51.05,149.71l-8.12,0.47l0,-2.64c0,-0.77 0.57,-1.44 1.29,-1.5l6.13,-0.52c0.83,-0.06 1.51,0.56 1.51,1.41l0,2.84c-0.25,-0.05 -0.52,-0.08 -0.81,-0.06z" fill="#6B99B5" id="svg_1538" />   <path d="m51.74,160.87c0.04,0 0.08,0 0.12,0l0,2.34c0,0.85 -0.68,1.46 -1.51,1.37l-6.13,-0.63c-0.72,-0.08 -1.29,-0.76 -1.29,-1.53l0,-2.19l8.81,0.64z" fill="#447284" id="svg_1539" />  </g> </g></g></svg>