<svg preserveAspectRatio="none" xmlns="http://www.w3.org/2000/svg" xmlns:svg="http://www.w3.org/2000/svg" enable-background="new 0 0 450 450" version="1.1" xml:space="preserve" viewBox="77.03 171.93 280.95 89.15">
 <g class="layer">
  <title>Layer 1</title>
  <g id="svg_1">
   <g id="svg_384" transform="translate(-149 -8) translate(82.975 -66.535)">
    <path clip-rule="evenodd" d="m156.97,298.55c1.2,0.02 1.87,3.7 0.42,3.7c-0.85,0 -2.08,-0.05 -2.08,-1.09c0,-1.04 0.46,-2.64 1.66,-2.61l0,0z" fill="#7894AE" fill-rule="evenodd" id="svg_385"/>
   </g>
   <g id="svg_382" transform="translate(-149 -8) translate(82.975 -66.535)">
    <polygon clip-rule="evenodd" fill="#A3B9C6" fill-rule="evenodd" id="svg_383" points="154.379,300.071 160.781,299.97 160.646,302.051     154.757,301.263 154.379,300.071   "/>
   </g>
   <g id="svg_380" transform="translate(-149 -8) translate(82.975 -66.535)">
    <polygon clip-rule="evenodd" fill="#7894AE" fill-rule="evenodd" id="svg_381" points="160.056,301.972 154.757,301.263 154.606,300.382     160.149,300.532 160.056,301.972   "/>
   </g>
   <g id="svg_378" transform="translate(-149 -8) translate(82.975 -66.535)">
    <polygon clip-rule="evenodd" fill="#7894AE" fill-rule="evenodd" id="svg_379" points="162.705,295.657 163.082,295.657 163.082,298.797     162.705,298.797 162.705,295.657   "/>
   </g>
   <g id="svg_376" transform="translate(-149 -8) translate(82.975 -66.535)">
    <path clip-rule="evenodd" d="m163.08,298.8c2.7,0 4.9,1.05 4.9,2.34c0,1.3 -2.2,2.35 -4.9,2.35c-2.7,0 -4.89,-1.05 -4.89,-2.35c0,-1.29 2.19,-2.34 4.89,-2.34l0,0z" fill="#7894AE" fill-rule="evenodd" id="svg_377"/>
   </g>
   <g id="svg_374" transform="translate(-149 -8) translate(82.975 -66.535)">
    <path clip-rule="evenodd" d="m163.08,298.8c2.7,0 4.9,1.05 4.9,2.34c0,0.39 -0.2,0.75 -0.55,1.08c-0.75,0.22 -1.64,0.35 -2.59,0.35c-2.71,0 -4.9,-1.05 -4.9,-2.34c0,-0.39 0.2,-0.75 0.55,-1.08c0.75,-0.22 1.64,-0.35 2.59,-0.35l0,0z" fill="#A3B9C6" fill-rule="evenodd" id="svg_375"/>
   </g>
   <g id="svg_372" transform="translate(-149 -8) translate(82.975 -66.535)">
    <path clip-rule="evenodd" d="m165.96,299.25c1.22,0.42 2.02,1.11 2.02,1.89c0,0.28 -0.11,0.55 -0.29,0.8c-1.88,0.35 -3.66,0.35 -5.33,0c-0.69,-0.15 -1.28,-0.58 -1.28,-1.28l0,-0.14c0,-0.7 0.58,-1.27 1.28,-1.27l3.6,0l0,0z" fill="#4C6186" fill-rule="evenodd" id="svg_373"/>
   </g>
   <g id="svg_370" transform="translate(-149 -8) translate(82.975 -66.535)">
    <path clip-rule="evenodd" d="m154.8,298.55c1.2,0.02 1.86,3.7 0.42,3.7c-0.86,0 -2.08,-0.05 -2.08,-1.09c0,-1.04 0.45,-2.64 1.66,-2.61l0,0z" fill="#A3B9C6" fill-rule="evenodd" id="svg_371"/>
   </g>
   <g id="svg_368" transform="translate(-149 -8) translate(82.975 -66.535)">
    <path d="m149.13,298.05c-0.06,0 -0.11,-0.05 -0.11,-0.1c0,-0.06 0.04,-0.11 0.1,-0.12c8.05,-0.33 14.27,-0.33 20.17,0c0.06,0 0.11,0.05 0.11,0.11c-0.01,0.06 -0.05,0.1 -0.11,0.1c0,0 -0.01,0 -0.01,0c-5.9,-0.33 -12.11,-0.32 -20.15,0.01c0,0 0,0 0,0zm24.25,-1.98c0,0 0,0 -0.01,0c-8.02,-0.56 -14.24,-0.74 -20.14,-0.58c0,0 0,0 0,0c-0.06,0 -0.11,-0.05 -0.11,-0.11c0,-0.06 0.05,-0.11 0.11,-0.11c5.91,-0.16 12.13,0.02 20.16,0.59c0.06,0 0.1,0.05 0.1,0.11c0,0.06 -0.05,0.1 -0.11,0.1z" fill="#7894AE" id="svg_369"/>
   </g>
   <g id="svg_366" transform="translate(-149 -8) translate(82.975 -66.535)">
    <path clip-rule="evenodd" d="m181.22,298.55c1.21,0.02 1.87,3.7 0.42,3.7c-0.85,0 -2.07,-0.05 -2.07,-1.09c0,-1.04 0.45,-2.64 1.65,-2.61l0,0z" fill="#7894AE" fill-rule="evenodd" id="svg_367"/>
   </g>
   <g id="svg_364" transform="translate(-149 -8) translate(82.975 -66.535)">
    <polygon clip-rule="evenodd" fill="#A3B9C6" fill-rule="evenodd" id="svg_365" points="178.632,300.071 185.035,299.97 184.899,302.051     179.01,301.263 178.632,300.071   "/>
   </g>
   <g id="svg_362" transform="translate(-149 -8) translate(82.975 -66.535)">
    <polygon clip-rule="evenodd" fill="#7894AE" fill-rule="evenodd" id="svg_363" points="184.309,301.972 179.01,301.263 178.859,300.382     184.403,300.532 184.309,301.972   "/>
   </g>
   <g id="svg_360" transform="translate(-149 -8) translate(82.975 -66.535)">
    <polygon clip-rule="evenodd" fill="#7894AE" fill-rule="evenodd" id="svg_361" points="186.959,295.657 187.336,295.657 187.336,298.797     186.959,298.797 186.959,295.657   "/>
   </g>
   <g id="svg_358" transform="translate(-149 -8) translate(82.975 -66.535)">
    <path clip-rule="evenodd" d="m187.34,298.8c2.7,0 4.89,1.05 4.89,2.34c0,1.3 -2.19,2.35 -4.89,2.35c-2.71,0 -4.9,-1.05 -4.9,-2.35c0,-1.29 2.19,-2.34 4.9,-2.34l0,0z" fill="#7894AE" fill-rule="evenodd" id="svg_359"/>
   </g>
   <g id="svg_356" transform="translate(-149 -8) translate(82.975 -66.535)">
    <path clip-rule="evenodd" d="m187.34,298.8c2.7,0 4.89,1.05 4.89,2.34c0,0.39 -0.2,0.75 -0.54,1.08c-0.76,0.22 -1.64,0.35 -2.6,0.35c-2.7,0 -4.89,-1.05 -4.89,-2.34c0,-0.39 0.19,-0.75 0.54,-1.08c0.75,-0.22 1.64,-0.35 2.6,-0.35l0,0z" fill="#A3B9C6" fill-rule="evenodd" id="svg_357"/>
   </g>
   <g id="svg_354" transform="translate(-149 -8) translate(82.975 -66.535)">
    <path clip-rule="evenodd" d="m190.22,299.25c1.22,0.42 2.01,1.11 2.01,1.89c0,0.28 -0.1,0.55 -0.29,0.8c-1.88,0.35 -3.66,0.35 -5.33,0c-0.69,-0.15 -1.27,-0.58 -1.27,-1.28l0,-0.14c0,-0.7 0.57,-1.27 1.27,-1.27l3.61,0l0,0z" fill="#4C6186" fill-rule="evenodd" id="svg_355"/>
   </g>
   <g id="svg_352" transform="translate(-149 -8) translate(82.975 -66.535)">
    <path clip-rule="evenodd" d="m179.05,298.55c1.2,0.02 1.87,3.7 0.42,3.7c-0.85,0 -2.08,-0.05 -2.08,-1.09c0.01,-1.04 0.46,-2.64 1.66,-2.61l0,0z" fill="#A3B9C6" fill-rule="evenodd" id="svg_353"/>
   </g>
   <g id="svg_350" transform="translate(-149 -8) translate(82.975 -66.535)">
    <path d="m173.38,298.05c-0.06,0 -0.1,-0.05 -0.11,-0.1c0,-0.06 0.05,-0.11 0.11,-0.12c8.04,-0.33 14.26,-0.33 20.17,0c0.06,0 0.1,0.05 0.1,0.11c0,0.06 -0.05,0.1 -0.11,0.1c0,0 0,0 0,0c-5.91,-0.33 -12.12,-0.32 -20.15,0.01c-0.01,0 -0.01,0 -0.01,0zm24.25,-1.98c0,0 0,0 0,0c-8.03,-0.56 -14.24,-0.74 -20.14,-0.58c-0.07,0 -0.11,-0.05 -0.11,-0.11s0.04,-0.11 0.1,-0.11c5.91,-0.16 12.13,0.02 20.16,0.59c0.06,0 0.11,0.05 0.1,0.11c0,0.06 -0.05,0.1 -0.11,0.1z" fill="#7894AE" id="svg_351"/>
   </g>
   <g id="svg_348" transform="translate(-149 -8) translate(82.975 -66.535)">
    <path clip-rule="evenodd" d="m205.48,298.55c1.2,0.02 1.86,3.7 0.42,3.7c-0.86,0 -2.08,-0.05 -2.08,-1.09c0,-1.04 0.45,-2.64 1.66,-2.61l0,0z" fill="#7894AE" fill-rule="evenodd" id="svg_349"/>
   </g>
   <g id="svg_346" transform="translate(-149 -8) translate(82.975 -66.535)">
    <polygon clip-rule="evenodd" fill="#A3B9C6" fill-rule="evenodd" id="svg_347" points="202.885,300.071 209.288,299.97 209.152,302.051     203.263,301.263 202.885,300.071   "/>
   </g>
   <g id="svg_344" transform="translate(-149 -8) translate(82.975 -66.535)">
    <polygon clip-rule="evenodd" fill="#7894AE" fill-rule="evenodd" id="svg_345" points="208.562,301.972 203.263,301.263 203.113,300.382     208.656,300.532 208.562,301.972   "/>
   </g>
   <g id="svg_342" transform="translate(-149 -8) translate(82.975 -66.535)">
    <polygon clip-rule="evenodd" fill="#7894AE" fill-rule="evenodd" id="svg_343" points="211.212,295.657 211.589,295.657 211.589,298.797     211.212,298.797 211.212,295.657   "/>
   </g>
   <g id="svg_340" transform="translate(-149 -8) translate(82.975 -66.535)">
    <path clip-rule="evenodd" d="m211.59,298.8c2.7,0 4.89,1.05 4.89,2.34c0,1.3 -2.19,2.35 -4.89,2.35c-2.7,0 -4.9,-1.05 -4.9,-2.35c0,-1.29 2.2,-2.34 4.9,-2.34l0,0z" fill="#7894AE" fill-rule="evenodd" id="svg_341"/>
   </g>
   <g id="svg_338" transform="translate(-149 -8) translate(82.975 -66.535)">
    <path clip-rule="evenodd" d="m211.59,298.8c2.7,0 4.89,1.05 4.89,2.34c0,0.39 -0.19,0.75 -0.54,1.08c-0.75,0.22 -1.64,0.35 -2.6,0.35c-2.7,0 -4.89,-1.05 -4.89,-2.34c0,-0.39 0.2,-0.75 0.54,-1.08c0.76,-0.22 1.64,-0.35 2.6,-0.35l0,0z" fill="#A3B9C6" fill-rule="evenodd" id="svg_339"/>
   </g>
   <g id="svg_336" transform="translate(-149 -8) translate(82.975 -66.535)">
    <path clip-rule="evenodd" d="m214.47,299.25c1.22,0.42 2.01,1.11 2.01,1.89c0,0.28 -0.1,0.55 -0.29,0.8c-1.88,0.35 -3.66,0.35 -5.33,0c-0.68,-0.15 -1.27,-0.58 -1.27,-1.28l0,-0.14c0,-0.7 0.57,-1.27 1.27,-1.27l3.61,0l0,0z" fill="#4C6186" fill-rule="evenodd" id="svg_337"/>
   </g>
   <g id="svg_334" transform="translate(-149 -8) translate(82.975 -66.535)">
    <path clip-rule="evenodd" d="m203.31,298.55c1.2,0.02 1.86,3.7 0.41,3.7c-0.85,0 -2.07,-0.05 -2.07,-1.09c0,-1.04 0.45,-2.64 1.66,-2.61l0,0z" fill="#A3B9C6" fill-rule="evenodd" id="svg_335"/>
   </g>
   <g id="svg_332" transform="translate(-149 -8) translate(82.975 -66.535)">
    <path d="m197.63,298.05c-0.05,0 -0.1,-0.05 -0.1,-0.1c-0.01,-0.06 0.04,-0.11 0.1,-0.12c8.04,-0.33 14.27,-0.33 20.17,0c0.06,0 0.11,0.05 0.1,0.11c0,0.06 -0.05,0.1 -0.1,0.1c-0.01,0 -0.01,0 -0.01,0c-5.9,-0.33 -12.12,-0.32 -20.15,0.01c0,0 0,0 -0.01,0zm24.26,-1.98c0,0 -0.01,0 -0.01,0c-8.03,-0.56 -14.24,-0.74 -20.14,-0.58c-0.07,0 -0.11,-0.05 -0.11,-0.11c0,-0.06 0.04,-0.11 0.1,-0.11c5.92,-0.16 12.13,0.02 20.17,0.59c0.06,0 0.1,0.05 0.1,0.11c-0.01,0.06 -0.06,0.1 -0.11,0.1z" fill="#7894AE" id="svg_333"/>
   </g>
   <g id="svg_330" transform="translate(-149 -8) translate(82.975 -66.535)">
    <path clip-rule="evenodd" d="m229.73,298.55c1.2,0.02 1.87,3.7 0.42,3.7c-0.85,0 -2.08,-0.05 -2.08,-1.09c0,-1.04 0.46,-2.64 1.66,-2.61l0,0z" fill="#7894AE" fill-rule="evenodd" id="svg_331"/>
   </g>
   <g id="svg_328" transform="translate(-149 -8) translate(82.975 -66.535)">
    <polygon clip-rule="evenodd" fill="#A3B9C6" fill-rule="evenodd" id="svg_329" points="227.138,300.071 233.541,299.97 233.405,302.051     227.516,301.263 227.138,300.071   "/>
   </g>
   <g id="svg_326" transform="translate(-149 -8) translate(82.975 -66.535)">
    <polygon clip-rule="evenodd" fill="#7894AE" fill-rule="evenodd" id="svg_327" points="232.815,301.972 227.516,301.263 227.366,300.382     232.909,300.532 232.815,301.972   "/>
   </g>
   <g id="svg_324" transform="translate(-149 -8) translate(82.975 -66.535)">
    <polygon clip-rule="evenodd" fill="#7894AE" fill-rule="evenodd" id="svg_325" points="235.465,295.657 235.842,295.657 235.842,298.797     235.465,298.797 235.465,295.657   "/>
   </g>
   <g id="svg_322" transform="translate(-149 -8) translate(82.975 -66.535)">
    <path clip-rule="evenodd" d="m235.84,298.8c2.71,0 4.9,1.05 4.9,2.34c0,1.3 -2.19,2.35 -4.9,2.35c-2.7,0 -4.89,-1.05 -4.89,-2.35c0,-1.29 2.19,-2.34 4.89,-2.34l0,0z" fill="#7894AE" fill-rule="evenodd" id="svg_323"/>
   </g>
   <g id="svg_320" transform="translate(-149 -8) translate(82.975 -66.535)">
    <path clip-rule="evenodd" d="m235.84,298.8c2.71,0 4.9,1.05 4.9,2.34c0,0.39 -0.2,0.75 -0.55,1.08c-0.75,0.22 -1.64,0.35 -2.59,0.35c-2.71,0 -4.9,-1.05 -4.9,-2.34c0,-0.39 0.2,-0.75 0.55,-1.08c0.75,-0.22 1.64,-0.35 2.59,-0.35l0,0z" fill="#A3B9C6" fill-rule="evenodd" id="svg_321"/>
   </g>
   <g id="svg_318" transform="translate(-149 -8) translate(82.975 -66.535)">
    <path clip-rule="evenodd" d="m238.72,299.25c1.22,0.42 2.02,1.11 2.02,1.89c0,0.28 -0.11,0.55 -0.29,0.8c-1.89,0.35 -3.66,0.35 -5.33,0c-0.69,-0.15 -1.28,-0.58 -1.28,-1.28l0,-0.14c0,-0.7 0.58,-1.27 1.28,-1.27l3.6,0l0,0z" fill="#4C6186" fill-rule="evenodd" id="svg_319"/>
   </g>
   <g id="svg_316" transform="translate(-149 -8) translate(82.975 -66.535)">
    <path clip-rule="evenodd" d="m227.56,298.55c1.2,0.02 1.86,3.7 0.42,3.7c-0.86,0 -2.08,-0.05 -2.08,-1.09c0,-1.04 0.45,-2.64 1.66,-2.61l0,0z" fill="#A3B9C6" fill-rule="evenodd" id="svg_317"/>
   </g>
   <g id="svg_314" transform="translate(-149 -8) translate(82.975 -66.535)">
    <path d="m221.89,298.05c-0.06,0 -0.11,-0.05 -0.11,-0.1c0,-0.06 0.04,-0.11 0.1,-0.12c8.05,-0.33 14.27,-0.33 20.18,0c0.06,0 0.1,0.05 0.1,0.11c-0.01,0.06 -0.05,0.1 -0.11,0.1c0,0 0,0 -0.01,0c-5.89,-0.33 -12.11,-0.32 -20.15,0.01c0,0 0,0 0,0zm24.25,-1.98c0,0 0,0 -0.01,0c-8.02,-0.56 -14.23,-0.74 -20.14,-0.58c0,0 0,0 0,0c-0.06,0 -0.11,-0.05 -0.11,-0.11c0,-0.06 0.05,-0.11 0.1,-0.11c5.91,-0.16 12.13,0.02 20.17,0.59c0.06,0 0.1,0.05 0.1,0.11c-0.01,0.06 -0.05,0.1 -0.11,0.1z" fill="#7894AE" id="svg_315"/>
   </g>
   <g id="svg_312" transform="translate(-149 -8) translate(82.975 -66.535)">
    <path d="m311.18,288.59c-0.08,0 -0.14,-0.07 -0.14,-0.15l0,-14.86c0,-0.08 0.06,-0.15 0.14,-0.15s0.14,0.07 0.14,0.15l0,14.87c0,0.07 -0.06,0.14 -0.14,0.14z" fill="#4C6186" id="svg_313"/>
   </g>
   <g id="svg_310" transform="translate(-149 -8) translate(82.975 -66.535)">
    <path d="m301.24,296.9c-0.14,0 -0.26,-0.11 -0.26,-0.25l0,-14.87c0,-0.14 0.12,-0.26 0.26,-0.26s0.25,0.12 0.25,0.26l0,14.87c0,0.14 -0.11,0.25 -0.25,0.25z" fill="#4C6186" id="svg_311"/>
   </g>
   <g id="svg_308" transform="translate(-149 -8) translate(82.975 -66.535)">
    <path d="m299.22,291.57c-0.08,0 -0.15,-0.06 -0.15,-0.14l0,-14.87c0,-0.08 0.07,-0.14 0.15,-0.14s0.14,0.06 0.14,0.14l0,14.87c0,0.08 -0.06,0.14 -0.14,0.14zm3.4,-1.92c-0.07,0 -0.14,-0.06 -0.14,-0.14l0,-14.87c0,-0.08 0.06,-0.14 0.14,-0.14s0.14,0.06 0.14,0.14l0,14.87c0,0.08 -0.06,0.14 -0.14,0.14z" fill="#4C6186" id="svg_309"/>
   </g>
   <g id="svg_306" transform="translate(-149 -8) translate(82.975 -66.535)">
    <path d="m275.54,275.24l-4.84,-7.76l-2.98,7.37l-0.48,-0.19l3.13,-7.71l-0.17,-0.28l0.28,0l1.47,-3.63l-0.22,-0.29l0.34,0l1.03,-2.52l-0.2,-0.29l0.31,0l2.33,-5.74l0,8.73l0.23,0.33l-0.23,0l0,3.58l0.27,0.34l-0.27,0l0,8.06zm-4.42,-8.06l3.91,6.28l0,-6.28l-3.91,0zm-0.08,-0.51l3.73,0l-2.45,-3.16l-1.28,3.16zm1.73,-3.41l2.26,2.92l0,-2.92l-2.26,0zm-0.14,-0.51l2.18,0l-1.37,-2.01l-0.81,2.01zm1.24,-2.3l1.16,1.72l0,-1.72l-1.16,0zm-0.11,-0.51l1.27,0l0,-3.13l-1.27,3.13z" fill="#4C6186" id="svg_307"/>
   </g>
   <g id="svg_304" transform="translate(-149 -8) translate(82.975 -66.535)">
    <path clip-rule="evenodd" d="m273.01,249.11c1.53,-0.66 4.1,1.85 5.74,5.63c1.65,3.77 1.74,7.36 0.21,8.03l-0.01,0.01l-5.96,-13.66l0.02,-0.01l0,0z" fill="#A3B9C6" fill-rule="evenodd" id="svg_305"/>
   </g>
   <g id="svg_302" transform="translate(-149 -8) translate(82.975 -66.535)">
    <path clip-rule="evenodd" d="m279.93,261.37c-0.17,0.69 -0.49,1.19 -0.97,1.4l-0.01,0.01l-5,-11.46c1.5,0.41 3.42,2.63 4.74,5.66c0.68,1.55 1.09,3.08 1.24,4.39l0,0z" fill="#7894AE" fill-rule="evenodd" id="svg_303"/>
   </g>
   <g id="svg_300" transform="translate(-149 -8) translate(82.975 -66.535)">
    <polygon clip-rule="evenodd" fill="#7894AE" fill-rule="evenodd" id="svg_301" points="276.718,247.642 275.8,248.042 281.73,261.638     282.648,261.238 276.718,247.642   "/>
   </g>
   <g id="svg_298" transform="translate(-149 -8) translate(82.975 -66.535)">
    <polygon clip-rule="evenodd" fill="#A3B9C6" fill-rule="evenodd" id="svg_299" points="277.078,246.464 271.695,248.812 272.068,249.669     277.452,247.321 277.078,246.464   "/>
   </g>
   <g id="svg_296" transform="translate(-149 -8) translate(82.975 -66.535)">
    <polygon clip-rule="evenodd" fill="#7894AE" fill-rule="evenodd" id="svg_297" points="274.387,247.637 271.695,248.812 272.069,249.668     272.069,249.668 274.761,248.494 274.387,247.637   "/>
   </g>
   <g id="svg_294" transform="translate(-149 -8) translate(82.975 -66.535)">
    <polygon clip-rule="evenodd" fill="#A3B9C6" fill-rule="evenodd" id="svg_295" points="283.381,260.917 277.998,263.265 278.371,264.122     283.755,261.774 283.381,260.917   "/>
   </g>
   <g id="svg_292" transform="translate(-149 -8) translate(82.975 -66.535)">
    <polygon clip-rule="evenodd" fill="#7894AE" fill-rule="evenodd" id="svg_293" points="280.69,262.091 280.69,262.091 277.998,263.265     278.371,264.122 281.064,262.948 280.69,262.091   "/>
   </g>
   <g id="svg_290" transform="translate(-149 -8) translate(82.975 -66.535)">
    <path d="m312.1,298.76l-0.32,0l0,-0.02l-2.66,0l0,-1.9l0.32,0l0,0.04l2.32,0l0,-0.04l0.32,0l0,0.02l0.02,0l0,0.02l2.54,0l0,-0.04l0.31,0l0,0.04l2.56,0l0,-0.04l0.32,0l0,0.04l2.56,0l0,-0.04l0.32,0l0,0.04l2.56,0l0,-0.04l0.31,0l0,1.9l-11.48,0l0,0.02zm8.61,-0.24l2.56,0l0,-0.23l-2.56,0l0,0.23zm-2.88,0l2.56,0l0,-0.23l-2.56,0l0,0.23zm-2.88,0l2.56,0l0,-0.23l-2.56,0l0,0.23zm-2.85,0l2.54,0l0,-0.23l-2.54,0l0,0.23zm-2.66,0l2.32,0l0,-0.23l-2.32,0l0,0.23zm11.27,-0.44l2.56,0l0,-0.4l-2.56,0l0,0.4zm-2.88,0l2.56,0l0,-0.4l-2.56,0l0,0.4zm-2.88,0l2.56,0l0,-0.4l-2.56,0l0,0.4zm-2.85,0l2.54,0l0,-0.4l-2.54,0l0,0.4zm-2.66,0l2.32,0l0,-0.4l-2.32,0l0,0.4zm11.27,-0.62l2.56,0l0,-0.37l-2.56,0l0,0.37zm-2.88,0l2.56,0l0,-0.37l-2.56,0l0,0.37zm-2.88,0l2.56,0l0,-0.37l-2.56,0l0,0.37zm-2.85,0l2.54,0l0,-0.37l-2.54,0l0,0.37zm-2.66,0l2.32,0l0,-0.37l-2.32,0l0,0.37z" fill="#231F20" id="svg_291"/>
   </g>
   <g id="svg_288" transform="translate(-149 -8) translate(82.975 -66.535)">
    <path d="m334.67,301.85c-0.02,0 -0.03,0 -0.04,-0.01l-2.37,-0.97c-0.05,-0.02 -0.07,-0.07 -0.06,-0.12c0.01,-0.05 0.05,-0.09 0.1,-0.09l2.37,0c0.06,0 0.11,0.05 0.11,0.11l0,0.97c0,0.04 -0.02,0.07 -0.05,0.09c-0.02,0.02 -0.04,0.02 -0.06,0.02zm-1.82,-0.97l1.71,0.7l0,-0.7l-1.71,0z" fill="#7894AE" id="svg_289"/>
   </g>
   <g id="svg_286" transform="translate(-149 -8) translate(82.975 -66.535)">
    <path d="m334.67,304.21c-0.08,0 -0.14,-0.06 -0.14,-0.14l0,-11.23l-2.71,9.93c-0.02,0.07 -0.1,0.12 -0.17,0.1c-0.07,-0.02 -0.12,-0.1 -0.1,-0.18l2.98,-10.93l0,-5.23c0,-0.08 0.06,-0.14 0.14,-0.14s0.14,0.06 0.14,0.14l0,5.23c0,0.01 0,0.02 0,0.03l0,12.28c0,0.08 -0.06,0.14 -0.14,0.14z" fill="#7894AE" id="svg_287"/>
   </g>
   <g id="svg_284" transform="translate(-149 -8) translate(82.975 -66.535)">
    <polygon clip-rule="evenodd" fill="#7894AE" fill-rule="evenodd" id="svg_285" points="262.513,271.506 279.11,271.506 281.301,283.366     283.222,282.931 283.112,277.509 295.963,277.509 295.963,288.317 312.232,288.317 312.232,298.627 332.043,298.627     332.043,301.526 366.365,301.526 366.365,306.028 265.246,306.028 265.06,294.535 262.513,271.506   "/>
   </g>
   <g id="svg_282" transform="translate(-149 -8) translate(82.975 -66.535)">
    <path d="m349.29,303.3l-0.33,0l0,-0.02l-42.52,0l0,-1.9l0.32,0l0,0.04l2.73,0l0,-0.04l0.32,0l0,0.04l2.73,0l0,-0.04l0.33,0l0,0.04l2.73,0l0,-0.04l0.32,0l0,0.04l2.73,0l0,-0.04l0.32,0l0,0.04l2.73,0l0,-0.04l0.33,0l0,0.04l2.72,0l0,-0.04l0.33,0l0,0.04l2.73,0l0,-0.04l0.32,0l0,0.04l2.73,0l0,-0.04l0.32,0l0,0.04l2.73,0l0,-0.04l0.33,0l0,0.04l2.73,0l0,-0.04l0.32,0l0,0.04l2.73,0l0,-0.04l0.32,0l0,0.04l2.73,0l0,-0.04l0.33,0l0,0.04l2.73,0l0,-0.04l0.32,0l0,0.04l2.5,0l0,-0.02l0.33,0l0,1.9l0.01,0zm-2.83,-0.23l2.5,0l0,-0.23l-2.5,0l0,0.23zm-3.06,0l2.73,0l0,-0.23l-2.73,0l0,0.23zm-3.05,0l2.73,0l0,-0.23l-2.73,0l0,0.23zm-3.05,0l2.73,0l0,-0.23l-2.73,0l0,0.23zm-3.06,0l2.73,0l0,-0.23l-2.73,0l0,0.23zm-3.05,0l2.73,0l0,-0.23l-2.73,0l0,0.23zm-3.05,0l2.73,0l0,-0.23l-2.73,0l0,0.23zm-3.06,0l2.73,0l0,-0.23l-2.73,0l0,0.23zm-3.05,0l2.73,0l0,-0.23l-2.73,0l0,0.23zm-3.05,0l2.72,0l0,-0.23l-2.72,0l0,0.23zm-3.06,0l2.73,0l0,-0.23l-2.73,0l0,0.23zm-3.05,0l2.73,0l0,-0.23l-2.73,0l0,0.23zm-3.06,0l2.73,0l0,-0.23l-2.73,0l0,0.23zm-3.05,0l2.73,0l0,-0.23l-2.73,0l0,0.23zm39.7,-0.45l2.5,0l0,-0.39l-2.5,0l0,0.39zm-3.06,0l2.73,0l0,-0.39l-2.73,0l0,0.39zm-3.05,0l2.73,0l0,-0.39l-2.73,0l0,0.39zm-3.05,0l2.73,0l0,-0.39l-2.73,0l0,0.39zm-3.06,0l2.73,0l0,-0.39l-2.73,0l0,0.39zm-3.05,0l2.73,0l0,-0.39l-2.73,0l0,0.39zm-3.05,0l2.73,0l0,-0.39l-2.73,0l0,0.39zm-3.06,0l2.73,0l0,-0.39l-2.73,0l0,0.39zm-3.05,0l2.73,0l0,-0.39l-2.73,0l0,0.39zm-3.05,0l2.72,0l0,-0.39l-2.72,0l0,0.39zm-3.06,0l2.73,0l0,-0.39l-2.73,0l0,0.39zm-3.05,0l2.73,0l0,-0.39l-2.73,0l0,0.39zm-3.06,0l2.73,0l0,-0.39l-2.73,0l0,0.39zm-3.05,0l2.73,0l0,-0.39l-2.73,0l0,0.39zm39.7,-0.61l2.5,0l0,-0.37l-2.5,0l0,0.37zm-3.06,0l2.73,0l0,-0.37l-2.73,0l0,0.37zm-3.05,0l2.73,0l0,-0.37l-2.73,0l0,0.37zm-3.05,0l2.73,0l0,-0.37l-2.73,0l0,0.37zm-3.06,0l2.73,0l0,-0.37l-2.73,0l0,0.37zm-3.05,0l2.73,0l0,-0.37l-2.73,0l0,0.37zm-3.05,0l2.73,0l0,-0.37l-2.73,0l0,0.37zm-3.06,0l2.73,0l0,-0.37l-2.73,0l0,0.37zm-3.05,0l2.73,0l0,-0.37l-2.73,0l0,0.37zm-3.05,0l2.72,0l0,-0.37l-2.72,0l0,0.37zm-3.06,0l2.73,0l0,-0.37l-2.73,0l0,0.37zm-3.05,0l2.73,0l0,-0.37l-2.73,0l0,0.37zm-3.06,0l2.73,0l0,-0.37l-2.73,0l0,0.37zm-3.05,0l2.73,0l0,-0.37l-2.73,0l0,0.37z" fill="#231F20" id="svg_283"/>
   </g>
   <g id="svg_280" transform="translate(-149 -8) translate(82.975 -66.535)">
    <polygon clip-rule="evenodd" fill="#A3B9C6" fill-rule="evenodd" id="svg_281" points="292.713,277.509 296.332,277.509 296.332,302.653     292.713,302.653 292.713,277.509   "/>
   </g>
   <g id="svg_278" transform="translate(-149 -8) translate(82.975 -66.535)">
    <polygon clip-rule="evenodd" fill="#4C6186" fill-rule="evenodd" id="svg_279" points="263.638,271.506 266.414,294.535 266.423,303.045     265.054,303.046 265.054,294.92 262.513,271.506 263.638,271.506   "/>
   </g>
   <g id="svg_276" transform="translate(-149 -8) translate(82.975 -66.535)">
    <polygon clip-rule="evenodd" fill="#A3B9C6" fill-rule="evenodd" id="svg_277" points="267.804,303.046 271.165,300.417 306.477,300.417     309.597,303.175 267.804,303.046   "/>
   </g>
   <g id="svg_274" transform="translate(-149 -8) translate(82.975 -66.535)">
    <polygon clip-rule="evenodd" fill="#7894AE" fill-rule="evenodd" id="svg_275" points="295.143,278.018 296.2,278.018 296.2,270.232     295.143,270.232 295.143,278.018   "/>
   </g>
   <g id="svg_272" transform="translate(-149 -8) translate(82.975 -66.535)">
    <polygon clip-rule="evenodd" fill="#7894AE" fill-rule="evenodd" id="svg_273" points="293.125,269.847 297.641,269.847 297.641,270.712     293.125,270.712 293.125,269.847   "/>
   </g>
   <g id="svg_270" transform="translate(-149 -8) translate(82.975 -66.535)">
    <path d="m170.09,314.86l-0.32,0l0,-0.02l-14.07,0l0,0.02l-0.32,0l0,-0.02l-11.49,0l0,-1.9l0.32,0l0,0.04l2.61,0l0,-0.04l0.32,0l0,0.04l2.6,0l0,-0.04l0.32,0l0,0.04l2.61,0l0,-0.04l0.32,0l0,0.04l2.36,0l0,-0.04l0.32,0l0,0.02l0.03,0l0,0.02l2.58,0l0,-0.04l0.32,0l0,0.04l2.61,0l0,-0.04l0.32,0l0,0.04l2.6,0l0,-0.04l0.32,0l0,0.04l2.61,0l0,-0.04l0.32,0l0,0.04l2.39,0l0,-0.02l0.31,0l0,1.9l0.01,0zm-2.71,-0.23l2.39,0l0,-0.23l-2.39,0l0,0.23zm-2.93,0l2.61,0l0,-0.23l-2.61,0l0,0.23zm-2.92,0l2.6,0l0,-0.23l-2.6,0l0,0.23zm-2.93,0l2.61,0l0,-0.23l-2.61,0l0,0.23zm-2.9,0l2.58,0l0,-0.23l-2.58,0l0,0.23zm-2.71,0l2.36,0l0,-0.23l-2.36,0l0,0.23zm-2.93,0l2.61,0l0,-0.23l-2.61,0l0,0.23zm-2.92,0l2.6,0l0,-0.23l-2.6,0l0,0.23zm-2.93,0l2.61,0l0,-0.23l-2.61,0l0,0.23zm23.17,-0.45l2.39,0l0,-0.4l-2.39,0l0,0.4zm-2.93,0l2.61,0l0,-0.4l-2.61,0l0,0.4zm-2.92,0l2.6,0l0,-0.4l-2.6,0l0,0.4zm-2.93,0l2.61,0l0,-0.4l-2.61,0l0,0.4zm-2.9,0l2.58,0l0,-0.4l-2.58,0l0,0.4zm-2.71,0l2.36,0l0,-0.4l-2.36,0l0,0.4zm-2.93,0l2.61,0l0,-0.4l-2.61,0l0,0.4zm-2.92,0l2.6,0l0,-0.4l-2.6,0l0,0.4zm-2.93,0l2.61,0l0,-0.4l-2.61,0l0,0.4zm23.17,-0.61l2.39,0l0,-0.38l-2.39,0l0,0.38zm-2.93,0l2.61,0l0,-0.38l-2.61,0l0,0.38zm-2.92,0l2.6,0l0,-0.38l-2.6,0l0,0.38zm-2.93,0l2.61,0l0,-0.38l-2.61,0l0,0.38zm-2.9,0l2.58,0l0,-0.38l-2.58,0l0,0.38zm-2.71,0l2.36,0l0,-0.38l-2.36,0l0,0.38zm-2.93,0l2.61,0l0,-0.38l-2.61,0l0,0.38zm-2.92,0l2.6,0l0,-0.38l-2.6,0l0,0.38zm-2.93,0l2.61,0l0,-0.38l-2.61,0l0,0.38z" fill="#231F20" id="svg_271"/>
   </g>
   <g id="svg_268" transform="translate(-149 -8) translate(82.975 -66.535)">
    <polygon clip-rule="evenodd" fill="#4C6186" fill-rule="evenodd" id="svg_269" points="376.58,299.617 379.97,299.617 379.97,305.365     376.58,305.365 376.58,299.617   "/>
   </g>
   <g id="svg_266" transform="translate(-149 -8) translate(82.975 -66.535)">
    <polygon clip-rule="evenodd" fill="#A3B9C6" fill-rule="evenodd" id="svg_267" points="277.447,271.506 279.11,271.506 281.279,283.245     280.053,283.366 277.447,271.506   "/>
   </g>
   <g id="svg_264" transform="translate(-149 -8) translate(82.975 -66.535)">
    <polygon clip-rule="evenodd" fill="#A3B9C6" fill-rule="evenodd" id="svg_265" points="268.692,271.506 272.365,271.506 278.572,282.954     274.898,282.954 268.692,271.506   "/>
   </g>
   <g id="svg_262" transform="translate(-149 -8) translate(82.975 -66.535)">
    <path d="m391.82,303.3l-0.32,0l0,-0.02l-42.53,0l0,-1.9l0.33,0l0,0.04l2.73,0l0,-0.04l0.32,0l0,0.04l2.73,0l0,-0.04l0.32,0l0,0.04l2.73,0l0,-0.04l0.33,0l0,0.04l2.73,0l0,-0.04l0.32,0l0,0.04l2.73,0l0,-0.04l0.32,0l0,0.04l2.73,0l0,-0.04l0.33,0l0,0.04l2.72,0l0,-0.04l0.33,0l0,0.04l2.73,0l0,-0.04l0.32,0l0,0.04l2.73,0l0,-0.04l0.32,0l0,0.04l2.73,0l0,-0.04l0.33,0l0,0.04l2.73,0l0,-0.04l0.32,0l0,0.04l2.73,0l0,-0.04l0.32,0l0,0.04l2.73,0l0,-0.04l0.33,0l0,0.04l2.5,0l0,-0.02l0.32,0l0,1.9l0.01,0zm-2.82,-0.23l2.5,0l0,-0.23l-2.5,0l0,0.23zm-3.06,0l2.73,0l0,-0.23l-2.73,0l0,0.23zm-3.05,0l2.73,0l0,-0.23l-2.73,0l0,0.23zm-3.05,0l2.72,0l0,-0.23l-2.72,0l0,0.23zm-3.06,0l2.73,0l0,-0.23l-2.73,0l0,0.23zm-3.05,0l2.73,0l0,-0.23l-2.73,0l0,0.23zm-3.06,0l2.73,0l0,-0.23l-2.73,0l0,0.23zm-3.05,0l2.73,0l0,-0.23l-2.73,0l0,0.23zm-3.05,0l2.72,0l0,-0.23l-2.72,0l0,0.23zm-3.06,0l2.73,0l0,-0.23l-2.73,0l0,0.23zm-3.05,0l2.73,0l0,-0.23l-2.73,0l0,0.23zm-3.06,0l2.73,0l0,-0.23l-2.73,0l0,0.23zm-3.05,0l2.73,0l0,-0.23l-2.73,0l0,0.23zm-3.05,0l2.73,0l0,-0.23l-2.73,0l0,0.23zm39.7,-0.45l2.5,0l0,-0.39l-2.5,0l0,0.39zm-3.06,0l2.73,0l0,-0.39l-2.73,0l0,0.39zm-3.05,0l2.73,0l0,-0.39l-2.73,0l0,0.39zm-3.05,0l2.72,0l0,-0.39l-2.72,0l0,0.39zm-3.06,0l2.73,0l0,-0.39l-2.73,0l0,0.39zm-3.05,0l2.73,0l0,-0.39l-2.73,0l0,0.39zm-3.06,0l2.73,0l0,-0.39l-2.73,0l0,0.39zm-3.05,0l2.73,0l0,-0.39l-2.73,0l0,0.39zm-3.05,0l2.72,0l0,-0.39l-2.72,0l0,0.39zm-3.06,0l2.73,0l0,-0.39l-2.73,0l0,0.39zm-3.05,0l2.73,0l0,-0.39l-2.73,0l0,0.39zm-3.06,0l2.73,0l0,-0.39l-2.73,0l0,0.39zm-3.05,0l2.73,0l0,-0.39l-2.73,0l0,0.39zm-3.05,0l2.73,0l0,-0.39l-2.73,0l0,0.39zm39.7,-0.61l2.5,0l0,-0.37l-2.5,0l0,0.37zm-3.06,0l2.73,0l0,-0.37l-2.73,0l0,0.37zm-3.05,0l2.73,0l0,-0.37l-2.73,0l0,0.37zm-3.05,0l2.72,0l0,-0.37l-2.72,0l0,0.37zm-3.06,0l2.73,0l0,-0.37l-2.73,0l0,0.37zm-3.05,0l2.73,0l0,-0.37l-2.73,0l0,0.37zm-3.06,0l2.73,0l0,-0.37l-2.73,0l0,0.37zm-3.05,0l2.73,0l0,-0.37l-2.73,0l0,0.37zm-3.05,0l2.72,0l0,-0.37l-2.72,0l0,0.37zm-3.06,0l2.73,0l0,-0.37l-2.73,0l0,0.37zm-3.05,0l2.73,0l0,-0.37l-2.73,0l0,0.37zm-3.06,0l2.73,0l0,-0.37l-2.73,0l0,0.37zm-3.05,0l2.73,0l0,-0.37l-2.73,0l0,0.37zm-3.05,0l2.73,0l0,-0.37l-2.73,0l0,0.37z" fill="#231F20" id="svg_263"/>
   </g>
   <g id="svg_260" transform="translate(-149 -8) translate(82.975 -66.535)">
    <polygon clip-rule="evenodd" fill="#4C6186" fill-rule="evenodd" id="svg_261" points="389.571,300.021 390.51,300.021 390.51,302.273     389.571,302.273 389.571,300.021   "/>
   </g>
   <g id="svg_258" transform="translate(-149 -8) translate(82.975 -66.535)">
    <path clip-rule="evenodd" d="m374.57,297.55l7.12,0c0.67,0 1.23,0.56 1.23,1.23l0,0.84l-9.58,0l0,-0.84c0,-0.67 0.55,-1.23 1.23,-1.23l0,0z" fill="#A3B9C6" fill-rule="evenodd" id="svg_259"/>
   </g>
   <g id="svg_256" transform="translate(-149 -8) translate(82.975 -66.535)">
    <path clip-rule="evenodd" d="m382.92,299.32l0,0.3l-9.58,0l0,-0.84c0,-0.07 0,-0.13 0.01,-0.2l7.95,0c0.72,0 1.34,0.31 1.62,0.74l0,0z" fill="#7894AE" fill-rule="evenodd" id="svg_257"/>
   </g>
   <g id="svg_254" transform="translate(-149 -8) translate(82.975 -66.535)">
    <path clip-rule="evenodd" d="m172.78,325.48l-3.14,5.22l0,4.19c0,0.39 -0.32,0.72 -0.72,0.72l-7.07,0c-0.4,0 -0.72,-0.32 -0.72,-0.72l0,-7.97c0,-0.4 0.32,-0.72 0.72,-0.72l1.58,0l1.48,-3.06l7.87,2.34l0,0z" fill="#9A2429" fill-rule="evenodd" id="svg_255"/>
   </g>
   <g id="svg_252" transform="translate(-149 -8) translate(82.975 -66.535)">
    <path clip-rule="evenodd" d="m320.04,329.08c2.73,0.94 2.67,1.73 4.17,3.22c1.93,1.91 8.32,2.51 13.57,2.76c7.96,0.37 10.86,-2.28 13.49,-4.99c-10.41,-0.33 -20.82,-0.66 -31.23,-0.99l0,0z" fill="#9A2429" fill-rule="evenodd" id="svg_253"/>
   </g>
   <g id="svg_250" transform="translate(-149 -8) translate(82.975 -66.535)">
    <path clip-rule="evenodd" d="m424,300.17l-19.01,30.06c-72.88,0 -144.17,3.51 -217.05,3.51c-2.04,-5.47 -18.06,-8.93 -34.4,-9.74c-0.69,-0.03 -1.27,-0.27 -1.78,-0.74c-2.72,-2.51 -5.77,-5.03 -8.52,-7.54c-0.18,-0.16 -0.23,-0.4 -0.15,-0.62c0.09,-0.23 0.3,-0.37 0.54,-0.37c4.73,0 9.46,0 14.19,0c1.08,0 2.01,-0.56 2.51,-1.52c0.96,-1.85 3.26,-5.39 1.49,-7.39c-0.01,-0.01 -0.02,-0.02 -0.03,-0.03c-0.55,-0.62 -1.27,-0.95 -2.11,-0.95c-5.33,-0.02 -10.67,-0.04 -16.01,-0.06c0.01,-0.32 -0.1,-1.3 -0.09,-1.62l125.3,-0.12l2.43,-1.99l34.87,0l2.4,2.2l74.93,0.06c2.9,0 4.41,-0.98 5.75,-2.45l34.74,-0.69l0,0z" fill="#4C6186" fill-rule="evenodd" id="svg_251"/>
   </g>
   <g id="svg_248" transform="translate(-149 -8) translate(82.975 -66.535)">
    <path clip-rule="evenodd" d="m183.91,304.94l201.93,-0.01c24.27,0 37.85,-2.19 23.05,15.7c-6.34,0.76 -46.59,3.26 -55.32,4.12c-52.68,5.14 -149.95,0.59 -170.58,0.59c-15.79,0 -27.62,-2.71 -21.57,-12.19c5.91,-9.26 17.02,-8.18 22.49,-8.21l0,0z" fill="#7894AE" fill-rule="evenodd" id="svg_249"/>
   </g>
   <g id="svg_246" transform="translate(-149 -8) translate(82.975 -66.535)">
    <path clip-rule="evenodd" d="m203.17,308.73l115.58,-0.53c37.42,-0.16 83.95,2.28 37.02,11.28c-46.71,8.97 -134.87,6.05 -153.42,5.97c-12.4,-0.05 -20.99,-4.45 -26.11,-9.99c-6.29,-6.82 22.01,-6.71 26.93,-6.73l0,0z" fill="#A3B9C6" fill-rule="evenodd" id="svg_247"/>
   </g>
   <g id="svg_244" transform="translate(-149 -8) translate(82.975 -66.535)">
    <path clip-rule="evenodd" d="m411.17,320.62l-6.3,9.91c-1.12,1.78 -2.92,2.77 -5.02,2.77c-71.69,0.01 -140.12,0.44 -211.91,0.44c-2.05,-5.47 -18.06,-8.93 -34.4,-9.74c-0.69,-0.03 -1.27,-0.27 -1.78,-0.74c-0.95,-0.88 -1.94,-1.76 -2.95,-2.64l262.36,0l0,0z" fill="#9A2429" fill-rule="evenodd" id="svg_245"/>
   </g>
   <g id="svg_242" transform="translate(-149 -8) translate(82.975 -66.535)">
    <path clip-rule="evenodd" d="m160.68,320.62l248.21,0l-6.91,7.51c-1.17,1.27 -2.65,1.93 -4.38,1.93c-70.42,0.05 -135.96,2.18 -206.5,2.18c-2.01,-5.46 -11.44,-8.93 -27.45,-9.73c-0.67,-0.04 -1.25,-0.28 -1.75,-0.75c-0.4,-0.38 -0.81,-0.76 -1.22,-1.14l0,0z" fill="#C12025" fill-rule="evenodd" id="svg_243"/>
   </g>
   <g id="svg_240" transform="translate(-149 -8) translate(82.975 -66.535)">
    <path clip-rule="evenodd" d="m182.31,320.62l167.01,0c-47.93,7.72 -129.24,4.91 -146.97,4.83c-8.29,-0.03 -15.06,-1.86 -20.04,-4.83l0,0z" fill="#EA1D26" fill-rule="evenodd" id="svg_241"/>
   </g>
   <g id="svg_238" transform="translate(-149 -8) translate(82.975 -66.535)">
    <path clip-rule="evenodd" d="m177.66,323.35l-0.04,2.1l-1.09,1.79c0.6,0.16 1.19,0.33 1.75,0.5l1.27,-2.05c0.81,-0.3 2.34,-1.17 3.15,-1.47c-1.9,-0.25 -3.42,-0.83 -5.04,-0.87l0,0z" fill="#9A2429" fill-rule="evenodd" id="svg_239"/>
   </g>
   <g id="svg_236" transform="translate(-149 -8) translate(82.975 -66.535)">
    <path clip-rule="evenodd" d="m191.09,333.33l13.62,-3.48c0.18,-0.05 0.36,0.05 0.41,0.23l0,0c0.04,0.17 -0.07,0.35 -0.25,0.4l-11.16,2.85l-2.62,0l0,0z" fill="#9A2429" fill-rule="evenodd" id="svg_237"/>
   </g>
   <g id="svg_234" transform="translate(-149 -8) translate(82.975 -66.535)">
    <path clip-rule="evenodd" d="m177.69,323.33l0.88,1.58l-0.73,3.3l-0.98,1.42l3.01,-0.01l-0.11,-0.92l0.9,-3.8c0.68,-0.22 1.36,-0.45 2.04,-0.68c-1.67,-0.68 -3.34,-1.09 -5.01,-0.89l0,0z" fill="#ED1C24" fill-rule="evenodd" id="svg_235"/>
   </g>
   <g id="svg_232" transform="translate(-149 -8) translate(82.975 -66.535)">
    <polygon clip-rule="evenodd" fill="#ED1C24" fill-rule="evenodd" id="svg_233" points="176.34,329.631 180.484,329.615 180.485,330.824     176.341,330.841 176.34,329.631   "/>
   </g>
   <g id="svg_230" transform="translate(-149 -8) translate(82.975 -66.535)">
    <path clip-rule="evenodd" d="m172.76,329.9l32.55,-0.06c0.19,0 0.35,0.15 0.35,0.33l0,0c0,0.19 -0.16,0.34 -0.35,0.34l-32.55,0.06c-0.19,0 -0.35,-0.15 -0.35,-0.33l0,0c0,-0.19 0.16,-0.34 0.35,-0.34l0,0z" fill="#ED1C24" fill-rule="evenodd" id="svg_231"/>
   </g>
   <g id="svg_228" transform="translate(-149 -8) translate(82.975 -66.535)">
    <polygon clip-rule="evenodd" fill="#E5962E" fill-rule="evenodd" id="svg_229" points="173.71,329.753 175.724,329.753 175.724,330.273     173.71,330.273 173.71,329.753   "/>
   </g>
   <g id="svg_226" transform="translate(-149 -8) translate(82.975 -66.535)">
    <polygon clip-rule="evenodd" fill="#C97731" fill-rule="evenodd" id="svg_227" points="173.71,330.273 175.724,330.273 175.724,330.699     173.71,330.699 173.71,330.273   "/>
   </g>
   <g id="svg_224" transform="translate(-149 -8) translate(82.975 -66.535)">
    <path clip-rule="evenodd" d="m175.64,330.12c0.08,-1.51 -0.21,-2.76 -0.87,-3.31c-0.33,-0.29 -0.84,-0.33 -0.97,0.06l0.98,2.05l0.67,1.18l0.19,0.02l0,0z" fill="#F6B859" fill-rule="evenodd" id="svg_225"/>
   </g>
   <g id="svg_222" transform="translate(-149 -8) translate(82.975 -66.535)">
    <path clip-rule="evenodd" d="m173.78,330.12c-0.08,1.52 0.21,2.76 0.87,3.32c0.33,0.28 0.84,0.32 0.97,-0.07l-0.98,-2.05l-0.68,-1.18l-0.18,-0.02l0,0z" fill="#F6B859" fill-rule="evenodd" id="svg_223"/>
   </g>
   <g id="svg_220" transform="translate(-149 -8) translate(82.975 -66.535)">
    <path clip-rule="evenodd" d="m173.8,326.87c-0.02,0.1 -0.04,0.2 -0.04,0.32l0,2.56c0.96,0 1.41,0.07 1.71,0.37c-0.04,-1.1 -0.03,-2.38 -0.84,-3.17c-0.33,-0.32 -0.6,-0.35 -0.83,-0.08l0,0z" fill="#C97731" fill-rule="evenodd" id="svg_221"/>
   </g>
   <g id="svg_218" transform="translate(-149 -8) translate(82.975 -66.535)">
    <path clip-rule="evenodd" d="m175.62,333.37c0.02,-0.09 0.04,-0.2 0.04,-0.32l0,-2.56c-0.96,0 -1.41,-0.07 -1.71,-0.37c0.04,1.1 0.03,2.39 0.84,3.18c0.33,0.31 0.6,0.34 0.83,0.07l0,0z" fill="#E5962E" fill-rule="evenodd" id="svg_219"/>
   </g>
   <g id="svg_216" transform="translate(-149 -8) translate(82.975 -66.535)">
    <polygon clip-rule="evenodd" fill="#9A2429" fill-rule="evenodd" id="svg_217" points="234.766,332.001 255.475,332.206 298.128,331.919     311.377,331.821 314.97,327.887 299.84,329.46 256.092,329.319 237.689,327.373 234.766,332.001   "/>
   </g>
   <g id="svg_214" transform="translate(-149 -8) translate(82.975 -66.535)">
    <path clip-rule="evenodd" d="m201.54,328.72c9.08,0.2 28.1,-0.05 27.24,1.37c-3.02,4.97 -21.01,3.35 -30.32,3.63c0,-0.99 3.08,-4.01 3.08,-5l0,0z" fill="#9A2429" fill-rule="evenodd" id="svg_215"/>
   </g>
   <g id="svg_212" transform="translate(-149 -8) translate(82.975 -66.535)">
    <path clip-rule="evenodd" d="m201.54,328.72c9.08,0.2 27.24,-0.18 27.24,1.37c0,1.52 -17.92,1.32 -27.24,1.6c0,-0.99 0,-1.98 0,-2.97l0,0z" fill="#C12025" fill-rule="evenodd" id="svg_213"/>
   </g>
   <g id="svg_210" transform="translate(-149 -8) translate(82.975 -66.535)">
    <path clip-rule="evenodd" d="m201.54,328.72c8.76,0.19 25.98,-0.16 27.17,1.22c-6.14,0.59 -19.33,0.54 -27.17,0.75l0,-1.97l0,0z" fill="#ED1C24" fill-rule="evenodd" id="svg_211"/>
   </g>
   <g id="svg_208" transform="translate(-149 -8) translate(82.975 -66.535)">
    <polygon clip-rule="evenodd" fill="#ED1C24" fill-rule="evenodd" id="svg_209" points="239.505,329.592 255.547,330.984 298.343,330.984     309.295,330.097 314.97,327.887 299.84,329.46 256.092,329.319 237.689,327.373 239.505,329.592   "/>
   </g>
   <g id="svg_206" transform="translate(-149 -8) translate(82.975 -66.535)">
    <path d="m331.44,316.46l0,-7.27c-0.12,0.13 -0.28,0.24 -0.49,0.32c-0.21,0.07 -0.42,0.11 -0.63,0.11l0,-1.01c0.29,-0.04 0.57,-0.16 0.83,-0.35c0.26,-0.2 0.46,-0.45 0.59,-0.77l1.06,0l0,8.97l-1.36,0l0,0z" fill="#C9D5DC" id="svg_207"/>
   </g>
   <g id="svg_204" transform="translate(-149 -8) translate(82.975 -66.535)">
    <path d="m334.38,316.46l0,-0.53c0,-0.47 0.08,-0.93 0.23,-1.38c0.16,-0.45 0.4,-0.97 0.73,-1.55c0.01,-0.02 0.14,-0.23 0.37,-0.63c0.23,-0.41 0.41,-0.69 0.51,-0.84c0.27,-0.43 0.4,-1.04 0.4,-1.81c0,-0.77 -0.16,-1.15 -0.49,-1.15c-0.27,0 -0.44,0.21 -0.5,0.64c-0.03,0.19 -0.04,0.41 -0.04,0.69l0,1.14l-1.31,0l0,-0.55c0,-1.11 0.11,-1.87 0.32,-2.25c0.21,-0.4 0.49,-0.65 0.86,-0.75c0.2,-0.06 0.45,-0.1 0.74,-0.1c0.29,0 0.55,0.07 0.78,0.2c0.22,0.13 0.4,0.31 0.54,0.54c0.26,0.45 0.4,1.04 0.4,1.76s-0.15,1.36 -0.43,1.91c-0.28,0.55 -0.56,1.03 -0.83,1.46c-0.51,0.77 -0.83,1.49 -0.98,2.13l2.07,0l0,1.07l-3.37,0l0,0z" fill="#C9D5DC" id="svg_205"/>
   </g>
   <g id="svg_202" transform="translate(-149 -8) translate(82.975 -66.535)">
    <path d="m341.08,316.47l0,-1.59l-2.21,0l0,-1l1.97,-6.39l1.46,0l0,6.29l0.69,0l0,1.1l-0.69,0l0,1.59l-1.22,0l0,0zm-1.16,-2.69l1.16,0l0,-4.43l-1.16,4.43l0,0z" fill="#C9D5DC" id="svg_203"/>
   </g>
   <g id="svg_200" transform="translate(-149 -8) translate(82.975 -66.535)">
    <path clip-rule="evenodd" d="m410.33,306.47c0.07,-0.05 0.14,-0.1 0.21,-0.15l0.53,3.52c-0.82,0.25 -1.57,0.15 -1.94,-0.34c-0.56,-0.74 -0.03,-2.1 1.2,-3.03l0,0zm0.32,-0.22c1,-0.64 2.09,-0.78 2.69,-0.36l-0.4,1.61l-0.74,0.12l-0.07,0.82l-1.48,-2.19l0,0z" fill="#A3B9C6" fill-rule="evenodd" id="svg_201"/>
   </g>
   <g id="svg_198" transform="translate(-149 -8) translate(82.975 -66.535)">
    <path clip-rule="evenodd" d="m410.55,306.84c0.05,-0.03 0.1,-0.07 0.15,-0.1l0.38,2.53c-0.59,0.18 -1.13,0.11 -1.39,-0.24c-0.41,-0.54 -0.02,-1.51 0.86,-2.19l0,0zm0.24,-0.16c0.72,-0.46 1.49,-0.55 1.93,-0.25l-0.29,1.15l-0.58,0.68l-1.06,-1.58l0,0z" fill="#4C6186" fill-rule="evenodd" id="svg_199"/>
   </g>
   <g id="svg_196" transform="translate(-149 -8) translate(82.975 -66.535)">
    <polygon clip-rule="evenodd" fill="#A3B9C6" fill-rule="evenodd" id="svg_197" points="410.494,306.009 411.113,310.13 412.723,309.324     410.494,306.009   "/>
   </g>
   <g id="svg_194" transform="translate(-149 -8) translate(82.975 -66.535)">
    <polygon clip-rule="evenodd" fill="#A3B9C6" fill-rule="evenodd" id="svg_195" points="413.559,305.017 414.487,309.076 411.98,310.192     412.023,309.674 412.723,309.324 412.127,308.439 412.197,307.62 412.94,307.496 413.559,305.017   "/>
   </g>
   <g id="svg_192" transform="translate(-149 -8) translate(82.975 -66.535)">
    <polygon clip-rule="evenodd" fill="#C9D5DC" fill-rule="evenodd" id="svg_193" points="410.494,306.009 412.373,309.499 412.723,309.324     410.494,306.009   "/>
   </g>
   <g id="svg_190" transform="translate(-149 -8) translate(82.975 -66.535)">
    <polygon clip-rule="evenodd" fill="#C9D5DC" fill-rule="evenodd" id="svg_191" points="413.559,305.017 414.487,309.076 413.822,309.372     413.559,305.017   "/>
   </g>
   <g id="svg_188" transform="translate(-149 -8) translate(82.975 -66.535)">
    <polygon clip-rule="evenodd" fill="#7894AE" fill-rule="evenodd" id="svg_189" points="422.497,297.187 419.657,301.389 419.656,301.373     419.458,301.293 422.541,296.732 422.497,297.187   "/>
   </g>
   <g id="svg_186" transform="translate(-149 -8) translate(82.975 -66.535)">
    <polygon clip-rule="evenodd" fill="#7894AE" fill-rule="evenodd" id="svg_187" points="424.008,288.291 423.684,288.291 423.684,289.088     424.008,289.088 424.008,288.291   "/>
   </g>
   <g id="svg_184" transform="translate(-149 -8) translate(82.975 -66.535)">
    <polygon clip-rule="evenodd" fill="#7894AE" fill-rule="evenodd" id="svg_185" points="421.399,288.577 424.008,288.577 424.008,288.801     421.399,288.801 421.399,288.577   "/>
   </g>
   <g id="svg_182" transform="translate(-149 -8) translate(82.975 -66.535)">
    <polygon clip-rule="evenodd" fill="#7894AE" fill-rule="evenodd" id="svg_183" points="422.213,289.658 422.541,289.658 422.541,289.883     422.213,289.883 422.213,289.658   "/>
   </g>
   <g id="svg_180" transform="translate(-149 -8) translate(82.975 -66.535)">
    <polygon clip-rule="evenodd" fill="#7894AE" fill-rule="evenodd" id="svg_181" points="421.768,288.291 421.444,288.291 421.444,289.088     421.768,289.088 421.768,288.291   "/>
   </g>
   <g id="svg_178" transform="translate(-149 -8) translate(82.975 -66.535)">
    <polygon clip-rule="evenodd" fill="#7894AE" fill-rule="evenodd" id="svg_179" points="422.541,288.577 422.866,288.577 422.866,300.767     422.541,300.767 422.541,288.577   "/>
   </g>
   <g id="svg_176" transform="translate(-149 -8) translate(82.975 -66.535)">
    <polygon clip-rule="evenodd" fill="#4C6186" fill-rule="evenodd" id="svg_177" points="388.539,297.771 391.542,297.771 391.542,300.022     388.539,300.022 388.539,297.771   "/>
   </g>
   <g id="svg_174" transform="translate(-149 -8) translate(82.975 -66.535)">
    <polygon clip-rule="evenodd" fill="#7894AE" fill-rule="evenodd" id="svg_175" points="351.853,295.613 354.909,295.613 354.909,297.771     351.853,297.771 351.853,295.613   "/>
   </g>
   <g id="svg_172" transform="translate(-149 -8) translate(82.975 -66.535)">
    <polygon clip-rule="evenodd" fill="#A3B9C6" fill-rule="evenodd" id="svg_173" points="354.26,295.612 354.26,296.43 351.853,296.43     351.853,295.612 354.26,295.612   "/>
   </g>
   <g id="svg_170" transform="translate(-149 -8) translate(82.975 -66.535)">
    <polygon clip-rule="evenodd" fill="#A3B9C6" fill-rule="evenodd" id="svg_171" points="354.909,295.049 362.831,295.049 362.831,298.334     354.909,298.334 354.909,295.049   "/>
   </g>
   <g id="svg_168" transform="translate(-149 -8) translate(82.975 -66.535)">
    <polygon clip-rule="evenodd" fill="#7894AE" fill-rule="evenodd" id="svg_169" points="362.831,296.011 362.831,298.334 354.909,298.334     354.909,296.011 362.831,296.011   "/>
   </g>
   <g id="svg_166" transform="translate(-149 -8) translate(82.975 -66.535)">
    <polygon clip-rule="evenodd" fill="#4C6186" fill-rule="evenodd" id="svg_167" points="357.577,298.335 359.641,298.335 359.641,301.619     357.577,301.619 357.577,298.335   "/>
   </g>
   <g id="svg_164" transform="translate(-149 -8) translate(82.975 -66.535)">
    <polygon clip-rule="evenodd" fill="#7894AE" fill-rule="evenodd" id="svg_165" points="317.632,292.615 320.688,292.615 320.688,294.773     317.632,294.773 317.632,292.615   "/>
   </g>
   <g id="svg_162" transform="translate(-149 -8) translate(82.975 -66.535)">
    <polygon clip-rule="evenodd" fill="#A3B9C6" fill-rule="evenodd" id="svg_163" points="320.039,292.615 320.039,293.432 317.632,293.432     317.632,292.615 320.039,292.615   "/>
   </g>
   <g id="svg_160" transform="translate(-149 -8) translate(82.975 -66.535)">
    <polygon clip-rule="evenodd" fill="#A3B9C6" fill-rule="evenodd" id="svg_161" points="320.688,292.052 328.61,292.052 328.61,295.336     320.688,295.336 320.688,292.052   "/>
   </g>
   <g id="svg_158" transform="translate(-149 -8) translate(82.975 -66.535)">
    <polygon clip-rule="evenodd" fill="#7894AE" fill-rule="evenodd" id="svg_159" points="328.61,293.014 328.61,295.336 320.688,295.336     320.688,293.014 328.61,293.014   "/>
   </g>
   <g id="svg_156" transform="translate(-149 -8) translate(82.975 -66.535)">
    <polygon clip-rule="evenodd" fill="#4C6186" fill-rule="evenodd" id="svg_157" points="323.356,295.337 325.419,295.337 325.419,298.621     323.356,298.621 323.356,295.337   "/>
   </g>
   <g id="svg_154" transform="translate(-149 -8) translate(82.975 -66.535)">
    <path clip-rule="evenodd" d="m188.4,305.71c0.32,0 0.58,0.26 0.58,0.58c0,0.31 -0.26,0.57 -0.58,0.57c-0.31,0 -0.57,-0.26 -0.57,-0.57c0,-0.32 0.26,-0.58 0.57,-0.58l0,0z" fill="#4C6186" fill-rule="evenodd" id="svg_155"/>
   </g>
   <g id="svg_152" transform="translate(-149 -8) translate(82.975 -66.535)">
    <path clip-rule="evenodd" d="m198.95,305.71c0.31,0 0.57,0.26 0.57,0.58c0,0.31 -0.26,0.57 -0.57,0.57c-0.32,0 -0.58,-0.26 -0.58,-0.57c0,-0.32 0.26,-0.58 0.58,-0.58l0,0z" fill="#4C6186" fill-rule="evenodd" id="svg_153"/>
   </g>
   <g id="svg_150" transform="translate(-149 -8) translate(82.975 -66.535)">
    <path clip-rule="evenodd" d="m283.47,305.71c0.31,0 0.57,0.26 0.57,0.58c0,0.31 -0.26,0.57 -0.57,0.57s-0.58,-0.26 -0.58,-0.57c0,-0.32 0.26,-0.58 0.58,-0.58l0,0z" fill="#4C6186" fill-rule="evenodd" id="svg_151"/>
   </g>
   <g id="svg_148" transform="translate(-149 -8) translate(82.975 -66.535)">
    <path clip-rule="evenodd" d="m190.6,305.71c0.32,0 0.57,0.26 0.57,0.58c0,0.31 -0.25,0.57 -0.57,0.57c-0.32,0 -0.57,-0.26 -0.57,-0.57c0,-0.32 0.25,-0.58 0.57,-0.58l0,0z" fill="#4C6186" fill-rule="evenodd" id="svg_149"/>
   </g>
   <g id="svg_146" transform="translate(-149 -8) translate(82.975 -66.535)">
    <path clip-rule="evenodd" d="m201.14,305.71c0.32,0 0.58,0.26 0.58,0.58c0,0.31 -0.26,0.57 -0.58,0.57s-0.57,-0.26 -0.57,-0.57c0,-0.32 0.26,-0.58 0.57,-0.58l0,0z" fill="#4C6186" fill-rule="evenodd" id="svg_147"/>
   </g>
   <g id="svg_144" transform="translate(-149 -8) translate(82.975 -66.535)">
    <path clip-rule="evenodd" d="m285.66,305.71c0.32,0 0.58,0.26 0.58,0.58c0,0.31 -0.26,0.57 -0.58,0.57s-0.57,-0.26 -0.57,-0.57c0,-0.32 0.26,-0.58 0.57,-0.58l0,0z" fill="#4C6186" fill-rule="evenodd" id="svg_145"/>
   </g>
   <g id="svg_142" transform="translate(-149 -8) translate(82.975 -66.535)">
    <path clip-rule="evenodd" d="m182.88,305.71c0.32,0 0.58,0.26 0.58,0.58c0,0.31 -0.26,0.57 -0.58,0.57c-0.31,0 -0.57,-0.26 -0.57,-0.57c0,-0.32 0.26,-0.58 0.57,-0.58l0,0z" fill="#4C6186" fill-rule="evenodd" id="svg_143"/>
   </g>
   <g id="svg_140" transform="translate(-149 -8) translate(82.975 -66.535)">
    <path clip-rule="evenodd" d="m177.37,305.71c0.31,0 0.57,0.26 0.57,0.58c0,0.31 -0.26,0.57 -0.57,0.57c-0.32,0 -0.58,-0.26 -0.58,-0.57c0,-0.32 0.26,-0.58 0.58,-0.58l0,0z" fill="#4C6186" fill-rule="evenodd" id="svg_141"/>
   </g>
   <g id="svg_138" transform="translate(-149 -8) translate(82.975 -66.535)">
    <path clip-rule="evenodd" d="m185.08,305.71c0.32,0 0.57,0.26 0.57,0.58c0,0.31 -0.25,0.57 -0.57,0.57c-0.32,0 -0.57,-0.26 -0.57,-0.57c0,-0.32 0.25,-0.58 0.57,-0.58l0,0z" fill="#4C6186" fill-rule="evenodd" id="svg_139"/>
   </g>
   <g id="svg_136" transform="translate(-149 -8) translate(82.975 -66.535)">
    <path clip-rule="evenodd" d="m179.56,305.71c0.32,0 0.58,0.26 0.58,0.58c0,0.31 -0.26,0.57 -0.58,0.57s-0.57,-0.26 -0.57,-0.57c0,-0.32 0.26,-0.58 0.57,-0.58l0,0z" fill="#4C6186" fill-rule="evenodd" id="svg_137"/>
   </g>
   <g id="svg_134" transform="translate(-149 -8) translate(82.975 -66.535)">
    <path clip-rule="evenodd" d="m205.38,305.71c0.32,0 0.58,0.26 0.58,0.58c0,0.31 -0.26,0.57 -0.58,0.57s-0.57,-0.26 -0.57,-0.57c0,-0.32 0.26,-0.58 0.57,-0.58l0,0z" fill="#4C6186" fill-rule="evenodd" id="svg_135"/>
   </g>
   <g id="svg_132" transform="translate(-149 -8) translate(82.975 -66.535)">
    <path clip-rule="evenodd" d="m289.9,305.71c0.32,0 0.58,0.26 0.58,0.58c0,0.31 -0.26,0.57 -0.58,0.57c-0.31,0 -0.57,-0.26 -0.57,-0.57c0,-0.32 0.26,-0.58 0.57,-0.58l0,0z" fill="#4C6186" fill-rule="evenodd" id="svg_133"/>
   </g>
   <g id="svg_130" transform="translate(-149 -8) translate(82.975 -66.535)">
    <path clip-rule="evenodd" d="m211.82,305.71c0.32,0 0.57,0.26 0.57,0.58c0,0.31 -0.25,0.57 -0.57,0.57c-0.32,0 -0.57,-0.26 -0.57,-0.57c0,-0.32 0.25,-0.58 0.57,-0.58l0,0z" fill="#4C6186" fill-rule="evenodd" id="svg_131"/>
   </g>
   <g id="svg_128" transform="translate(-149 -8) translate(82.975 -66.535)">
    <path clip-rule="evenodd" d="m296.34,305.71c0.32,0 0.57,0.26 0.57,0.58c0,0.31 -0.25,0.57 -0.57,0.57s-0.57,-0.26 -0.57,-0.57c0,-0.32 0.25,-0.58 0.57,-0.58l0,0z" fill="#4C6186" fill-rule="evenodd" id="svg_129"/>
   </g>
   <g id="svg_126" transform="translate(-149 -8) translate(82.975 -66.535)">
    <path clip-rule="evenodd" d="m218.26,305.71c0.31,0 0.57,0.26 0.57,0.58c0,0.31 -0.26,0.57 -0.57,0.57c-0.32,0 -0.58,-0.26 -0.58,-0.57c0,-0.32 0.26,-0.58 0.58,-0.58l0,0z" fill="#4C6186" fill-rule="evenodd" id="svg_127"/>
   </g>
   <g id="svg_124" transform="translate(-149 -8) translate(82.975 -66.535)">
    <path clip-rule="evenodd" d="m302.78,305.71c0.31,0 0.57,0.26 0.57,0.58c0,0.31 -0.26,0.57 -0.57,0.57c-0.32,0 -0.58,-0.26 -0.58,-0.57c0,-0.32 0.26,-0.58 0.58,-0.58l0,0z" fill="#4C6186" fill-rule="evenodd" id="svg_125"/>
   </g>
   <g id="svg_122" transform="translate(-149 -8) translate(82.975 -66.535)">
    <path clip-rule="evenodd" d="m228.04,305.71c0.31,0 0.57,0.26 0.57,0.58c0,0.31 -0.26,0.57 -0.57,0.57s-0.58,-0.26 -0.58,-0.57c0,-0.32 0.26,-0.58 0.58,-0.58l0,0z" fill="#4C6186" fill-rule="evenodd" id="svg_123"/>
   </g>
   <g id="svg_120" transform="translate(-149 -8) translate(82.975 -66.535)">
    <path clip-rule="evenodd" d="m312.56,305.71c0.31,0 0.57,0.26 0.57,0.58c0,0.31 -0.26,0.57 -0.57,0.57c-0.32,0 -0.58,-0.26 -0.58,-0.57c0,-0.32 0.26,-0.58 0.58,-0.58l0,0z" fill="#4C6186" fill-rule="evenodd" id="svg_121"/>
   </g>
   <g id="svg_118" transform="translate(-149 -8) translate(82.975 -66.535)">
    <path clip-rule="evenodd" d="m234.72,305.71c0.32,0 0.57,0.26 0.57,0.58c0,0.31 -0.25,0.57 -0.57,0.57c-0.32,0 -0.57,-0.26 -0.57,-0.57c0,-0.32 0.25,-0.58 0.57,-0.58l0,0z" fill="#4C6186" fill-rule="evenodd" id="svg_119"/>
   </g>
   <g id="svg_116" transform="translate(-149 -8) translate(82.975 -66.535)">
    <path clip-rule="evenodd" d="m319.24,305.71c0.32,0 0.57,0.26 0.57,0.58c0,0.31 -0.25,0.57 -0.57,0.57c-0.32,0 -0.57,-0.26 -0.57,-0.57c0,-0.32 0.25,-0.58 0.57,-0.58l0,0z" fill="#4C6186" fill-rule="evenodd" id="svg_117"/>
   </g>
   <g id="svg_114" transform="translate(-149 -8) translate(82.975 -66.535)">
    <path clip-rule="evenodd" d="m207.58,305.71c0.32,0 0.57,0.26 0.57,0.58c0,0.31 -0.25,0.57 -0.57,0.57c-0.32,0 -0.57,-0.26 -0.57,-0.57c0,-0.32 0.25,-0.58 0.57,-0.58l0,0z" fill="#4C6186" fill-rule="evenodd" id="svg_115"/>
   </g>
   <g id="svg_112" transform="translate(-149 -8) translate(82.975 -66.535)">
    <path clip-rule="evenodd" d="m292.1,305.71c0.32,0 0.57,0.26 0.57,0.58c0,0.31 -0.25,0.57 -0.57,0.57c-0.32,0 -0.57,-0.26 -0.57,-0.57c0,-0.32 0.25,-0.58 0.57,-0.58l0,0z" fill="#4C6186" fill-rule="evenodd" id="svg_113"/>
   </g>
   <g id="svg_110" transform="translate(-149 -8) translate(82.975 -66.535)">
    <path clip-rule="evenodd" d="m214.02,305.71c0.31,0 0.57,0.26 0.57,0.58c0,0.31 -0.26,0.57 -0.57,0.57c-0.32,0 -0.58,-0.26 -0.58,-0.57c0,-0.32 0.26,-0.58 0.58,-0.58l0,0z" fill="#4C6186" fill-rule="evenodd" id="svg_111"/>
   </g>
   <g id="svg_108" transform="translate(-149 -8) translate(82.975 -66.535)">
    <path clip-rule="evenodd" d="m298.54,305.71c0.31,0 0.57,0.26 0.57,0.58c0,0.31 -0.26,0.57 -0.57,0.57c-0.32,0 -0.58,-0.26 -0.58,-0.57c0,-0.32 0.26,-0.58 0.58,-0.58l0,0z" fill="#4C6186" fill-rule="evenodd" id="svg_109"/>
   </g>
   <g id="svg_106" transform="translate(-149 -8) translate(82.975 -66.535)">
    <path clip-rule="evenodd" d="m220.45,305.71c0.32,0 0.58,0.26 0.58,0.58c0,0.31 -0.26,0.57 -0.58,0.57c-0.31,0 -0.57,-0.26 -0.57,-0.57c0,-0.32 0.26,-0.58 0.57,-0.58l0,0z" fill="#4C6186" fill-rule="evenodd" id="svg_107"/>
   </g>
   <g id="svg_104" transform="translate(-149 -8) translate(82.975 -66.535)">
    <path clip-rule="evenodd" d="m304.97,305.71c0.32,0 0.58,0.26 0.58,0.58c0,0.31 -0.26,0.57 -0.58,0.57s-0.57,-0.26 -0.57,-0.57c0,-0.32 0.26,-0.58 0.57,-0.58l0,0z" fill="#4C6186" fill-rule="evenodd" id="svg_105"/>
   </g>
   <g id="svg_102" transform="translate(-149 -8) translate(82.975 -66.535)">
    <path clip-rule="evenodd" d="m230.23,305.71c0.32,0 0.58,0.26 0.58,0.58c0,0.31 -0.26,0.57 -0.58,0.57s-0.57,-0.26 -0.57,-0.57c0,-0.32 0.26,-0.58 0.57,-0.58l0,0z" fill="#4C6186" fill-rule="evenodd" id="svg_103"/>
   </g>
   <g id="svg_100" transform="translate(-149 -8) translate(82.975 -66.535)">
    <path clip-rule="evenodd" d="m314.75,305.71c0.32,0 0.58,0.26 0.58,0.58c0,0.31 -0.26,0.57 -0.58,0.57c-0.31,0 -0.57,-0.26 -0.57,-0.57c0,-0.32 0.26,-0.58 0.57,-0.58l0,0z" fill="#4C6186" fill-rule="evenodd" id="svg_101"/>
   </g>
   <g id="svg_98" transform="translate(-149 -8) translate(82.975 -66.535)">
    <path clip-rule="evenodd" d="m236.92,305.71c0.31,0 0.57,0.26 0.57,0.58c0,0.31 -0.26,0.57 -0.57,0.57s-0.58,-0.26 -0.58,-0.57c0,-0.32 0.26,-0.58 0.58,-0.58l0,0z" fill="#4C6186" fill-rule="evenodd" id="svg_99"/>
   </g>
   <g id="svg_96" transform="translate(-149 -8) translate(82.975 -66.535)">
    <path clip-rule="evenodd" d="m321.44,305.71c0.31,0 0.57,0.26 0.57,0.58c0,0.31 -0.26,0.57 -0.57,0.57s-0.58,-0.26 -0.58,-0.57c0,-0.32 0.26,-0.58 0.58,-0.58l0,0z" fill="#4C6186" fill-rule="evenodd" id="svg_97"/>
   </g>
   <g id="svg_94" transform="translate(-149 -8) translate(82.975 -66.535)">
    <polygon clip-rule="evenodd" fill="#4C6186" fill-rule="evenodd" id="svg_95" points="264.92,294.535 312.209,294.535 312.209,296.484     292.713,296.484 292.713,295.306 265.024,295.306 264.92,294.535   "/>
   </g>
   <g id="svg_92" transform="translate(-149 -8) translate(82.975 -66.535)">
    <polygon clip-rule="evenodd" fill="#4C6186" fill-rule="evenodd" id="svg_93" points="266.185,283.364 296.422,283.364 296.422,284.539     266.185,284.539 266.185,283.364   "/>
   </g>
   <g id="svg_90" transform="translate(-149 -8) translate(82.975 -66.535)">
    <polygon clip-rule="evenodd" fill="#4C6186" fill-rule="evenodd" id="svg_91" points="266.438,284.044 275.093,284.044 273.375,287.391     264.72,287.391 266.438,284.044   "/>
   </g>
   <g id="svg_88" transform="translate(-149 -8) translate(82.975 -66.535)">
    <polygon clip-rule="evenodd" fill="#A3B9C6" fill-rule="evenodd" id="svg_89" points="272.945,294.101 313.727,294.101 313.727,294.537     272.945,294.537 272.945,294.101   "/>
   </g>
   <g id="svg_86" transform="translate(-149 -8) translate(82.975 -66.535)">
    <polygon clip-rule="evenodd" fill="#C9D5DC" fill-rule="evenodd" id="svg_87" points="262.583,271.485 279.071,271.485 279.071,271.92     262.583,271.92 262.583,271.485   "/>
   </g>
   <g id="svg_84" transform="translate(-149 -8) translate(82.975 -66.535)">
    <polygon clip-rule="evenodd" fill="#C9D5DC" fill-rule="evenodd" id="svg_85" points="283.1,277.488 296.332,277.488 296.332,277.923     283.1,277.923 283.1,277.488   "/>
   </g>
   <g id="svg_82" transform="translate(-149 -8) translate(82.975 -66.535)">
    <polygon clip-rule="evenodd" fill="#4C6186" fill-rule="evenodd" id="svg_83" points="265.725,294.658 274.38,294.658 272.663,298.006     265.116,298.006 265.082,295.911 265.725,294.658   "/>
   </g>
   <g id="svg_80" transform="translate(-149 -8) translate(82.975 -66.535)">
    <path d="m283.37,283.02l-0.32,0l0,-0.02l-13.83,0l0,0.02l-0.31,0l0,-0.02l-2.67,0l0,-1.9l0.32,0l0,0.04l2.32,0l0,-0.04l0.32,0l0,0.02l0.02,0l0,0.02l2.54,0l0,-0.03l0.32,0l0,0.03l2.56,0l0,-0.03l0.31,0l0,0.03l2.56,0l0,-0.03l0.32,0l0,0.03l2.56,0l0,-0.03l0.32,0l0,0.03l2.34,0l0,-0.02l0.32,0l0,1.9zm-2.66,-0.23l2.34,0l0,-0.23l-2.34,0l0,0.23zm-2.88,0l2.56,0l0,-0.23l-2.56,0l0,0.23zm-2.88,0l2.56,0l0,-0.23l-2.56,0l0,0.23zm-2.87,0l2.56,0l0,-0.23l-2.56,0l0,0.23zm-2.86,0l2.54,0l0,-0.23l-2.54,0l0,0.23zm-2.66,0l2.32,0l0,-0.23l-2.32,0l0,0.23zm14.15,-0.45l2.34,0l0,-0.39l-2.34,0l0,0.39zm-2.88,0l2.56,0l0,-0.39l-2.56,0l0,0.39zm-2.88,0l2.56,0l0,-0.39l-2.56,0l0,0.39zm-2.87,0l2.56,0l0,-0.39l-2.56,0l0,0.39zm-2.86,0l2.54,0l0,-0.39l-2.54,0l0,0.39zm-2.66,0l2.32,0l0,-0.39l-2.32,0l0,0.39zm14.15,-0.61l2.34,0l0,-0.37l-2.34,0l0,0.37zm-2.88,0l2.56,0l0,-0.37l-2.56,0l0,0.37zm-2.88,0l2.56,0l0,-0.37l-2.56,0l0,0.37zm-2.87,0l2.56,0l0,-0.37l-2.56,0l0,0.37zm-2.86,0l2.54,0l0,-0.37l-2.54,0l0,0.37zm-2.66,0l2.32,0l0,-0.37l-2.32,0l0,0.37z" fill="#231F20" id="svg_81"/>
   </g>
   <g id="svg_78" transform="translate(-149 -8) translate(82.975 -66.535)">
    <polygon clip-rule="evenodd" fill="#A3B9C6" fill-rule="evenodd" id="svg_79" points="266.185,282.931 297.749,282.931 297.749,283.366     266.185,283.366 266.185,282.931   "/>
   </g>
   <g id="svg_76" transform="translate(-149 -8) translate(82.975 -66.535)">
    <path d="m313.65,294.18l-0.32,0l0,-0.02l-40.5,0l0,-1.9l0.32,0l0,0.04l2.59,0l0,-0.04l0.32,0l0,0.04l2.59,0l0,-0.04l0.32,0l0,0.04l2.59,0l0,-0.04l0.32,0l0,0.04l2.59,0l0,-0.04l0.31,0l0,0.04l2.59,0l0,-0.04l0.32,0l0,0.04l2.59,0l0,-0.04l0.32,0l0,0.04l2.59,0l0,-0.04l0.32,0l0,0.04l2.59,0l0,-0.04l0.32,0l0,0.04l2.59,0l0,-0.04l0.32,0l0,0.04l2.59,0l0,-0.04l0.31,0l0,0.04l2.59,0l0,-0.04l0.32,0l0,0.04l2.59,0l0,-0.04l0.32,0l0,0.04l2.59,0l0,-0.04l0.32,0l0,0.04l2.37,0l0,-0.02l0.32,0l0,1.9zm-2.69,-0.23l2.38,0l0,-0.23l-2.38,0l0,0.23zm-2.91,0l2.59,0l0,-0.23l-2.59,0l0,0.23zm-2.91,0l2.59,0l0,-0.23l-2.59,0l0,0.23zm-2.9,0l2.58,0l0,-0.23l-2.58,0l0,0.23zm-2.91,0l2.59,0l0,-0.23l-2.59,0l0,0.23zm-2.91,0l2.59,0l0,-0.23l-2.59,0l0,0.23zm-2.91,0l2.59,0l0,-0.23l-2.59,0l0,0.23zm-2.91,0l2.59,0l0,-0.23l-2.59,0l0,0.23zm-2.91,0l2.59,0l0,-0.23l-2.59,0l0,0.23zm-2.9,0l2.58,0l0,-0.23l-2.58,0l0,0.23zm-2.91,0l2.59,0l0,-0.23l-2.59,0l0,0.23zm-2.91,0l2.59,0l0,-0.23l-2.59,0l0,0.23zm-2.91,0l2.59,0l0,-0.23l-2.59,0l0,0.23zm-2.91,0l2.59,0l0,-0.23l-2.59,0l0,0.23zm37.81,-0.45l2.38,0l0,-0.39l-2.38,0l0,0.39zm-2.91,0l2.59,0l0,-0.39l-2.59,0l0,0.39zm-2.91,0l2.59,0l0,-0.39l-2.59,0l0,0.39zm-2.9,0l2.58,0l0,-0.39l-2.58,0l0,0.39zm-2.91,0l2.59,0l0,-0.39l-2.59,0l0,0.39zm-2.91,0l2.59,0l0,-0.39l-2.59,0l0,0.39zm-2.91,0l2.59,0l0,-0.39l-2.59,0l0,0.39zm-2.91,0l2.59,0l0,-0.39l-2.59,0l0,0.39zm-2.91,0l2.59,0l0,-0.39l-2.59,0l0,0.39zm-2.9,0l2.58,0l0,-0.39l-2.58,0l0,0.39zm-2.91,0l2.59,0l0,-0.39l-2.59,0l0,0.39zm-2.91,0l2.59,0l0,-0.39l-2.59,0l0,0.39zm-2.91,0l2.59,0l0,-0.39l-2.59,0l0,0.39zm-2.91,0l2.59,0l0,-0.39l-2.59,0l0,0.39zm37.81,-0.61l2.38,0l0,-0.37l-2.38,0l0,0.37zm-2.91,0l2.59,0l0,-0.37l-2.59,0l0,0.37zm-2.91,0l2.59,0l0,-0.37l-2.59,0l0,0.37zm-2.9,0l2.58,0l0,-0.37l-2.58,0l0,0.37zm-2.91,0l2.59,0l0,-0.37l-2.59,0l0,0.37zm-2.91,0l2.59,0l0,-0.37l-2.59,0l0,0.37zm-2.91,0l2.59,0l0,-0.37l-2.59,0l0,0.37zm-2.91,0l2.59,0l0,-0.37l-2.59,0l0,0.37zm-2.91,0l2.59,0l0,-0.37l-2.59,0l0,0.37zm-2.9,0l2.58,0l0,-0.37l-2.58,0l0,0.37zm-2.91,0l2.59,0l0,-0.37l-2.59,0l0,0.37zm-2.91,0l2.59,0l0,-0.37l-2.59,0l0,0.37zm-2.91,0l2.59,0l0,-0.37l-2.59,0l0,0.37zm-2.91,0l2.59,0l0,-0.37l-2.59,0l0,0.37zm13,-9.87l-0.32,0l0,-0.02l-2.66,0l0,-1.9l0.32,0l0,0.04l2.32,0l0,-0.04l0.32,0l0,0.02l0.02,0l0,0.02l2.54,0l0,-0.03l0.31,0l0,0.03l2.56,0l0,-0.03l0.32,0l0,0.03l2.56,0l0,-0.03l0.32,0l0,0.03l2.56,0l0,-0.03l0.32,0l-0.01,1.89l-11.48,0l0,0.02zm8.61,-0.23l2.56,0l0,-0.23l-2.56,0l0,0.23zm-2.88,0l2.56,0l0,-0.23l-2.56,0l0,0.23zm-2.87,0l2.56,0l0,-0.23l-2.56,0l0,0.23zm-2.86,0l2.54,0l0,-0.23l-2.54,0l0,0.23zm-2.66,0l2.32,0l0,-0.23l-2.32,0l0,0.23zm11.27,-0.45l2.56,0l0,-0.39l-2.56,0l0,0.39zm-2.88,0l2.56,0l0,-0.39l-2.56,0l0,0.39zm-2.87,0l2.56,0l0,-0.39l-2.56,0l0,0.39zm-2.86,0l2.54,0l0,-0.39l-2.54,0l0,0.39zm-2.66,0l2.32,0l0,-0.39l-2.32,0l0,0.39zm11.27,-0.61l2.56,0l0,-0.37l-2.56,0l0,0.37zm-2.88,0l2.56,0l0,-0.37l-2.56,0l0,0.37zm-2.87,0l2.56,0l0,-0.37l-2.56,0l0,0.37zm-2.86,0l2.54,0l0,-0.37l-2.54,0l0,0.37zm-2.66,0l2.32,0l0,-0.37l-2.32,0l0,0.37z" fill="#231F20" id="svg_77"/>
   </g>
   <g id="svg_74" transform="translate(-149 -8) translate(82.975 -66.535)">
    <polygon clip-rule="evenodd" fill="#7894AE" fill-rule="evenodd" id="svg_75" points="310.937,288.317 311.994,288.317 311.994,280.531     310.937,280.531 310.937,288.317   "/>
   </g>
   <g id="svg_72" transform="translate(-149 -8) translate(82.975 -66.535)">
    <polygon clip-rule="evenodd" fill="#A3B9C6" fill-rule="evenodd" id="svg_73" points="315.883,284.578 314.925,285.118 313.967,285.657     313.967,284.578 313.967,283.499 314.925,284.038 315.883,284.578   "/>
   </g>
   <g id="svg_70" transform="translate(-149 -8) translate(82.975 -66.535)">
    <polygon clip-rule="evenodd" fill="#4C6186" fill-rule="evenodd" id="svg_71" points="311.466,284.578 312.716,285.785 313.966,286.992     313.966,284.578 313.966,282.164 312.716,283.371 311.466,284.578   "/>
   </g>
   <g id="svg_68" transform="translate(-149 -8) translate(82.975 -66.535)">
    <polygon clip-rule="evenodd" fill="#7894AE" fill-rule="evenodd" id="svg_69" points="313.966,285.759 313.966,284.578 313.966,282.164     312.716,283.371 311.805,284.25 313.966,285.759   "/>
   </g>
   <g id="svg_66" transform="translate(-149 -8) translate(82.975 -66.535)">
    <polygon clip-rule="evenodd" fill="#7894AE" fill-rule="evenodd" id="svg_67" points="308.919,280.146 313.436,280.146 313.436,281.011     308.919,281.011 308.919,280.146   "/>
   </g>
   <g id="svg_64" transform="translate(-149 -8) translate(82.975 -66.535)">
    <polygon clip-rule="evenodd" fill="#4C6186" fill-rule="evenodd" id="svg_65" points="267.503,288.894 269.104,288.894 269.104,292.704     267.503,292.704 267.503,288.894   "/>
   </g>
   <g id="svg_62" transform="translate(-149 -8) translate(82.975 -66.535)">
    <polygon clip-rule="evenodd" fill="#A3B9C6" fill-rule="evenodd" id="svg_63" points="263.826,291.306 273.124,291.306 273.124,294.101     263.826,294.101 263.826,291.306   "/>
   </g>
   <g id="svg_60" transform="translate(-149 -8) translate(82.975 -66.535)">
    <polygon clip-rule="evenodd" fill="#7894AE" fill-rule="evenodd" id="svg_61" points="263.826,292.019 272.867,292.019 272.867,294.535     263.826,294.535 263.826,292.019   "/>
   </g>
   <g id="svg_58" transform="translate(-149 -8) translate(82.975 -66.535)">
    <polygon clip-rule="evenodd" fill="#4C6186" fill-rule="evenodd" id="svg_59" points="264.913,291.306 263.828,291.306 263.828,294.535     264.913,294.535 264.913,291.306   "/>
   </g>
   <g id="svg_56" transform="translate(-149 -8) translate(82.975 -66.535)">
    <polygon clip-rule="evenodd" fill="#A3B9C6" fill-rule="evenodd" id="svg_57" points="273.361,298.288 276.055,298.288 276.055,298.553     273.361,298.553 273.361,298.288   "/>
   </g>
   <g id="svg_54" transform="translate(-149 -8) translate(82.975 -66.535)">
    <path clip-rule="evenodd" d="m277.59,297.6l-0.88,0c-0.61,0 -1.11,0.5 -1.11,1.11l0,1.29c0,0.15 0.03,0.29 0.08,0.42l2.93,0c0.06,-0.13 0.09,-0.27 0.09,-0.42l0,-1.29c0,-0.61 -0.5,-1.11 -1.11,-1.11l0,0z" fill="#C9D5DC" fill-rule="evenodd" id="svg_55"/>
   </g>
   <g id="svg_52" transform="translate(-149 -8) translate(82.975 -66.535)">
    <path clip-rule="evenodd" d="m275.75,298.16c-0.1,0.16 -0.15,0.35 -0.15,0.55l0,1.29c0,0.15 0.03,0.29 0.08,0.42l2.47,0l0,-1.23c0,-0.61 -0.5,-1.11 -1.11,-1.11l-0.88,0c-0.15,0 -0.28,0.02 -0.41,0.08l0,0z" fill="#A3B9C6" fill-rule="evenodd" id="svg_53"/>
   </g>
   <g id="svg_50" transform="translate(-149 -8) translate(82.975 -66.535)">
    <polygon clip-rule="evenodd" fill="#A3B9C6" fill-rule="evenodd" id="svg_51" points="275.444,299.121 278.845,299.121 279.303,300.388     274.951,300.388 275.444,299.121   "/>
   </g>
   <g id="svg_48" transform="translate(-149 -8) translate(82.975 -66.535)">
    <polygon clip-rule="evenodd" fill="#7894AE" fill-rule="evenodd" id="svg_49" points="275.556,299.294 275.805,299.294 275.419,300.27     275.17,300.27 275.556,299.294   "/>
   </g>
   <g id="svg_46" transform="translate(-149 -8) translate(82.975 -66.535)">
    <path clip-rule="evenodd" d="m276.13,299.29c0.09,0 0.17,0 0.25,0c-0.08,0.33 -0.15,0.65 -0.23,0.98c-0.09,0 -0.17,0 -0.25,0c0.08,-0.33 0.16,-0.65 0.23,-0.98l0,0z" fill="#7894AE" fill-rule="evenodd" id="svg_47"/>
   </g>
   <g id="svg_44" transform="translate(-149 -8) translate(82.975 -66.535)">
    <path clip-rule="evenodd" d="m276.71,299.29c0.08,0 0.16,0 0.25,0c-0.03,0.33 -0.06,0.65 -0.08,0.98c-0.09,0 -0.17,0 -0.25,0c0.02,-0.33 0.05,-0.65 0.08,-0.98l0,0z" fill="#7894AE" fill-rule="evenodd" id="svg_45"/>
   </g>
   <g id="svg_42" transform="translate(-149 -8) translate(82.975 -66.535)">
    <path clip-rule="evenodd" d="m277.28,299.29c0.09,0 0.17,0 0.25,0c0.03,0.33 0.05,0.65 0.07,0.98c-0.08,0 -0.16,0 -0.24,0c-0.03,-0.33 -0.05,-0.65 -0.08,-0.98l0,0z" fill="#7894AE" fill-rule="evenodd" id="svg_43"/>
   </g>
   <g id="svg_40" transform="translate(-149 -8) translate(82.975 -66.535)">
    <path clip-rule="evenodd" d="m277.86,299.29c0.08,0 0.16,0 0.25,0c0.07,0.33 0.15,0.65 0.22,0.98c-0.08,0 -0.16,0 -0.25,0c-0.07,-0.33 -0.15,-0.65 -0.22,-0.98l0,0z" fill="#7894AE" fill-rule="evenodd" id="svg_41"/>
   </g>
   <g id="svg_38" transform="translate(-149 -8) translate(82.975 -66.535)">
    <polygon clip-rule="evenodd" fill="#7894AE" fill-rule="evenodd" id="svg_39" points="278.434,299.294 278.683,299.294 279.06,300.27     278.811,300.27 278.434,299.294   "/>
   </g>
   <g id="svg_36" transform="translate(-149 -8) translate(82.975 -66.535)">
    <polygon clip-rule="evenodd" fill="#A3B9C6" fill-rule="evenodd" id="svg_37" points="278.625,289.12 281.782,289.12 281.782,291.603     278.625,291.603 278.625,289.12   "/>
   </g>
   <g id="svg_34" transform="translate(-149 -8) translate(82.975 -66.535)">
    <polygon clip-rule="evenodd" fill="#4C6186" fill-rule="evenodd" id="svg_35" points="278.823,288.898 281.979,288.898 281.979,291.38     278.823,291.38 278.823,288.898   "/>
   </g>
   <g id="svg_32" transform="translate(-149 -8) translate(82.975 -66.535)">
    <polygon clip-rule="evenodd" fill="#A3B9C6" fill-rule="evenodd" id="svg_33" points="282.579,289.12 285.736,289.12 285.736,291.603     282.579,291.603 282.579,289.12   "/>
   </g>
   <g id="svg_30" transform="translate(-149 -8) translate(82.975 -66.535)">
    <polygon clip-rule="evenodd" fill="#4C6186" fill-rule="evenodd" id="svg_31" points="282.777,288.898 285.933,288.898 285.933,291.38     282.777,291.38 282.777,288.898   "/>
   </g>
   <g id="svg_28" transform="translate(-149 -8) translate(82.975 -66.535)">
    <polygon clip-rule="evenodd" fill="#A3B9C6" fill-rule="evenodd" id="svg_29" points="143.627,303.014 386.194,303.014 386.194,303.449     143.627,303.449 143.627,303.014   "/>
   </g>
   <g id="svg_26" transform="translate(-149 -8) translate(82.975 -66.535)">
    <polygon clip-rule="evenodd" fill="#7894AE" fill-rule="evenodd" id="svg_27" points="336.879,288.907 333.974,289.724 334.044,289.974     336.949,289.157 336.879,288.907   "/>
   </g>
   <g id="svg_24" transform="translate(-149 -8) translate(82.975 -66.535)">
    <polygon clip-rule="evenodd" fill="#7894AE" fill-rule="evenodd" id="svg_25" points="336.429,288.69 336.79,288.588 337.039,289.477     336.679,289.578 336.429,288.69   "/>
   </g>
   <g id="svg_22" transform="translate(-149 -8) translate(82.975 -66.535)">
    <path d="m333.92,289.44l-0.01,-0.03l-1.51,-0.01l0.14,-0.9l4.4,-1.45l0.03,0.93l-0.06,0.03l-2.79,1.35l0.01,0.01l-0.21,0.07zm-1.27,-0.25l1.19,0l-0.28,-0.79l-0.82,0.27l-0.09,0.52zm1.11,-0.86l0.29,0.82l2.7,-1.3l-0.02,-0.5l-2.97,0.98z" fill="#7894AE" id="svg_23"/>
   </g>
   <g id="svg_20" transform="translate(-149 -8) translate(82.975 -66.535)">
    <path d="m334.67,300.88c-0.02,0 -0.03,0 -0.05,-0.01l-2.06,-0.97c-0.04,-0.02 -0.06,-0.07 -0.06,-0.12c0.02,-0.05 0.06,-0.09 0.11,-0.09l1.64,0l-1.41,-0.77c-0.04,-0.02 -0.06,-0.07 -0.05,-0.12c0.01,-0.04 0.06,-0.08 0.1,-0.08l1.39,0l-1.29,-0.77c-0.04,-0.02 -0.06,-0.07 -0.05,-0.12c0.02,-0.05 0.06,-0.08 0.11,-0.08l1.28,0l-1.09,-0.78c-0.03,-0.02 -0.05,-0.07 -0.04,-0.12c0.02,-0.04 0.06,-0.07 0.11,-0.07l1.07,0l-0.91,-0.78c-0.04,-0.03 -0.05,-0.08 -0.03,-0.12c0.01,-0.04 0.05,-0.07 0.1,-0.07l0.89,0l-0.71,-0.79c-0.03,-0.04 -0.04,-0.08 -0.02,-0.12s0.05,-0.06 0.1,-0.06l0.67,0l-0.51,-0.81c-0.02,-0.03 -0.02,-0.08 0,-0.11c0.02,-0.04 0.06,-0.06 0.1,-0.06l0.61,0c0.06,0 0.1,0.05 0.1,0.11l0,0.97c0,0 0,0 0,0l0,0l0,0.97c0,0 0,0 0,0.01l0,0l0,0.97l0,0c0,0 0,0 0,0l0,0.97l0,0c0,0 0,0 0,0l0,2.91c0,0.04 -0.02,0.07 -0.05,0.09c-0.01,0.01 -0.03,0.02 -0.05,0.02zm-1.58,-0.97l1.47,0.69l0,-0.69l-1.47,0zm0.23,-0.97l1.24,0.68l0,-0.68l-1.24,0zm0.12,-0.97l1.12,0.67l0,-0.67l-1.12,0zm0.21,-0.97l0.91,0.65l0,-0.65l-0.91,0zm0.18,-0.98l0.73,0.63l0,-0.63l-0.73,0zm0.21,-0.97l0.52,0.58l0,-0.58l-0.52,0zm0.21,-0.97l0.31,0.49l0,-0.49l-0.31,0z" fill="#7894AE" id="svg_21"/>
   </g>
   <g id="svg_18" transform="translate(-149 -8) translate(82.975 -66.535)">
    <path clip-rule="evenodd" d="m336.85,284.95l0,0c0.2,0 0.37,0.03 0.37,0.07l0,3.02c0,0.04 -0.17,0.08 -0.37,0.08l0,0c-0.21,0 -0.37,-0.04 -0.37,-0.08l0,-3.02c0,-0.04 0.16,-0.07 0.37,-0.07l0,0z" fill="#7894AE" fill-rule="evenodd" id="svg_19"/>
   </g>
   <g id="svg_16" transform="translate(-149 -8) translate(82.975 -66.535)">
    <polygon clip-rule="evenodd" fill="#4C6186" fill-rule="evenodd" id="svg_17" points="308.687,283.272 312.932,283.272 312.932,285.885     308.687,285.885 308.687,283.272   "/>
   </g>
   <g id="svg_14" transform="translate(-149 -8) translate(82.975 -66.535)">
    <polygon clip-rule="evenodd" fill="#7894AE" fill-rule="evenodd" id="svg_15" points="308.687,283.272 312.932,283.272 312.932,285.144     308.687,285.144 308.687,283.272   "/>
   </g>
   <g id="svg_12" transform="translate(-149 -8) translate(82.975 -66.535)">
    <polygon clip-rule="evenodd" fill="#A3B9C6" fill-rule="evenodd" id="svg_13" points="300.02,273.467 299.062,274.007 298.104,274.547     298.104,273.467 298.104,272.389 299.062,272.928 300.02,273.467   "/>
   </g>
   <g id="svg_10" transform="translate(-149 -8) translate(82.975 -66.535)">
    <polygon clip-rule="evenodd" fill="#4C6186" fill-rule="evenodd" id="svg_11" points="295.603,273.467 296.853,274.674 298.104,275.881     298.104,273.467 298.104,271.054 296.853,272.26 295.603,273.467   "/>
   </g>
   <g id="svg_8" transform="translate(-149 -8) translate(82.975 -66.535)">
    <polygon clip-rule="evenodd" fill="#7894AE" fill-rule="evenodd" id="svg_9" points="298.104,274.649 298.104,273.467 298.104,271.054     296.853,272.26 295.942,273.14 298.104,274.649   "/>
   </g>
   <g id="svg_6" transform="translate(-149 -8) translate(82.975 -66.535)">
    <polygon clip-rule="evenodd" fill="#4C6186" fill-rule="evenodd" id="svg_7" points="292.824,272.162 297.069,272.162 297.069,274.774     292.824,274.774 292.824,272.162   "/>
   </g>
   <g id="svg_4" transform="translate(-149 -8) translate(82.975 -66.535)">
    <polygon clip-rule="evenodd" fill="#7894AE" fill-rule="evenodd" id="svg_5" points="292.824,272.162 297.069,272.162 297.069,274.034     292.824,274.034 292.824,272.162   "/>
   </g>
   <g id="svg_2" transform="translate(-149 -8) translate(82.975 -66.535)">
    <polygon clip-rule="evenodd" fill="#7894AE" fill-rule="evenodd" id="svg_3" points="277.499,265.666 279.071,265.666 279.071,271.485     277.499,271.485 277.499,265.666   "/>
   </g>
  </g>
 </g>
</svg>
