<svg preserveAspectRatio="none" xmlns="http://www.w3.org/2000/svg" xmlns:svg="http://www.w3.org/2000/svg" enable-background="new 0 0 450 450" version="1.1" xml:space="preserve" viewBox="74.26 56.71 239.48 46.59">
 <g class="layer" display="inline">
  <title>Layer 1</title>
  <g id="svg_1395" transform="translate(-432 -145) translate(470.85 -167.675)">
   <path d="m54.95,415.02c-0.06,0.16 -0.29,0.3 -0.5,0.3l-13.61,0c-0.22,0 -0.4,-0.14 -0.4,-0.3l0,-11.22c0,-0.29 0.24,-0.52 0.53,-0.52l18.06,0c0.28,0 0.43,0.23 0.32,0.52l-4.4,11.22z" fill="#254254" id="svg_1396"/>
   <path d="m64.12,399.73c0.42,1.77 -0.76,3.27 -2.65,3.27l-10.28,0c-1.89,0 -3.42,2.33 -3.42,0.56l0,-17.72c0,-1.09 1.13,-1.93 2.53,-1.93l7.58,0c1.39,0 2.72,0.85 2.98,1.93l3.26,13.89z" fill="#254254" id="svg_1397"/>
   <path d="m49.66,385.17l7.58,0c1.4,0 2.73,0.85 2.98,1.93l3.27,13.89c0.1,0.42 0.11,0.81 0.04,1.18c0.57,-0.6 0.82,-1.48 0.59,-2.44l-3.27,-13.89c-0.25,-1.08 -1.58,-1.93 -2.98,-1.93l-7.58,0c-1.38,0 -2.51,0.84 -2.52,1.91c0.46,-0.4 1.14,-0.65 1.89,-0.65z" fill="#008096" id="svg_1398"/>
   <g id="svg_1399">
    <path d="m132.8,377.87c0,0.47 -0.37,0.84 -0.84,0.84l0,0c-0.46,0 -0.84,-0.37 -0.84,-0.84l0,-7.02c0,-0.46 0.38,-0.84 0.84,-0.84l0,0c0.47,0 0.84,0.38 0.84,0.84l0,7.02z" fill="#29516A" id="svg_1400"/>
    <path d="m137.05,379.98c0,0.46 -0.38,0.84 -0.84,0.84l0,0c-0.47,0 -0.84,-0.38 -0.84,-0.84l0,-7.02c0,-0.47 0.37,-0.84 0.84,-0.84l0,0c0.46,0 0.84,0.37 0.84,0.84l0,7.02z" fill="#29516A" id="svg_1401"/>
    <path d="m140.14,379.27c0,0.47 -0.38,0.85 -0.84,0.85l0,0c-0.47,0 -0.85,-0.38 -0.85,-0.85l0,-7.01c0,-0.47 0.38,-0.85 0.85,-0.85l0,0c0.46,0 0.84,0.38 0.84,0.85l0,7.01z" fill="#29516A" id="svg_1402"/>
    <path d="m154.23,377.05c0,0.2 -0.17,0.36 -0.37,0.36l0,0c-0.2,0 -0.36,-0.16 -0.36,-0.36l0,-6.99c0,-0.2 0.16,-0.36 0.36,-0.36l0,0c0.2,0 0.37,0.16 0.37,0.36l0,6.99z" fill="#29516A" id="svg_1403"/>
    <path d="m156.33,376.73c0,0.2 -0.16,0.36 -0.36,0.36l0,0c-0.2,0 -0.37,-0.16 -0.37,-0.36l0,-6.98c0,-0.21 0.17,-0.37 0.37,-0.37l0,0c0.2,0 0.36,0.16 0.36,0.37l0,6.98z" fill="#29516A" id="svg_1404"/>
   </g>
   <path d="m160.92,387.98c0,1.46 -1.23,2.67 -2.72,2.67l-33.96,0c-1.3,0 -2.18,-1.11 -1.97,-2.47l1.52,-9.9c0.19,-1.24 1.34,-2.26 2.57,-2.3l32,-0.98c1.41,-0.04 2.55,0.99 2.55,2.32l0,10.66l0.01,0z" fill="#008096" id="svg_1405"/>
   <path d="m274.89,403.48c0,6.9 -5.59,12.49 -12.49,12.49l-154.57,0c-6.9,0 -59.36,-5.59 -59.36,-12.49l0,0c0,-6.89 52.46,-12.49 59.36,-12.49l154.57,0c6.9,0 12.49,5.59 12.49,12.49l0,0z" fill="#008096" id="svg_1406"/>
   <path d="m112.49,390.99c2.95,3.42 10.2,5.84 18.69,5.84l15.57,0c8.49,0 15.75,-2.42 18.7,-5.84l-52.96,0z" fill="#254254" id="svg_1407"/>
   <path d="m53.65,399.66c-2.1,0.79 -3.67,1.61 -4.5,2.46l225.66,0c-0.09,-0.85 -0.27,-1.67 -0.52,-2.46l-220.64,0z" fill="#F2736D" id="svg_1408"/>
   <path d="m164.39,390.99c-0.23,-2.86 -4.69,-4.81 -12.28,-4.81l-15.45,0c-7.58,0 -16.3,1.95 -22.81,4.81l50.54,0z" fill="#F2736D" id="svg_1409"/>
   <path d="m50.04,401.4c-1.01,0.67 -1.57,1.37 -1.57,2.08c0,6.9 52.46,12.49 59.36,12.49l154.57,0c6.89,0 12.49,-5.59 12.49,-12.49c0,-0.71 -0.07,-1.41 -0.18,-2.08l-224.67,0z" fill="#29516A" id="svg_1410"/>
   <path d="m160.56,376.1c-0.45,-0.68 -1.26,-1.13 -2.2,-1.1l-32,0.98c-0.91,0.03 -1.77,0.59 -2.24,1.39l36.44,-1.27z" fill="#F2736D" id="svg_1411"/>
   <path d="m265.1,395.84c0,0.23 -0.19,0.42 -0.43,0.42l-19.78,0c-0.23,0 -0.42,-0.19 -0.42,-0.42l0,-0.52c0,-0.24 0.19,-0.42 0.42,-0.42l19.78,0c0.24,0 0.43,0.18 0.43,0.42l0,0.52z" fill="#254254" id="svg_1412"/>
   <path d="m262.93,396.29c0,0.23 -0.19,0.42 -0.42,0.42l-7.47,0c-0.24,0 -0.42,-0.19 -0.42,-0.42l0,-1.44c0,-0.23 0.18,-0.42 0.42,-0.42l7.47,0c0.23,0 0.42,0.19 0.42,0.42l0,1.44z" fill="#E4355C" id="svg_1413"/>
   <g id="svg_1414">
    <path d="m241.06,399.14c0,0.16 0.13,0.29 0.29,0.29l2.85,0c0.16,0 0.29,-0.13 0.29,-0.29l0,-0.71c0,-0.16 -0.13,-0.29 -0.29,-0.29l-2.85,0c-0.16,0 -0.29,0.13 -0.29,0.29l0,0.71z" fill="#254254" id="svg_1415"/>
    <path d="m237.08,399.14c0,0.16 0.13,0.29 0.29,0.29l2.85,0c0.16,0 0.29,-0.13 0.29,-0.29l0,-0.71c0,-0.16 -0.13,-0.29 -0.29,-0.29l-2.85,0c-0.16,0 -0.29,0.13 -0.29,0.29l0,0.71z" fill="#254254" id="svg_1416"/>
    <path d="m233.11,399.14c0,0.16 0.12,0.29 0.28,0.29l2.86,0c0.15,0 0.28,-0.13 0.28,-0.29l0,-0.71c0,-0.16 -0.12,-0.29 -0.28,-0.29l-2.86,0c-0.16,0 -0.28,0.13 -0.28,0.29l0,0.71z" fill="#254254" id="svg_1417"/>
    <path d="m229.13,399.14c0,0.16 0.13,0.29 0.28,0.29l2.86,0c0.16,0 0.28,-0.13 0.28,-0.29l0,-0.71c0,-0.16 -0.13,-0.29 -0.28,-0.29l-2.86,0c-0.16,0 -0.28,0.13 -0.28,0.29l0,0.71z" fill="#254254" id="svg_1418"/>
    <path d="m225.15,399.14c0,0.16 0.13,0.29 0.29,0.29l2.85,0c0.16,0 0.29,-0.13 0.29,-0.29l0,-0.71c0,-0.16 -0.13,-0.29 -0.29,-0.29l-2.85,0c-0.16,0 -0.29,0.13 -0.29,0.29l0,0.71z" fill="#254254" id="svg_1419"/>
    <path d="m221.17,399.14c0,0.16 0.13,0.29 0.29,0.29l2.85,0c0.16,0 0.29,-0.13 0.29,-0.29l0,-0.71c0,-0.16 -0.13,-0.29 -0.29,-0.29l-2.85,0c-0.16,0 -0.29,0.13 -0.29,0.29l0,0.71z" fill="#254254" id="svg_1420"/>
   </g>
   <g id="svg_1421">
    <path d="m205.08,399.14c0,0.16 0.13,0.29 0.29,0.29l2.85,0c0.16,0 0.29,-0.13 0.29,-0.29l0,-0.71c0,-0.16 -0.13,-0.29 -0.29,-0.29l-2.85,0c-0.16,0 -0.29,0.13 -0.29,0.29l0,0.71z" fill="#254254" id="svg_1422"/>
    <path d="m201.1,399.14c0,0.16 0.13,0.29 0.29,0.29l2.85,0c0.16,0 0.29,-0.13 0.29,-0.29l0,-0.71c0,-0.16 -0.13,-0.29 -0.29,-0.29l-2.85,0c-0.16,0 -0.29,0.13 -0.29,0.29l0,0.71z" fill="#254254" id="svg_1423"/>
    <path d="m197.13,399.14c0,0.16 0.12,0.29 0.28,0.29l2.85,0c0.16,0 0.29,-0.13 0.29,-0.29l0,-0.71c0,-0.16 -0.13,-0.29 -0.29,-0.29l-2.85,0c-0.16,0 -0.28,0.13 -0.28,0.29l0,0.71z" fill="#254254" id="svg_1424"/>
    <path d="m193.15,399.14c0,0.16 0.12,0.29 0.28,0.29l2.86,0c0.15,0 0.28,-0.13 0.28,-0.29l0,-0.71c0,-0.16 -0.13,-0.29 -0.28,-0.29l-2.86,0c-0.16,0 -0.28,0.13 -0.28,0.29l0,0.71z" fill="#254254" id="svg_1425"/>
    <path d="m189.17,399.14c0,0.16 0.13,0.29 0.29,0.29l2.85,0c0.16,0 0.29,-0.13 0.29,-0.29l0,-0.71c0,-0.16 -0.13,-0.29 -0.29,-0.29l-2.85,0c-0.16,0 -0.29,0.13 -0.29,0.29l0,0.71z" fill="#254254" id="svg_1426"/>
    <path d="m185.19,399.14c0,0.16 0.13,0.29 0.29,0.29l2.85,0c0.16,0 0.29,-0.13 0.29,-0.29l0,-0.71c0,-0.16 -0.13,-0.29 -0.29,-0.29l-2.85,0c-0.16,0 -0.29,0.13 -0.29,0.29l0,0.71z" fill="#254254" id="svg_1427"/>
   </g>
   <g id="svg_1428">
    <path d="m169.1,399.14c0,0.16 0.13,0.29 0.29,0.29l2.85,0c0.16,0 0.29,-0.13 0.29,-0.29l0,-0.71c0,-0.16 -0.13,-0.29 -0.29,-0.29l-2.85,0c-0.16,0 -0.29,0.13 -0.29,0.29l0,0.71z" fill="#254254" id="svg_1429"/>
    <path d="m165.12,399.14c0,0.16 0.13,0.29 0.29,0.29l2.85,0c0.16,0 0.29,-0.13 0.29,-0.29l0,-0.71c0,-0.16 -0.13,-0.29 -0.29,-0.29l-2.85,0c-0.16,0 -0.29,0.13 -0.29,0.29l0,0.71z" fill="#254254" id="svg_1430"/>
    <path d="m161.15,399.14c0,0.16 0.12,0.29 0.28,0.29l2.85,0c0.16,0 0.29,-0.13 0.29,-0.29l0,-0.71c0,-0.16 -0.13,-0.29 -0.29,-0.29l-2.85,0c-0.16,0 -0.28,0.13 -0.28,0.29l0,0.71z" fill="#254254" id="svg_1431"/>
    <path d="m157.17,399.14c0,0.16 0.12,0.29 0.28,0.29l2.86,0c0.15,0 0.28,-0.13 0.28,-0.29l0,-0.71c0,-0.16 -0.13,-0.29 -0.28,-0.29l-2.86,0c-0.16,0 -0.28,0.13 -0.28,0.29l0,0.71z" fill="#254254" id="svg_1432"/>
    <path d="m153.19,399.14c0,0.16 0.13,0.29 0.28,0.29l2.86,0c0.16,0 0.28,-0.13 0.28,-0.29l0,-0.71c0,-0.16 -0.12,-0.29 -0.28,-0.29l-2.86,0c-0.15,0 -0.28,0.13 -0.28,0.29l0,0.71z" fill="#254254" id="svg_1433"/>
    <path d="m149.21,399.14c0,0.16 0.13,0.29 0.29,0.29l2.85,0c0.16,0 0.29,-0.13 0.29,-0.29l0,-0.71c0,-0.16 -0.13,-0.29 -0.29,-0.29l-2.85,0c-0.16,0 -0.29,0.13 -0.29,0.29l0,0.71z" fill="#254254" id="svg_1434"/>
   </g>
   <g id="svg_1435">
    <path d="m202.18,402.72c0,0.16 0.13,0.28 0.28,0.28l2.86,0c0.16,0 0.28,-0.12 0.28,-0.28l0,-0.72c0,-0.15 -0.12,-0.28 -0.28,-0.28l-2.86,0c-0.15,0 -0.28,0.13 -0.28,0.28l0,0.72z" fill="#162D38" id="svg_1436"/>
    <path d="m198.2,402.72c0,0.16 0.13,0.28 0.29,0.28l2.85,0c0.16,0 0.29,-0.12 0.29,-0.28l0,-0.72c0,-0.15 -0.13,-0.28 -0.29,-0.28l-2.85,0c-0.16,0 -0.29,0.13 -0.29,0.28l0,0.72z" fill="#162D38" id="svg_1437"/>
    <path d="m194.22,402.72c0,0.16 0.13,0.28 0.29,0.28l2.85,0c0.16,0 0.29,-0.12 0.29,-0.28l0,-0.72c0,-0.15 -0.13,-0.28 -0.29,-0.28l-2.85,0c-0.16,0 -0.29,0.13 -0.29,0.28l0,0.72z" fill="#162D38" id="svg_1438"/>
    <path d="m190.25,402.72c0,0.16 0.12,0.28 0.28,0.28l2.85,0c0.16,0 0.29,-0.12 0.29,-0.28l0,-0.72c0,-0.15 -0.13,-0.28 -0.29,-0.28l-2.85,0c-0.16,0 -0.28,0.13 -0.28,0.28l0,0.72z" fill="#162D38" id="svg_1439"/>
    <path d="m186.27,402.72c0,0.16 0.12,0.28 0.28,0.28l2.86,0c0.16,0 0.28,-0.12 0.28,-0.28l0,-0.72c0,-0.15 -0.12,-0.28 -0.28,-0.28l-2.86,0c-0.15,0 -0.28,0.13 -0.28,0.28l0,0.72z" fill="#162D38" id="svg_1440"/>
    <path d="m182.29,402.72c0,0.16 0.13,0.28 0.28,0.28l2.86,0c0.16,0 0.28,-0.12 0.28,-0.28l0,-0.72c0,-0.15 -0.12,-0.28 -0.28,-0.28l-2.86,0c-0.15,0 -0.28,0.13 -0.28,0.28l0,0.72z" fill="#162D38" id="svg_1441"/>
   </g>
   <g id="svg_1442">
    <path d="m172.42,402.72c0,0.16 0.13,0.28 0.28,0.28l2.86,0c0.16,0 0.28,-0.12 0.28,-0.28l0,-0.72c0,-0.15 -0.12,-0.28 -0.28,-0.28l-2.86,0c-0.15,0 -0.28,0.13 -0.28,0.28l0,0.72z" fill="#162D38" id="svg_1443"/>
    <path d="m168.44,402.72c0,0.16 0.13,0.28 0.29,0.28l2.85,0c0.16,0 0.29,-0.12 0.29,-0.28l0,-0.72c0,-0.15 -0.13,-0.28 -0.29,-0.28l-2.85,0c-0.16,0 -0.29,0.13 -0.29,0.28l0,0.72z" fill="#162D38" id="svg_1444"/>
    <path d="m164.46,402.72c0,0.16 0.13,0.28 0.29,0.28l2.85,0c0.16,0 0.29,-0.12 0.29,-0.28l0,-0.72c0,-0.15 -0.13,-0.28 -0.29,-0.28l-2.85,0c-0.16,0 -0.29,0.13 -0.29,0.28l0,0.72z" fill="#162D38" id="svg_1445"/>
    <path d="m160.48,402.72c0,0.16 0.13,0.28 0.29,0.28l2.86,0c0.15,0 0.28,-0.12 0.28,-0.28l0,-0.72c0,-0.15 -0.13,-0.28 -0.28,-0.28l-2.86,0c-0.16,0 -0.29,0.13 -0.29,0.28l0,0.72z" fill="#162D38" id="svg_1446"/>
    <path d="m156.51,402.72c0,0.16 0.12,0.28 0.28,0.28l2.86,0c0.15,0 0.28,-0.12 0.28,-0.28l0,-0.72c0,-0.15 -0.13,-0.28 -0.28,-0.28l-2.86,0c-0.16,0 -0.28,0.13 -0.28,0.28l0,0.72z" fill="#162D38" id="svg_1447"/>
    <path d="m152.53,402.72c0,0.16 0.13,0.28 0.28,0.28l2.86,0c0.16,0 0.28,-0.12 0.28,-0.28l0,-0.72c0,-0.15 -0.12,-0.28 -0.28,-0.28l-2.86,0c-0.15,0 -0.28,0.13 -0.28,0.28l0,0.72z" fill="#162D38" id="svg_1448"/>
   </g>
   <g id="svg_1449">
    <path d="m142.66,402.72c0,0.16 0.12,0.28 0.28,0.28l2.86,0c0.16,0 0.28,-0.12 0.28,-0.28l0,-0.72c0,-0.15 -0.12,-0.28 -0.28,-0.28l-2.86,0c-0.15,0 -0.28,0.13 -0.28,0.28l0,0.72z" fill="#162D38" id="svg_1450"/>
    <path d="m138.68,402.72c0,0.16 0.13,0.28 0.28,0.28l2.86,0c0.16,0 0.28,-0.12 0.28,-0.28l0,-0.72c0,-0.15 -0.12,-0.28 -0.28,-0.28l-2.86,0c-0.15,0 -0.28,0.13 -0.28,0.28l0,0.72z" fill="#162D38" id="svg_1451"/>
    <path d="m134.7,402.72c0,0.16 0.13,0.28 0.29,0.28l2.85,0c0.16,0 0.29,-0.12 0.29,-0.28l0,-0.72c0,-0.15 -0.13,-0.28 -0.29,-0.28l-2.85,0c-0.16,0 -0.29,0.13 -0.29,0.28l0,0.72z" fill="#162D38" id="svg_1452"/>
    <path d="m130.72,402.72c0,0.16 0.13,0.28 0.29,0.28l2.85,0c0.16,0 0.29,-0.12 0.29,-0.28l0,-0.72c0,-0.15 -0.13,-0.28 -0.29,-0.28l-2.85,0c-0.16,0 -0.29,0.13 -0.29,0.28l0,0.72z" fill="#162D38" id="svg_1453"/>
    <path d="m126.75,402.72c0,0.16 0.12,0.28 0.28,0.28l2.85,0c0.16,0 0.29,-0.12 0.29,-0.28l0,-0.72c0,-0.15 -0.13,-0.28 -0.29,-0.28l-2.85,0c-0.16,0 -0.29,0.13 -0.29,0.28l0,0.72l0.01,0z" fill="#162D38" id="svg_1454"/>
    <path d="m122.77,402.72c0,0.16 0.12,0.28 0.28,0.28l2.86,0c0.15,0 0.28,-0.12 0.28,-0.28l0,-0.72c0,-0.15 -0.13,-0.28 -0.28,-0.28l-2.86,0c-0.16,0 -0.28,0.13 -0.28,0.28l0,0.72z" fill="#162D38" id="svg_1455"/>
   </g>
   <path d="m264.64,410.3l-169.07,0c-4.74,0 -29.17,-2.28 -46.67,-5.74c4.99,6.39 52.4,11.41 58.93,11.41l154.57,0c5.94,0 10.91,-4.15 12.17,-9.71c-2.49,2.48 -6.01,4.04 -9.93,4.04z" fill="#254254" id="svg_1456"/>
   <g id="svg_1457">
    <path d="m114.35,402.72c0,0.16 0.12,0.28 0.28,0.28l2.86,0c0.15,0 0.28,-0.12 0.28,-0.28l0,-0.72c0,-0.15 -0.13,-0.28 -0.28,-0.28l-2.86,0c-0.16,0 -0.28,0.13 -0.28,0.28l0,0.72z" fill="#162D38" id="svg_1458"/>
    <path d="m110.37,402.72c0,0.16 0.13,0.28 0.28,0.28l2.86,0c0.16,0 0.28,-0.12 0.28,-0.28l0,-0.72c0,-0.15 -0.12,-0.28 -0.28,-0.28l-2.86,0c-0.15,0 -0.28,0.13 -0.28,0.28l0,0.72z" fill="#162D38" id="svg_1459"/>
    <path d="m106.39,402.72c0,0.16 0.13,0.28 0.29,0.28l2.85,0c0.16,0 0.29,-0.12 0.29,-0.28l0,-0.72c0,-0.15 -0.13,-0.28 -0.29,-0.28l-2.85,0c-0.16,0 -0.29,0.13 -0.29,0.28l0,0.72z" fill="#162D38" id="svg_1460"/>
    <path d="m102.41,402.72c0,0.16 0.13,0.28 0.29,0.28l2.85,0c0.16,0 0.29,-0.12 0.29,-0.28l0,-0.72c0,-0.15 -0.13,-0.28 -0.29,-0.28l-2.85,0c-0.16,0 -0.29,0.13 -0.29,0.28l0,0.72z" fill="#162D38" id="svg_1461"/>
    <path d="m98.44,402.72c0,0.16 0.12,0.28 0.28,0.28l2.86,0c0.15,0 0.28,-0.12 0.28,-0.28l0,-0.72c0,-0.15 -0.13,-0.28 -0.28,-0.28l-2.86,0c-0.16,0 -0.28,0.13 -0.28,0.28l0,0.72z" fill="#162D38" id="svg_1462"/>
    <path d="m94.46,402.72c0,0.16 0.12,0.28 0.28,0.28l2.86,0c0.15,0 0.28,-0.12 0.28,-0.28l0,-0.72c0,-0.15 -0.13,-0.28 -0.28,-0.28l-2.86,0c-0.16,0 -0.28,0.13 -0.28,0.28l0,0.72z" fill="#162D38" id="svg_1463"/>
   </g>
   <g id="svg_1464">
    <path d="m85.15,402.72c0,0.16 0.13,0.28 0.28,0.28l2.86,0c0.16,0 0.28,-0.12 0.28,-0.28l0,-0.72c0,-0.15 -0.13,-0.28 -0.28,-0.28l-2.86,0c-0.16,0 -0.28,0.13 -0.28,0.28l0,0.72z" fill="#162D38" id="svg_1465"/>
    <path d="m81.17,402.72c0,0.16 0.13,0.28 0.28,0.28l2.86,0c0.16,0 0.28,-0.12 0.28,-0.28l0,-0.72c0,-0.15 -0.12,-0.28 -0.28,-0.28l-2.86,0c-0.15,0 -0.28,0.13 -0.28,0.28l0,0.72z" fill="#162D38" id="svg_1466"/>
    <path d="m77.19,402.72c0,0.16 0.13,0.28 0.29,0.28l2.85,0c0.16,0 0.29,-0.12 0.29,-0.28l0,-0.72c0,-0.15 -0.13,-0.28 -0.29,-0.28l-2.85,0c-0.16,0 -0.29,0.13 -0.29,0.28l0,0.72z" fill="#162D38" id="svg_1467"/>
    <path d="m73.21,402.72c0,0.16 0.13,0.28 0.29,0.28l2.85,0c0.16,0 0.29,-0.12 0.29,-0.28l0,-0.72c0,-0.15 -0.13,-0.28 -0.29,-0.28l-2.85,0c-0.16,0 -0.29,0.13 -0.29,0.28l0,0.72z" fill="#162D38" id="svg_1468"/>
    <path d="m69.23,402.72c0,0.16 0.13,0.28 0.29,0.28l2.86,0c0.15,0 0.28,-0.12 0.28,-0.28l0,-0.72c0,-0.15 -0.13,-0.28 -0.28,-0.28l-2.86,0c-0.16,0 -0.29,0.13 -0.29,0.28l0,0.72z" fill="#162D38" id="svg_1469"/>
    <path d="m65.26,402.72c0,0.16 0.13,0.28 0.28,0.28l2.86,0c0.16,0 0.28,-0.12 0.28,-0.28l0,-0.72c0,-0.15 -0.13,-0.28 -0.28,-0.28l-2.86,0c-0.16,0 -0.28,0.13 -0.28,0.28l0,0.72z" fill="#162D38" id="svg_1470"/>
   </g>
   <path d="m60.1,402.08l-17.67,0c-0.89,0 -7.02,0.73 -7.02,1.62c0,0.9 6.13,1.62 7.02,1.62l17.67,0l0,-3.24z" fill="#008096" id="svg_1471"/>
   <path d="m112.61,392.05c0,0.23 -0.18,0.42 -0.42,0.42l-5.36,0c-0.23,0 -0.42,-0.19 -0.42,-0.42l0,-0.22c0,-0.23 0.19,-0.42 0.42,-0.42l5.36,0c0.24,0 0.42,0.19 0.42,0.42l0,0.22z" fill="#E4355C" id="svg_1472"/>
   <path d="m106.06,392.08c0,0.23 -0.19,0.42 -0.43,0.42l-1.55,0c-0.23,0 -0.42,-0.19 -0.42,-0.42l0,-0.21c0,-0.24 0.19,-0.42 0.42,-0.42l1.55,0c0.24,0 0.43,0.19 0.43,0.42l0,0.21z" fill="#E4355C" id="svg_1473"/>
   <path d="m174.94,392.05c0,0.23 -0.18,0.42 -0.42,0.42l-5.36,0c-0.23,0 -0.42,-0.19 -0.42,-0.42l0,-0.22c0,-0.23 0.19,-0.42 0.42,-0.42l5.36,0c0.24,0 0.42,0.19 0.42,0.42l0,0.22z" fill="#E4355C" id="svg_1474"/>
   <path d="m168.38,392.08c0,0.23 -0.18,0.42 -0.42,0.42l-1.55,0c-0.23,0 -0.42,-0.19 -0.42,-0.42l0,-0.21c0,-0.24 0.19,-0.42 0.42,-0.42l1.55,0c0.24,0 0.42,0.19 0.42,0.42l0,0.21z" fill="#E4355C" id="svg_1475"/>
   <path d="m184.63,392.05c0,0.23 -0.19,0.42 -0.42,0.42l-5.36,0c-0.24,0 -0.42,-0.19 -0.42,-0.42l0,-0.22c0,-0.23 0.19,-0.42 0.42,-0.42l5.36,0c0.23,0 0.42,0.19 0.42,0.42l0,0.22z" fill="#E4355C" id="svg_1476"/>
   <path d="m178.07,392.08c0,0.23 -0.19,0.42 -0.42,0.42l-1.55,0c-0.24,0 -0.42,-0.19 -0.42,-0.42l0,-0.21c0,-0.24 0.19,-0.42 0.42,-0.42l1.55,0c0.23,0 0.42,0.19 0.42,0.42l0,0.21z" fill="#E4355C" id="svg_1477"/>
   <path d="m194.32,392.05c0,0.23 -0.19,0.42 -0.42,0.42l-5.37,0c-0.23,0 -0.42,-0.19 -0.42,-0.42l0,-0.22c0,-0.23 0.19,-0.42 0.42,-0.42l5.37,0c0.23,0 0.42,0.19 0.42,0.42l0,0.22z" fill="#E4355C" id="svg_1478"/>
   <path d="m187.76,392.08c0,0.23 -0.19,0.42 -0.42,0.42l-1.56,0c-0.23,0 -0.42,-0.19 -0.42,-0.42l0,-0.21c0,-0.24 0.19,-0.42 0.42,-0.42l1.56,0c0.23,0 0.42,0.19 0.42,0.42l0,0.21z" fill="#E4355C" id="svg_1479"/>
   <path d="m204,392.05c0,0.23 -0.18,0.42 -0.42,0.42l-5.36,0c-0.23,0 -0.42,-0.19 -0.42,-0.42l0,-0.22c0,-0.23 0.19,-0.42 0.42,-0.42l5.36,0c0.24,0 0.42,0.19 0.42,0.42l0,0.22z" fill="#E4355C" id="svg_1480"/>
   <path d="m197.44,392.08c0,0.23 -0.18,0.42 -0.42,0.42l-1.55,0c-0.23,0 -0.42,-0.19 -0.42,-0.42l0,-0.21c0,-0.24 0.19,-0.42 0.42,-0.42l1.55,0c0.24,0 0.42,0.19 0.42,0.42l0,0.21z" fill="#E4355C" id="svg_1481"/>
  </g>
 </g>
</svg>
